<?xml version="1.0" standalone="no"?>
<svg width="100%" height="100%" viewBox="0 0 190 190" version="1.1" xmlns="http://www.w3.org/2000/svg" xmlns:xlink="http://www.w3.org/1999/xlink" xml:space="preserve" style="enable-background:new 0 0 190 190;">
  <circle cx="74.1" cy="71.3" r="3.2" style="fill:none;stroke-width:2px;stroke:currentColor;"/>
  <path d="M74.1,68.2L74.1,59.3" style="fill:none;stroke-width:2px;stroke:currentColor;"/>
  <circle cx="115.9" cy="71.3" r="3.2" style="fill:none;stroke-width:2px;stroke:currentColor;"/>
  <path d="M115.8,68.2L115.8,59.3" style="fill:none;stroke-width:2px;stroke:currentColor;"/>
  <path d="M53.2,131.7L53.2,70.4C53.2,65.9 56.9,62.2 61.4,62.2L128.6,62.2C133.1,62.2 136.8,65.9 136.8,70.4L136.8,131.7" style="fill:none;stroke-width:2px;stroke:currentColor;"/>
  <path d="M67.5,96.9L69.3,98.7L72.8,95.2" style="fill:none;stroke-width:2px;stroke:currentColor;"/>
  <path d="M77.5,96.9L79.3,98.7L82.7,95.2" style="fill:none;stroke-width:2px;stroke:currentColor;"/>
  <path d="M87.4,96.9L89.2,98.7L92.7,95.2" style="fill:none;stroke-width:2px;stroke:currentColor;"/>
  <path d="M97.3,96.9L99.1,98.7L102.6,95.2" style="fill:none;stroke-width:2px;stroke:currentColor;"/>
  <path d="M107.3,96.9L109.1,98.7L112.5,95.2" style="fill:none;stroke-width:2px;stroke:currentColor;"/>
  <path d="M117.2,96.9L119,98.7L122.5,95.2" style="fill:none;stroke-width:2px;stroke:currentColor;"/>
</svg>
