<?xml version="1.0" encoding="utf-8"?>
<!-- Generator: Adobe Illustrator 19.2.1, SVG Export Plug-In . SVG Version: 6.00 Build 0)  -->
<svg version="1.1" id="Calque_1" xmlns="http://www.w3.org/2000/svg" xmlns:xlink="http://www.w3.org/1999/xlink" x="0px" y="0px"
	 viewBox="0 0 190 190" style="enable-background:new 0 0 190 190;" xml:space="preserve">
  <line class="st0" x1="113.6" y1="106.9" x2="149.4" y2="106.9" style="fill-rule:evenodd;clip-rule:evenodd;fill:none;stroke:currentColor;stroke-width:2;stroke-linecap:round;stroke-linejoin:round;stroke-miterlimit:10;"/>
  <line class="st0" x1="113.6" y1="95.8" x2="149.4" y2="95.8" style="fill-rule:evenodd;clip-rule:evenodd;fill:none;stroke:currentColor;stroke-width:2;stroke-linecap:round;stroke-linejoin:round;stroke-miterlimit:10;"/>
  <line class="st0" x1="113.6" y1="84.8" x2="149.4" y2="84.8" style="fill-rule:evenodd;clip-rule:evenodd;fill:none;stroke:currentColor;stroke-width:2;stroke-linecap:round;stroke-linejoin:round;stroke-miterlimit:10;"/>
  <line class="st0" x1="113.6" y1="73.8" x2="131.5" y2="73.8" style="fill-rule:evenodd;clip-rule:evenodd;fill:none;stroke:currentColor;stroke-width:2;stroke-linecap:round;stroke-linejoin:round;stroke-miterlimit:10;"/>
  <path class="st0" d="M132.3,140.5v-7.1c0,0-0.5-4.8-18.3-10.4c-17.9-5.6-18-15.7-18-15.7v-5c0,0,4.6-5.8,5.8-11.9
  	c0.6-3.2,1.8-3.9,2.4-4.5c1.5-1.5,1.6-2.6,1.6-3.8c0-1.2-0.2-2.2-1.5-3.8l0-14.4c0,0,0.2-14.4-17.7-14.5l0,0c0,0-0.1,0-0.1,0
  	c0,0-0.1,0-0.1,0l0,0C68.4,49.6,68.7,64,68.7,64l0,14.4c-1.3,1.6-1.5,2.6-1.5,3.8c0,1.2,0.1,2.3,1.6,3.8c0.6,0.6,1.8,1.3,2.4,4.5
  	c1.2,6,5.8,11.9,5.8,11.9v5c0,0-0.1,10.1-18,15.7c-17.9,5.6-18.3,10.4-18.3,10.4v7.1" style="fill-rule:evenodd;clip-rule:evenodd;fill:none;stroke:currentColor;stroke-width:2;stroke-linecap:round;stroke-linejoin:round;stroke-miterlimit:10;"/>
</svg>
