<svg width="270" height="270" xmlns="http://www.w3.org/2000/svg"><defs><style>.a{fill:#9ab9db;}.b{fill:#2f67a6;}.c,.g{fill:none;}.c,.d,.e,.f,.g{stroke:#263149;stroke-miterlimit:10;stroke-width:3px;}.d{fill:#fed9b7;}.e{fill:#734741;}.f{fill:#2cbaa4;}.g{stroke-linecap:round;}.h{fill:#ce4d75;}.i{fill:#ce6b8a;opacity:0.25;}.j{fill:#263149;}</style></defs><title>-avatar-level-</title><title>background</title><path fill="none" id="canvas_background" d="M-1-1h582v402H-1z"/><g><title>Layer 1</title><path id="svg_1" d="M166.92 173.85c-2-.94-4.92-1.92-6.92-2.86v6.88l6.92-4.02z" class="a"/><path id="svg_2" d="M160 187.36l15.37-9a72.9 72.9 0 0 0-8.47-4.53l-6.9 4V187.36z" class="b"/><path id="svg_3" d="M160 177.89l6.87-4-6.88 4h.01z" class="b"/><path id="svg_4" d="M160 187.37v9.47l16-9.47V179a1.51 1.51 0 0 0-.69-.64L160 187.37z" class="a"/><path id="svg_5" class="a" d="M160 187.37l15.38-8.97-.03-.01.04-.01-15.39 8.97v.02z"/><path id="svg_6" d="M184.62 192.38c-.95-6.12-4.62-10.28-8.62-13.38v8.34l8.62 5.04z" class="b"/><path id="svg_7" class="b" d="M160 206.32l16-9.46v-9.47l-16 9.47v9.46z"/><path id="svg_8" class="b" d="M176 187.39v-.02l-16 9.47v.02l16-9.47z"/><path id="svg_9" class="a" d="M160 215.81l16-9.47v-9.46l-16 9.46v9.47z"/><path id="svg_10" class="a" d="M160 206.34l16-9.46v-.02l-16 9.46v.02z"/><path id="svg_11" d="M176 196.86l9 5.14v-6.61a19.46 19.46 0 0 0-.3-3l-8.7-5v9.47z" class="a"/><path id="svg_12" d="M176 187.39l8.7 5-8.66-5H176z" class="a"/><path id="svg_13" class="b" d="M176 206.34l9 5.14v-9.46l-9-5.14v9.46z"/><path id="svg_14" class="b" d="M176 196.88l9 5.14V202l-9-5.14v.02z"/><path id="svg_15" class="b" d="M160 225.29l16-9.47v-9.46l-16 9.46v9.47z"/><path id="svg_16" class="b" d="M160 215.82l16-9.46v-.02l-16 9.47v.01z"/><path id="svg_17" class="a" d="M160 234.77l16-9.46v-9.47l-16 9.47v9.46z"/><path id="svg_18" class="a" d="M160 225.31l16-9.47v-.02l-16 9.47v.02z"/><path id="svg_19" class="a" d="M176 215.82l9 5.15v-9.47l-9-5.14v9.46z"/><path id="svg_20" class="a" d="M176 206.36l9 5.14v-.02l-9-5.14v.02z"/><path id="svg_21" d="M176 225.31l7.11 4.08c.61-.23 1.29-.46 1.89-.7V221l-9-5.14v9.47-.02z" class="b"/><path id="svg_22" class="b" d="M176 215.84l9 5.14v-.01l-9-5.15v.02z"/><path id="svg_23" d="M160 234.79v1a142.22 142.22 0 0 0 16-4v-6.52l-16 9.52z" class="b"/><path id="svg_24" class="b" d="M176 225.31l-16 9.46v.02l16-9.46v-.02z"/><path id="svg_25" d="M176 231.84a52.06 52.06 0 0 0 7-2.44l-7-4.07v6.52-.01z" class="a"/><path id="svg_26" d="M176 225.33l7.09 4.07-7.09-4.09v.02z" class="a"/><path id="svg_27" d="M129.94 166.68c-1 .1-1.94.22-2.94.35v1.36l2.94-1.71z" class="b"/><path id="svg_28" d="M144 168.41v-1.51a69.32 69.32 0 0 0-7.8-.51c-1.93 0-4.09.1-6 .28l-3.2 1.74v9.47l17-9.47z" class="a"/><path id="svg_29" d="M127 168.41l3.12-1.73H130l-3 1.71v.02z" class="a"/><path id="svg_30" d="M160 171a76.78 76.78 0 0 0-16-4.09v1.51l16 9.47V171z" class="b"/><path id="svg_31" class="b" d="M144 168.42l-17 9.47v9.46l17-9.46v-9.47z"/><path id="svg_32" class="b" d="M144 168.42v-.01l-17 9.46v.02l17-9.47z"/><path id="svg_33" class="a" d="M144 187.37v-9.46l-17 9.46v9.47l17-9.47z"/><path id="svg_34" class="a" d="M144 177.89l-17 9.46v.02l17-9.46v-.02z"/><path id="svg_35" class="a" d="M160 187.35v-9.46l-16-9.47v9.47l16 9.46z"/><path id="svg_36" class="a" d="M160 177.89v-.02l-16-9.46v.01l16 9.47z"/><path id="svg_37" class="b" d="M144 187.37l16 9.47v-9.47l-16-9.46v9.46z"/><path id="svg_38" class="b" d="M144 177.89v.02l16 9.46v-.02l-16-9.46z"/><path id="svg_39" class="b" d="M127 206.32l17-9.46v-9.47l-17 9.47v9.46z"/><path id="svg_40" class="b" d="M127 196.86l17-9.47v-.02l-17 9.47v.02z"/><path id="svg_41" class="a" d="M144 196.88l-17 9.46v9.47l17-9.47v-9.46z"/><path id="svg_42" class="a" d="M144 196.86l-17 9.46v.02l17-9.46v-.02z"/><path id="svg_43" class="a" d="M160 206.32v-9.46l-16-9.47v9.47l16 9.46z"/><path id="svg_44" class="a" d="M144 187.39l16 9.47v-.02l-16-9.47v.02z"/><path id="svg_45" class="b" d="M144 206.34l16 9.47v-9.47l-16-9.46v9.46z"/><path id="svg_46" class="b" d="M144 196.88l16 9.46v-.02l-16-9.46v.02z"/><path id="svg_47" class="b" d="M144 206.36l-17 9.46v9.47l17-9.47v-9.46z"/><path id="svg_48" class="b" d="M127 215.81v.01l17-9.46v-.02l-17 9.47z"/><path id="svg_49" class="a" d="M127 225.31v9.46l17-9.46v-9.47l-17 9.47z"/><path id="svg_50" class="a" d="M144 215.82l-17 9.47v.02l17-9.47v-.02z"/><path id="svg_51" class="a" d="M144 215.82l16 9.47v-9.47l-16-9.46v9.46z"/><path id="svg_52" class="a" d="M144 206.36l16 9.46v-.01l-16-9.47v.02z"/><path id="svg_53" class="b" d="M144 215.84v9.47l16 9.46v-9.46l-16-9.47z"/><path id="svg_54" class="b" d="M144 215.84l16 9.47v-.02l-16-9.47v.02z"/><path id="svg_55" d="M127 234.79v2.93c3 .17 5.73.26 8.54.26h2.74l5.72-3.16v-9.47l-17 9.44z" class="b"/><path id="svg_56" class="b" d="M127 234.77v.02l17-9.46v-.02l-17 9.46z"/><path id="svg_57" d="M138.59 238c1.81 0 3.41-.1 5.41-.21v-2.94l-5.41 3.15z" class="a"/><path id="svg_58" d="M144 234.79l-5.86 3.21 5.83-3.19.03-.02z" class="a"/><path id="svg_59" d="M160 234.79l-16-9.47v9.47l4.37 2.63c4-.36 7.63-.89 11.63-1.59v-1.04z" class="a"/><path id="svg_60" class="a" d="M144 225.31v.02l16 9.46v-.02l-16-9.46z"/><path id="svg_61" d="M144 237.75c1-.09 3-.19 4.49-.33l-4.49-2.61v2.94z" class="b"/><path id="svg_62" d="M144 234.79l4.28 2.61h.13l-4.41-2.61z" class="b"/><path id="svg_63" d="M127.29 167l-1.84.28 1.84 1.07V167z" class="a"/><path id="svg_64" d="M127 177.87v-9.47l-1.72-1.09a83.92 83.92 0 0 0-11.52 2.81l13.24 7.75z" class="b"/><path id="svg_65" d="M127.29 168.41l-1.84-1.07 1.84 1.07z" class="b"/><path id="svg_66" d="M111 177.89v-6.75a109.14 109.14 0 0 0-15.62 7.25.77.77 0 0 0-.38.39v8.58l16-9.47z" class="b"/><path id="svg_67" class="a" d="M111 177.91l-16 9.46v9.47l16-9.47v-9.46z"/><path id="svg_68" class="a" d="M111 177.89l-16 9.46v.02l16-9.46v-.02z"/><path id="svg_69" d="M127 177.89l-13.19-7.75c-1 .32-1.81.66-2.81 1v6.75l16 9.47v-9.47z" class="a"/><path id="svg_70" d="M127 177.89l-13.17-7.74h-.09l13.26 7.74z" class="a"/><path id="svg_71" class="b" d="M127 187.37l-16-9.46v9.46l16 9.47v-9.47z"/><path id="svg_72" class="b" d="M127 187.37v-.02l-16-9.46v.02l16 9.46z"/><path id="svg_73" class="b" d="M111 187.39l-16 9.47v9.46l16-9.46v-9.47z"/><path id="svg_74" class="b" d="M111 187.37l-16 9.47v.02l16-9.47v-.02z"/><path id="svg_75" class="a" d="M111 196.88l-16 9.46v9.47l16-9.47v-9.46z"/><path id="svg_76" class="a" d="M111 196.86l-16 9.46v.02l16-9.46v-.02z"/><path id="svg_77" class="a" d="M127 196.86l-16-9.47v9.47l16 9.46v-9.46z"/><path id="svg_78" class="a" d="M127 196.84l-16-9.47v.02l16 9.47v-.02z"/><path id="svg_79" class="b" d="M127 206.34l-16-9.46v9.46l16 9.47v-9.47z"/><path id="svg_80" class="b" d="M127 206.32l-16-9.46v.02l16 9.46v-.02z"/><path id="svg_81" class="b" d="M111 206.36l-16 9.46v9.47l16-9.47v-9.46z"/><path id="svg_82" class="b" d="M111 206.34l-16 9.47v.01l16-9.46v-.02z"/><path id="svg_83" d="M111 225.31v-9.47l-16 9.47v6.41c1 .36 2.14.71 3.31 1l12.69-7.41z" class="a"/><path id="svg_84" class="a" d="M95 225.29v.02l16-9.47v-.02l-16 9.47z"/><path id="svg_85" class="a" d="M111 206.36v9.46l16 9.47v-9.47l-16-9.46z"/><path id="svg_86" class="a" d="M127 215.81l-16-9.47v.02l16 9.46v-.01z"/><path id="svg_87" class="b" d="M127 225.31l-16-9.47v9.47l16 9.46v-9.46z"/><path id="svg_88" class="b" d="M127 225.29l-16-9.47v.02l16 9.47v-.02z"/><path id="svg_89" d="M98.18 232.78c3.75 1.08 7.61 2 11.55 2.76l1.27-.74v-9.47l-12.82 7.45z" class="b"/><path id="svg_90" d="M98.16 232.77l12.84-7.44-12.84 7.44z" class="b"/><path id="svg_91" d="M109.75 235.54l1.25.23v-1l-1.25.77z" class="a"/><path id="svg_92" d="M111 234.79l-1.27.74 1.25-.72.02-.02z" class="a"/><path id="svg_93" d="M127 234.79l-16-9.47v9.47l2.23 1.38c4.57.74 9.77 1.26 13.77 1.55v-2.93z" class="a"/><path id="svg_94" class="a" d="M111 225.31v.02l16 9.46v-.02l-16-9.46z"/><path id="svg_95" d="M111 235.76c1 .14 1.55.28 2.33.4l-2.33-1.35v1-.05z" class="b"/><path id="svg_96" d="M111 234.79l2.33 1.36-2.33-1.36z" class="b"/><path id="svg_97" d="M95 178.78a33.62 33.62 0 0 0-5.67 5.28l5.67 3.3v-8.58z" class="a"/><path id="svg_98" d="M95 187.37l-5.83-3.3a17.78 17.78 0 0 0-3.53 7.37l9.36 5.4v-9.47z" class="b"/><path id="svg_99" d="M95 187.36l-5.82-3.3h.06l5.76 3.3z" class="b"/><path id="svg_100" d="M95 196.86l-9.43-5.4a18.15 18.15 0 0 0-.57 3.93v5.29l10 5.64v-9.47.01z" class="a"/><path id="svg_101" d="M95 196.84l-9.43-5.39h.07l9.36 5.4v-.01z" class="a"/><path id="svg_102" class="b" d="M95 206.34l-10-5.64v9.47l10 5.64v-9.47z"/><path id="svg_103" class="b" d="M95 206.32l-10-5.64v.02l10 5.64v-.02z"/><path id="svg_104" class="a" d="M95 215.82l-10-5.64v9.47l10 5.64v-9.47z"/><path id="svg_105" class="a" d="M95 215.81l-10-5.64v.01l10 5.64v-.01z"/><path id="svg_106" d="M85 219.67v8.47a70.26 70.26 0 0 0 10 3.58v-6.41l-10-5.64z" class="b"/><path id="svg_107" class="b" d="M95 225.29l-10-5.64v.02l10 5.64v-.02z"/><path id="svg_108" d="M174.48 178.58s-18.66-12-39.49-12c-21.17 0-40.51 12-40.51 12-5.67 4-10 9.19-10 17v32.81a136.12 136.12 0 0 0 50.52 9.78 133.4 133.4 0 0 0 49.47-9.35v-33.24c.03-8.3-5.2-13.43-9.99-17z" class="c"/><path id="svg_109" d="M133.6 154.58h2.53c4.19 0 7.59 2.69 7.59 6v6.66l7.09 1.43c0 3.31-15.94 31.91-15.94 31.91s-16.67-28.44-16.67-31.75l7.81-1.57v-6.68c-.01-3.31 3.4-6 7.59-6z" class="d"/><path id="svg_110" class="e" d="M191.38 162.53l-7.73 4.91-4.55-11.83-48.48-48.91h51.75l.39 46.62 8.62 9.21z"/><path id="svg_111" d="M177.237 154.49l5.425-3.395a2.12 2.12 0 0 1 2.922.67 2.12 2.12 0 0 1-.672 2.923l-5.425 3.397a2.12 2.12 0 0 1-2.92-.672 2.13 2.13 0 0 1 .674-2.936l-.003.014z" class="f"/><path id="svg_112" class="e" d="M78.62 162.53l7.73 4.91 4.55-11.83 48.48-48.91H87.63l-.39 46.62-8.62 9.21z"/><rect id="svg_113" transform="rotate(-147.95 82.24 332.78)" ry="2.12" rx="2.12" height="4.25" width="10.65" y="485.23" x="165.83" class="f"/><path id="svg_114" d="M89.58 108.76c-5.52 0-10-4.1-10-9.16s4.47-9.16 10-9.16" class="d"/><path id="svg_115" d="M180.54 90.44c5.52 0 10 4.1 10 9.16s-4.47 9.16-10 9.16" class="d"/><path id="svg_116" d="M134.79 51.67c-26 0-46.89 20-46.89 20l-.3 36c.8 27 28 55 47.48 55s46.48-28 47.48-55l-1-36s-21.26-20-46.77-20z" class="d"/><path id="svg_117" d="M135.06 31.83c59.73 0 47.22 70.77 47.22 70.77l-47.42-42.16-47.28 42.16s-12.25-70.77 47.48-70.77z" class="e"/><path id="svg_118" d="M130.62 122.71a11.72 11.72 0 0 0 8.48 0" class="g"/><path id="svg_119" d="M123.61 133.72c8.15.84 16.31-3.95 21.68 1.42-5.15 2.92-12 11.86-21.68-1.42z" class="h"/><circle id="svg_120" transform="rotate(-45 -54.69 109)" r="8.38" cy="229.52" cx="49.54" class="i"/><circle id="svg_121" transform="rotate(-45 -36.73 152.37)" r="8.38" cy="272.89" cx="128.84" class="i"/><circle id="svg_122" r="2.92" cy="102.17" cx="152.7" class="j"/><circle id="svg_123" r="2.92" cy="102.17" cx="118.09" class="j"/><path id="svg_124" d="M150.32 94.62a7.93 7.93 0 0 1 8.68 2.7" class="g"/><path id="svg_125" d="M120.44 94.62a7.93 7.93 0 0 0-8.64 2.69" class="g"/><path id="svg_126" d="M170.41 233.51v-31" class="c"/><path id="svg_127" d="M99.54 233.4v-30.9" class="c"/></g></svg>