<svg xmlns="http://www.w3.org/2000/svg" viewBox="0 0 270 270"><defs><style>.a{fill:#734741;}.a,.b,.c,.d,.e{stroke:#263149;}.a,.b,.c,.d,.e,.g,.h{stroke-miterlimit:10;}.a,.b,.c,.d,.e,.h{stroke-width:3px;}.b{fill:#ffd9d9;}.c,.e,.g,.h{fill:none;}.d{fill:#fed9b7;}.e,.g,.h{stroke-linecap:round;}.f{fill:#ce4d75;}.g{stroke:#e5a1a1;stroke-width:1.5px;}.h{stroke:#4c172d;}.i{fill:#263149;}</style></defs><title>-avatar-level-</title><rect class="a" x="87.23" y="87.08" width="94.96" height="105.89"/><path class="b" d="M174.75,183.08s-18.53-16-39.36-16c-21.17,0-40.71,16-40.71,16-5.67,4-10.19,9.19-10.19,17v29a136.74,136.74,0,0,0,50,9.57,132.84,132.84,0,0,0,50-9.57v-29C184.5,191.78,179.53,186.65,174.75,183.08Z"/><line class="c" x1="134.71" y1="185.25" x2="134.71" y2="238.67"/><path class="d" d="M133.6,155.08h2.53c4.19,0,7.59,2.69,7.59,6v6.66l7.09,2.43-15.94,40.91L118.2,170.33l7.81-2.57v-6.68C126,157.77,129.41,155.08,133.6,155.08Z"/><path class="d" d="M89,109.26c-5.52,0-10-4.1-10-9.16s4.47-9.16,10-9.16"/><path class="d" d="M181,90.94c5.52,0,10,4.1,10,9.16s-4.47,9.16-10,9.16"/><path class="d" d="M134.53,52.08c-26,0-46.89,20-46.89,20l-0.3,36c0.8,27,28,55,47.48,55s46.48-28,47.48-55l-1-36S160,52.08,134.53,52.08Z"/><path class="e" d="M130.46,123.21a11.72,11.72,0,0,0,8.48,0"/><path class="f" d="M124.89,137.41c3.77-2.7,6.78-1.71,9.8-1.71s6-1,9.83,1.71a11.58,11.58,0,0,1-9.81,5.58A11.45,11.45,0,0,1,124.89,137.41Z"/><path class="a" d="M134.9,31.33c59.73,0,47,57.61,47,57.61H87.42S75.17,31.33,134.9,31.33Z"/><path class="b" d="M119.42,169.08l5.17,16.86-12,10.14V172.3Z"/><path class="b" d="M157.25,172.3v23.78l-12.56-10.14,5.73-16.86Z"/><line class="c" x1="134.71" y1="210.22" x2="134.71" y2="192.7"/><path class="g" d="M138.55,106.13c0,6.37,7.06,13.43,13.43,13.43s17.11-6.36,17.11-19C157.46,92,138.55,99.76,138.55,106.13Z"/><path class="g" d="M131,106.13c0,6.37-7.06,13.43-13.43,13.43s-17.11-6.36-17.11-19C112.06,92,131,99.76,131,106.13Z"/><path class="g" d="M130.65,106a4,4,0,0,1,8,0"/><path class="h" d="M138.76,106c5.17-8.52,21-13.93,33.24-4.89"/><path class="h" d="M97.52,101.13c12.27-9,28.07-3.63,33.24,4.89"/><path class="c" d="M171,233.58V203"/><path class="c" d="M100.13,234.21V203"/><circle class="i" cx="151.4" cy="106.67" r="2.92"/><circle class="i" cx="116.79" cy="106.67" r="2.92"/></svg>