<svg xmlns="http://www.w3.org/2000/svg" viewBox="0 0 270 270"><defs><style>.a{fill:#2cbaa4;}.b{fill:#55d8bf;}.c{fill:#268e7a;}.d{fill:#68ead1;}.e{fill:#e63168;}.f,.j{fill:none;}.f,.g,.h,.i,.j{stroke:#263149;stroke-miterlimit:10;stroke-width:3px;}.g{fill:#fed9b7;}.h{fill:#734741;}.i{fill:#4278c6;}.j{stroke-linecap:round;}.k{fill:#ce4d75;}.l{fill:#ce6b8a;opacity:0.25;}</style></defs><title>-avatar-level-</title><path class="a" d="M174.46 178.54s-18.43-12-39.25-12c-21.18 0-40.87 12-40.87 12-5.67 4-10.35 9.19-10.35 17v32.75c15 6.35 32.76 9.84 50.68 9.84a133.52 133.52 0 0 0 49.33-9.29v-33.3c0-8.3-4.76-13.43-9.54-17z"/><path class="b" d="M159.58 193.32l14.14 14.14a1 1 0 0 0 1.41-1.41L161 191.91a1 1 0 0 0-1.42 1.41zM181 207.68a1 1 0 0 0 1.41 0l2.58-2.58v-2.83l-4 4a1 1 0 0 0 .01 1.41zM159.72 186.39a1 1 0 0 0 1.41 0l10-10c-.57-.3-1.19-.62-1.87-1l-9.54 9.61a1 1 0 0 0 0 1.39z"/><path class="c" d="M175.4 184.65c1.11-1 1.25-1.7 2.75-1.7s1.64.66 2.75 1.7a2.38 2.38 0 0 0 .21-.23 28.88 28.88 0 0 0-5.26-5.14c-1.28 1.72-1.9 4.09-.45 5.37zM173.55 192c-1-1.11-1.7-1.25-1.7-2.75s.66-1.64 1.7-2.75c-1.93-2.19-6.3.33-7.38 2.75 1.08 2.43 5.45 4.94 7.38 2.75zM178.15 201.24c2.42-1.08 4.94-5.46 2.75-7.38-1.11 1-1.25 1.7-2.75 1.7s-1.64-.66-2.75-1.7c-2.19 1.92.33 6.3 2.75 7.38zM182.75 192a2.54 2.54 0 0 0 2 .83 17.66 17.66 0 0 0-.55-2.42 8.75 8.75 0 0 1-1.45 1.59zM161.25 208.5c1 1 1.61.5 1.69 2.5h5.56c-1.26-3-5.39-4.61-7.25-2.5z"/><path class="d" d="M178.15 190.6a1.37 1.37 0 0 0 1.35-1.35 1.37 1.37 0 0 0-.4-1 1.4 1.4 0 0 0-1.91 0 1.36 1.36 0 0 0-.39 1 1.35 1.35 0 0 0 1.35 1.35zM179.5 210.69a2.61 2.61 0 0 0 0-.39 1.75 1.75 0 0 0-.07-.31 2.13 2.13 0 0 0-.13-.26 1 1 0 0 0-.17-.23 1.65 1.65 0 0 0-.2-.18 1.67 1.67 0 0 0-.23-.12l-.26-.08a1.5 1.5 0 0 0-.52 0l-.26.08a1.62 1.62 0 0 0-.23.12l-.21.17a1.15 1.15 0 0 0-.16.21 1.72 1.72 0 0 0-.13.23 1.17 1.17 0 0 0-.07.25 4.61 4.61 0 0 0 0 .52v.31h2.69c-.06-1.01-.05-.3-.05-.32z"/><path class="e" d="M157.43 188a1.24 1.24 0 0 1 .42.27 1.31 1.31 0 0 0-.42-.27zM157.85 188.23a1.37 1.37 0 0 1 .4 1 1.33 1.33 0 0 0-.4-1zM157.36 190.45h.09zM157.4 187.95a1.39 1.39 0 0 0-.5-.1 1.43 1.43 0 0 1 .5.1z"/><path class="c" d="M159.52 206.15c2.12-1.87-.52-6-2.52-7.26v5.57c1 .07 1.47.71 2.52 1.69zM159.5 172.36c-1 1-1.5 1.61-2.5 1.69v5.56c2-1.26 4.62-5.39 2.5-7.25z"/><path class="d" d="M158.15 210.5h.1-.1M156.9 210.5h1.25-1.25M157.78 209.61a1.56 1.56 0 0 1 .16.2 1.33 1.33 0 0 1 .11.21 1 1 0 0 1 .07.23 1.14 1.14 0 0 1 0 .25h.1a1.37 1.37 0 0 0-.4-1 1.34 1.34 0 0 0-1-.37v.1a1.24 1.24 0 0 1 .96.38z"/><path class="d" d="M158.12 210.25a1 1 0 0 0-.12-.25 1.33 1.33 0 0 0-.11-.21 1.56 1.56 0 0 0-.16-.2 1.24 1.24 0 0 0-.88-.34v1.23h1.25a1.14 1.14 0 0 0 .02-.23zM157.85 190.14a1.29 1.29 0 0 1-.4.27 1.12 1.12 0 0 0 .4-.27zM157.4 187.95zM157.36 190.45a1.33 1.33 0 0 1-.46.09 1.31 1.31 0 0 0 .46-.09z"/><path class="d" d="M157 191a1.88 1.88 0 0 0 .44-.32v-.13-.07a1.56 1.56 0 0 0 .7-.76 1.48 1.48 0 0 0 .1-.52 1.38 1.38 0 0 0-.4-1 1.25 1.25 0 0 0-.42-.27 2.48 2.48 0 0 0-.45-.09V191z"/><path class="b" d="M159.58 234.41a1 1 0 0 0 0 1.41l.36.36 2.38-.45-1.32-1.32a1 1 0 0 0-1.42 0zM175.27 213.33a1 1 0 0 0-1.41 0l-14.14 14.14a1 1 0 1 0 1.41 1.41l14.14-14.14a1 1 0 0 0 0-1.41zM180.83 213.16a1 1 0 0 0 0 1.41l4.17 4.17v-2.83l-2.76-2.76a1 1 0 0 0-1.41.01z"/><path class="c" d="M178.15 219.77c-2.42 1.08-4.94 5.45-2.75 7.38 1.11-1 1.25-1.7 2.75-1.7s1.64.66 2.75 1.7c2.19-1.93-.33-6.3-2.75-7.38zM173.55 229c-1.93-2.19-6.3.33-7.38 2.75a6.48 6.48 0 0 0 2.4 2.57q1.91-.47 3.78-1a2.15 2.15 0 0 1-.51-1.57c0-1.49.66-1.64 1.71-2.75zM182.75 229c.25.26.47.47.67.65L185 229v-.87a2.61 2.61 0 0 0-2.25.87z"/><path class="d" d="M179.1 230.79a1.52 1.52 0 0 0-.2-.16 1.7 1.7 0 0 0-.23-.13 1.26 1.26 0 0 0-.26-.07 1.14 1.14 0 0 0-.52 0 1.11 1.11 0 0 0-.26.07 1.67 1.67 0 0 0-.23.13l-.21.16-.19.21a1.72 1.72 0 0 0-.13.23 1.77 1.77 0 0 0-.1.52 1.32 1.32 0 0 0 0 .22c.84-.27 1.68-.54 2.51-.83a1.25 1.25 0 0 0-.08-.14 1.54 1.54 0 0 0-.1-.21z"/><path class="e" d="M158.15 232.21a1.32 1.32 0 0 1-.3.44 1.29 1.29 0 0 0 .3-.44z"/><path class="c" d="M159.5 214.86c-1 1-1.5 1.61-2.5 1.69v5.56c2-1.26 4.62-5.39 2.5-7.25z"/><path class="d" d="M158.15 232.2a1.26 1.26 0 0 0 .1-.51 1.33 1.33 0 0 1-.1.51zM157.85 230.73l-.2-.17a1.65 1.65 0 0 0-.23-.12l-.26-.08a1.28 1.28 0 0 0-.26 0 1.34 1.34 0 0 1 .95.37z"/><path class="d" d="M157.85 230.73a1.37 1.37 0 0 1 .4 1 1.33 1.33 0 0 0-.4-1z"/><path class="d" d="M157 233a1.23 1.23 0 0 0 .92-.38 1.25 1.25 0 0 0 .29-.43 1.3 1.3 0 0 0 .1-.51 1.32 1.32 0 0 0-.35-1 2.22 2.22 0 0 0-.9-.37V233z"/><path class="c" d="M163 211c0 1-.66 1.52-1.7 2.62 1.93 2.19 6.3-.14 7.38-2.56a.11.11 0 0 0-.13-.07H163z"/><path class="d" d="M176.9 211.2a1 1 0 0 0 .29.32 1.29 1.29 0 0 0 1 .34 1.34 1.34 0 0 0 .95-.43.67.67 0 0 0 .3-.21 1 1 0 0 1 .09-.22h-2.69a1.3 1.3 0 0 1 .06.2zM157.78 211.38a1.22 1.22 0 0 1-.88.37v.1a1.55 1.55 0 0 0 .52-.1 1.5 1.5 0 0 0 .73-.73 1.55 1.55 0 0 0 .1-.52h-.1a1.22 1.22 0 0 1-.37.88z"/><path class="d" d="M156.9 211.75a1.26 1.26 0 0 0 1.25-1.25h-1.25v1.25z"/><rect class="e" x="156.9" y="187.85" height=".01"/><path class="a" d="M156.9 187.86a1.33 1.33 0 0 0-.26 0l-.26.08a1.62 1.62 0 0 0-.23.12l-.21.17a1.37 1.37 0 0 1 .96-.37zM155.65 189.7a1.32 1.32 0 0 0 .29.44 1.46 1.46 0 0 1-.29-.44z"/><path class="b" d="M131.93 207.75a1 1 0 0 0 .71-1.71L118.5 191.9a1 1 0 0 0-1.41 1.41l14.14 14.14a1 1 0 0 0 .7.3zM152.65 192.12l-14.15 14.14a1 1 0 1 0 1.41 1.41l14.15-14.14a1 1 0 0 0-1.41-1.41z"/><path class="c" d="M138.4 193.86c-1.11 1-1.25 1.7-2.75 1.7s-1.64-.66-2.75-1.7c-2.19 1.93.33 6.3 2.75 7.38 2.42-1.08 4.94-5.46 2.75-7.38zM118.75 208.5c1 1 1.61.5 1.69 2.5H126c-1.26-3-5.39-4.61-7.25-2.5zM156.72 198.77c-2.42 1.08-5 5.45-2.77 7.38 1.11-1 1.29-1.7 2.78-1.7h.27v-5.57a.84.84 0 0 0-.28-.11zM152.55 208.5c-1.86-2.12-6-.5-7.25 2.5h5.56c.07-2 .71-1.46 1.69-2.5zM156.7 174.06c-1.5 0-1.67-.66-2.77-1.7-2.19 1.93.36 6.3 2.78 7.38a.78.78 0 0 0 .29-.13V174z"/><path class="d" d="M155.65 210.5h-.1.1"/><rect class="d" x="156.9" y="209.17" height=".1"/><path class="d" d="M156.9 210.5v-1.23 1.23h-1.25 1.25"/><path class="d" d="M155.67 210.25a1 1 0 0 1 .08-.23 1.33 1.33 0 0 1 .11-.21 1.52 1.52 0 0 1 .16-.2 1.24 1.24 0 0 1 .88-.34v-.1a1.31 1.31 0 0 0-1.35 1.33h.1a2.25 2.25 0 0 1 .02-.25z"/><path class="d" d="M156.9 210.5v-1.23a1.24 1.24 0 0 0-.88.34 1.52 1.52 0 0 0-.16.2 1.33 1.33 0 0 0-.11.21 1 1 0 0 0-.08.23 2.25 2.25 0 0 0 0 .25h1.25zM137 210.69a2.61 2.61 0 0 0 0-.39 1.75 1.75 0 0 0-.07-.31 2.13 2.13 0 0 0-.13-.26 1 1 0 0 0-.17-.23 1.65 1.65 0 0 0-.2-.18 1.67 1.67 0 0 0-.23-.12l-.26-.08a1.36 1.36 0 0 0-1.21.37.87.87 0 0 0-.17.21 1.72 1.72 0 0 0-.13.23 1.17 1.17 0 0 0-.07.25 4.61 4.61 0 0 0 0 .52v.31H137v-.32zM155.65 189.7a1.35 1.35 0 0 1-.1-.51 1.25 1.25 0 0 0 .1.51z"/><path class="d" d="M156 188.23a1.76 1.76 0 0 0-.42 1.11 1.64 1.64 0 0 0 .09.66 1 1 0 0 1 .29.29 1.26 1.26 0 0 0 .49.22 1.74 1.74 0 0 0 .57 0v-2.68a2.54 2.54 0 0 0-1.02.4z"/><path class="c" d="M116.52 206.15c2.12-1.87.48-6-2.52-7.26v5.57c2 .07 1.47.71 2.52 1.69zM116.5 172.36c-1 1-.5 1.61-2.5 1.69v5.56c3-1.26 4.62-5.39 2.5-7.25z"/><path class="d" d="M115.65 210.5h.1-.1M114.4 210.5h1.25-1.25M114.88 209.34a1.42 1.42 0 0 1 .21.12 1 1 0 0 1 .19.15 1.26 1.26 0 0 1 .37.89h.1a1.09 1.09 0 0 0 0-.26 1.11 1.11 0 0 0-.07-.26 1.72 1.72 0 0 0-.13-.23 1.54 1.54 0 0 0-.17-.21 1.52 1.52 0 0 0-.2-.16 1.7 1.7 0 0 0-.23-.13l-.26-.08a1.37 1.37 0 0 0-.26 0v.12a1.27 1.27 0 0 1 .24 0z"/><path class="d" d="M114.4 210.5h1.25a1.26 1.26 0 0 0-.37-.89 1 1 0 0 0-.19-.15 1.42 1.42 0 0 0-.21-.12l-.24-.07a1.27 1.27 0 0 0-.24 0v1.23z"/><path class="a" d="M131 234.5c-1.93 2.19-6.3-.32-7.38-2.75 1.08-2.42 5.45-4.94 7.38-2.75-1 1.11-1.7 1.25-1.7 2.75s.7 1.64 1.7 2.75zm-12.41-5.61a1 1 0 0 1-1.41-1.41l14.14-14.14a1 1 0 0 1 1.41 1.41zm18.27 3.39a1.29 1.29 0 0 1-.3.43 1.33 1.33 0 0 1-1.9 0 1.29 1.29 0 0 1-.3-.43 1.37 1.37 0 0 1 .3-1.48 1.39 1.39 0 0 1 1.9 0 1.37 1.37 0 0 1 .34 1.47zm1.5-5.12c-1.11-1-1.25-1.7-2.75-1.7s-1.64.66-2.75 1.7c-2.19-1.93.33-6.3 2.75-7.38 2.46 1.07 4.98 5.44 2.79 7.37zm1.86 7.35c1-1.11 1.7-1.25 1.7-2.75s-.66-1.64-1.7-2.75c1.93-2.19 6.3.33 7.38 2.75-1.05 2.42-5.42 4.93-7.35 2.74zm13.63-5.79a1 1 0 0 1-1.41 0l-14.14-14.14a1 1 0 0 1 1.41-1.41l14.14 14.14a1 1 0 0 1 .03 1.4zM155.65 232.2a1.32 1.32 0 0 0 .29.44 1.46 1.46 0 0 1-.29-.44zM156.38 230.45z"/><path class="b" d="M117.08 234.41a1 1 0 0 0 0 1.41l1.45 1.45q1.59.2 3.19.36l-3.22-3.22a1 1 0 0 0-1.42 0zM154.06 234.62a1 1 0 0 0-1.41 0l-3 3q1.6-.16 3.19-.36l1.22-1.22a1 1 0 0 0 0-1.42zM132.77 213.33a1 1 0 0 0-1.41 0l-14.14 14.14a1 1 0 1 0 1.41 1.41l14.14-14.14a1 1 0 0 0 0-1.41zM139.74 213.16a1 1 0 0 0-1.41 1.41l14.14 14.14a1 1 0 0 0 1.41-1.41z"/><path class="c" d="M135.65 219.77c-2.42 1.08-4.94 5.45-2.75 7.38 1.11-1 1.25-1.7 2.75-1.7s1.64.66 2.75 1.7c2.19-1.93-.33-6.3-2.75-7.38zM131 229c-1.93-2.19-6.3.33-7.38 2.75 1.08 2.42 5.45 4.94 7.38 2.75-1-1.11-1.7-1.25-1.7-2.75s.7-1.64 1.7-2.75zM138.4 236.36c-1.11 1-1.25 1.7-2.75 1.7s-1.64-.66-2.75-1.7a2.52 2.52 0 0 0-.83 1.93h7.16a2.52 2.52 0 0 0-.83-1.93zM140.25 229c1 1.11 1.7 1.25 1.7 2.75s-.66 1.64-1.7 2.75c1.93 2.19 6.3-.32 7.38-2.75-1.08-2.42-5.45-4.94-7.38-2.75zM156.7 216.56c-1.5 0-1.67-.66-2.77-1.7-2.19 1.93.36 6.3 2.78 7.38a.78.78 0 0 0 .29-.13v-5.56z"/><path class="d" d="M134.7 230.79a1.37 1.37 0 0 0-.3 1.48 1.29 1.29 0 0 0 .3.43 1.33 1.33 0 0 0 1.9 0 1.29 1.29 0 0 0 .3-.43 1.37 1.37 0 0 0-.3-1.48 1.39 1.39 0 0 0-1.9 0z"/><rect class="d" x="156.89" y="230.35" width=".01" transform="rotate(-63.43 156.92 230.36)"/><path class="d" d="M155.65 232.2a1.35 1.35 0 0 1-.1-.51 1.25 1.25 0 0 0 .1.51zM156.9 230.36a1.35 1.35 0 0 0-.52.11 1.45 1.45 0 0 1 .52-.11zM155.94 230.73a1.28 1.28 0 0 1 .44-.28 1.41 1.41 0 0 0-.44.28z"/><path class="d" d="M156.43 230.45a1.34 1.34 0 0 0-.45.28 1.14 1.14 0 0 0-.4.86.54.54 0 0 0 .1.41 5 5 0 0 1 .34.54 3.44 3.44 0 0 0 1 .5v-2.68a3 3 0 0 0-.59.09z"/><path class="c" d="M116.5 214.86c-1 1-.5 1.61-2.5 1.69v5.56c3-1.26 4.62-5.39 2.5-7.25z"/><path class="d" d="M114.92 232.91a1.1 1.1 0 0 0 .43-.28 1.3 1.3 0 0 0 .3-.43 1.24 1.24 0 0 0 .1-.51 1.58 1.58 0 0 0-.6-1c-.25-.25-.15-.37-1.15-.37V233h.2a2.48 2.48 0 0 0 .72-.09z"/><path class="c" d="M120.46 211c0 1-.66 1.52-1.7 2.62 1.93 2.19 6.3-.14 7.38-2.56a.11.11 0 0 0-.14-.06h-5.54zM145.16 211c1.08 2.42 5.46 4.81 7.38 2.62-1-1.11-1.7-1.07-1.7-2.56V211h-5.54s-.1-.08-.14 0z"/><rect class="d" x="156.9" y="211.75" height=".1"/><path class="d" d="M156 211.38a1.22 1.22 0 0 1-.37-.88h-.1a1.34 1.34 0 0 0 .39.95 1.44 1.44 0 0 0 .44.3 1.55 1.55 0 0 0 .52.1v-.1a1.22 1.22 0 0 1-.88-.37z"/><rect class="d" x="156.9" y="210.5" height="1.25"/><path class="d" d="M155.65 210.5a1.26 1.26 0 0 0 1.25 1.25v-1.25h-1.25zM134.7 211.64a.9.9 0 0 0 .43.17 1.29 1.29 0 0 0 .52 0 1.18 1.18 0 0 0 .95-.18 2.26 2.26 0 0 0 .4-.63h-2.68a2.28 2.28 0 0 0 .38.64zM115.28 211.38a1 1 0 0 1-.19.16l-.21.11a1.09 1.09 0 0 1-.24.07 1 1 0 0 1-.24 0v.1a1.55 1.55 0 0 0 .52-.1 1.29 1.29 0 0 0 .43-.3 1.31 1.31 0 0 0 .4-.95h-.1a1.22 1.22 0 0 1-.37.91z"/><path class="d" d="M114.64 211.72a1.09 1.09 0 0 0 .24-.07l.21-.11a1 1 0 0 0 .19-.16 1.22 1.22 0 0 0 .37-.88h-1.25v1.25a1 1 0 0 0 .24-.03z"/><path class="b" d="M89.43 207.75a1 1 0 0 0 .71-1.71L85 200.91v2.83l3.72 3.72a1 1 0 0 0 .71.29zM96 207.68a1 1 0 0 0 1.41 0l14.15-14.14a1 1 0 0 0-1.41-1.41L96 206.26a1 1 0 0 0 0 1.42zM110.68 186.5a1 1 0 0 0 .71-1.71l-9.57-9.57-1.9.92L110 186.21a1 1 0 0 0 .68.29z"/><path class="c" d="M93.15 182.95c1.5 0 1.64.66 2.75 1.7 1.59-1.4.7-4.08-.84-5.86a30.66 30.66 0 0 0-5.37 4.74 2.37 2.37 0 0 0 .71 1.12c1.11-1.04 1.25-1.7 2.75-1.7zM88.55 192c-1-1.11-1.7-1.25-1.7-2.75s.66-1.64 1.7-2.75a2.37 2.37 0 0 0-.7-.54 17.45 17.45 0 0 0-2.58 6.66 3 3 0 0 0 3.28-.62zM93.15 201.24c2.42-1.08 4.94-5.46 2.75-7.38-1.11 1-1.25 1.7-2.75 1.7s-1.64-.66-2.75-1.7c-2.19 1.92.33 6.3 2.75 7.38zM97.75 192c1.93 2.19 6.3-.32 7.38-2.75-1.08-2.42-5.46-4.94-7.38-2.75 1 1.11 1.7 1.25 1.7 2.75s-.66 1.64-1.7 2.75zM114 198.77c-2.42 1.08-4.84 5.45-2.65 7.38 1.11-1 1.1-1.7 2.6-1.7h.08v-5.57s-.03-.08-.03-.11zM110 208.5c-1.86-2.12-6-.5-7.25 2.5h5.56c.12-2 .76-1.46 1.69-2.5zM114 174.06c-1.5 0-1.54-.66-2.65-1.7-2.19 1.93.17 6.3 2.6 7.38a.14.14 0 0 0 .1-.13V174l-.05.06z"/><path class="d" d="M92.2 190.2a1.31 1.31 0 0 0 1 .4 1.34 1.34 0 0 0 .52-.1 1.45 1.45 0 0 0 .44-.3 1.42 1.42 0 0 0 .29-.43 1.34 1.34 0 0 0 .1-.52 1.24 1.24 0 0 0 0-.27 1.17 1.17 0 0 0-.07-.25 1.72 1.72 0 0 0-.13-.23l-.16-.21a1.37 1.37 0 0 0-1.22-.36 1.25 1.25 0 0 0-.26.07 1.67 1.67 0 0 0-.23.13 1.22 1.22 0 0 0-.37.37 1.72 1.72 0 0 0-.13.23 1.17 1.17 0 0 0-.07.25 1.27 1.27 0 0 0 0 .27 1.33 1.33 0 0 0 .1.52 1.29 1.29 0 0 0 .19.43z"/><rect class="d" x="114.4" y="209.16" height=".12"/><path class="d" d="M113.15 210.5h-.1.1M114.4 210.5v-1.23 1.23h-1.25 1.25M113.52 209.61a1 1 0 0 1 .19-.15 1.4 1.4 0 0 1 .21-.12l.24-.07a1.27 1.27 0 0 1 .24 0v-.12a1.32 1.32 0 0 0-1.4 1.35h.1a1.26 1.26 0 0 1 .42-.89z"/><path class="d" d="M114.4 210.5v-1.23a1.27 1.27 0 0 0-.24 0l-.24.07a1.4 1.4 0 0 0-.21.12 1 1 0 0 0-.19.15 1.26 1.26 0 0 0-.37.89h1.25zM94.5 210.69a2.61 2.61 0 0 0 0-.39 1.75 1.75 0 0 0-.1-.3 2.13 2.13 0 0 0-.13-.26 1 1 0 0 0-.17-.23 1.4 1.4 0 0 0-1.91 0 2 2 0 0 0-.39 1.2v.3h2.68c.01-1.01.02-.3.02-.32z"/><path class="b" d="M111.56 234.62a1 1 0 0 0-1.41 0l-1.15 1.13 2.39.44.16-.16a1 1 0 0 0 .01-1.41zM90.27 213.33a1 1 0 0 0-1.41 0L85 217.19V220l5.27-5.27a1 1 0 0 0 0-1.4zM97.24 213.16a1 1 0 0 0-1.41 1.41L110 228.71a1 1 0 0 0 1.41-1.41z"/><path class="c" d="M93.15 219.77c-2.42 1.08-4.94 5.45-2.75 7.38 1.11-1 1.25-1.7 2.75-1.7s1.64.66 2.75 1.7c2.19-1.93-.33-6.3-2.75-7.38zM88.55 229a3.12 3.12 0 0 0-3.55-.54q1.42.6 2.87 1.17c.2-.15.43-.36.68-.63zM105.14 231.76c-1.08-2.42-5.46-4.94-7.38-2.75 1 1.11 1.7 1.25 1.7 2.75a2.14 2.14 0 0 1-.53 1.59c1.25.35 2.5.69 3.77 1a6.51 6.51 0 0 0 2.44-2.59zM114 216.56c-1.5 0-1.54-.66-2.65-1.7-2.19 1.93.17 6.3 2.6 7.38a.14.14 0 0 0 .1-.13v-5.56l-.05.01z"/><path class="d" d="M94.1 230.79a1.39 1.39 0 0 0-1.9 0 1.35 1.35 0 0 0-.24.36q1.24.43 2.5.84a1.31 1.31 0 0 0 0-.24 1.33 1.33 0 0 0-.36-.96zM113.25 230.73a1.25 1.25 0 0 0-.3 1 1.3 1.3 0 0 0 .15.51 1.4 1.4 0 0 0 .32.44.64.64 0 0 0 .24.29 2.63 2.63 0 0 0 .33.11v-2.69a1.93 1.93 0 0 0-.74.34z"/><path class="c" d="M102.66 211c1.08 2.42 5.46 4.81 7.38 2.62-1-1.11-1.7-1.07-1.7-2.56V211h-5.54s-.1-.08-.14 0z"/><path class="d" d="M114.4 211.75v.1-.1M114.16 211.72a1.08 1.08 0 0 1-.24-.07l-.21-.11a1 1 0 0 1-.19-.16 1.22 1.22 0 0 1-.37-.88H113a1.35 1.35 0 0 0 1.35 1.35v-.1a1 1 0 0 1-.19-.03z"/><rect class="d" x="114.4" y="210.5" height="1.25"/><path class="d" d="M113.15 210.5a1.22 1.22 0 0 0 .37.88 1 1 0 0 0 .19.16l.21.11a1.08 1.08 0 0 0 .24.07 1 1 0 0 0 .24 0v-1.22h-1.25zM91.9 211.2a1 1 0 0 0 .29.32 1.09 1.09 0 0 0 .44.23 1.31 1.31 0 0 0 .52.08 1.36 1.36 0 0 0 .52-.13.85.85 0 0 0 .43 0 2.27 2.27 0 0 0 .39-.65h-2.68a1.3 1.3 0 0 1 .09.15z"/><path class="f" d="M174.41 178.41s-18.71-12-39.52-12c-21.18 0-40.45 12-40.45 12-5.67 4-9.93 9.19-9.93 17v32.75c15 6.35 32.76 9.84 50.68 9.84a133.52 133.52 0 0 0 49.32-9.29v-33.3c-.01-8.3-5.32-13.41-10.1-17z"/><path class="g" d="M133.44 154.41H136c4.19 0 7.59 2.69 7.59 6v6.66l7.09 1.43c0 10.51 22.11 31.91-15.94 31.91S118 179 118 168.66l7.81-1.57v-6.68c.05-3.31 3.44-6 7.63-6z"/><path class="h" d="M172.5 199.15h-9l2.69-21.86-78.72-70.76h94.75l-13.03 71.76 3.31 20.86"/><rect class="i" x="163.76" y="176.21" width="8.05" height="4.93" rx="2.12" ry="2.12"/><path class="g" d="M89.43 108.59c-5.52 0-10-4.1-10-9.16s4.47-9.16 10-9.16M181.39 90.27c5.52 0 10 4.1 10 9.16s-4.47 9.16-10 9.16"/><path class="g" d="M134.73 51.41c-26 0-46.89 20-46.89 20l-.3 36c.8 27 28 55 47.48 55s46.48-28 47.48-55l-1-36s-21.27-20-46.77-20z"/><path class="h" d="M134.91 31.66c59.73 0 47.22 70.77 47.22 70.77l-75.21-30.52-19.49 30.52s-12.25-70.77 47.48-70.77z"/><path class="j" d="M130.47 122.54a11.72 11.72 0 0 0 8.48 0"/><path class="k" d="M125.1 136.75c7.55-5.39 12-5.33 19.63 0 0 0-4.14 4.87-9.73 5.12-3 .13-6.46-1.08-9.9-5.12z"/><circle class="l" cx="104.08" cy="120.36" r="8.38" transform="rotate(-45 104.084 120.357)"/><circle class="l" cx="165.41" cy="120.36" r="8.38" transform="rotate(-45 165.416 120.363)"/><path class="f" d="M134.71 200.41v-8.37"/><path class="j" d="M127.32 102.2a10.29 10.29 0 0 1-16.82 0M159.32 102.2a10.29 10.29 0 0 1-16.77.06"/><path class="f" d="M170.44 233.37v-31M99.56 233.28v-30.94"/></svg>