<svg xmlns="http://www.w3.org/2000/svg" viewBox="0 0 270 270"><defs><style>.a{fill:#add0f2;}.a,.b,.c,.d,.e,.f{stroke:#263149;stroke-miterlimit:10;stroke-width:3px;}.b,.d{fill:none;}.c,.f{fill:#fed9b7;}.d,.f{stroke-linecap:round;}.e{fill:#734741;}.g{fill:#263149;}</style></defs><title>-avatar-level-</title><path class="a" d="M174.75,191.6s-18.53-16-39.36-16c-21.17,0-40.71,16-40.71,16-5.67,4-10.19,9.19-10.19,17V238a136.74,136.74,0,0,0,50,9.57,132.84,132.84,0,0,0,50-9.57V208.6C184.5,200.3,179.53,195.17,174.75,191.6Z"/><line class="b" x1="135.45" y1="184.17" x2="135.45" y2="196.01"/><path class="b" d="M169.9,243V213.84"/><path class="b" d="M99,243V213.84"/><path class="c" d="M134.39,165h2a6,6,0,0,1,6,6v11c0,0.75-7,2.17-7,2.17s-7-1.38-7-2.17V171A6,6,0,0,1,134.39,165Z"/><path class="a" d="M128.46,175l6,8-11.83,10V178.23Z"/><path class="a" d="M148.29,178.23V193l-11.83-10,6-8Z"/><path class="c" d="M83.48,122c-7.27,0-13.17-5.4-13.17-12.07s5.89-12.07,13.17-12.07"/><path class="c" d="M186.52,97.87c7.27,0,13.17,5.4,13.17,12.07S193.79,122,186.52,122"/><path class="c" d="M134.71,24.76C91.14,24.76,83.81,64,83.81,64l-0.3,58c0.8,27,23.54,50,51.48,50s50.48-23,51.48-50l-1-58S179.8,24.76,134.71,24.76Z"/><path class="d" d="M113.32,112.24c0-8.45,14-8.45,14,0"/><path class="d" d="M144.2,112.24c0-8.45,14-8.45,14,0"/><path class="e" d="M171.92,62.45c-7.35-2.38-42.73-13-74.47-.44V76l-10,6v22h-4S67.21,78.9,83,48.56l-0.15-8.28C106.75,11.66,139.93,26,139.93,26l4.88-3.26s25.53,3.52,30.68,21.89ZM175.76,45c9.29,10.83,17,29.31,10.16,59.06h-4V82l-10-6V62.45Z"/><path class="d" d="M125.8,146.44s9.12,5.92,18.39,0"/><path class="e" d="M182.24,104L163,136.26l-28-5.42-28,5.42L87.77,104h-4v45.75L107.59,172h61.75l16.13-22.75L186.24,104h-4ZM156,157.26H114v-14l18-5h6l18,5v14Z"/><polyline class="f" points="143.45 128.49 134.91 133.7 126.37 128.49"/><circle class="g" cx="135.42" cy="200.48" r="2.03"/></svg>