<?xml version="1.0" encoding="utf-8"?>
<!-- Generator: Adobe Illustrator 19.2.1, SVG Export Plug-In . SVG Version: 6.00 Build 0)  -->
<svg version="1.1" xmlns="http://www.w3.org/2000/svg" xmlns:xlink="http://www.w3.org/1999/xlink" x="0px" y="0px"
	 viewBox="0 0 100 100" style="enable-background:new 0 0 100 100;" xml:space="preserve">
	<polyline style="fill:none;stroke:currentColor;stroke-linecap:round;stroke-linejoin:round;" points="45.5,59.1 33,59.1 33,37.5 58.2,37.5 58.2,42.5 	"/>
	<rect x="35.8" y="41.8" style="fill:none;stroke:currentColor;stroke-linecap:round;stroke-linejoin:round;" width="3.8" height="4.1"/>
	<rect x="43.7" y="41.8" style="fill:none;stroke:currentColor;stroke-linecap:round;stroke-linejoin:round;" width="3.8" height="4.1"/>
	<polyline style="fill:none;stroke:currentColor;stroke-linecap:round;stroke-linejoin:round;" points="51.6,44.9 51.6,41.8 55.3,41.8 55.3,43.4 	"/>
	<polyline style="fill:none;stroke:currentColor;stroke-linecap:round;stroke-linejoin:round;" points="43.7,59.1 43.7,50.3 46.5,50.3 	"/>
	<line style="fill:none;stroke:currentColor;stroke-linecap:round;stroke-linejoin:round;" x1="34.4" y1="34.9" x2="56.7" y2="34.9"/>
	<path style="fill:none;stroke:#F7941E;stroke-linecap:round;stroke-linejoin:round;" d="M58.2,65.4c-5.5,0-9.9-4.4-9.9-9.9s4.4-9.9,9.9-9.9S68,50,68,55.5c0,0,0,0,0,0"/>
	<polygon style="fill:none;stroke:#F7941E;stroke-linecap:round;stroke-linejoin:round;" points="63,53.7 58.2,50.3 53.4,53.7 	"/>
	<line style="fill:none;stroke:#F7941E;stroke-linecap:round;stroke-linejoin:round;" x1="53.7" y1="55.5" x2="53.7" y2="58.4"/>
	<line style="fill:none;stroke:#F7941E;stroke-linecap:round;stroke-linejoin:round;" x1="58.2" y1="55.5" x2="58.2" y2="58.4"/>
	<line style="fill:none;stroke:#F7941E;stroke-linecap:round;stroke-linejoin:round;" x1="62.7" y1="55.5" x2="62.7" y2="58.4"/>
	<line style="fill:none;stroke:#F7941E;stroke-linecap:round;stroke-linejoin:round;" x1="53.1" y1="60" x2="63.2" y2="60"/>
</svg>
