<?xml version="1.0" standalone="no"?>
<!DOCTYPE svg PUBLIC "-//W3C//DTD SVG 1.1//EN" "http://www.w3.org/Graphics/SVG/1.1/DTD/svg11.dtd">
<svg width="100%" height="100%" viewBox="0 0 107 33" version="1.1" xmlns="http://www.w3.org/2000/svg" xmlns:xlink="http://www.w3.org/1999/xlink" xml:space="preserve" style="fill-rule:evenodd;clip-rule:evenodd;stroke-linejoin:round;stroke-miterlimit:1.41421;">
    <g>
        <g transform="matrix(1.00571,-1.06433e-18,-1.07042e-18,1.00435,-47.0714,-83.9633)">
            <rect x="46.804" y="83.6" width="106.392" height="32.857" style="fill:rgb(23,23,23);"/>
        </g>
        <g transform="matrix(1,0,0,1,-46.8039,-83.6)">
            <path d="M63.771,105.764C63.75,104.559 63.459,104.309 62.877,104.559C61.786,105.016 60.602,106.543 57.755,106.543C53.838,106.543 50.43,102.72 50.43,97.566C50.43,92.776 53.838,88.932 57.755,88.932C60.581,88.932 61.62,90.647 62.472,90.647C63.126,90.647 63.345,90.48 63.313,89.774C63.313,89.504 63.698,89.535 63.698,89.774C63.573,91.374 63.552,92.849 63.698,94.657C63.719,95 63.334,95 63.334,94.657C63.334,91.976 61.09,89.317 57.744,89.317C53.609,89.317 53.048,94.491 53.048,97.566C53.048,100.974 53.609,106.148 57.713,106.148C61.121,106.148 63.376,103.759 63.76,100.558C63.812,100.247 64.145,100.268 64.124,100.558C64.03,102.304 64.03,103.894 64.124,105.753C64.165,106.024 63.802,106.024 63.771,105.764M72.363,106.314C71.999,106.314 71.999,105.878 72.363,105.951C72.851,106.003 73.236,105.972 73.641,105.93C73.932,105.909 73.932,105.837 73.932,105.712L73.932,98.751C73.932,97.421 73.444,97.005 72.695,97.005C70.763,97.026 70.015,98.699 69.184,99.758L69.184,105.66C69.184,105.805 69.256,105.899 69.454,105.93C69.911,105.982 70.254,105.982 70.638,105.93C71.023,105.878 71.002,106.314 70.638,106.314C68.965,106.263 67.449,106.263 65.724,106.314C65.36,106.314 65.36,105.878 65.724,105.93C66.181,105.982 66.545,105.982 66.96,105.93C67.23,105.909 67.23,105.837 67.23,105.712L67.23,90.158C67.23,89.919 67.158,89.743 66.846,89.722C66.534,89.701 66.264,89.701 65.952,89.722C65.495,89.743 65.495,89.306 65.952,89.337C66.441,89.358 66.898,89.389 67.334,89.358C67.75,89.337 68.373,89.161 68.81,88.797C69.153,88.506 69.194,88.454 69.194,88.818L69.194,99.021C69.194,99.166 69.215,99.073 69.288,98.969C70.108,97.784 71.22,96.579 73.111,96.6C75.605,96.621 75.864,97.878 75.864,99.312L75.864,105.65C75.864,105.795 75.937,105.888 76.134,105.92C76.592,105.972 77.049,105.972 77.464,105.92C77.828,105.868 77.807,106.304 77.464,106.304C75.792,106.273 74.098,106.273 72.363,106.314" style="fill:white;fill-rule:nonzero;"/>
        </g>
        <g transform="matrix(1,0,0,1,-46.8039,-83.6)">
            <path d="M84.155,101.483C84.155,101.358 84.083,101.317 83.771,101.338C82.639,101.41 80.654,101.701 80.654,103.759C80.654,105.037 80.872,105.982 82.348,105.982C83.22,105.982 83.989,104.891 84.166,104.652L84.155,101.483M86.233,106.553C85.122,106.553 84.374,105.972 84.197,105.13C84.197,105.078 84.145,105.078 84.124,105.13C83.667,105.93 82.722,106.553 81.464,106.553C79.646,106.553 78.566,105.681 78.566,104.112C78.566,101.816 81.807,101.036 83.719,100.995C84.083,100.995 84.155,100.943 84.155,100.849L84.155,98.117C84.155,97.275 83.719,96.86 82.992,96.86C81.953,96.86 80.748,97.099 80.748,97.826C80.748,98.356 81.527,97.847 81.527,98.886C81.527,99.416 81.039,99.779 80.436,99.852C79.854,99.925 79.376,99.322 79.418,98.574C79.49,97.535 81.09,96.538 83.116,96.496C84.789,96.475 86.119,97.483 86.119,99.083L86.119,105.037C86.119,105.494 86.192,106.024 86.826,106.024C87.137,106.024 87.407,105.951 87.553,105.733C87.771,105.442 88.041,105.681 87.792,105.951C87.397,106.273 86.94,106.553 86.233,106.553L86.233,106.553ZM88.27,106.346C87.885,106.346 87.885,105.909 88.27,105.961C88.727,106.013 89.07,106.013 89.506,105.961C89.776,105.94 89.776,105.868 89.776,105.743L89.776,90.117C89.776,89.878 89.683,89.701 89.361,89.68C89.018,89.66 88.779,89.66 88.446,89.68C88.01,89.701 88.01,89.265 88.446,89.296C88.956,89.317 89.413,89.348 89.828,89.317C90.244,89.296 90.867,89.119 91.304,88.756C91.667,88.465 91.719,88.413 91.719,88.683L91.719,105.681C91.719,105.826 91.813,105.92 91.989,105.951C92.447,106.003 92.81,106.003 93.195,105.951C93.579,105.899 93.558,106.335 93.195,106.335C91.511,106.294 89.984,106.294 88.27,106.346M94.151,106.346C93.766,106.346 93.766,105.909 94.151,105.961C94.608,106.013 94.951,106.013 95.387,105.961C95.657,105.94 95.657,105.868 95.657,105.743L95.657,90.117C95.657,89.878 95.564,89.701 95.241,89.68C94.899,89.66 94.66,89.66 94.327,89.68C93.891,89.701 93.891,89.265 94.327,89.296C94.836,89.317 95.293,89.348 95.709,89.317C96.125,89.296 96.748,89.119 97.184,88.756C97.548,88.465 97.6,88.413 97.6,88.683L97.6,105.681C97.6,105.826 97.693,105.92 97.87,105.951C98.327,106.003 98.691,106.003 99.075,105.951C99.46,105.899 99.439,106.335 99.075,106.335C97.392,106.294 95.865,106.294 94.151,106.346" style="fill:white;fill-rule:nonzero;"/>
        </g>
        <g transform="matrix(1,0,0,1,-46.8039,-83.6)">
            <path d="M106.504,99.956C106.504,98.501 106.307,96.787 104.572,96.839C102.951,96.891 102.462,98.512 102.462,99.956L102.462,100.413C102.462,100.507 102.483,100.61 102.608,100.61L106.213,100.61C106.431,100.61 106.504,100.371 106.504,100.299L106.504,99.956M104.862,106.553C102.13,106.553 100.218,104.496 100.218,101.504C100.218,99.301 102.036,96.527 104.572,96.475C108.343,96.382 108.727,99.769 108.727,100.704C108.727,100.849 108.53,100.974 108.291,100.974L102.587,100.974C102.514,100.974 102.462,101.026 102.462,101.099L102.462,102.772C102.462,104.392 102.66,106.211 104.852,106.211C106.785,106.211 108.333,104.953 108.769,103.239C108.79,103 109.185,102.969 109.133,103.239C108.561,105.151 106.992,106.553 104.862,106.553ZM116.322,106.346C115.938,106.346 115.938,105.909 116.322,105.961C116.78,106.013 117.122,106.013 117.559,105.961C117.829,105.94 117.829,105.868 117.829,105.743L117.829,98.782C117.829,97.597 117.465,96.995 116.717,96.995C115.076,96.995 113.767,98.449 113.351,99.27L113.351,105.701C113.351,105.847 113.403,105.94 113.59,105.972C114.047,106.024 114.39,106.024 114.774,105.972C115.159,105.92 115.138,106.356 114.774,106.356C113.102,106.304 111.585,106.304 109.87,106.356C109.507,106.356 109.507,105.92 109.87,105.972C110.328,106.024 110.691,106.024 111.107,105.972C111.377,105.951 111.377,105.878 111.377,105.753L111.377,97.992C111.377,97.722 111.283,97.556 110.961,97.535C110.65,97.514 110.379,97.514 110.068,97.535C109.611,97.556 109.611,97.119 110.068,97.151C110.556,97.171 110.889,97.171 111.304,97.151C111.741,97.13 112.343,96.932 112.8,96.621C113.112,96.403 113.164,96.382 113.216,96.693C113.341,97.421 113.361,98.117 113.341,98.896L113.413,98.657C114.016,97.712 115.346,96.621 116.821,96.621C119.315,96.621 119.793,97.951 119.793,99.374L119.793,105.733C119.793,105.878 119.865,105.951 120.032,105.972C120.52,106.024 120.852,106.024 121.237,105.972C121.621,105.92 121.601,106.356 121.237,106.356C119.564,106.294 118.037,106.294 116.322,106.346" style="fill:white;fill-rule:nonzero;"/>
        </g>
        <g transform="matrix(1,0,0,1,-46.8039,-83.6)">
            <path d="M126.962,97.057C124.977,97.13 125.05,99.135 125.102,100.465C125.154,102.065 125.227,103.779 127.201,103.707C129.185,103.634 129.112,102.086 129.06,100.32C128.988,98.335 128.915,96.984 126.962,97.057M129.403,107.676C128.073,107.603 126.889,107.551 125.507,107.676C124.25,107.8 123.408,108.808 123.408,110.408C123.408,112.444 125.081,113.213 126.889,113.213C129.258,113.213 131.751,111.374 131.897,109.203C131.99,107.956 130.588,107.738 129.403,107.676ZM132.042,98.647C131.585,98.647 131.242,98.283 131.242,97.899C131.242,97.369 131.388,97.223 131.533,97.078C131.045,97.099 130.473,97.514 130.131,97.992C130.66,98.574 131.097,99.54 131.097,100.486C131.097,102.543 128.967,104.133 127.086,104.133C126.047,104.133 125.538,103.79 125.268,103.675C124.104,103.623 123.138,103.914 123.097,104.839C123.076,105.442 123.585,105.785 124.136,105.805C126.047,105.899 127.741,105.878 129.549,105.805C131.17,105.733 132.209,106.772 132.26,108.902C132.312,111.686 129.58,113.619 126.775,113.619C124.645,113.619 122.297,112.819 122.297,110.522C122.297,109.192 123.481,107.987 124.614,107.738L124.614,107.686C123.336,107.686 122.681,106.772 122.723,105.462C122.775,104.008 123.471,103.364 124.873,103.426L124.873,103.374C123.782,102.668 123.055,101.878 123.055,100.548C123.055,98.345 124.915,96.652 127.066,96.652C128.198,96.652 129.216,97.016 129.892,97.743C130.328,97.234 130.931,96.652 131.731,96.652C132.437,96.652 132.967,97.067 132.967,97.784C132.977,98.408 132.52,98.647 132.042,98.647L132.042,98.647ZM139.637,99.956C139.637,98.501 139.44,96.787 137.705,96.839C136.084,96.891 135.606,98.512 135.606,99.956L135.606,100.413C135.606,100.507 135.627,100.61 135.751,100.61L139.357,100.61C139.575,100.61 139.648,100.371 139.648,100.299L139.648,99.956M137.985,106.553C135.253,106.553 133.341,104.496 133.341,101.504C133.341,99.301 135.159,96.527 137.694,96.475C141.466,96.382 141.85,99.769 141.85,100.704C141.85,100.849 141.653,100.974 141.414,100.974L135.71,100.974C135.637,100.974 135.585,101.026 135.585,101.099L135.585,102.772C135.585,104.392 135.783,106.211 137.975,106.211C139.907,106.211 141.456,104.953 141.892,103.239C141.913,103 142.307,102.969 142.256,103.239C141.684,105.151 140.115,106.553 137.985,106.553Z" style="fill:white;fill-rule:nonzero;"/>
        </g>
        <g transform="matrix(1,0,0,1,-46.8039,-83.6)">
            <path d="M149.051,95.997C148.51,96.195 148.136,95.862 148.001,95.436C147.824,94.917 148.043,94.584 148.199,94.304C148.157,94.106 148.022,93.961 147.482,93.961C146.806,93.961 146.152,94.304 146.152,95.551C146.152,97.203 148.635,97.223 148.635,99.738C148.635,100.953 147.326,102.325 145.695,102.356C144.23,102.397 143.471,101.525 143.232,100.808C143.014,100.236 143.211,99.54 143.772,99.322C144.292,99.125 144.749,99.499 144.884,99.873C145.185,100.787 144.313,100.849 144.489,101.379C144.572,101.618 145.269,101.951 145.882,101.795C146.495,101.66 147.315,101.4 147.315,100.382C147.315,98.73 145.05,98.335 145.05,96.267C145.05,95.218 145.882,93.431 147.575,93.431C148.812,93.431 149.321,93.826 149.643,94.719C149.84,95.343 149.518,95.821 149.051,95.997" style="fill:rgb(215,35,40);fill-rule:nonzero;"/>
        </g>
    </g>
</svg>
