<?xml version="1.0" standalone="no"?>
<!DOCTYPE svg PUBLIC "-//W3C//DTD SVG 1.1//EN" "http://www.w3.org/Graphics/SVG/1.1/DTD/svg11.dtd">
<svg width="100%" height="100%" viewBox="0 0 155 33" version="1.1" xmlns="http://www.w3.org/2000/svg" xmlns:xlink="http://www.w3.org/1999/xlink" xml:space="preserve" style="fill-rule:evenodd;clip-rule:evenodd;stroke-linejoin:round;stroke-miterlimit:1.41421;">
    <g id="g5017" transform="matrix(1.25059,1.44965e-19,-1.44965e-19,-1.25,-496.637,968.987)">
        <g id="path87" transform="matrix(1,0,0,1,-18.0208,66.986)">
            <rect x="415.142" y="681.792" width="123.941" height="26.411" style="fill:rgb(236,34,39);fill-rule:nonzero;"/>
        </g>
        <g id="path91" transform="matrix(1,0,0,1,-18.0208,66.986)">
            <path d="M421.145,705.729L426.118,705.729L426.118,689.06L432.773,689.06L432.773,684.8L421.145,684.8L421.145,705.729Z" style="fill:white;fill-rule:nonzero;"/>
        </g>
        <g id="path95" transform="matrix(1,0,0,1,-18.0208,66.986)">
            <path d="M429.58,699.152C430.206,699.881 430.783,700.687 431.12,701.593C429.82,701.643 428.833,702.549 428.833,703.958C428.833,705.418 429.917,706.425 431.289,706.425C432.878,706.425 433.889,705.04 433.889,703.455C433.889,701.417 432.131,699.302 430.663,698.119L429.58,699.152Z" style="fill:white;fill-rule:nonzero;"/>
        </g>
        <g id="path99" transform="matrix(1,0,0,1,-18.0208,66.986)">
            <path d="M436.151,705.729L448.37,705.729L448.37,701.673L441.06,701.673L441.06,697.44L447.185,697.44L447.185,693.383L441.06,693.383L441.06,689.033L448.37,689.033L448.37,684.8L436.151,684.8L436.151,705.729Z" style="fill:white;fill-rule:nonzero;"/>
        </g>
        <g id="path103" transform="matrix(1,0,0,1,-18.0208,66.986)">
            <path d="M469.615,702.025L470.488,702.025C471.906,702.025 473.543,701.408 473.543,699.439C473.543,697.469 471.906,696.881 470.488,696.881L469.615,696.881L469.615,702.025ZM464.706,684.8L469.615,684.8L469.615,693.295C470.242,693.236 470.87,693.177 471.497,693.177C475.397,693.177 478.614,694.97 478.614,699.791C478.614,703.907 475.67,705.729 472.015,705.729L464.706,705.729L464.706,684.8L464.706,684.8Z" style="fill:white;fill-rule:nonzero;"/>
        </g>
        <g id="path107" transform="matrix(1,0,0,1,-18.0208,66.986)">
            <path d="M484.444,701.849L485.263,701.849C486.899,701.849 488.454,701.673 488.454,699.498C488.454,697.822 487.254,697.205 485.399,697.205L484.444,697.205L484.444,701.849ZM479.534,684.8L484.444,684.8L484.444,693.854L486.081,693.854L489.128,684.8L493.983,684.8L490.117,694.97C492.027,695.735 493.363,697.587 493.363,699.791C493.363,703.907 490.527,705.729 486.845,705.729L479.534,705.729L479.534,684.8L479.534,684.8Z" style="fill:white;fill-rule:nonzero;"/>
        </g>
        <g id="path111" transform="matrix(1,0,0,1,-18.0208,66.986)">
            <path d="M494.613,705.729L506.832,705.729L506.832,701.673L499.522,701.673L499.522,697.44L505.645,697.44L505.645,693.383L499.522,693.383L499.522,689.033L506.832,689.033L506.832,684.8L494.613,684.8L494.613,705.729Z" style="fill:white;fill-rule:nonzero;"/>
        </g>
        <g id="path115" transform="matrix(1,0,0,1,-18.0208,66.986)">
            <path d="M511.617,691.443C512.326,689.68 513.09,688.445 514.972,688.445C516.09,688.445 516.99,689.209 516.99,690.209C516.99,694.471 508.372,692.119 508.372,700.203C508.372,703.348 511.29,706.141 514.645,706.141C517.918,706.141 520.372,704.142 521.218,701.526L517.318,699.762C516.8,700.997 516.063,702.084 514.645,702.084C513.799,702.084 512.954,701.526 512.954,700.32C512.954,697.352 521.736,698.028 521.736,691.473C521.736,687.181 518.463,684.388 514.645,684.388C511.345,684.388 508.699,686.27 507.553,689.68L511.617,691.443Z" style="fill:white;fill-rule:nonzero;"/>
        </g>
        <g id="path119" transform="matrix(1,0,0,1,-18.0208,66.986)">
            <path d="M525.208,691.443C525.916,689.68 526.68,688.445 528.562,688.445C529.68,688.445 530.581,689.209 530.581,690.209C530.581,694.471 521.962,692.119 521.962,700.203C521.962,703.348 524.88,706.141 528.235,706.141C531.508,706.141 533.963,704.142 534.808,701.526L530.908,699.762C530.389,700.997 529.653,702.084 528.235,702.084C527.389,702.084 526.544,701.526 526.544,700.32C526.544,697.352 535.326,698.028 535.326,691.473C535.326,687.181 532.053,684.388 528.235,684.388C524.935,684.388 522.289,686.27 521.143,689.68L525.208,691.443Z" style="fill:white;fill-rule:nonzero;"/>
        </g>
        <g id="path123" transform="matrix(1,0,0,1,-18.0208,66.986)">
            <path d="M459.324,696.176L464.261,705.729L459.443,705.729L457.04,700.89L455.206,705.729L449.46,705.729L454.206,695.206L448.915,684.8L453.788,684.8L456.47,690.308L458.761,684.8L464.425,684.8L459.324,696.176Z" style="fill:white;fill-rule:nonzero;"/>
        </g>
    </g>
</svg>
