<?xml version="1.0" encoding="utf-8"?>
<!-- Generator: Adobe Illustrator 19.2.1, SVG Export Plug-In . SVG Version: 6.00 Build 0)  -->
<svg version="1.1" id="Calque_1" xmlns="http://www.w3.org/2000/svg" xmlns:xlink="http://www.w3.org/1999/xlink" x="0px" y="0px"
	 viewBox="0 0 100 100" style="enable-background:new 0 0 100 100;" xml:space="preserve">
	<path style="fill:none;stroke:currentColor;stroke-linecap:round;stroke-linejoin:round;stroke-miterlimit:10;" d="M72.59375,38.3866997c0-10.2852001-10.1152-10.8046989-22.5937996-10.8046989
		c-12.4785004,0-22.5937004,0.5194988-22.5937004,10.8046989v10.0312996h45.1875V38.3866997z"/>
	<path style="fill:none;stroke:currentColor;stroke-linecap:round;stroke-linejoin:round;stroke-miterlimit:10;" d="M75.7519531,56.1679993c0,1.6562996-1.3418045,3-3,3H27.2480507c-1.6562996,0-3-1.3437004-3-3v-4.75
		c0-1.6562004,1.3437004-3,3-3h45.5039024c1.6581955,0,3,1.3437996,3,3V56.1679993z"/>
	<rect x="24.2480507" y="59.1679993" style="fill:none;stroke:currentColor;stroke-linecap:round;stroke-linejoin:round;stroke-miterlimit:10;" width="51.5038986" height="8.9082003"/>
	<path style="fill:none;stroke:currentColor;stroke-linecap:round;stroke-linejoin:round;stroke-miterlimit:10;" d="M44.47855,46.3768997c0,1.1269989-1.3418007,2.0410995-3,2.0410995h-6.7304993
		c-1.6562996,0-3-0.9141006-3-2.0410995v-4.5770988c0-1.1270027,1.3437004-2.0410004,3-2.0410004H41.47855
		c1.6581993,0,3,0.9139977,3,2.0410004V46.3768997z"/>
	<path style="fill:none;stroke:currentColor;stroke-linecap:round;stroke-linejoin:round;stroke-miterlimit:10;" d="M68.2519531,46.3768997c0,1.1269989-1.3418045,2.0410995-3,2.0410995H58.52145
		c-1.6562004,0-3-0.9141006-3-2.0410995v-4.5770988c0-1.1270027,1.3437996-2.0410004,3-2.0410004h6.7305031
		c1.6581955,0,3,0.9139977,3,2.0410004V46.3768997z"/>
	<line style="fill:none;stroke:currentColor;stroke-linecap:round;stroke-linejoin:round;stroke-miterlimit:10;" x1="24.2480507" y1="68.0762024" x2="24.2480507" y2="72.4179993"/>
	<line style="fill:none;stroke:currentColor;stroke-linecap:round;stroke-linejoin:round;stroke-miterlimit:10;" x1="75.7519531" y1="68.0762024" x2="75.7519531" y2="72.4179993"/>
	<path style="stroke:currentColor;stroke-miterlimit:10;" d="M34.7499504,37.3886986c-0.1679001,0-0.3260918-0.0654984-0.4472008-0.184597
		c-0.2481003-0.2490005-0.2481003-0.6514015,0-0.8985023c0.1191101-0.1190987,0.2773018-0.1855011,0.4472008-0.1855011
		c0.1699982,0,0.330101,0.065403,0.4492989,0.1846008c0.2480011,0.25,0.2461014,0.6523018,0,0.8983994
		C35.0800514,37.3222008,34.9218597,37.3886986,34.7499504,37.3886986z"/>
	<path style="stroke:currentColor;stroke-miterlimit:10;" d="M44.91605,37.3886986c-0.1679993,0-0.3261909-0.0654984-0.4473-0.184597
		c-0.2480011-0.2490005-0.2480011-0.6514015,0-0.8985023c0.1191101-0.1190987,0.2773018-0.1855011,0.4473-0.1855011
		c0.169899,0,0.3300018,0.065403,0.4491997,0.1846008c0.2480011,0.25,0.2461014,0.6523018,0,0.8983994
		C45.2460518,37.3222008,45.0878601,37.3886986,44.91605,37.3886986z"/>
	<path style="stroke:currentColor;stroke-miterlimit:10;" d="M55.0820503,37.3886986c-0.1679993,0-0.3261909-0.0654984-0.4473-0.184597
		c-0.2480011-0.2490005-0.2480011-0.6514015,0-0.8985023c0.1191978-0.1190987,0.277401-0.1855011,0.4473-0.1855011
		s0.330101,0.065403,0.4491997,0.1846008c0.2480011,0.25,0.2461014,0.6523018,0,0.8983994
		C55.4121513,37.3222008,55.2539482,37.3886986,55.0820503,37.3886986z"/>
	<path style="stroke:currentColor;stroke-miterlimit:10;" d="M65.2480469,37.3886986c-0.1679993,0-0.3261871-0.0654984-0.4472961-0.184597
		c-0.2480011-0.2490005-0.2480011-0.6514015,0-0.8985023c0.1192017-0.1190987,0.2773972-0.1855011,0.4472961-0.1855011
		s0.330101,0.065403,0.4492035,0.1846008c0.2481003,0.25,0.2461014,0.6523018,0,0.8983994
		C65.5781479,37.3222008,65.4199524,37.3886986,65.2480469,37.3886986z"/>
	<path style="stroke:currentColor;stroke-miterlimit:10;" d="M39.83395,32.2344017c-0.1679001,0-0.3280907-0.0664024-0.4472008-0.1856003
		c-0.2481003-0.2480011-0.2481003-0.6504021,0-0.8984013c0.1191101-0.1191998,0.2773018-0.1856003,0.4472008-0.1856003
		c0.170002,0,0.3282013,0.0664005,0.4492989,0.1856003c0.2480011,0.25,0.2460022,0.6522999-0.0019989,0.8984013
		C40.1640511,32.1679993,40.003952,32.2344017,39.83395,32.2344017z"/>
	<path style="stroke:currentColor;stroke-miterlimit:10;" d="M49.9999504,32.2344017c-0.1679001,0-0.3280907-0.0664024-0.4472008-0.1856003
		c-0.2481003-0.2480011-0.2481003-0.6504021,0-0.8984013c0.1191101-0.1191998,0.2773018-0.1856003,0.4472008-0.1856003
		c0.1699982,0,0.3282013,0.0664005,0.4492989,0.1856003c0.2480011,0.25,0.2461014,0.6522999-0.0019989,0.8984013
		C50.3300514,32.1679993,50.1699486,32.2344017,49.9999504,32.2344017z"/>
	<path style="stroke:currentColor;stroke-miterlimit:10;" d="M60.16605,32.2344017c-0.1679993,0-0.3281898-0.0664024-0.4473-0.1856003
		c-0.2480011-0.2480011-0.2480011-0.6504021,0-0.8984013c0.1191101-0.1191998,0.277298-0.1856003,0.4473-0.1856003
		c0.169899,0,0.3280983,0.0664005,0.4491997,0.1856003c0.2480011,0.25,0.2461014,0.6522999-0.0019989,0.8984013
		C60.496048,32.1679993,60.3359489,32.2344017,60.16605,32.2344017z"/>
	<path style="stroke:currentColor;stroke-miterlimit:10;" d="M49.9999504,42.5429993c-0.1679001,0-0.3280907-0.0644989-0.4472008-0.1835976
			c-0.2481003-0.25-0.2481003-0.652401,0-0.8985023c0.1191101-0.1190987,0.2773018-0.1855011,0.4472008-0.1855011
			c0.1699982,0,0.3282013,0.065403,0.4492989,0.1845016c0.2480011,0.25,0.2461014,0.6514015-0.0019989,0.8984985
			C50.3300514,42.4775009,50.1699486,42.5429993,49.9999504,42.5429993z"/>
</svg>
