<?xml version="1.0" standalone="no"?><!DOCTYPE svg PUBLIC "-//W3C//DTD SVG 1.1//EN" "http://www.w3.org/Graphics/SVG/1.1/DTD/svg11.dtd"><svg width="100%" height="100%" viewBox="0 0 310 311" version="1.1" xmlns="http://www.w3.org/2000/svg" xmlns:xlink="http://www.w3.org/1999/xlink" xml:space="preserve" style="fill-rule:evenodd;clip-rule:evenodd;stroke-linejoin:round;stroke-miterlimit:1.41421;"><g><circle cx="154.999" cy="154.999" r="150.999" style="fill:#fff;"/><path d="M155.5,0.001l0.5,0.002l0.5,0.004l0.5,0.006l0.499,0.007l0.499,0.009l0.499,0.01l0.498,0.012l0.498,0.013l0.498,0.015l0.497,0.017l0.496,0.018l0.497,0.019l0.496,0.022l0.495,0.022l0.495,0.025l0.495,0.026l0.494,0.027l0.494,0.029l0.494,0.031l0.493,0.032l0.493,0.033l0.984,0.072l0.491,0.038l0.491,0.04l0.491,0.041l0.49,0.043l0.49,0.045l0.489,0.045l0.489,0.048l0.488,0.049l0.488,0.05l0.488,0.052l0.487,0.053l0.487,0.055l0.486,0.057l0.486,0.058l0.485,0.059l0.485,0.061l0.968,0.126l0.483,0.066l0.483,0.067l0.483,0.068l0.482,0.07l0.482,0.071l0.481,0.073l0.48,0.074l0.48,0.076l0.48,0.077l0.479,0.079l0.479,0.08l0.478,0.082l0.478,0.083l0.477,0.085l0.477,0.086l0.476,0.087l0.476,0.089l0.475,0.09l0.474,0.092l0.475,0.094l0.473,0.094l0.473,0.096l0.473,0.098l0.472,0.099l0.472,0.1l0.471,0.102l0.94,0.208l0.47,0.107l0.468,0.107l0.469,0.109l0.468,0.111l0.467,0.111l0.467,0.114l0.466,0.114l0.465,0.116l0.465,0.118l0.465,0.119l0.464,0.12l0.463,0.122l0.463,0.123l0.463,0.124l0.461,0.126l0.461,0.127l0.461,0.129l0.46,0.13l0.459,0.131l0.459,0.133l0.458,0.134l0.458,0.136l0.457,0.136l0.457,0.139l0.455,0.139l0.456,0.141l0.454,0.143l0.455,0.143l0.453,0.145l0.453,0.147l0.452,0.147l0.452,0.149l0.451,0.151l0.45,0.152l0.45,0.153l0.449,0.154l0.449,0.156l0.448,0.157l0.894,0.318l0.446,0.162l0.445,0.162l0.445,0.164l0.444,0.165l0.444,0.166l0.443,0.168l0.442,0.169l0.442,0.17l0.441,0.172l0.44,0.173l0.439,0.174l0.439,0.176l0.439,0.177l0.437,0.178l0.437,0.179l0.437,0.181l0.435,0.182l0.435,0.183l0.435,0.185l0.433,0.186l0.433,0.187l0.864,0.378l0.431,0.191l0.43,0.193l0.429,0.193l0.429,0.195l0.428,0.196l0.428,0.197l0.426,0.199l0.426,0.2l0.426,0.201l0.424,0.202l0.424,0.204l0.423,0.204l0.423,0.206l0.422,0.208l0.421,0.208l0.42,0.21l0.419,0.211l0.419,0.212l0.418,0.214l0.418,0.215l0.416,0.215l0.416,0.218l0.415,0.218l0.415,0.22l0.413,0.22l0.413,0.222l0.413,0.224l0.411,0.224l0.411,0.226l0.41,0.226l0.409,0.228l0.816,0.46l0.407,0.232l0.406,0.233l0.405,0.234l0.405,0.235l0.403,0.236l0.806,0.476l0.401,0.24l0.401,0.241l0.399,0.243l0.4,0.243l0.398,0.245l0.397,0.245l0.397,0.247l0.396,0.248l0.395,0.25l0.394,0.25l0.394,0.251l0.392,0.253l0.392,0.254l0.391,0.255l0.391,0.256l0.389,0.257l0.389,0.259l0.387,0.259l0.387,0.261l0.386,0.262l0.386,0.263l0.384,0.264l0.384,0.265l0.383,0.266l0.381,0.267l0.382,0.269l0.38,0.27l0.379,0.27l0.379,0.272l0.377,0.273l0.377,0.274l0.376,0.275l0.376,0.277l0.374,0.277l0.746,0.558l0.371,0.281l0.371,0.282l0.37,0.282l0.369,0.284l0.368,0.285l0.368,0.286l0.366,0.287l0.366,0.289l0.364,0.289l0.364,0.29l0.363,0.292l0.362,0.292l0.361,0.294l0.36,0.294l0.36,0.296l0.358,0.297l0.714,0.596l0.356,0.3l0.354,0.301l0.354,0.302l0.353,0.303l0.352,0.304l0.351,0.305l0.35,0.306l0.35,0.307l0.348,0.309l0.347,0.309l0.347,0.31l0.345,0.311l0.345,0.312l0.686,0.628l0.342,0.315l0.68,0.634l0.339,0.318l0.338,0.319l0.337,0.321l0.336,0.321l0.335,0.322l0.334,0.324l0.333,0.324l0.332,0.325l0.332,0.327l0.33,0.327l0.329,0.328l0.328,0.329l0.327,0.33l0.327,0.332l0.325,0.332l0.324,0.333l0.324,0.334l0.322,0.335l0.321,0.336l0.321,0.337l0.319,0.338l0.318,0.339l0.634,0.68l0.315,0.342l0.628,0.686l0.312,0.345l0.311,0.345l0.62,0.694l0.308,0.349l0.307,0.349l0.306,0.35l0.305,0.351l0.304,0.352l0.303,0.353l0.302,0.354l0.301,0.354l0.3,0.356l0.299,0.357l0.297,0.357l0.297,0.359l0.296,0.359l0.294,0.36l0.294,0.361l0.292,0.362l0.292,0.363l0.29,0.364l0.289,0.364l0.289,0.366l0.287,0.366l0.286,0.368l0.285,0.368l0.284,0.369l0.283,0.37l0.562,0.742l0.558,0.746l0.554,0.75l0.275,0.376l0.274,0.377l0.273,0.377l0.272,0.379l0.27,0.379l0.27,0.38l0.269,0.382l0.267,0.382l0.266,0.382l0.265,0.384l0.264,0.384l0.263,0.386l0.262,0.386l0.261,0.387l0.518,0.776l0.257,0.39l0.256,0.39l0.255,0.391l0.254,0.392l0.253,0.392l0.502,0.788l0.249,0.395l0.248,0.396l0.247,0.397l0.245,0.397l0.245,0.399l0.486,0.798l0.241,0.401l0.24,0.401l0.476,0.806l0.236,0.403l0.47,0.81l0.232,0.407l0.232,0.406l0.46,0.816l0.228,0.409l0.226,0.41l0.226,0.411l0.224,0.411l0.224,0.413l0.222,0.413l0.221,0.413l0.219,0.415l0.218,0.415l0.218,0.416l0.216,0.416l0.428,0.836l0.212,0.419l0.211,0.419l0.21,0.421l0.208,0.42l0.208,0.422l0.206,0.423l0.204,0.423l0.204,0.424l0.202,0.424l0.201,0.426l0.2,0.426l0.199,0.426l0.197,0.428l0.196,0.428l0.195,0.429l0.193,0.429l0.193,0.43l0.191,0.431l0.378,0.864l0.187,0.433l0.186,0.433l0.185,0.435l0.183,0.435l0.182,0.435l0.181,0.437l0.179,0.437l0.178,0.437l0.177,0.439l0.176,0.439l0.174,0.439l0.173,0.44l0.172,0.441l0.17,0.442l0.169,0.442l0.168,0.443l0.166,0.444l0.165,0.444l0.164,0.445l0.162,0.445l0.162,0.446l0.318,0.894l0.157,0.448l0.156,0.449l0.154,0.449l0.153,0.45l0.152,0.45l0.151,0.451l0.149,0.452l0.147,0.452l0.147,0.453l0.145,0.454l0.144,0.454l0.142,0.454l0.141,0.456l0.139,0.455l0.139,0.457l0.137,0.457l0.135,0.458l0.134,0.458l0.133,0.459l0.131,0.459l0.13,0.46l0.129,0.461l0.127,0.461l0.126,0.462l0.124,0.462l0.123,0.463l0.122,0.463l0.12,0.464l0.119,0.465l0.118,0.465l0.116,0.465l0.114,0.466l0.114,0.467l0.111,0.467l0.111,0.468l0.109,0.469l0.107,0.468l0.107,0.47l0.208,0.94l0.102,0.471l0.1,0.472l0.099,0.472l0.098,0.473l0.096,0.473l0.188,0.948l0.092,0.474l0.09,0.476l0.089,0.475l0.087,0.476l0.086,0.477l0.085,0.477l0.083,0.478l0.082,0.478l0.08,0.479l0.079,0.479l0.077,0.48l0.076,0.48l0.074,0.48l0.073,0.482l0.071,0.481l0.07,0.482l0.068,0.483l0.067,0.483l0.066,0.483l0.064,0.484l0.062,0.484l0.061,0.485l0.059,0.485l0.058,0.486l0.057,0.487l0.055,0.486l0.053,0.487l0.052,0.488l0.05,0.488l0.049,0.488l0.048,0.489l0.045,0.489l0.045,0.49l0.043,0.49l0.041,0.491l0.04,0.491l0.038,0.491l0.037,0.492l0.035,0.492l0.033,0.493l0.032,0.493l0.031,0.494l0.029,0.494l0.027,0.494l0.026,0.495l0.025,0.495l0.022,0.495l0.022,0.496l0.019,0.497l0.018,0.496l0.017,0.497l0.015,0.498l0.013,0.498l0.012,0.498l0.011,0.499l0.008,0.499l0.007,0.499l0.006,0.5l0.004,0.5l0.002,0.5l0.001,0.501l-0.001,0.501l-0.002,0.5l-0.004,0.5l-0.006,0.5l-0.007,0.499l-0.008,0.499l-0.011,0.499l-0.012,0.498l-0.013,0.498l-0.015,0.498l-0.017,0.497l-0.018,0.496l-0.019,0.497l-0.022,0.496l-0.022,0.495l-0.025,0.495l-0.026,0.495l-0.027,0.494l-0.029,0.494l-0.031,0.494l-0.032,0.493l-0.033,0.493l-0.035,0.492l-0.037,0.492l-0.038,0.491l-0.04,0.491l-0.041,0.491l-0.043,0.49l-0.045,0.49l-0.045,0.489l-0.048,0.489l-0.049,0.488l-0.05,0.488l-0.052,0.488l-0.053,0.487l-0.055,0.486l-0.057,0.487l-0.058,0.486l-0.059,0.485l-0.061,0.485l-0.062,0.484l-0.064,0.484l-0.066,0.483l-0.067,0.483l-0.068,0.483l-0.07,0.482l-0.071,0.482l-0.073,0.481l-0.074,0.48l-0.076,0.48l-0.077,0.48l-0.079,0.479l-0.08,0.479l-0.082,0.478l-0.083,0.478l-0.085,0.477l-0.086,0.477l-0.087,0.476l-0.089,0.475l-0.09,0.476l-0.092,0.474l-0.094,0.474l-0.094,0.474l-0.096,0.473l-0.098,0.473l-0.099,0.472l-0.1,0.472l-0.102,0.471l-0.104,0.47l-0.104,0.47l-0.107,0.47l-0.107,0.468l-0.109,0.469l-0.111,0.468l-0.111,0.467l-0.114,0.467l-0.114,0.466l-0.116,0.465l-0.118,0.465l-0.119,0.465l-0.12,0.464l-0.122,0.463l-0.123,0.463l-0.124,0.462l-0.126,0.462l-0.127,0.461l-0.129,0.461l-0.13,0.46l-0.131,0.459l-0.133,0.459l-0.134,0.458l-0.135,0.458l-0.137,0.457l-0.139,0.457l-0.139,0.455l-0.141,0.456l-0.142,0.454l-0.144,0.455l-0.145,0.453l-0.147,0.453l-0.147,0.452l-0.149,0.452l-0.151,0.451l-0.152,0.45l-0.153,0.45l-0.154,0.449l-0.156,0.449l-0.157,0.448l-0.159,0.447l-0.159,0.447l-0.162,0.446l-0.162,0.445l-0.164,0.445l-0.165,0.444l-0.166,0.444l-0.168,0.443l-0.169,0.442l-0.17,0.442l-0.172,0.441l-0.173,0.44l-0.174,0.439l-0.176,0.439l-0.177,0.439l-0.178,0.437l-0.179,0.437l-0.181,0.437l-0.182,0.435l-0.183,0.435l-0.185,0.435l-0.186,0.433l-0.187,0.433l-0.189,0.432l-0.189,0.432l-0.191,0.431l-0.193,0.43l-0.193,0.429l-0.195,0.429l-0.196,0.428l-0.197,0.428l-0.199,0.427l-0.2,0.425l-0.201,0.426l-0.202,0.424l-0.204,0.424l-0.204,0.423l-0.206,0.423l-0.208,0.422l-0.208,0.42l-0.21,0.421l-0.211,0.419l-0.212,0.419l-0.214,0.418l-0.215,0.418l-0.215,0.416l-0.218,0.416l-0.218,0.415l-0.219,0.415l-0.221,0.413l-0.222,0.413l-0.224,0.413l-0.224,0.411l-0.226,0.411l-0.226,0.41l-0.228,0.409l-0.23,0.408l-0.23,0.408l-0.232,0.407l-0.233,0.406l-0.234,0.405l-0.235,0.405l-0.236,0.403l-0.238,0.403l-0.238,0.403l-0.24,0.401l-0.241,0.401l-0.243,0.4l-0.243,0.398l-0.245,0.399l-0.245,0.397l-0.247,0.397l-0.248,0.396l-0.249,0.395l-0.251,0.394l-0.251,0.394l-0.253,0.392l-0.254,0.392l-0.255,0.391l-0.256,0.391l-0.257,0.389l-0.259,0.389l-0.259,0.387l-0.261,0.387l-0.262,0.386l-0.263,0.386l-0.264,0.384l-0.265,0.384l-0.266,0.383l-0.267,0.381l-0.269,0.382l-0.27,0.38l-0.27,0.379l-0.272,0.379l-0.273,0.377l-0.274,0.377l-0.275,0.376l-0.277,0.376l-0.277,0.374l-0.278,0.373l-0.28,0.373l-0.281,0.371l-0.281,0.371l-0.283,0.37l-0.284,0.369l-0.285,0.368l-0.286,0.368l-0.287,0.366l-0.289,0.366l-0.289,0.364l-0.29,0.364l-0.292,0.363l-0.292,0.362l-0.294,0.361l-0.294,0.36l-0.296,0.36l-0.297,0.358l-0.297,0.357l-0.299,0.357l-0.3,0.356l-0.301,0.354l-0.302,0.354l-0.303,0.353l-0.304,0.352l-0.305,0.351l-0.306,0.35l-0.307,0.35l-0.308,0.348l-0.31,0.347l-0.31,0.347l-0.311,0.345l-0.312,0.345l-0.314,0.343l-0.314,0.343l-0.315,0.342l-0.317,0.34l-0.317,0.34l-0.318,0.339l-0.319,0.338l-0.321,0.337l-0.321,0.336l-0.322,0.335l-0.324,0.334l-0.324,0.333l-0.325,0.332l-0.327,0.332l-0.327,0.33l-0.328,0.329l-0.329,0.328l-0.33,0.327l-0.332,0.327l-0.332,0.325l-0.333,0.324l-0.334,0.324l-0.335,0.322l-0.336,0.321l-0.337,0.321l-0.338,0.319l-0.339,0.318l-0.34,0.317l-0.34,0.317l-0.342,0.315l-0.343,0.314l-0.343,0.314l-0.345,0.312l-0.345,0.311l-0.347,0.31l-0.347,0.31l-0.348,0.308l-0.35,0.307l-0.35,0.306l-0.351,0.305l-0.352,0.304l-0.353,0.303l-0.354,0.302l-0.354,0.301l-0.356,0.3l-0.357,0.299l-0.357,0.297l-0.358,0.297l-0.36,0.296l-0.36,0.294l-0.361,0.294l-0.362,0.292l-0.363,0.292l-0.364,0.29l-0.364,0.289l-0.366,0.289l-0.366,0.287l-0.368,0.286l-0.368,0.285l-0.369,0.284l-0.37,0.283l-0.371,0.281l-0.371,0.281l-0.373,0.28l-0.373,0.278l-0.374,0.277l-0.376,0.277l-0.376,0.275l-0.377,0.274l-0.377,0.273l-0.379,0.272l-0.379,0.27l-0.38,0.27l-0.382,0.269l-0.381,0.267l-0.383,0.266l-0.384,0.265l-0.384,0.264l-0.386,0.263l-0.386,0.262l-0.387,0.261l-0.387,0.259l-0.389,0.259l-0.389,0.257l-0.391,0.256l-0.391,0.255l-0.392,0.254l-0.392,0.253l-0.394,0.251l-0.394,0.251l-0.395,0.249l-0.396,0.248l-0.397,0.247l-0.397,0.245l-0.399,0.245l-0.398,0.243l-0.4,0.243l-0.401,0.241l-0.401,0.24l-0.403,0.238l-0.403,0.238l-0.403,0.236l-0.405,0.235l-0.405,0.234l-0.406,0.233l-0.407,0.232l-0.408,0.23l-0.408,0.23l-0.409,0.228l-0.41,0.226l-0.411,0.226l-0.411,0.224l-0.413,0.224l-0.413,0.222l-0.413,0.221l-0.415,0.219l-0.415,0.218l-0.416,0.218l-0.416,0.215l-0.418,0.215l-0.418,0.214l-0.419,0.212l-0.419,0.211l-0.421,0.21l-0.42,0.208l-0.422,0.208l-0.423,0.206l-0.423,0.204l-0.424,0.204l-0.424,0.202l-0.426,0.201l-0.425,0.2l-0.427,0.199l-0.428,0.197l-0.428,0.196l-0.429,0.195l-0.429,0.193l-0.43,0.193l-0.431,0.191l-0.432,0.189l-0.432,0.189l-0.433,0.187l-0.433,0.186l-0.435,0.185l-0.435,0.183l-0.435,0.182l-0.437,0.181l-0.437,0.179l-0.437,0.178l-0.439,0.177l-0.439,0.176l-0.439,0.174l-0.44,0.173l-0.441,0.172l-0.442,0.17l-0.442,0.169l-0.443,0.168l-0.444,0.166l-0.444,0.165l-0.445,0.164l-0.445,0.162l-0.446,0.162l-0.447,0.159l-0.447,0.159l-0.448,0.157l-0.449,0.156l-0.449,0.154l-0.45,0.153l-0.45,0.152l-0.451,0.151l-0.452,0.149l-0.452,0.147l-0.453,0.147l-0.453,0.145l-0.455,0.144l-0.454,0.142l-0.456,0.141l-0.455,0.139l-0.457,0.139l-0.457,0.137l-0.458,0.135l-0.458,0.134l-0.459,0.133l-0.459,0.131l-0.46,0.13l-0.461,0.129l-0.461,0.127l-0.462,0.126l-0.462,0.124l-0.463,0.123l-0.463,0.122l-0.464,0.12l-0.465,0.119l-0.465,0.118l-0.465,0.116l-0.466,0.114l-0.467,0.114l-0.467,0.111l-0.468,0.111l-0.469,0.109l-0.468,0.107l-0.47,0.107l-0.47,0.104l-0.47,0.104l-0.471,0.102l-0.472,0.1l-0.472,0.099l-0.473,0.098l-0.473,0.096l-0.474,0.094l-0.474,0.094l-0.474,0.092l-0.476,0.09l-0.475,0.089l-0.476,0.087l-0.477,0.086l-0.477,0.085l-0.478,0.083l-0.478,0.082l-0.479,0.08l-0.479,0.079l-0.48,0.077l-0.48,0.076l-0.48,0.074l-0.481,0.073l-0.482,0.071l-0.482,0.07l-0.483,0.068l-0.483,0.067l-0.483,0.066l-0.484,0.064l-0.484,0.062l-0.485,0.061l-0.485,0.059l-0.486,0.058l-0.487,0.057l-0.486,0.055l-0.487,0.053l-0.488,0.052l-0.488,0.05l-0.488,0.049l-0.489,0.048l-0.489,0.045l-0.49,0.045l-0.49,0.043l-0.491,0.041l-0.491,0.04l-0.491,0.038l-0.492,0.037l-0.492,0.035l-0.493,0.033l-0.493,0.032l-0.494,0.031l-0.494,0.029l-0.494,0.027l-0.495,0.026l-0.495,0.025l-0.495,0.022l-0.496,0.022l-0.497,0.019l-0.496,0.018l-0.497,0.017l-0.498,0.015l-0.498,0.013l-0.498,0.012l-0.499,0.011l-0.499,0.008l-0.499,0.007l-0.5,0.006l-0.5,0.004l-0.5,0.002l-0.501,0.001l-0.501,-0.001l-0.5,-0.002l-0.5,-0.004l-0.5,-0.006l-0.499,-0.007l-0.499,-0.008l-0.499,-0.011l-0.498,-0.012l-0.498,-0.013l-0.498,-0.015l-0.497,-0.017l-0.496,-0.018l-0.497,-0.019l-0.496,-0.022l-0.495,-0.022l-0.495,-0.025l-0.495,-0.026l-0.494,-0.027l-0.494,-0.029l-0.494,-0.031l-0.493,-0.032l-0.493,-0.033l-0.492,-0.035l-0.492,-0.037l-0.491,-0.038l-0.491,-0.04l-0.491,-0.041l-0.49,-0.043l-0.49,-0.045l-0.489,-0.045l-0.489,-0.048l-0.488,-0.049l-0.488,-0.05l-0.488,-0.052l-0.487,-0.053l-0.486,-0.055l-0.487,-0.057l-0.486,-0.058l-0.485,-0.059l-0.485,-0.061l-0.484,-0.062l-0.484,-0.064l-0.483,-0.066l-0.483,-0.067l-0.483,-0.068l-0.482,-0.07l-0.481,-0.071l-0.482,-0.073l-0.48,-0.074l-0.48,-0.076l-0.48,-0.077l-0.479,-0.079l-0.479,-0.08l-0.478,-0.082l-0.478,-0.083l-0.477,-0.085l-0.477,-0.086l-0.476,-0.087l-0.475,-0.089l-0.476,-0.09l-0.474,-0.092l-0.474,-0.094l-0.474,-0.094l-0.473,-0.096l-0.473,-0.098l-0.472,-0.099l-0.472,-0.1l-0.471,-0.102l-0.47,-0.104l-0.47,-0.104l-0.47,-0.107l-0.468,-0.107l-0.469,-0.109l-0.468,-0.111l-0.467,-0.111l-0.467,-0.114l-0.466,-0.114l-0.465,-0.116l-0.465,-0.118l-0.465,-0.119l-0.464,-0.12l-0.463,-0.122l-0.463,-0.123l-0.462,-0.124l-0.462,-0.126l-0.461,-0.127l-0.461,-0.129l-0.46,-0.13l-0.459,-0.131l-0.459,-0.133l-0.458,-0.134l-0.458,-0.135l-0.457,-0.137l-0.457,-0.139l-0.455,-0.139l-0.456,-0.141l-0.454,-0.142l-0.454,-0.144l-0.454,-0.145l-0.453,-0.147l-0.452,-0.147l-0.452,-0.149l-0.451,-0.151l-0.45,-0.152l-0.45,-0.153l-0.449,-0.154l-0.449,-0.156l-0.448,-0.157l-0.447,-0.159l-0.447,-0.159l-0.446,-0.162l-0.445,-0.162l-0.445,-0.164l-0.444,-0.165l-0.444,-0.166l-0.443,-0.168l-0.442,-0.169l-0.442,-0.17l-0.441,-0.172l-0.44,-0.173l-0.439,-0.174l-0.439,-0.176l-0.439,-0.177l-0.437,-0.178l-0.437,-0.179l-0.437,-0.181l-0.435,-0.182l-0.435,-0.183l-0.435,-0.185l-0.433,-0.186l-0.433,-0.187l-0.432,-0.189l-0.432,-0.189l-0.431,-0.191l-0.43,-0.193l-0.429,-0.193l-0.429,-0.195l-0.428,-0.196l-0.428,-0.197l-0.426,-0.199l-0.426,-0.2l-0.426,-0.201l-0.424,-0.202l-0.424,-0.204l-0.423,-0.204l-0.423,-0.206l-0.422,-0.208l-0.42,-0.208l-0.421,-0.21l-0.419,-0.211l-0.419,-0.212l-0.418,-0.214l-0.418,-0.214l-0.416,-0.216l-0.416,-0.218l-0.415,-0.218l-0.415,-0.219l-0.413,-0.221l-0.413,-0.222l-0.413,-0.224l-0.411,-0.224l-0.411,-0.226l-0.41,-0.226l-0.409,-0.228l-0.408,-0.23l-0.408,-0.23l-0.406,-0.232l-0.407,-0.232l-0.405,-0.235l-0.405,-0.235l-0.403,-0.236l-0.403,-0.238l-0.403,-0.238l-0.401,-0.24l-0.401,-0.241l-0.399,-0.243l-0.399,-0.243l-0.399,-0.245l-0.397,-0.245l-0.397,-0.247l-0.396,-0.248l-0.395,-0.249l-0.394,-0.251l-0.394,-0.251l-0.392,-0.253l-0.392,-0.254l-0.391,-0.255l-0.39,-0.256l-0.39,-0.257l-0.388,-0.259l-0.388,-0.259l-0.387,-0.261l-0.386,-0.262l-0.386,-0.263l-0.384,-0.264l-0.384,-0.265l-0.382,-0.266l-0.382,-0.267l-0.382,-0.269l-0.38,-0.27l-0.379,-0.27l-0.379,-0.272l-0.377,-0.273l-0.377,-0.274l-0.376,-0.275l-0.375,-0.277l-0.375,-0.277l-0.373,-0.279l-0.373,-0.279l-0.371,-0.281l-0.371,-0.281l-0.37,-0.283l-0.369,-0.284l-0.368,-0.285l-0.368,-0.286l-0.366,-0.287l-0.366,-0.289l-0.364,-0.289l-0.364,-0.29l-0.363,-0.292l-0.362,-0.292l-0.361,-0.294l-0.36,-0.294l-0.359,-0.296l-0.359,-0.297l-0.357,-0.297l-0.357,-0.299l-0.356,-0.3l-0.354,-0.301l-0.354,-0.302l-0.353,-0.303l-0.352,-0.304l-0.351,-0.305l-0.35,-0.306l-0.349,-0.307l-0.349,-0.308l-0.347,-0.31l-0.347,-0.31l-0.345,-0.311l-0.345,-0.312l-0.343,-0.314l-0.343,-0.314l-0.342,-0.315l-0.34,-0.317l-0.34,-0.317l-0.339,-0.318l-0.338,-0.319l-0.337,-0.321l-0.336,-0.321l-0.335,-0.322l-0.334,-0.324l-0.333,-0.324l-0.332,-0.325l-0.332,-0.327l-0.33,-0.327l-0.329,-0.328l-0.328,-0.329l-0.327,-0.33l-0.327,-0.332l-0.325,-0.332l-0.324,-0.333l-0.324,-0.334l-0.322,-0.335l-0.321,-0.336l-0.321,-0.337l-0.319,-0.338l-0.318,-0.339l-0.317,-0.34l-0.317,-0.34l-0.315,-0.342l-0.314,-0.343l-0.314,-0.343l-0.312,-0.345l-0.311,-0.345l-0.31,-0.347l-0.309,-0.347l-0.309,-0.348l-0.307,-0.35l-0.306,-0.35l-0.305,-0.351l-0.304,-0.352l-0.303,-0.353l-0.302,-0.354l-0.301,-0.354l-0.3,-0.356l-0.298,-0.357l-0.298,-0.357l-0.297,-0.358l-0.296,-0.36l-0.294,-0.36l-0.294,-0.361l-0.292,-0.362l-0.292,-0.363l-0.29,-0.364l-0.289,-0.364l-0.289,-0.366l-0.287,-0.366l-0.286,-0.368l-0.285,-0.368l-0.284,-0.369l-0.282,-0.37l-0.282,-0.371l-0.281,-0.371l-0.279,-0.373l-0.279,-0.373l-0.277,-0.374l-0.277,-0.376l-0.275,-0.376l-0.274,-0.377l-0.273,-0.377l-0.272,-0.379l-0.27,-0.379l-0.27,-0.38l-0.269,-0.382l-0.267,-0.381l-0.266,-0.383l-0.265,-0.384l-0.264,-0.384l-0.263,-0.386l-0.262,-0.386l-0.261,-0.387l-0.259,-0.387l-0.259,-0.389l-0.257,-0.389l-0.256,-0.391l-0.255,-0.391l-0.254,-0.392l-0.253,-0.392l-0.251,-0.394l-0.25,-0.394l-0.25,-0.395l-0.248,-0.396l-0.247,-0.397l-0.245,-0.397l-0.245,-0.398l-0.243,-0.4l-0.243,-0.399l-0.241,-0.401l-0.24,-0.401l-0.238,-0.403l-0.238,-0.403l-0.236,-0.403l-0.235,-0.405l-0.234,-0.405l-0.233,-0.406l-0.232,-0.407l-0.23,-0.408l-0.23,-0.408l-0.228,-0.409l-0.226,-0.41l-0.226,-0.411l-0.224,-0.411l-0.224,-0.413l-0.222,-0.413l-0.22,-0.413l-0.22,-0.415l-0.218,-0.415l-0.218,-0.416l-0.215,-0.416l-0.215,-0.418l-0.214,-0.418l-0.212,-0.419l-0.211,-0.419l-0.21,-0.42l-0.208,-0.421l-0.208,-0.422l-0.206,-0.423l-0.204,-0.423l-0.204,-0.424l-0.202,-0.424l-0.201,-0.426l-0.2,-0.426l-0.199,-0.426l-0.197,-0.428l-0.196,-0.428l-0.195,-0.429l-0.193,-0.429l-0.193,-0.43l-0.191,-0.431l-0.189,-0.432l-0.189,-0.432l-0.187,-0.433l-0.186,-0.433l-0.185,-0.435l-0.183,-0.435l-0.182,-0.435l-0.181,-0.437l-0.179,-0.437l-0.178,-0.437l-0.177,-0.439l-0.176,-0.439l-0.174,-0.439l-0.173,-0.44l-0.172,-0.441l-0.17,-0.442l-0.169,-0.442l-0.168,-0.443l-0.166,-0.444l-0.165,-0.444l-0.164,-0.445l-0.162,-0.445l-0.162,-0.446l-0.159,-0.447l-0.159,-0.447l-0.157,-0.448l-0.156,-0.449l-0.154,-0.449l-0.153,-0.45l-0.152,-0.45l-0.151,-0.451l-0.149,-0.452l-0.147,-0.452l-0.147,-0.453l-0.145,-0.453l-0.143,-0.455l-0.143,-0.454l-0.141,-0.456l-0.139,-0.455l-0.139,-0.457l-0.136,-0.457l-0.136,-0.458l-0.134,-0.458l-0.133,-0.459l-0.131,-0.459l-0.13,-0.46l-0.129,-0.461l-0.127,-0.461l-0.126,-0.461l-0.124,-0.463l-0.123,-0.463l-0.122,-0.463l-0.12,-0.464l-0.119,-0.465l-0.118,-0.465l-0.116,-0.465l-0.114,-0.466l-0.114,-0.467l-0.111,-0.467l-0.111,-0.468l-0.109,-0.469l-0.107,-0.468l-0.107,-0.47l-0.104,-0.47l-0.104,-0.47l-0.102,-0.471l-0.1,-0.472l-0.099,-0.472l-0.098,-0.473l-0.096,-0.473l-0.094,-0.473l-0.094,-0.475l-0.092,-0.474l-0.09,-0.475l-0.089,-0.476l-0.087,-0.476l-0.086,-0.477l-0.085,-0.477l-0.083,-0.478l-0.082,-0.478l-0.08,-0.479l-0.079,-0.479l-0.077,-0.48l-0.076,-0.48l-0.074,-0.48l-0.073,-0.481l-0.071,-0.482l-0.07,-0.482l-0.068,-0.483l-0.067,-0.483l-0.066,-0.483l-0.063,-0.484l-0.063,-0.484l-0.061,-0.485l-0.059,-0.485l-0.058,-0.486l-0.057,-0.486l-0.055,-0.487l-0.053,-0.487l-0.052,-0.488l-0.05,-0.488l-0.049,-0.488l-0.048,-0.489l-0.045,-0.489l-0.045,-0.49l-0.043,-0.49l-0.041,-0.491l-0.04,-0.491l-0.038,-0.491l-0.036,-0.492l-0.036,-0.492l-0.033,-0.493l-0.032,-0.493l-0.031,-0.494l-0.029,-0.494l-0.027,-0.494l-0.026,-0.495l-0.025,-0.495l-0.022,-0.495l-0.022,-0.496l-0.019,-0.497l-0.018,-0.496l-0.017,-0.497l-0.015,-0.498l-0.013,-0.498l-0.012,-0.498l-0.01,-0.499l-0.009,-0.499l-0.007,-0.499l-0.006,-0.5l-0.004,-0.5l-0.002,-0.5l-0.001,-0.501l0.001,-0.501l0.002,-0.5l0.004,-0.5l0.006,-0.5l0.007,-0.499l0.009,-0.499l0.01,-0.499l0.012,-0.498l0.013,-0.498l0.015,-0.498l0.017,-0.497l0.018,-0.496l0.019,-0.497l0.022,-0.496l0.022,-0.495l0.025,-0.495l0.026,-0.495l0.027,-0.494l0.029,-0.494l0.031,-0.494l0.032,-0.493l0.033,-0.493l0.036,-0.492l0.036,-0.492l0.038,-0.491l0.04,-0.491l0.041,-0.491l0.043,-0.49l0.045,-0.49l0.045,-0.489l0.048,-0.489l0.049,-0.488l0.05,-0.488l0.052,-0.488l0.053,-0.487l0.055,-0.487l0.057,-0.486l0.058,-0.485l0.059,-0.486l0.061,-0.485l0.063,-0.484l0.063,-0.484l0.066,-0.483l0.067,-0.483l0.068,-0.483l0.07,-0.482l0.071,-0.482l0.073,-0.481l0.074,-0.48l0.076,-0.48l0.077,-0.48l0.079,-0.479l0.08,-0.479l0.082,-0.478l0.083,-0.478l0.085,-0.477l0.086,-0.477l0.087,-0.476l0.089,-0.475l0.09,-0.476l0.092,-0.474l0.094,-0.474l0.094,-0.474l0.096,-0.473l0.098,-0.473l0.099,-0.472l0.1,-0.472l0.102,-0.471l0.104,-0.47l0.104,-0.47l0.107,-0.469l0.107,-0.469l0.109,-0.469l0.111,-0.468l0.111,-0.467l0.114,-0.467l0.114,-0.466l0.116,-0.465l0.118,-0.465l0.119,-0.465l0.12,-0.464l0.122,-0.463l0.123,-0.463l0.124,-0.462l0.126,-0.462l0.127,-0.461l0.129,-0.461l0.13,-0.46l0.131,-0.459l0.133,-0.459l0.134,-0.458l0.136,-0.458l0.136,-0.457l0.139,-0.457l0.139,-0.455l0.141,-0.456l0.143,-0.454l0.143,-0.454l0.145,-0.454l0.147,-0.453l0.147,-0.452l0.149,-0.452l0.151,-0.451l0.152,-0.45l0.153,-0.45l0.154,-0.449l0.156,-0.449l0.157,-0.448l0.159,-0.447l0.159,-0.447l0.162,-0.446l0.162,-0.445l0.164,-0.445l0.165,-0.444l0.166,-0.444l0.168,-0.443l0.169,-0.442l0.17,-0.442l0.172,-0.441l0.173,-0.44l0.174,-0.439l0.176,-0.439l0.177,-0.439l0.178,-0.437l0.179,-0.437l0.181,-0.437l0.182,-0.435l0.183,-0.435l0.185,-0.434l0.186,-0.434l0.187,-0.433l0.189,-0.432l0.189,-0.432l0.191,-0.431l0.193,-0.43l0.193,-0.429l0.195,-0.429l0.196,-0.428l0.197,-0.428l0.199,-0.426l0.2,-0.426l0.201,-0.426l0.202,-0.424l0.204,-0.424l0.204,-0.423l0.206,-0.423l0.208,-0.422l0.208,-0.421l0.21,-0.42l0.211,-0.419l0.212,-0.419l0.214,-0.418l0.215,-0.418l0.215,-0.416l0.218,-0.416l0.218,-0.415l0.22,-0.415l0.22,-0.413l0.222,-0.413l0.224,-0.413l0.224,-0.411l0.226,-0.411l0.226,-0.41l0.228,-0.409l0.23,-0.408l0.23,-0.408l0.232,-0.407l0.233,-0.406l0.234,-0.405l0.235,-0.405l0.236,-0.403l0.238,-0.403l0.238,-0.402l0.24,-0.402l0.241,-0.401l0.243,-0.399l0.243,-0.4l0.245,-0.398l0.245,-0.397l0.247,-0.397l0.248,-0.396l0.25,-0.395l0.25,-0.394l0.251,-0.394l0.253,-0.392l0.254,-0.392l0.255,-0.391l0.256,-0.39l0.257,-0.39l0.259,-0.388l0.259,-0.388l0.261,-0.387l0.262,-0.386l0.263,-0.386l0.264,-0.384l0.265,-0.384l0.266,-0.382l0.267,-0.382l0.269,-0.382l0.27,-0.38l0.27,-0.379l0.272,-0.379l0.273,-0.377l0.274,-0.377l0.275,-0.376l0.277,-0.375l0.277,-0.375l0.279,-0.373l0.279,-0.373l0.281,-0.371l0.282,-0.371l0.282,-0.37l0.284,-0.369l0.285,-0.368l0.286,-0.368l0.287,-0.366l0.289,-0.366l0.289,-0.364l0.29,-0.364l0.292,-0.363l0.292,-0.362l0.294,-0.361l0.294,-0.36l0.296,-0.359l0.297,-0.359l0.297,-0.357l0.299,-0.357l0.3,-0.356l0.301,-0.354l0.302,-0.354l0.303,-0.353l0.304,-0.352l0.305,-0.351l0.306,-0.35l0.307,-0.35l0.309,-0.348l0.309,-0.347l0.31,-0.347l0.311,-0.345l0.312,-0.345l0.314,-0.343l0.314,-0.343l0.315,-0.342l0.317,-0.34l0.317,-0.34l0.318,-0.339l0.32,-0.338l0.32,-0.337l0.321,-0.336l0.322,-0.335l0.324,-0.334l0.324,-0.333l0.325,-0.332l0.327,-0.332l0.327,-0.33l0.328,-0.329l0.329,-0.328l0.33,-0.327l0.332,-0.327l0.332,-0.325l0.333,-0.324l0.334,-0.324l0.335,-0.322l0.336,-0.321l0.337,-0.32l0.338,-0.32l0.339,-0.318l0.34,-0.317l0.34,-0.317l0.342,-0.315l0.343,-0.314l0.343,-0.314l0.345,-0.312l0.345,-0.311l0.347,-0.31l0.347,-0.309l0.348,-0.309l0.35,-0.307l0.35,-0.306l0.351,-0.305l0.352,-0.304l0.353,-0.303l0.354,-0.302l0.354,-0.301l0.356,-0.3l0.357,-0.299l0.357,-0.297l0.359,-0.297l0.359,-0.296l0.36,-0.294l0.361,-0.294l0.362,-0.292l0.363,-0.292l0.364,-0.29l0.364,-0.289l0.366,-0.289l0.366,-0.287l0.368,-0.286l0.368,-0.285l0.369,-0.284l0.37,-0.282l0.371,-0.282l0.371,-0.281l0.373,-0.279l0.373,-0.279l0.375,-0.277l0.375,-0.277l0.376,-0.275l0.377,-0.274l0.377,-0.273l0.379,-0.272l0.379,-0.27l0.38,-0.27l0.382,-0.269l0.382,-0.267l0.382,-0.266l0.384,-0.265l0.384,-0.264l0.386,-0.263l0.386,-0.262l0.387,-0.261l0.388,-0.259l0.388,-0.259l0.39,-0.257l0.39,-0.256l0.391,-0.255l0.392,-0.254l0.392,-0.253l0.394,-0.251l0.394,-0.25l0.395,-0.25l0.396,-0.248l0.397,-0.247l0.397,-0.245l0.398,-0.245l0.4,-0.243l0.399,-0.243l0.401,-0.241l0.402,-0.24l0.402,-0.238l0.403,-0.238l0.403,-0.236l0.405,-0.235l0.405,-0.234l0.406,-0.233l0.407,-0.232l0.408,-0.23l0.408,-0.23l0.409,-0.228l0.41,-0.226l0.411,-0.226l0.411,-0.224l0.413,-0.224l0.413,-0.222l0.413,-0.22l0.415,-0.22l0.415,-0.218l0.416,-0.218l0.416,-0.215l0.418,-0.215l0.418,-0.214l0.419,-0.212l0.419,-0.211l0.42,-0.21l0.421,-0.208l0.422,-0.208l0.423,-0.206l0.423,-0.204l0.424,-0.204l0.424,-0.202l0.426,-0.201l0.426,-0.2l0.426,-0.199l0.428,-0.197l0.428,-0.196l0.429,-0.195l0.429,-0.193l0.43,-0.193l0.431,-0.191l0.432,-0.189l0.432,-0.189l0.433,-0.187l0.434,-0.186l0.434,-0.185l0.435,-0.183l0.435,-0.182l0.437,-0.181l0.437,-0.179l0.437,-0.178l0.439,-0.177l0.439,-0.176l0.439,-0.174l0.44,-0.173l0.441,-0.172l0.442,-0.17l0.442,-0.169l0.443,-0.168l0.444,-0.166l0.444,-0.165l0.445,-0.164l0.445,-0.162l0.446,-0.162l0.447,-0.159l0.447,-0.159l0.448,-0.157l0.449,-0.156l0.449,-0.154l0.45,-0.153l0.45,-0.152l0.451,-0.151l0.452,-0.149l0.452,-0.147l0.453,-0.147l0.454,-0.145l0.454,-0.143l0.454,-0.143l0.456,-0.141l0.455,-0.139l0.457,-0.139l0.457,-0.136l0.458,-0.136l0.458,-0.134l0.459,-0.133l0.459,-0.131l0.46,-0.13l0.461,-0.129l0.461,-0.127l0.462,-0.126l0.462,-0.124l0.463,-0.123l0.463,-0.122l0.464,-0.12l0.465,-0.119l0.465,-0.118l0.465,-0.116l0.466,-0.114l0.467,-0.114l0.467,-0.111l0.468,-0.111l0.469,-0.109l0.469,-0.107l0.469,-0.107l0.47,-0.104l0.47,-0.104l0.471,-0.102l0.472,-0.1l0.472,-0.099l0.473,-0.098l0.473,-0.096l0.474,-0.094l0.474,-0.094l0.474,-0.092l0.476,-0.09l0.475,-0.089l0.476,-0.087l0.477,-0.086l0.477,-0.085l0.478,-0.083l0.478,-0.082l0.479,-0.08l0.479,-0.079l0.48,-0.077l0.48,-0.076l0.48,-0.074l0.481,-0.073l0.482,-0.071l0.482,-0.07l0.483,-0.068l0.483,-0.067l0.483,-0.066l0.484,-0.063l0.484,-0.063l0.485,-0.061l0.486,-0.059l0.485,-0.058l0.486,-0.057l0.487,-0.055l0.487,-0.053l0.488,-0.052l0.488,-0.05l0.488,-0.049l0.489,-0.048l0.489,-0.045l0.49,-0.045l0.49,-0.043l0.491,-0.041l0.491,-0.04l0.491,-0.038l0.492,-0.036l0.492,-0.036l0.493,-0.033l0.493,-0.032l0.494,-0.031l0.494,-0.029l0.494,-0.027l0.495,-0.026l0.495,-0.025l0.495,-0.022l0.496,-0.022l0.497,-0.019l0.496,-0.018l0.497,-0.017l0.498,-0.015l0.498,-0.013l0.498,-0.012l0.499,-0.01l0.499,-0.009l0.499,-0.007l0.5,-0.006l0.5,-0.004l0.5,-0.002l0.501,-0.001l0.501,0.001ZM154.524,8.001l-0.476,0.002l-0.474,0.004l-0.475,0.005l-0.474,0.007l-0.473,0.008l-0.473,0.01l-0.473,0.011l-0.473,0.013l-0.472,0.014l-0.472,0.016l-0.471,0.017l-0.471,0.019l-0.471,0.02l-0.47,0.021l-0.47,0.023l-0.469,0.025l-0.469,0.026l-0.469,0.028l-0.468,0.029l-0.468,0.03l-0.467,0.032l-0.467,0.033l-0.467,0.035l-0.466,0.036l-0.466,0.038l-0.465,0.039l-0.465,0.041l-0.465,0.042l-0.464,0.043l-0.464,0.045l-0.463,0.047l-0.463,0.047l-0.462,0.05l-0.462,0.05l-0.462,0.052l-0.461,0.054l-0.461,0.055l-0.46,0.056l-0.46,0.058l-0.459,0.059l-0.459,0.061l-0.458,0.062l-0.458,0.063l-0.458,0.065l-0.457,0.066l-0.457,0.068l-0.456,0.069l-0.456,0.071l-0.455,0.071l-0.455,0.074l-0.454,0.074l-0.454,0.076l-0.453,0.078l-0.453,0.079l-0.453,0.08l-0.452,0.081l-0.451,0.083l-0.451,0.085l-0.451,0.085l-0.45,0.087l-0.449,0.089l-0.449,0.09l-0.449,0.091l-0.448,0.092l-0.447,0.094l-0.447,0.095l-0.447,0.097l-0.446,0.098l-0.446,0.099l-0.445,0.101l-0.444,0.102l-0.444,0.103l-0.444,0.105l-0.443,0.106l-0.442,0.107l-0.442,0.109l-0.441,0.11l-0.441,0.111l-0.441,0.113l-0.44,0.114l-0.439,0.115l-0.439,0.117l-0.438,0.118l-0.438,0.119l-0.437,0.121l-0.436,0.122l-0.436,0.123l-0.436,0.124l-0.435,0.126l-0.434,0.127l-0.434,0.129l-0.433,0.13l-0.433,0.131l-0.432,0.132l-0.432,0.134l-0.431,0.135l-0.43,0.136l-0.43,0.137l-0.429,0.139l-0.429,0.14l-0.428,0.141l-0.428,0.143l-0.427,0.144l-0.426,0.145l-0.426,0.146l-0.426,0.148l-0.424,0.149l-0.424,0.15l-0.424,0.152l-0.423,0.153l-0.422,0.154l-0.422,0.155l-0.421,0.156l-0.42,0.158l-0.42,0.159l-0.419,0.16l-0.419,0.162l-0.418,0.163l-0.417,0.164l-0.417,0.165l-0.416,0.166l-0.416,0.168l-0.415,0.169l-0.414,0.17l-0.414,0.171l-0.413,0.173l-0.412,0.174l-0.412,0.175l-0.411,0.176l-0.41,0.177l-0.41,0.179l-0.409,0.18l-0.409,0.181l-0.408,0.182l-0.407,0.184l-0.406,0.185l-0.406,0.185l-0.406,0.187l-0.404,0.189l-0.404,0.189l-0.403,0.191l-0.403,0.192l-0.402,0.193l-0.401,0.194l-0.401,0.195l-0.399,0.197l-0.4,0.198l-0.398,0.199l-0.398,0.2l-0.397,0.201l-0.397,0.202l-0.395,0.204l-0.395,0.205l-0.395,0.206l-0.393,0.207l-0.393,0.208l-0.393,0.209l-0.391,0.211l-0.391,0.211l-0.39,0.213l-0.39,0.214l-0.388,0.215l-0.388,0.217l-0.388,0.217l-0.386,0.219l-0.386,0.219l-0.385,0.221l-0.385,0.222l-0.383,0.223l-0.383,0.224l-0.383,0.225l-0.381,0.227l-0.381,0.227l-0.38,0.229l-0.379,0.23l-0.378,0.231l-0.378,0.231l-0.377,0.234l-0.376,0.234l-0.376,0.235l-0.375,0.236l-0.374,0.238l-0.373,0.238l-0.372,0.24l-0.372,0.241l-0.371,0.242l-0.37,0.243l-0.369,0.244l-0.369,0.245l-0.368,0.246l-0.367,0.247l-0.366,0.248l-0.365,0.25l-0.365,0.25l-0.364,0.252l-0.363,0.252l-0.362,0.254l-0.362,0.255l-0.361,0.256l-0.359,0.256l-0.36,0.258l-0.358,0.259l-0.357,0.26l-0.357,0.261l-0.356,0.262l-0.355,0.263l-0.354,0.265l-0.354,0.265l-0.352,0.266l-0.352,0.267l-0.351,0.269l-0.35,0.269l-0.349,0.27l-0.349,0.272l-0.347,0.272l-0.347,0.273l-0.346,0.275l-0.345,0.275l-0.344,0.277l-0.344,0.277l-0.342,0.279l-0.342,0.279l-0.341,0.281l-0.34,0.281l-0.339,0.283l-0.338,0.283l-0.338,0.285l-0.336,0.285l-0.336,0.287l-0.335,0.287l-0.334,0.289l-0.333,0.289l-0.332,0.29l-0.331,0.292l-0.331,0.292l-0.329,0.293l-0.329,0.295l-0.328,0.295l-0.327,0.296l-0.326,0.298l-0.325,0.298l-0.324,0.299l-0.323,0.3l-0.323,0.301l-0.321,0.302l-0.321,0.303l-0.319,0.304l-0.319,0.305l-0.318,0.305l-0.317,0.307l-0.316,0.308l-0.315,0.309l-0.314,0.309l-0.314,0.311l-0.312,0.311l-0.311,0.312l-0.311,0.314l-0.309,0.314l-0.309,0.315l-0.308,0.316l-0.307,0.317l-0.305,0.318l-0.305,0.319l-0.304,0.319l-0.303,0.321l-0.302,0.321l-0.301,0.323l-0.3,0.323l-0.299,0.324l-0.298,0.325l-0.298,0.326l-0.296,0.327l-0.295,0.328l-0.295,0.329l-0.293,0.329l-0.292,0.331l-0.292,0.331l-0.29,0.332l-0.289,0.333l-0.289,0.334l-0.287,0.335l-0.287,0.336l-0.285,0.336l-0.285,0.338l-0.283,0.338l-0.283,0.339l-0.281,0.34l-0.281,0.341l-0.279,0.342l-0.279,0.342l-0.277,0.344l-0.277,0.344l-0.275,0.345l-0.275,0.346l-0.273,0.347l-0.272,0.347l-0.272,0.349l-0.27,0.349l-0.269,0.35l-0.269,0.351l-0.267,0.352l-0.266,0.352l-0.265,0.354l-0.265,0.354l-0.263,0.355l-0.262,0.356l-0.261,0.357l-0.26,0.357l-0.259,0.358l-0.258,0.36l-0.256,0.359l-0.256,0.361l-0.255,0.362l-0.254,0.362l-0.252,0.363l-0.252,0.364l-0.25,0.365l-0.25,0.365l-0.248,0.366l-0.247,0.367l-0.246,0.368l-0.245,0.369l-0.244,0.369l-0.243,0.37l-0.242,0.371l-0.241,0.372l-0.24,0.372l-0.238,0.373l-0.238,0.374l-0.236,0.375l-0.235,0.376l-0.234,0.376l-0.234,0.377l-0.231,0.378l-0.231,0.378l-0.23,0.379l-0.229,0.38l-0.227,0.381l-0.227,0.381l-0.225,0.383l-0.224,0.383l-0.223,0.383l-0.222,0.385l-0.221,0.385l-0.219,0.386l-0.219,0.386l-0.217,0.388l-0.217,0.388l-0.215,0.388l-0.214,0.39l-0.213,0.39l-0.211,0.391l-0.211,0.391l-0.209,0.393l-0.208,0.393l-0.207,0.393l-0.206,0.395l-0.205,0.395l-0.204,0.395l-0.202,0.397l-0.201,0.397l-0.2,0.398l-0.199,0.398l-0.198,0.4l-0.197,0.399l-0.195,0.401l-0.194,0.401l-0.193,0.402l-0.192,0.403l-0.191,0.403l-0.189,0.404l-0.189,0.404l-0.187,0.406l-0.185,0.406l-0.185,0.406l-0.184,0.407l-0.182,0.408l-0.181,0.409l-0.18,0.409l-0.179,0.41l-0.177,0.41l-0.176,0.411l-0.175,0.412l-0.174,0.412l-0.173,0.413l-0.171,0.414l-0.17,0.414l-0.169,0.415l-0.168,0.416l-0.166,0.416l-0.165,0.417l-0.164,0.417l-0.163,0.418l-0.162,0.419l-0.16,0.419l-0.159,0.42l-0.158,0.42l-0.156,0.421l-0.155,0.422l-0.154,0.422l-0.153,0.423l-0.152,0.424l-0.15,0.424l-0.149,0.424l-0.148,0.426l-0.146,0.426l-0.145,0.426l-0.144,0.427l-0.143,0.428l-0.141,0.428l-0.14,0.429l-0.139,0.429l-0.137,0.43l-0.136,0.43l-0.135,0.431l-0.134,0.432l-0.132,0.432l-0.131,0.433l-0.13,0.433l-0.129,0.434l-0.127,0.434l-0.126,0.435l-0.124,0.436l-0.123,0.436l-0.122,0.436l-0.121,0.437l-0.119,0.438l-0.118,0.438l-0.117,0.439l-0.115,0.439l-0.114,0.44l-0.113,0.441l-0.111,0.441l-0.11,0.441l-0.109,0.442l-0.107,0.442l-0.106,0.443l-0.105,0.444l-0.103,0.444l-0.102,0.444l-0.101,0.445l-0.099,0.446l-0.098,0.446l-0.097,0.447l-0.095,0.447l-0.094,0.447l-0.092,0.448l-0.091,0.449l-0.09,0.449l-0.089,0.449l-0.087,0.45l-0.085,0.451l-0.085,0.451l-0.083,0.451l-0.081,0.452l-0.08,0.453l-0.079,0.453l-0.078,0.453l-0.076,0.454l-0.074,0.454l-0.074,0.455l-0.071,0.455l-0.071,0.456l-0.069,0.456l-0.068,0.457l-0.066,0.457l-0.065,0.458l-0.063,0.458l-0.062,0.458l-0.061,0.459l-0.059,0.459l-0.058,0.46l-0.056,0.46l-0.055,0.461l-0.054,0.461l-0.052,0.462l-0.05,0.462l-0.05,0.462l-0.047,0.463l-0.047,0.463l-0.045,0.464l-0.043,0.464l-0.042,0.465l-0.041,0.465l-0.039,0.465l-0.038,0.466l-0.036,0.466l-0.035,0.467l-0.033,0.467l-0.032,0.467l-0.03,0.468l-0.029,0.468l-0.028,0.469l-0.026,0.469l-0.025,0.469l-0.023,0.47l-0.021,0.47l-0.02,0.471l-0.019,0.471l-0.017,0.471l-0.016,0.472l-0.014,0.472l-0.013,0.473l-0.011,0.473l-0.01,0.473l-0.008,0.473l-0.007,0.474l-0.005,0.475l-0.004,0.474l-0.002,0.476l-0.001,0.475l0.001,0.475l0.002,0.476l0.004,0.474l0.005,0.475l0.007,0.474l0.008,0.473l0.01,0.474l0.011,0.472l0.013,0.473l0.014,0.472l0.016,0.472l0.017,0.471l0.019,0.471l0.02,0.471l0.021,0.47l0.023,0.47l0.025,0.469l0.026,0.469l0.028,0.469l0.029,0.468l0.03,0.468l0.032,0.467l0.033,0.467l0.035,0.467l0.036,0.466l0.038,0.466l0.039,0.465l0.041,0.465l0.042,0.465l0.043,0.464l0.045,0.464l0.094,0.926l0.1,0.924l0.052,0.462l0.054,0.461l0.055,0.461l0.056,0.46l0.058,0.46l0.059,0.459l0.061,0.459l0.062,0.458l0.063,0.458l0.065,0.458l0.066,0.457l0.068,0.457l0.069,0.456l0.071,0.456l0.071,0.455l0.074,0.455l0.074,0.454l0.076,0.454l0.078,0.453l0.079,0.453l0.08,0.453l0.081,0.452l0.083,0.451l0.17,0.902l0.087,0.45l0.089,0.449l0.09,0.449l0.091,0.449l0.092,0.448l0.094,0.447l0.095,0.448l0.097,0.446l0.098,0.446l0.099,0.446l0.101,0.445l0.102,0.444l0.103,0.444l0.105,0.444l0.106,0.443l0.107,0.442l0.109,0.442l0.11,0.442l0.111,0.44l0.113,0.441l0.114,0.44l0.115,0.439l0.117,0.439l0.118,0.438l0.119,0.438l0.121,0.437l0.122,0.436l0.123,0.436l0.124,0.436l0.126,0.435l0.127,0.434l0.129,0.434l0.13,0.433l0.131,0.433l0.132,0.432l0.134,0.432l0.135,0.431l0.136,0.43l0.137,0.43l0.139,0.43l0.14,0.428l0.141,0.428l0.143,0.428l0.144,0.427l0.145,0.426l0.146,0.426l0.148,0.426l0.149,0.424l0.15,0.424l0.152,0.424l0.153,0.423l0.154,0.422l0.155,0.422l0.156,0.421l0.158,0.42l0.159,0.42l0.16,0.419l0.162,0.419l0.163,0.418l0.164,0.417l0.165,0.417l0.166,0.416l0.168,0.416l0.169,0.415l0.17,0.414l0.171,0.414l0.173,0.413l0.174,0.412l0.175,0.412l0.176,0.411l0.177,0.41l0.179,0.41l0.18,0.409l0.181,0.409l0.182,0.408l0.184,0.407l0.37,0.812l0.187,0.406l0.378,0.808l0.191,0.403l0.192,0.403l0.193,0.402l0.194,0.401l0.195,0.401l0.197,0.399l0.198,0.4l0.199,0.398l0.2,0.398l0.201,0.397l0.202,0.397l0.204,0.395l0.205,0.395l0.206,0.395l0.207,0.394l0.208,0.392l0.209,0.393l0.422,0.782l0.213,0.39l0.214,0.39l0.215,0.389l0.217,0.388l0.217,0.387l0.438,0.772l0.221,0.385l0.222,0.385l0.223,0.383l0.224,0.383l0.225,0.383l0.454,0.762l0.229,0.38l0.23,0.379l0.462,0.756l0.234,0.377l0.234,0.376l0.235,0.376l0.236,0.375l0.238,0.374l0.238,0.373l0.24,0.372l0.241,0.372l0.242,0.371l0.243,0.37l0.244,0.369l0.245,0.369l0.246,0.368l0.247,0.367l0.248,0.366l0.5,0.73l0.252,0.364l0.252,0.363l0.254,0.362l0.255,0.362l0.256,0.361l0.256,0.359l0.258,0.36l0.259,0.358l0.26,0.357l0.261,0.357l0.262,0.356l0.263,0.355l0.53,0.708l0.266,0.352l0.267,0.352l0.269,0.351l0.269,0.35l0.27,0.349l0.272,0.349l0.272,0.347l0.273,0.347l0.275,0.346l0.275,0.345l0.554,0.688l0.558,0.684l0.281,0.341l0.281,0.34l0.283,0.339l0.283,0.338l0.285,0.338l0.285,0.336l0.287,0.336l0.287,0.335l0.289,0.334l0.289,0.333l0.29,0.332l0.584,0.662l0.293,0.329l0.295,0.329l0.295,0.328l0.296,0.327l0.298,0.326l0.298,0.325l0.299,0.324l0.3,0.323l0.301,0.323l0.302,0.321l0.303,0.321l0.304,0.32l0.61,0.636l0.307,0.317l0.308,0.316l0.308,0.315l0.31,0.314l0.311,0.314l0.311,0.312l0.312,0.312l0.628,0.62l0.315,0.308l0.316,0.308l0.317,0.307l0.318,0.305l0.319,0.305l0.319,0.304l0.321,0.303l0.321,0.302l0.323,0.301l0.323,0.3l0.324,0.299l0.325,0.299l0.326,0.297l0.327,0.296l0.328,0.295l0.329,0.295l0.329,0.293l0.662,0.584l0.332,0.29l0.333,0.289l0.334,0.289l0.335,0.287l0.336,0.287l0.336,0.285l0.338,0.285l0.338,0.283l0.339,0.283l0.34,0.281l0.341,0.281l0.684,0.558l0.688,0.554l0.345,0.275l0.346,0.275l0.347,0.273l0.347,0.272l0.349,0.272l0.349,0.27l0.35,0.269l0.351,0.269l0.352,0.267l0.352,0.266l0.708,0.53l0.355,0.263l0.356,0.262l0.357,0.261l0.357,0.26l0.358,0.259l0.36,0.258l0.36,0.257l0.36,0.255l0.362,0.255l0.362,0.254l0.363,0.252l0.364,0.252l0.73,0.5l0.366,0.248l0.367,0.247l0.368,0.246l0.369,0.245l0.369,0.244l0.37,0.243l0.371,0.242l0.372,0.241l0.372,0.24l0.373,0.238l0.374,0.238l0.375,0.236l0.376,0.235l0.376,0.234l0.377,0.234l0.756,0.462l0.379,0.23l0.38,0.229l0.381,0.227l0.382,0.227l0.382,0.225l0.383,0.224l0.383,0.223l0.385,0.222l0.385,0.221l0.386,0.22l0.386,0.218l0.387,0.217l0.389,0.217l0.388,0.215l0.39,0.214l0.39,0.213l0.782,0.422l0.393,0.209l0.392,0.208l0.394,0.207l0.395,0.206l0.395,0.205l0.395,0.204l0.397,0.202l0.397,0.201l0.398,0.201l0.398,0.198l0.4,0.198l0.4,0.197l0.4,0.195l0.401,0.194l0.402,0.193l0.403,0.192l0.403,0.191l0.808,0.378l0.406,0.187l0.406,0.186l0.406,0.184l0.407,0.184l0.408,0.182l0.409,0.181l0.409,0.18l0.41,0.179l0.41,0.177l0.411,0.176l0.412,0.175l0.412,0.174l0.413,0.173l0.414,0.171l0.414,0.17l0.415,0.169l0.416,0.168l0.416,0.166l0.417,0.165l0.417,0.164l0.418,0.163l0.419,0.162l0.419,0.16l0.42,0.159l0.42,0.158l0.421,0.156l0.422,0.155l0.422,0.154l0.423,0.153l0.424,0.152l0.424,0.15l0.425,0.149l0.425,0.148l0.426,0.146l0.426,0.145l0.427,0.144l0.428,0.143l0.428,0.141l0.429,0.14l0.429,0.139l0.86,0.274l0.431,0.134l0.432,0.134l0.432,0.132l0.433,0.131l0.433,0.13l0.434,0.129l0.434,0.127l0.435,0.126l0.436,0.124l0.436,0.123l0.436,0.122l0.438,0.121l0.437,0.119l0.438,0.118l0.439,0.117l0.439,0.115l0.44,0.114l0.441,0.113l0.44,0.111l0.442,0.11l0.442,0.109l0.442,0.107l0.443,0.106l0.444,0.105l0.444,0.103l0.444,0.102l0.445,0.101l0.446,0.099l0.446,0.098l0.447,0.097l0.447,0.095l0.447,0.094l0.448,0.092l0.449,0.092l0.898,0.178l0.45,0.087l0.902,0.17l0.451,0.083l0.452,0.081l0.453,0.08l0.453,0.079l0.453,0.078l0.454,0.076l0.454,0.074l0.455,0.074l0.455,0.071l0.456,0.071l0.456,0.069l0.457,0.068l0.457,0.066l0.458,0.065l0.458,0.063l0.458,0.062l0.459,0.061l0.459,0.059l0.46,0.058l0.461,0.056l0.46,0.055l0.461,0.054l0.462,0.052l0.924,0.1l0.926,0.094l0.464,0.045l0.464,0.043l0.465,0.042l0.465,0.041l0.465,0.039l0.466,0.038l0.466,0.036l0.467,0.035l0.467,0.033l0.467,0.032l0.468,0.03l0.468,0.029l0.469,0.028l0.469,0.026l0.469,0.025l0.47,0.023l0.47,0.021l0.471,0.02l0.471,0.019l0.471,0.017l0.472,0.016l0.472,0.014l0.473,0.013l0.473,0.011l0.473,0.01l0.473,0.008l0.474,0.007l0.475,0.005l0.474,0.004l0.476,0.002l0.475,0.001l0.475,-0.001l0.476,-0.002l0.474,-0.004l0.475,-0.005l0.474,-0.007l0.473,-0.008l0.473,-0.01l0.473,-0.011l0.473,-0.013l0.472,-0.014l0.472,-0.016l0.471,-0.017l0.471,-0.019l0.471,-0.02l0.47,-0.021l0.47,-0.023l0.469,-0.025l0.469,-0.026l0.469,-0.028l0.468,-0.029l0.468,-0.03l0.467,-0.032l0.467,-0.033l0.467,-0.035l0.466,-0.036l0.466,-0.038l0.465,-0.039l0.465,-0.041l0.465,-0.042l0.464,-0.043l0.464,-0.045l0.463,-0.047l0.463,-0.047l0.462,-0.05l0.462,-0.05l0.462,-0.052l0.461,-0.054l0.461,-0.055l0.46,-0.056l0.46,-0.058l0.459,-0.059l0.459,-0.061l0.458,-0.062l0.458,-0.063l0.458,-0.065l0.457,-0.066l0.457,-0.068l0.456,-0.069l0.456,-0.071l0.455,-0.071l0.455,-0.074l0.454,-0.074l0.454,-0.076l0.453,-0.078l0.453,-0.079l0.453,-0.08l0.452,-0.081l0.451,-0.083l0.451,-0.085l0.451,-0.085l0.45,-0.087l0.449,-0.089l0.449,-0.089l0.449,-0.092l0.448,-0.092l0.447,-0.094l0.447,-0.095l0.447,-0.097l0.446,-0.098l0.446,-0.099l0.445,-0.101l0.444,-0.102l0.444,-0.103l0.444,-0.105l0.443,-0.106l0.442,-0.107l0.442,-0.109l0.442,-0.11l0.44,-0.111l0.441,-0.113l0.44,-0.114l0.439,-0.115l0.439,-0.117l0.438,-0.118l0.438,-0.119l0.437,-0.121l0.436,-0.122l0.436,-0.123l0.436,-0.124l0.435,-0.126l0.434,-0.127l0.434,-0.129l0.433,-0.13l0.433,-0.131l0.432,-0.132l0.432,-0.134l0.431,-0.134l0.43,-0.137l0.43,-0.137l0.429,-0.139l0.429,-0.14l0.429,-0.141l0.427,-0.143l0.427,-0.144l0.426,-0.145l0.426,-0.146l0.426,-0.148l0.424,-0.149l0.424,-0.15l0.424,-0.152l0.423,-0.153l0.422,-0.154l0.422,-0.155l0.421,-0.156l0.42,-0.158l0.42,-0.159l0.419,-0.16l0.419,-0.162l0.418,-0.163l0.417,-0.164l0.417,-0.165l0.416,-0.166l0.416,-0.168l0.415,-0.169l0.414,-0.17l0.414,-0.171l0.413,-0.173l0.412,-0.174l0.412,-0.175l0.411,-0.176l0.41,-0.177l0.41,-0.179l0.409,-0.18l0.409,-0.181l0.408,-0.182l0.407,-0.184l0.406,-0.184l0.406,-0.186l0.406,-0.187l0.404,-0.189l0.404,-0.189l0.403,-0.191l0.403,-0.192l0.402,-0.193l0.401,-0.194l0.401,-0.195l0.399,-0.197l0.4,-0.198l0.398,-0.198l0.398,-0.201l0.397,-0.201l0.397,-0.202l0.395,-0.204l0.395,-0.205l0.395,-0.206l0.394,-0.207l0.393,-0.208l0.392,-0.209l0.391,-0.211l0.391,-0.211l0.39,-0.213l0.39,-0.214l0.389,-0.215l0.388,-0.217l0.387,-0.217l0.386,-0.218l0.386,-0.22l0.385,-0.221l0.385,-0.222l0.383,-0.223l0.383,-0.224l0.383,-0.225l0.381,-0.227l0.381,-0.227l0.38,-0.229l0.379,-0.23l0.379,-0.231l0.377,-0.231l0.377,-0.234l0.376,-0.234l0.376,-0.235l0.375,-0.236l0.374,-0.238l0.373,-0.238l0.372,-0.24l0.372,-0.241l0.371,-0.242l0.37,-0.243l0.369,-0.244l0.369,-0.245l0.368,-0.246l0.367,-0.247l0.366,-0.248l0.365,-0.25l0.365,-0.25l0.364,-0.252l0.363,-0.252l0.362,-0.254l0.362,-0.255l0.361,-0.255l0.359,-0.257l0.36,-0.258l0.358,-0.259l0.357,-0.26l0.357,-0.261l0.356,-0.262l0.355,-0.263l0.354,-0.265l0.354,-0.265l0.352,-0.266l0.352,-0.267l0.351,-0.269l0.35,-0.269l0.349,-0.27l0.349,-0.272l0.347,-0.272l0.347,-0.273l0.346,-0.275l0.345,-0.275l0.344,-0.277l0.344,-0.277l0.342,-0.279l0.342,-0.279l0.341,-0.281l0.34,-0.281l0.339,-0.283l0.338,-0.283l0.338,-0.285l0.336,-0.285l0.336,-0.287l0.335,-0.287l0.334,-0.289l0.333,-0.289l0.332,-0.29l0.331,-0.292l0.331,-0.292l0.329,-0.293l0.329,-0.295l0.328,-0.295l0.327,-0.296l0.326,-0.297l0.325,-0.299l0.324,-0.299l0.323,-0.3l0.323,-0.301l0.321,-0.302l0.321,-0.303l0.32,-0.304l0.318,-0.305l0.318,-0.305l0.317,-0.307l0.316,-0.308l0.315,-0.308l0.314,-0.31l0.314,-0.31l0.312,-0.312l0.312,-0.312l0.31,-0.314l0.31,-0.314l0.308,-0.315l0.308,-0.316l0.307,-0.317l0.305,-0.318l0.305,-0.318l0.304,-0.32l0.303,-0.321l0.302,-0.321l0.301,-0.323l0.3,-0.323l0.299,-0.324l0.299,-0.325l0.297,-0.326l0.296,-0.327l0.295,-0.328l0.295,-0.329l0.293,-0.329l0.292,-0.331l0.292,-0.331l0.29,-0.332l0.289,-0.333l0.289,-0.334l0.287,-0.335l0.287,-0.336l0.285,-0.336l0.285,-0.338l0.283,-0.338l0.283,-0.339l0.281,-0.34l0.281,-0.341l0.279,-0.342l0.279,-0.342l0.277,-0.344l0.277,-0.344l0.275,-0.345l0.275,-0.346l0.273,-0.347l0.272,-0.347l0.272,-0.349l0.27,-0.349l0.269,-0.35l0.269,-0.351l0.267,-0.352l0.266,-0.352l0.265,-0.354l0.265,-0.354l0.263,-0.355l0.262,-0.356l0.261,-0.357l0.26,-0.357l0.259,-0.358l0.258,-0.36l0.257,-0.359l0.255,-0.361l0.255,-0.362l0.254,-0.362l0.252,-0.363l0.252,-0.364l0.25,-0.365l0.25,-0.365l0.248,-0.366l0.247,-0.367l0.246,-0.368l0.245,-0.369l0.244,-0.369l0.243,-0.37l0.242,-0.371l0.241,-0.372l0.24,-0.372l0.238,-0.373l0.238,-0.374l0.236,-0.375l0.235,-0.376l0.234,-0.376l0.234,-0.377l0.231,-0.377l0.231,-0.379l0.23,-0.379l0.229,-0.38l0.227,-0.381l0.227,-0.381l0.225,-0.383l0.224,-0.383l0.223,-0.383l0.222,-0.385l0.221,-0.385l0.22,-0.386l0.218,-0.386l0.217,-0.387l0.217,-0.388l0.215,-0.389l0.214,-0.39l0.213,-0.39l0.211,-0.391l0.211,-0.391l0.209,-0.392l0.208,-0.393l0.207,-0.394l0.206,-0.395l0.205,-0.395l0.204,-0.395l0.202,-0.397l0.201,-0.397l0.201,-0.398l0.198,-0.398l0.198,-0.4l0.197,-0.399l0.195,-0.401l0.194,-0.401l0.193,-0.402l0.192,-0.403l0.191,-0.403l0.189,-0.404l0.189,-0.404l0.187,-0.406l0.186,-0.406l0.184,-0.406l0.184,-0.407l0.182,-0.408l0.181,-0.409l0.18,-0.409l0.179,-0.41l0.177,-0.41l0.176,-0.411l0.175,-0.412l0.174,-0.412l0.173,-0.413l0.171,-0.414l0.17,-0.414l0.169,-0.415l0.168,-0.416l0.166,-0.416l0.165,-0.417l0.164,-0.417l0.163,-0.418l0.162,-0.419l0.16,-0.419l0.159,-0.42l0.158,-0.42l0.156,-0.421l0.155,-0.422l0.154,-0.422l0.153,-0.423l0.152,-0.424l0.15,-0.424l0.149,-0.424l0.148,-0.426l0.146,-0.426l0.145,-0.426l0.144,-0.427l0.143,-0.427l0.141,-0.429l0.14,-0.429l0.139,-0.429l0.137,-0.43l0.137,-0.43l0.134,-0.431l0.134,-0.432l0.132,-0.432l0.131,-0.433l0.13,-0.433l0.129,-0.434l0.127,-0.434l0.126,-0.435l0.124,-0.436l0.123,-0.436l0.122,-0.436l0.121,-0.437l0.119,-0.438l0.118,-0.438l0.117,-0.439l0.115,-0.439l0.114,-0.44l0.113,-0.441l0.111,-0.44l0.11,-0.442l0.109,-0.442l0.107,-0.442l0.106,-0.443l0.105,-0.444l0.103,-0.444l0.102,-0.444l0.101,-0.445l0.099,-0.446l0.098,-0.446l0.097,-0.447l0.095,-0.447l0.094,-0.447l0.092,-0.448l0.092,-0.449l0.089,-0.449l0.089,-0.449l0.087,-0.45l0.085,-0.451l0.085,-0.451l0.083,-0.451l0.081,-0.452l0.08,-0.453l0.079,-0.453l0.078,-0.453l0.076,-0.454l0.074,-0.454l0.074,-0.455l0.071,-0.455l0.071,-0.456l0.069,-0.456l0.068,-0.457l0.066,-0.457l0.065,-0.458l0.063,-0.458l0.062,-0.458l0.061,-0.459l0.059,-0.459l0.058,-0.46l0.056,-0.46l0.055,-0.461l0.054,-0.461l0.052,-0.462l0.05,-0.462l0.05,-0.462l0.047,-0.463l0.047,-0.463l0.045,-0.464l0.043,-0.464l0.042,-0.465l0.041,-0.465l0.039,-0.465l0.038,-0.466l0.036,-0.466l0.035,-0.467l0.033,-0.467l0.032,-0.467l0.03,-0.468l0.029,-0.468l0.028,-0.469l0.026,-0.469l0.025,-0.469l0.023,-0.47l0.021,-0.47l0.02,-0.471l0.019,-0.471l0.017,-0.471l0.016,-0.472l0.014,-0.472l0.013,-0.473l0.011,-0.473l0.01,-0.473l0.008,-0.473l0.007,-0.474l0.005,-0.475l0.004,-0.474l0.002,-0.476l0.001,-0.475l-0.001,-0.475l-0.002,-0.476l-0.004,-0.474l-0.005,-0.475l-0.007,-0.474l-0.008,-0.473l-0.01,-0.473l-0.011,-0.473l-0.013,-0.473l-0.014,-0.472l-0.016,-0.472l-0.017,-0.471l-0.019,-0.471l-0.02,-0.471l-0.021,-0.47l-0.023,-0.47l-0.025,-0.469l-0.026,-0.469l-0.028,-0.469l-0.029,-0.468l-0.03,-0.468l-0.032,-0.467l-0.033,-0.467l-0.035,-0.467l-0.036,-0.466l-0.038,-0.466l-0.039,-0.465l-0.041,-0.465l-0.042,-0.465l-0.043,-0.464l-0.045,-0.464l-0.047,-0.463l-0.047,-0.463l-0.05,-0.462l-0.05,-0.462l-0.052,-0.462l-0.054,-0.461l-0.055,-0.46l-0.056,-0.461l-0.058,-0.46l-0.059,-0.459l-0.061,-0.459l-0.062,-0.458l-0.063,-0.458l-0.065,-0.458l-0.066,-0.457l-0.068,-0.457l-0.069,-0.456l-0.071,-0.456l-0.071,-0.455l-0.074,-0.455l-0.074,-0.454l-0.076,-0.454l-0.078,-0.453l-0.079,-0.453l-0.08,-0.453l-0.081,-0.452l-0.083,-0.451l-0.085,-0.451l-0.085,-0.451l-0.087,-0.45l-0.089,-0.449l-0.089,-0.449l-0.092,-0.449l-0.092,-0.448l-0.094,-0.447l-0.095,-0.447l-0.097,-0.447l-0.098,-0.446l-0.099,-0.446l-0.101,-0.445l-0.102,-0.444l-0.103,-0.444l-0.105,-0.444l-0.106,-0.443l-0.107,-0.442l-0.109,-0.442l-0.11,-0.442l-0.111,-0.44l-0.113,-0.441l-0.114,-0.44l-0.115,-0.439l-0.117,-0.439l-0.118,-0.438l-0.119,-0.437l-0.121,-0.438l-0.122,-0.436l-0.123,-0.436l-0.124,-0.436l-0.126,-0.435l-0.127,-0.434l-0.129,-0.434l-0.13,-0.433l-0.131,-0.433l-0.132,-0.432l-0.134,-0.432l-0.134,-0.431l-0.137,-0.43l-0.137,-0.43l-0.139,-0.429l-0.14,-0.429l-0.141,-0.428l-0.143,-0.428l-0.144,-0.427l-0.145,-0.426l-0.146,-0.426l-0.148,-0.425l-0.149,-0.425l-0.15,-0.424l-0.152,-0.424l-0.153,-0.423l-0.154,-0.422l-0.155,-0.422l-0.156,-0.421l-0.158,-0.42l-0.159,-0.42l-0.16,-0.419l-0.162,-0.419l-0.163,-0.418l-0.164,-0.417l-0.165,-0.417l-0.166,-0.416l-0.168,-0.416l-0.169,-0.415l-0.17,-0.414l-0.171,-0.414l-0.173,-0.413l-0.174,-0.412l-0.175,-0.412l-0.176,-0.411l-0.177,-0.41l-0.179,-0.41l-0.18,-0.409l-0.181,-0.409l-0.182,-0.408l-0.184,-0.407l-0.184,-0.406l-0.186,-0.406l-0.187,-0.406l-0.189,-0.404l-0.189,-0.404l-0.191,-0.403l-0.192,-0.403l-0.193,-0.402l-0.194,-0.401l-0.195,-0.4l-0.197,-0.4l-0.198,-0.4l-0.198,-0.398l-0.201,-0.398l-0.201,-0.397l-0.202,-0.397l-0.204,-0.395l-0.205,-0.395l-0.206,-0.395l-0.207,-0.394l-0.208,-0.392l-0.209,-0.393l-0.211,-0.391l-0.211,-0.391l-0.213,-0.39l-0.214,-0.39l-0.215,-0.388l-0.217,-0.389l-0.217,-0.387l-0.218,-0.386l-0.22,-0.386l-0.221,-0.385l-0.222,-0.385l-0.223,-0.383l-0.224,-0.383l-0.225,-0.382l-0.227,-0.382l-0.227,-0.381l-0.229,-0.38l-0.23,-0.379l-0.231,-0.378l-0.231,-0.378l-0.234,-0.377l-0.234,-0.376l-0.235,-0.376l-0.236,-0.375l-0.238,-0.374l-0.238,-0.373l-0.24,-0.372l-0.241,-0.372l-0.242,-0.371l-0.243,-0.37l-0.244,-0.369l-0.245,-0.369l-0.246,-0.368l-0.247,-0.367l-0.248,-0.366l-0.25,-0.365l-0.25,-0.365l-0.252,-0.364l-0.252,-0.363l-0.254,-0.362l-0.255,-0.362l-0.255,-0.36l-0.257,-0.36l-0.258,-0.36l-0.259,-0.358l-0.26,-0.357l-0.261,-0.357l-0.262,-0.356l-0.263,-0.355l-0.265,-0.354l-0.265,-0.354l-0.266,-0.352l-0.267,-0.352l-0.269,-0.351l-0.269,-0.35l-0.27,-0.349l-0.272,-0.349l-0.272,-0.347l-0.273,-0.347l-0.275,-0.346l-0.275,-0.345l-0.277,-0.344l-0.277,-0.344l-0.279,-0.342l-0.279,-0.342l-0.281,-0.341l-0.281,-0.34l-0.283,-0.339l-0.283,-0.338l-0.285,-0.338l-0.285,-0.336l-0.287,-0.336l-0.287,-0.335l-0.289,-0.334l-0.289,-0.333l-0.29,-0.332l-0.292,-0.331l-0.292,-0.331l-0.293,-0.329l-0.295,-0.329l-0.295,-0.328l-0.296,-0.327l-0.297,-0.326l-0.299,-0.325l-0.299,-0.324l-0.3,-0.323l-0.301,-0.323l-0.302,-0.321l-0.303,-0.321l-0.304,-0.319l-0.305,-0.319l-0.305,-0.318l-0.307,-0.317l-0.308,-0.316l-0.308,-0.315l-0.31,-0.314l-0.31,-0.314l-0.312,-0.312l-0.312,-0.311l-0.314,-0.311l-0.314,-0.31l-0.315,-0.308l-0.316,-0.308l-0.317,-0.307l-0.318,-0.305l-0.318,-0.305l-0.32,-0.304l-0.321,-0.303l-0.321,-0.302l-0.323,-0.301l-0.323,-0.3l-0.324,-0.299l-0.325,-0.298l-0.326,-0.298l-0.327,-0.296l-0.328,-0.295l-0.329,-0.295l-0.329,-0.293l-0.331,-0.292l-0.331,-0.292l-0.332,-0.29l-0.333,-0.289l-0.334,-0.289l-0.335,-0.287l-0.336,-0.287l-0.336,-0.285l-0.338,-0.285l-0.338,-0.283l-0.339,-0.283l-0.34,-0.281l-0.341,-0.281l-0.342,-0.279l-0.342,-0.279l-0.344,-0.277l-0.344,-0.277l-0.345,-0.275l-0.346,-0.275l-0.347,-0.273l-0.347,-0.272l-0.349,-0.272l-0.349,-0.27l-0.35,-0.269l-0.351,-0.269l-0.352,-0.267l-0.352,-0.266l-0.354,-0.265l-0.354,-0.265l-0.355,-0.263l-0.356,-0.262l-0.357,-0.261l-0.357,-0.26l-0.358,-0.259l-0.36,-0.258l-0.359,-0.256l-0.361,-0.256l-0.362,-0.255l-0.362,-0.254l-0.363,-0.252l-0.364,-0.252l-0.365,-0.25l-0.365,-0.25l-0.366,-0.248l-0.367,-0.247l-0.368,-0.246l-0.369,-0.245l-0.369,-0.244l-0.37,-0.243l-0.371,-0.242l-0.372,-0.241l-0.372,-0.24l-0.373,-0.238l-0.374,-0.238l-0.375,-0.236l-0.376,-0.235l-0.376,-0.234l-0.377,-0.234l-0.378,-0.231l-0.378,-0.231l-0.379,-0.23l-0.38,-0.229l-0.381,-0.227l-0.381,-0.227l-0.383,-0.225l-0.383,-0.224l-0.383,-0.223l-0.385,-0.222l-0.385,-0.221l-0.386,-0.219l-0.386,-0.219l-0.387,-0.217l-0.388,-0.217l-0.389,-0.215l-0.39,-0.214l-0.39,-0.213l-0.391,-0.211l-0.391,-0.211l-0.393,-0.209l-0.392,-0.208l-0.394,-0.207l-0.395,-0.206l-0.395,-0.205l-0.395,-0.204l-0.397,-0.202l-0.397,-0.201l-0.398,-0.2l-0.398,-0.199l-0.4,-0.198l-0.399,-0.197l-0.401,-0.195l-0.401,-0.194l-0.402,-0.193l-0.403,-0.192l-0.403,-0.191l-0.404,-0.189l-0.404,-0.189l-0.406,-0.187l-0.406,-0.185l-0.406,-0.185l-0.407,-0.184l-0.408,-0.182l-0.409,-0.181l-0.409,-0.18l-0.41,-0.179l-0.41,-0.177l-0.411,-0.176l-0.412,-0.175l-0.412,-0.174l-0.413,-0.173l-0.414,-0.171l-0.414,-0.17l-0.415,-0.169l-0.416,-0.168l-0.416,-0.166l-0.417,-0.165l-0.417,-0.164l-0.418,-0.163l-0.419,-0.162l-0.419,-0.16l-0.42,-0.159l-0.42,-0.158l-0.421,-0.156l-0.422,-0.155l-0.422,-0.154l-0.423,-0.153l-0.424,-0.152l-0.424,-0.15l-0.424,-0.149l-0.426,-0.148l-0.426,-0.146l-0.426,-0.145l-0.427,-0.144l-0.428,-0.143l-0.428,-0.141l-0.428,-0.14l-0.43,-0.139l-0.43,-0.137l-0.43,-0.136l-0.431,-0.135l-0.432,-0.134l-0.432,-0.132l-0.433,-0.131l-0.433,-0.13l-0.434,-0.129l-0.434,-0.127l-0.435,-0.126l-0.436,-0.124l-0.436,-0.123l-0.436,-0.122l-0.437,-0.121l-0.438,-0.119l-0.438,-0.118l-0.439,-0.117l-0.439,-0.115l-0.44,-0.114l-0.441,-0.113l-0.44,-0.111l-0.442,-0.11l-0.442,-0.109l-0.442,-0.107l-0.443,-0.106l-0.444,-0.105l-0.444,-0.103l-0.444,-0.102l-0.445,-0.101l-0.446,-0.099l-0.446,-0.098l-0.446,-0.097l-0.448,-0.095l-0.447,-0.094l-0.448,-0.092l-0.449,-0.091l-0.449,-0.09l-0.449,-0.089l-0.45,-0.087l-0.451,-0.085l-0.451,-0.085l-0.451,-0.083l-0.452,-0.081l-0.453,-0.08l-0.453,-0.079l-0.453,-0.078l-0.454,-0.076l-0.454,-0.074l-0.455,-0.074l-0.455,-0.071l-0.456,-0.071l-0.456,-0.069l-0.457,-0.068l-0.457,-0.066l-0.458,-0.065l-0.458,-0.063l-0.458,-0.062l-0.459,-0.061l-0.459,-0.059l-0.46,-0.058l-0.46,-0.056l-0.461,-0.055l-0.461,-0.054l-0.462,-0.052l-0.462,-0.05l-0.462,-0.05l-0.463,-0.047l-0.463,-0.047l-0.464,-0.045l-0.464,-0.043l-0.465,-0.042l-0.465,-0.041l-0.465,-0.039l-0.466,-0.038l-0.466,-0.036l-0.467,-0.035l-0.467,-0.033l-0.467,-0.032l-0.468,-0.03l-0.468,-0.029l-0.469,-0.028l-0.469,-0.026l-0.469,-0.025l-0.47,-0.023l-0.47,-0.021l-0.471,-0.02l-0.471,-0.019l-0.471,-0.017l-0.472,-0.016l-0.472,-0.014l-0.473,-0.013l-0.472,-0.011l-0.474,-0.01l-0.473,-0.008l-0.474,-0.007l-0.475,-0.005l-0.474,-0.004l-0.476,-0.002l-0.475,-0.001l-0.475,0.001l0,0Z" style="fill:#153c88;"/><g><path d="M216.148,69.018l-0.001,0.003c-15.927,-12.444 -32.961,-18.705 -53.145,-19.557l0,-0.006l-0.415,-0.017l-0.719,3.316l-0.688,18.234c0.196,0.022 0.393,0.043 0.589,0.066c15.066,1.773 28.883,7.401 40.492,15.839c0.411,0.301 0.958,0.708 1.285,0.955l12.096,-15.354l0.84,-3.26l-0.334,-0.219Z" style="fill:#90908f;fill-rule:nonzero;"/><path d="M253.876,175.611c8.014,-34.761 -4.321,-70.154 -33.24,-92.859l-9.273,11.771c17.14,16.478 27.434,39.921 26.44,65.545c-0.286,7.426 -1.506,14.596 -3.537,21.404c-0.322,1.076 -0.669,2.141 -1.031,3.2l16.422,6.031l0.109,-0.496l-0.107,0.495c0.36,-0.975 0.696,-1.953 1.023,-2.932c0.102,-0.31 0.2,-0.621 0.299,-0.931c0.144,-0.444 0.279,-0.89 0.414,-1.334c0.001,-0.004 0.003,-0.008 0.003,-0.011c0.042,-0.135 0.086,-0.269 0.126,-0.405c0.264,-0.874 0.51,-1.749 0.747,-2.624c0.102,-0.371 0.208,-0.742 0.303,-1.113c0.305,-1.18 0.59,-2.362 0.847,-3.543c0.012,-0.049 0.025,-0.097 0.035,-0.147c0.236,-1.092 0.473,-2.186 0.708,-3.279c0.004,-0.013 0.006,-0.025 0.009,-0.037c-0.014,0.063 -0.032,0.127 -0.046,0.19c-0.077,0.359 -0.168,0.717 -0.251,1.075l0,0Z" style="fill:#e4032e;fill-rule:nonzero;"/><path d="M230.253,192.21c-6.704,14.851 -17.661,27.654 -31.267,36.615c-13.924,9.172 -30.405,14.131 -47.077,14.181c-4.827,0.014 -9.659,-0.371 -14.423,-1.157c-2.436,-0.403 -4.854,-0.909 -7.246,-1.518c-0.263,-0.067 -2.446,-0.72 -2.482,-0.621c-0.077,0.212 -5.009,14.88 -5.009,14.88c0,0 4.91,1.922 6.297,2.32c5.291,1.52 10.713,2.567 16.187,3.149c10.391,1.104 21.021,0.351 31.178,-2.099c20.36,-4.918 38.66,-16.769 51.535,-33.273c3.245,-4.164 6.104,-8.632 8.574,-13.295c1.236,-2.333 2.373,-4.712 3.404,-7.143c0.713,-1.675 1.508,-3.355 1.893,-5.14c0.053,-0.241 0.629,-2.421 0.488,-2.473l-12.052,-4.426l0,0Z" style="fill:#90908f;fill-rule:nonzero;"/><path d="M155.905,158.597c-0.805,-0.06 -0.003,-1.55 0.086,-1.868c0.088,-0.316 0.006,-0.699 -0.497,-0.781c-0.508,-0.083 -1.857,-0.159 -1.811,-0.889c0.046,-0.729 0.457,-1.368 -1.122,-2.141c-1.025,-0.499 -1.417,-0.123 -1.913,0.201c-0.496,0.323 -0.911,-0.298 -0.911,-0.298c0,0 -1.028,-1.09 -2.543,-0.567c-0.098,0.034 -0.191,0.053 -0.293,0.1c-1.68,0.792 -2.171,1.746 -2.031,2.247c0.135,0.505 0.089,0.349 -0.15,0.456c-0.238,0.109 -0.545,0.39 -0.155,0.935c0.393,0.544 0.411,1.321 0.313,1.675c-0.211,0.794 -1.167,1.928 -0.305,3.145c0.094,0.134 0.216,0.268 0.356,0.403c0.03,0.03 0.056,0.058 0.089,0.088c0.468,0.414 0.898,0.634 1.368,0.443c0.329,-0.135 0.127,-0.58 0.584,-0.798c1.042,-0.494 2.246,0.627 2.438,0.808c0.193,0.178 0.598,0.846 1.046,0.591c0.449,-0.261 0.512,-2.425 1.873,-2.202c1.365,0.226 1.321,-0.407 1.718,-0.344c0.394,0.067 0.51,0.49 0.283,0.749c-0.227,0.256 0.693,0.705 1.173,0.046c0.476,-0.662 1.202,-1.944 0.404,-1.999l0,0Z" style="fill:#e4032e;fill-rule:nonzero;"/><path d="M168.24,155.467c-1.317,-0.261 -3.074,-0.805 -3.695,-1.508c-0.162,-0.183 -0.25,-0.377 -0.228,-0.58c0.107,-0.978 -0.542,-1.419 -1.442,-1.677c-0.899,-0.262 0.144,-0.533 -0.59,-3.149c-0.734,-2.615 -0.931,-3.753 -2.411,-4.219c-0.239,-0.075 -0.452,-0.146 -0.654,-0.215c-0.206,-0.069 -0.395,-0.136 -0.571,-0.197l0,-0.001c-0.075,-0.026 -0.151,-0.053 -0.223,-0.078c-0.589,-0.209 -1.038,-0.363 -1.554,-0.447c-0.863,-0.144 -3.966,-0.819 -4.378,-0.665c-0.415,0.153 -2.497,1.027 -3.352,1.165c-0.253,0.041 -0.926,0.149 -1.636,0.101c-0.651,-0.045 -1.333,-0.221 -1.754,-0.713c-1.287,-1.509 -2.756,-2.121 -6.009,-2.545c-3.258,-0.424 -7.618,9.887 -7.926,12.109c-0.311,2.221 1.275,4.696 1.555,5.356c0.278,0.655 -1.842,5.457 -1.531,7.949c0.308,2.489 2.83,0.3 2.907,1.53c0.073,1.232 2.665,2.326 3.96,2.539c1.297,0.215 0.928,0.428 1.082,1.841c0.03,0.27 0.18,0.48 0.406,0.644l0.002,0c0.12,0.087 0.262,0.159 0.422,0.222c1.104,0.443 2.981,0.355 3.56,0.412c0.819,0.08 4.337,0.934 6.603,1.309c0.333,0.056 0.632,0.054 0.904,0.017c1.576,-0.214 2.189,-1.785 2.534,-2.72c0.399,-1.098 2.503,-2.084 2.503,-2.084c0,0 0.558,-0.35 0.637,-0.836c0.079,-0.485 2.264,-1.289 3.846,-0.806c1.216,0.369 3.489,0.619 4.671,0.345c0.358,-0.082 0.62,-0.212 0.717,-0.402c0.395,-0.784 2.383,-5.076 2.516,-7.043c0.005,-0.083 0.013,-0.169 0.012,-0.243c-0.016,-0.917 0.179,-2.185 0.17,-3.267c-0.008,-1.083 -0.221,-1.979 -1.053,-2.144l0,0ZM162.04,164.504c-1.074,1.488 -3.154,0.479 -2.643,-0.103c0.509,-0.58 0.253,-1.538 -0.637,-1.684c-0.891,-0.148 -0.793,1.282 -3.868,0.776c-3.076,-0.505 -3.216,4.375 -4.223,4.956c-1.013,0.583 -1.926,-0.927 -2.36,-1.329c-0.39,-0.366 -2.642,-2.452 -4.802,-2.038c-0.19,0.036 -0.38,0.091 -0.567,0.17c-0.04,0.017 -0.082,0.026 -0.123,0.046c-1.044,0.496 -0.58,1.497 -1.322,1.802c-1.058,0.431 -2.026,-0.067 -3.078,-1c-3.566,-3.154 -0.86,-6.168 -0.313,-8.198c0.215,-0.796 0.173,-2.548 -0.707,-3.776c-0.877,-1.226 -0.192,-1.861 0.348,-2.104c0.536,-0.242 0.645,0.107 0.334,-1.026c-0.312,-1.131 0.79,-3.278 4.575,-5.064c1.99,-0.939 3.649,-0.599 4.781,-0.067c1.023,0.48 1.614,1.117 1.614,1.117c0,0 0.934,1.403 2.052,0.673c1.118,-0.73 2.004,-1.582 4.314,-0.455c3.556,1.741 2.635,3.181 2.529,4.825c-0.104,1.643 2.943,1.816 4.077,2.003c1.136,0.185 1.323,1.049 1.123,1.763c-0.2,0.716 -2.001,4.076 -0.197,4.207c1.811,0.132 0.171,3.018 -0.907,4.506l0,0Z" style="fill:#164194;fill-rule:nonzero;"/><path d="M150.285,70.467c0.113,-3.014 0.228,-6.029 0.34,-9.043c-16.035,-0.617 -32.169,2.722 -46.466,10.071c-13.952,7.171 -25.85,18.013 -34.401,31.156c-6.404,9.844 -10.993,20.913 -13.39,32.411c0.04,-0.202 0.082,-0.404 0.124,-0.606c-1.859,8.604 -3.034,17.197 -2.713,26.023c0.388,10.675 2.663,21.295 6.677,31.195c7.949,19.684 22.651,36.287 41.264,46.506c4.098,2.251 8.368,4.177 12.753,5.8c0.169,-0.783 0.339,-1.565 0.508,-2.349c-0.169,0.784 -0.338,1.567 -0.508,2.35c0.729,-1.978 1.457,-3.958 2.185,-5.936c0.176,-0.48 0.353,-0.96 0.53,-1.439c0.037,-0.102 0.275,-0.531 0.235,-0.639c-1.814,-0.78 -3.599,-1.633 -5.353,-2.537c-7.211,-3.722 -13.886,-8.47 -19.778,-14.049c-11.834,-11.208 -20.385,-25.729 -24.369,-41.537c-4.017,-15.943 -3.362,-32.994 1.865,-48.582c4.871,-14.526 13.676,-27.623 25.239,-37.668c11.609,-10.085 25.871,-16.977 41.002,-19.738c4.704,-0.857 9.477,-1.32 14.256,-1.389Z" style="fill:#153c88;fill-rule:nonzero;"/><g><path d="M195.57,147.781c0,0 0.44,-1.065 0.834,-1.298c0.395,-0.235 0.044,-0.828 -0.535,-0.272c0,0 -0.978,0.692 -0.819,1.503c0.16,0.813 0.52,0.067 0.52,0.067l0,0Z" style="fill:#164194;fill-rule:nonzero;"/><path d="M196.767,158.611c-0.112,0.045 -0.225,0.082 -0.336,0.138c-0.123,0.064 0.044,-0.005 0.336,-0.138Z" style="fill:#164194;fill-rule:nonzero;"/><path d="M202.269,162.277c3.216,-3.877 0.377,-5.351 -0.12,-5.371c-0.995,-0.043 -0.896,0.009 -0.491,-0.469c2.686,-2.876 0.135,-3.771 -0.624,-4.592c-1.233,-1.336 -1.514,-1.989 -1.514,-1.989c0,0 -0.745,-1.041 0.674,-2.563c1.415,-1.522 2.947,-4.726 0.238,-5.804c-4.088,-1.63 -8.506,-4.642 -10.026,-6.062c-1.523,-1.419 -1.316,-3.073 -1.316,-3.073c-0.003,-1.769 -0.204,-5.221 -1.323,-7.873c-0.264,-0.625 -0.578,-1.205 -0.954,-1.709c-1.167,-1.568 -3.019,-4.161 -4.96,-6.105c-0.109,-0.167 -0.272,-0.374 -0.513,-0.628c-0.227,-0.237 -0.511,-0.509 -0.898,-0.829c-0.067,-0.055 -0.143,-0.106 -0.219,-0.159c-0.366,-0.258 -0.815,-0.48 -1.304,-0.669c0.178,-0.46 3.151,-2.523 1.289,-3.243c-0.533,-0.207 -1.468,-0.305 -2.985,-0.217c-0.26,0.013 -0.531,-0.256 -0.824,-0.234c0,0 1.214,-1.495 0.817,-3.423c-0.362,-1.749 -5.745,-8.808 -16.436,-10.044c-0.194,-0.022 -0.393,-0.037 -0.591,-0.056c-0.917,-0.086 -1.868,-0.135 -2.862,-0.128c-2.889,0.018 -5.571,0.229 -8.07,0.617c-8.734,1.359 -15.104,5.005 -19.112,11.219c-2.21,3.433 -3.042,5.902 -3.042,5.902c0,0 -11.32,5.259 -12.843,17.119c-1.227,9.548 4.39,20.693 9.473,27.26c2.077,2.686 3.366,3.923 0.292,1.266c-2.317,-1.997 -5.1,-4.279 -5.972,-3.562c-0.87,0.717 -0.099,2.563 1.333,4.304c0,0 1.817,1.586 0.526,1.162c-1.291,-0.428 -2.012,0.455 -1.929,0.828c0.081,0.371 -1.94,0.037 -1.94,0.037c0,0 -0.784,-1.776 -3.271,-2.329c-2.488,-0.554 -13.512,-2.733 -19.675,-1.951c-6.148,0.78 -5.796,2.987 -5.796,2.987c0,0 -5.793,5.394 -4.119,5.673c1.678,0.272 6.569,-0.756 7.617,-0.583c1.046,0.175 13.057,0.792 19.681,5.823c2.797,2.126 3.417,1.886 6.3,0.929c2.879,-0.955 6.254,-2.087 6.254,-2.087c0,0 0.192,0.786 -0.764,2.028c-0.958,1.239 -1.984,2.036 -1.625,2.455c0.365,0.416 -1.463,0.618 -3.46,1.435c-1.114,0.458 -2.902,1.96 -1.648,2.167c0.559,0.092 -5.073,2.1 -6.259,3.197c0,0 -0.978,0.281 -1.008,0.907c-0.034,0.629 -1.315,0.144 -1.52,0.968c-0.212,0.825 -0.709,1.247 0.174,1.533c0.885,0.292 -2.029,1.459 -0.459,1.931c1.568,0.474 -0.105,0.627 -1.965,1.039c-1.859,0.409 -8.145,1.779 -8.818,3.495c-0.369,0.939 -1.37,0.567 -4.14,0.755c0,0 -7.021,0.45 -6.792,2.96c0.231,2.511 2.208,4.879 7.527,5.865c5.321,0.983 10.93,-2.392 13.455,-3.376c2.53,-0.98 11.001,-2.81 14.782,-3.584c3.469,-0.71 10.648,-3.7 13.668,-6.373c0.273,-0.241 0.525,-0.482 0.724,-0.716c0.021,-0.025 0.051,-0.057 0.073,-0.082c2.488,-2.881 10.906,-9.911 14.719,-8.978c0.1,0.024 0.174,0.068 0.257,0.104c1.05,0.459 0.914,1.882 0.448,4.098c0,0 -0.217,6.034 -6.351,11.946c-2.92,2.815 -7.176,5.602 -13.399,7.696l-1.46,0.859l-0.643,0.378l-2.112,1.243c0.587,-0.033 1.147,-0.087 1.707,-0.143l0.001,0c0.17,-0.017 0.351,-0.024 0.519,-0.044c5.933,-0.674 10.354,-2.68 13.651,-5.27c9.288,-7.299 9.654,-19.249 9.654,-19.249c-0.22,-1.529 -0.756,-2.438 -1.514,-2.874c-0.128,-0.073 -0.26,-0.136 -0.4,-0.183c-2.902,-0.974 -8.956,2.636 -13.539,6.239c-0.243,0.191 -0.48,0.381 -0.714,0.571c-1.666,1.355 -3.09,2.673 -4.019,3.711c-4.348,4.855 -17.63,6.182 -23.147,7.368c-5.515,1.187 -7.208,5.27 -12.151,5.907c-4.943,0.637 -9.071,-2.089 -8.395,-4.233c0.677,-2.147 4.049,-2.074 4.049,-2.074c7.638,-0.03 9.287,-2.072 8.293,-1.915c-0.994,0.16 -2.173,0.713 -3.429,0.506c-1.254,-0.208 2.661,-1.115 3.773,-2.006c1.119,-0.893 8.409,-2.757 13.884,-3.363c5.474,-0.604 10.543,-3.962 12.978,-7.644c2.434,-3.685 -4.025,2.241 -4.025,2.241c-6.896,5.313 -13.751,4.505 -15.671,4.403c-1.916,-0.101 0.333,-1.112 0.869,-1.361c0.54,-0.247 2.791,-0.615 0.282,-0.386c-2.514,0.233 -0.78,-0.559 -0.378,-1.029c0.4,-0.47 10.403,-4.959 9.323,-4.921c-1.084,0.037 -0.614,-0.854 0.362,-0.907c0.976,-0.054 4.782,-2.323 3.929,-2.356c-0.856,-0.033 -0.371,-0.382 -0.057,-0.975c0.313,-0.595 1.321,-1.468 1.955,-2.295c0.636,-0.826 0.738,-2.316 1.11,-3.689c0.369,-1.371 -0.06,-0.941 -0.06,-0.941c-3.414,2.877 -6.586,2.999 -9.689,3.994c-3.104,0.996 -4.326,-0.713 -4.326,-0.713c-3.947,-3.446 -9.564,-5.221 -9.564,-5.221c-7.395,-2.08 -13.779,-0.56 -13.292,-0.908c0.489,-0.351 2.569,-1.225 3.649,-1.263c1.082,-0.037 -1.36,-0.44 -2.64,-0.075c-1.279,0.36 -1.062,0.979 -2.864,1.04c-1.802,0.061 2.676,-2.075 2.676,-2.075c3.755,-6.69 18.751,-2.431 20.493,-2.143c1.746,0.288 2.208,0.507 2.862,1.332c0.651,0.824 2.037,1.715 3.255,1.701c1.223,-0.014 2.904,0.146 2.904,0.146c-0.291,-1.177 0.233,-1.411 2.274,-1.077c2.039,0.336 1.018,-1.284 -0.083,-2.432c-1.102,-1.147 -2.149,-2.61 -1.211,-2.455c0.944,0.155 4.927,4.356 7.439,4.771c2.513,0.415 -1.391,-3.32 -3.168,-6.594c-16.279,-30.002 4.09,-39.712 4.09,-39.712c0,0 5.068,-9.733 11.654,-12.515c3.295,-1.393 6.427,-2.336 9.373,-2.937c4.033,-0.823 7.709,-0.993 10.942,-0.736c0.199,0.016 0.394,0.035 0.59,0.054c7.628,0.741 12.659,3.837 13.86,6.065c1.232,2.293 -1.489,3.935 -3.945,4.904c-1.717,0.677 -3.305,1.022 -3.305,1.022l4.03,0.168l0.374,-0.25c0.491,-0.39 2.357,-0.926 4.95,-0.013c1.043,0.365 0.831,0.708 0.308,1.025c-1.361,-0.305 -2.528,-0.417 -2.528,-0.417c-2.269,-0.235 -4.369,0.281 -6.468,2.55c-2.096,2.272 -2.572,5.911 -6.841,5.346c-0.471,-0.062 -0.862,-0.09 -1.203,-0.099c-0.219,-0.005 -0.42,-0.003 -0.592,0.011c-1.976,0.153 -0.948,1.44 -0.682,1.593c0.136,0.078 0.369,0.131 0.617,0.168c0.2,0.031 0.406,0.052 0.589,0.064c0.271,0.019 0.478,0.023 0.478,0.023c0,0 4.141,0.984 6.622,-3.337c2.478,-4.32 7.007,-5.496 8.969,-4.478l0.743,0.35c0.579,0.356 1.287,0.847 2.06,1.446c0.377,0.291 0.764,0.606 1.156,0.939c1.898,1.611 3.901,3.665 4.98,5.647c0.559,1.026 0.974,2.027 1.292,2.99c0.882,2.664 0.982,5.012 0.986,6.595c0,0 -0.206,1.655 1.31,3.073c1.522,1.419 5.943,4.433 10.033,6.061c2.709,1.08 0.96,4.257 -0.459,5.78c-1.418,1.519 -0.457,2.588 -0.457,2.588c0,0 0.284,0.652 1.516,1.988c0.758,0.824 3.436,2.076 0.327,4.436c-0.237,0.181 -0.45,0.347 -0.659,0.494c-0.38,0.271 -1.385,0.755 -1.936,1.008c0.781,-0.32 1.546,-0.413 1.98,-0.549c0.57,-0.179 1.146,-0.084 1.547,0.091c2.765,1.194 -0.287,4.181 -0.287,4.181c-1.561,2.12 1.462,1.711 0.793,5.147c-0.111,0.563 -0.407,1.013 -0.823,1.397l0,0.001c-0.981,0.907 -2.691,1.408 -4.663,1.865c-2.852,0.661 -6.218,1.25 -8.605,2.914c-0.557,0.389 -0.982,1.113 -1.343,2.066c-0.888,2.34 -1.384,6.097 -2.434,9.911c-1.216,4.411 -2.861,13.953 -2.824,15.046c0.167,5.12 0.659,1.121 0.803,1.64c0,0 1.542,-9.837 3.375,-15.524c0.884,-2.744 1.675,-7.453 3.029,-10.358c0.534,-1.145 1.153,-2.017 1.904,-2.365c2.408,-1.112 6.163,-1.425 9.224,-2.18c1.785,-0.44 3.333,-1.032 4.239,-2.023c0.344,-0.377 0.599,-0.809 0.735,-1.315c0.909,-3.381 -2.828,-4.255 -1.148,-6.279l0,0Z" style="fill:#164194;fill-rule:nonzero;"/><path d="M178.698,142.591c1.284,-0.124 2.465,-0.543 3.389,-1.208c0.781,-0.608 -0.459,-3.157 -0.752,-3.05c0.188,-0.399 0.327,-0.947 0.566,-1.201c0.297,-0.104 0.687,-0.408 0.731,-0.755c-0.107,-0.295 -0.747,-0.232 -0.707,-0.58c0.675,-0.902 1.096,-2.052 0.486,-2.83c-0.184,-0.237 -0.693,-0.174 -1.254,-0.096c-0.36,0.05 -0.74,0.106 -1.07,0.092c-0.842,-0.028 -1.621,0.579 -2.449,1.043c-0.742,0.26 -1.32,0.964 -2.004,1.374c-0.928,0.663 -1.601,1.567 -2.275,2.47c0.872,-0.807 1.855,-1.323 2.925,-2.038c0.886,-0.314 1.561,-0.799 2.505,-0.892c0.274,-0.025 0.589,-0.096 0.871,-0.148c0.383,-0.069 0.703,-0.103 0.761,0.067c0.126,1.284 -1.539,2.206 -2.001,3.7c-0.149,0.054 -0.295,0.108 -0.443,0.158c-0.338,0.453 0.072,1.137 -0.37,1.294c-0.494,0.012 -0.882,0.315 -1.273,0.621c0.798,0.377 1.694,0.558 2.524,0.096c0.149,-0.053 0.548,0.138 0.654,0.432c0,0 0.146,-0.054 0.241,-0.252c0.146,-0.054 0.295,-0.103 0.347,0.044c0.048,0.144 0.159,0.44 0.208,0.586c-0.228,0.749 -1.075,0.715 -1.61,1.073Z" style="fill:#164194;fill-rule:nonzero;"/></g></g></g></svg>
