<?xml version="1.0" standalone="no"?><!DOCTYPE svg PUBLIC "-//W3C//DTD SVG 1.1//EN" "http://www.w3.org/Graphics/SVG/1.1/DTD/svg11.dtd"><svg width="100%" height="100%" viewBox="0 0 62 60" version="1.1" xmlns="http://www.w3.org/2000/svg" xmlns:xlink="http://www.w3.org/1999/xlink" xml:space="preserve" style="fill-rule:evenodd;clip-rule:evenodd;stroke-linecap:round;stroke-linejoin:round;stroke-miterlimit:1.41421;"><path d="M54.797,23.159l-15.993,0l-10.791,-15.8c-0.963,-0.867 -2.119,-1.445 -3.468,-1.445l-11.08,0c-1.927,0 -4.528,2.601 -5.203,5.202l-2.312,12.043c-2.89,0 -3.179,2.313 -3.179,5.203l0,7.997c1.83,-5.107 6.648,-8.671 12.428,-8.671c7.323,0 13.2,5.877 13.2,13.199c0,0.096 0,0.193 0,0.289l11.85,0c1.445,-2.12 3.95,-3.468 6.648,-3.468c2.794,0 5.203,1.348 6.648,3.468l0.193,0c2.89,0 4.046,-1.06 5.202,-5.203l1.06,-7.611c0,-2.794 -2.312,-5.203 -5.203,-5.203Z" style="fill:none;stroke-width:2px;stroke:currentColor;"/><path d="M15.199,27.688c-5.684,0 -10.598,3.661 -12.428,8.671c-0.482,1.445 -0.771,2.89 -0.771,4.432c0,7.322 5.877,13.199 13.199,13.199c7.226,0 13.007,-5.781 13.2,-12.91c0,-0.097 0,-0.193 0,-0.289c0,-7.226 -5.877,-13.103 -13.2,-13.103Z" style="fill:none;stroke-width:2px;stroke:currentColor;"/><path d="M15.199,35.106c-3.179,0 -5.78,2.602 -5.78,5.781c0,0.096 0,0.193 0,0.289c0.192,3.083 2.697,5.492 5.78,5.492c3.083,0 5.588,-2.409 5.781,-5.492c0,-0.096 0,-0.193 0,-0.289c0,-3.179 -2.601,-5.781 -5.781,-5.781Z" style="fill:none;stroke-width:2px;stroke:currentColor;"/><path d="M53.545,41.176c-1.445,-2.12 -3.95,-3.468 -6.648,-3.468c-2.794,0 -5.203,1.348 -6.648,3.468c-0.963,1.349 -1.541,2.987 -1.541,4.721c0,4.528 3.661,8.189 8.189,8.189c4.528,0 8.189,-3.661 8.189,-8.189c0,-1.831 -0.578,-3.372 -1.541,-4.721ZM46.897,48.787c-1.638,0 -2.987,-1.348 -2.987,-2.986c0,-1.638 1.349,-2.987 2.987,-2.987c1.638,0 2.987,1.349 2.987,2.987c0,1.638 -1.349,2.986 -2.987,2.986Z" style="fill:none;stroke-width:2px;stroke:currentColor;"/><path d="M45.837,11.116c-2.505,0 -2.505,3.083 -2.505,5.588l0,6.455" style="fill:none;stroke-width:2px;stroke:currentColor;"/><path d="M38.322,30.096l0,3.661" style="fill:none;stroke-width:2px;stroke:currentColor;"/><path d="M42.561,30.096l0,3.661" style="fill:none;stroke-width:2px;stroke:currentColor;"/><path d="M46.801,30.096l0,3.661" style="fill:none;stroke-width:2px;stroke:currentColor;"/><path d="M53.93,33.661c-0.963,0 -1.734,-0.771 -1.734,-1.734c0,-0.964 0.771,-1.734 1.734,-1.734" style="fill:none;stroke-width:2px;stroke:currentColor;"/><path d="M33.698,23.159l-8.19,-12.235c-0.674,-0.578 -2.505,-0.964 -3.468,-0.964l-6.263,0c-1.637,0 -2.986,1.542 -3.661,3.661l-0.77,9.635l7.804,0c3.275,0.482 6.262,1.927 8.574,4.143l5.877,0l0,-4.24l0.097,0Z" style="fill:none;stroke-width:2px;stroke:currentColor;"/></svg>