<?xml version="1.0" standalone="no"?><!DOCTYPE svg PUBLIC "-//W3C//DTD SVG 1.1//EN" "http://www.w3.org/Graphics/SVG/1.1/DTD/svg11.dtd"><svg width="100%" height="100%" viewBox="0 0 60 60" version="1.1" xmlns="http://www.w3.org/2000/svg" xmlns:xlink="http://www.w3.org/1999/xlink" xml:space="preserve" style="fill-rule:evenodd;clip-rule:evenodd;stroke-linecap:round;stroke-linejoin:round;stroke-miterlimit:1.41421;"><path d="M11.097,11.098c-3.102,3.104 -3.102,8.136 0,11.242l26.962,26.961l0.021,-0.021c3.121,2.718 7.854,2.597 10.825,-0.374c2.971,-2.971 3.092,-7.704 0.375,-10.826l0.021,-0.021l-26.962,-26.961c-3.105,-3.104 -8.137,-3.104 -11.242,0l0,0Z" style="fill:none;stroke-width:2px;stroke:currentColor;"/><path d="M48.902,11.098c-3.103,-3.104 -8.137,-3.104 -11.24,0l-26.962,26.961l0.019,0.021c-2.716,3.122 -2.597,7.855 0.374,10.826c2.972,2.971 7.706,3.092 10.829,0.374l0.018,0.021l26.962,-26.961c3.104,-3.106 3.104,-8.138 0,-11.242l0,0Z" style="fill:none;stroke-width:2px;stroke:currentColor;"/><circle cx="30" cy="23.738" r="0.612" style="fill:currentColor;stroke-width:2px;stroke-linecap:butt;stroke-linejoin:miter;stroke:currentColor;"/><circle cx="26.917" cy="26.917" r="0.612" style="fill:currentColor;stroke-width:2px;stroke-linecap:butt;stroke-linejoin:miter;stroke:currentColor;"/><circle cx="33.18" cy="26.917" r="0.612" style="fill:currentColor;stroke-width:2px;stroke-linecap:butt;stroke-linejoin:miter;stroke:currentColor;"/><circle cx="23.738" cy="30" r="0.612" style="fill:currentColor;stroke-width:2px;stroke-linecap:butt;stroke-linejoin:miter;stroke:currentColor;"/><circle cx="30" cy="30" r="0.612" style="fill:currentColor;stroke-width:2px;stroke-linecap:butt;stroke-linejoin:miter;stroke:currentColor;"/><circle cx="36.263" cy="30" r="0.612" style="fill:currentColor;stroke-width:2px;stroke-linecap:butt;stroke-linejoin:miter;stroke:currentColor;"/><circle cx="26.917" cy="33.179" r="0.612" style="fill:currentColor;stroke-width:2px;stroke-linecap:butt;stroke-linejoin:miter;stroke:currentColor;"/><circle cx="33.18" cy="33.179" r="0.612" style="fill:currentColor;stroke-width:2px;stroke-linecap:butt;stroke-linejoin:miter;stroke:currentColor;"/><circle cx="30" cy="36.262" r="0.612" style="fill:currentColor;stroke-width:2px;stroke-linecap:butt;stroke-linejoin:miter;stroke:currentColor;"/></svg>