<?xml version="1.0" standalone="no"?><!DOCTYPE svg PUBLIC "-//W3C//DTD SVG 1.1//EN" "http://www.w3.org/Graphics/SVG/1.1/DTD/svg11.dtd"><svg width="100%" height="100%" viewBox="0 0 60 60" version="1.1" xmlns="http://www.w3.org/2000/svg" xmlns:xlink="http://www.w3.org/1999/xlink" xml:space="preserve" style="fill-rule:evenodd;clip-rule:evenodd;stroke-linecap:round;stroke-linejoin:round;stroke-miterlimit:1.41421;"><path d="M30.096,19.756c-3.469,-2.119 -20.329,-2.794 -20.329,12.91c0,13.392 13.97,25.243 18.98,21.1c0.385,-0.385 0.867,-0.674 1.252,-1.06c0.386,0.289 0.867,0.675 1.253,1.06c5.01,4.239 18.98,-7.708 18.98,-21.1c0.192,-15.897 -16.572,-15.029 -20.136,-12.91Z" style="fill:none;stroke-width:2px;stroke:currentColor;"/><path d="M30.288,10.989c0,0 0.675,4.432 -0.192,8.767" style="fill:none;stroke-width:2px;stroke:currentColor;"/><path d="M26.916,7.424c0.578,0.578 2.698,2.794 3.372,3.565c0.964,-1.735 2.505,-3.372 4.432,-4.432c3.95,-2.023 10.887,-0.964 11.176,-0.482c-1.83,6.841 -11.986,8.473 -15.358,8.763" style="fill:none;stroke-width:2px;stroke:currentColor;"/><path d="M35.78,50.587c2.409,-1.06 5.01,-3.276 7.033,-6.263" style="fill:none;stroke-width:2px;stroke:currentColor;"/><path d="M14.006,37.002c0.193,0.867 0.482,1.734 0.771,2.601" style="fill:none;stroke-width:2px;stroke:currentColor;"/><path d="M21.906,22.454c-4.143,0.963 -8.286,3.95 -8.286,10.983" style="fill:none;stroke-width:2px;stroke:currentColor;"/></svg>