<?xml version="1.0" standalone="no"?><!DOCTYPE svg PUBLIC "-//W3C//DTD SVG 1.1//EN" "http://www.w3.org/Graphics/SVG/1.1/DTD/svg11.dtd"><svg width="100%" height="100%" viewBox="0 0 60 60" version="1.1" xmlns="http://www.w3.org/2000/svg" xmlns:xlink="http://www.w3.org/1999/xlink" xml:space="preserve" style="fill-rule:evenodd;clip-rule:evenodd;stroke-linecap:round;stroke-linejoin:round;stroke-miterlimit:1.41421;"><path d="M18.103,11.214l-5.781,18.595l13.199,25.435l24.376,-12.622l-13.296,-25.531l-18.498,-5.877Z" style="fill:none;stroke-width:2px;stroke:currentColor;"/><path d="M22.598,19.963c1.557,-0.81 3.478,-0.205 4.289,1.352c0.81,1.556 0.205,3.477 -1.352,4.288c-1.556,0.81 -3.477,0.205 -4.288,-1.351c-0.81,-1.557 -0.205,-3.478 1.351,-4.289Z" style="fill:none;stroke-width:2px;stroke:currentColor;"/><path d="M11.166,18.632c-2.409,-4.624 -0.578,-10.405 4.046,-12.814c4.625,-2.408 10.405,-0.578 12.814,4.047c2.409,4.625 0.578,10.405 -4.046,12.814" style="fill:none;stroke-width:2px;stroke:currentColor;"/><path d="M25.81,36.649l7.901,-4.143" style="fill:none;stroke-width:2px;stroke:currentColor;"/><path d="M27.737,40.31l7.9,-4.143" style="fill:none;stroke-width:2px;stroke:currentColor;"/></svg>