<?xml version="1.0" standalone="no"?><!DOCTYPE svg PUBLIC "-//W3C//DTD SVG 1.1//EN" "http://www.w3.org/Graphics/SVG/1.1/DTD/svg11.dtd"><svg width="100%" height="100%" viewBox="0 0 60 60" version="1.1" xmlns="http://www.w3.org/2000/svg" xmlns:xlink="http://www.w3.org/1999/xlink" xml:space="preserve" style="fill-rule:evenodd;clip-rule:evenodd;stroke-linecap:round;stroke-linejoin:round;stroke-miterlimit:1.41421;"><path d="M26.724,9.671l-18.305,0l0,35.552l21.581,0l0,-3.276l0,-12.332l0,-16.668c0,-1.831 -1.445,-3.276 -3.276,-3.276Z" style="fill:none;stroke-width:2px;stroke:currentColor;"/><path d="M33.276,9.671l18.305,0l0,35.648l-3.275,0l-15.03,0l-3.276,0l0,-3.276l0,-12.428l0,-16.668c0,-1.831 1.445,-3.276 3.276,-3.276Z" style="fill:none;stroke-width:2px;stroke:currentColor;"/><path d="M8.515,13.814l-5.299,0l0,36.515l26.784,0l0,-5.01" style="fill:none;stroke-width:2px;stroke:currentColor;"/><path d="M51.485,13.814l5.299,0l0,36.515l-26.784,0l0,-5.01" style="fill:none;stroke-width:2px;stroke:currentColor;"/><path d="M13.91,17.475l10.598,0" style="fill:none;stroke-width:2px;stroke:currentColor;"/><path d="M13.91,22.581l10.598,0" style="fill:none;stroke-width:2px;stroke:currentColor;"/><path d="M13.91,27.784l10.598,0" style="fill:none;stroke-width:2px;stroke:currentColor;"/><path d="M13.91,32.89l10.598,0" style="fill:none;stroke-width:2px;stroke:currentColor;"/><path d="M13.91,37.997l10.598,0" style="fill:none;stroke-width:2px;stroke:currentColor;"/><path d="M35.106,32.89l10.598,0" style="fill:none;stroke-width:2px;stroke:currentColor;"/><path d="M35.106,37.997l10.598,0" style="fill:none;stroke-width:2px;stroke:currentColor;"/><path d="M40.405,9.671l0,17.824l2.987,-3.854l2.987,3.854l0,-4.528l0,-4.625l0,-8.671l-5.974,0Z" style="fill:none;stroke-width:2px;stroke:currentColor;"/></svg>