<?xml version="1.0" standalone="no"?><!DOCTYPE svg PUBLIC "-//W3C//DTD SVG 1.1//EN" "http://www.w3.org/Graphics/SVG/1.1/DTD/svg11.dtd"><svg width="100%" height="100%" viewBox="0 0 60 60" version="1.1" xmlns="http://www.w3.org/2000/svg" xmlns:xlink="http://www.w3.org/1999/xlink" xml:space="preserve" style="fill-rule:evenodd;clip-rule:evenodd;stroke-linecap:round;stroke-linejoin:round;stroke-miterlimit:1.41421;"><path d="M44.548,8.099c7.48,0 13.545,6.062 13.545,13.543" style="fill:none;stroke-width:2px;stroke:currentColor;"/><path d="M44.548,12.376c5.118,0 9.266,4.149 9.266,9.266" style="fill:none;stroke-width:2px;stroke:currentColor;"/><path d="M44.548,16.653c2.757,0 4.99,2.233 4.99,4.989" style="fill:none;stroke-width:2px;stroke:currentColor;"/><path d="M45.611,44.585c0,1.595 -1.295,2.89 -2.89,2.89l-36.237,0c-1.598,0 -2.891,-1.295 -2.891,-2.89l0,-20.215c0,-1.597 1.293,-2.891 2.891,-2.891l36.237,0c1.595,0 2.89,1.294 2.89,2.891l0,20.215l0,0Z" style="fill:none;stroke-width:2px;stroke:currentColor;"/><path d="M47.297,49.704c0,1.213 -0.901,2.197 -2.014,2.197l-41.364,0c-1.11,0 -2.012,-0.984 -2.012,-2.197c0,-1.214 0.902,-2.198 2.012,-2.198l41.364,0c1.113,0 2.014,0.984 2.014,2.198Z" style="fill:none;stroke-width:2px;stroke:currentColor;"/><path d="M7.351,43.717l0,-18.48l34.502,0l0,7.142" style="fill:none;stroke-width:2px;stroke:currentColor;"/></svg>