<?xml version="1.0" encoding="utf-8"?>
<!-- Generator: Adobe Illustrator 19.2.1, SVG Export Plug-In . SVG Version: 6.00 Build 0)  -->
<svg version="1.1" id="Calque_1" xmlns="http://www.w3.org/2000/svg" xmlns:xlink="http://www.w3.org/1999/xlink" x="0px" y="0px"
	 viewBox="0 0 190 190" style="enable-background:new 0 0 190 190;" xml:space="preserve">
<path style="fill:none;stroke:currentColor;stroke-width:2;stroke-linecap:round;stroke-linejoin:round;" d="M102.7,85.7c-5.7,0-10.3,4.4-10.3,9.7c0,5.2,9.4,18.7,9.8,19.3c0.2,0.3,0.6,0.3,0.9,0.1c0.1,0,0.1-0.1,0.1-0.1
	c0.4-0.6,9.8-14.1,9.8-19.3C113,90,108.4,85.7,102.7,85.7z"/>
<circle style="fill:none;stroke:currentColor;stroke-width:2;stroke-linecap:round;stroke-linejoin:round;" cx="102.7" cy="95.5" r="2.7"/>
<polyline style="fill:none;stroke:currentColor;stroke-width:2;stroke-linecap:round;stroke-linejoin:round;" points="68.7,138.1 71.7,120.3 76.9,126.6 71.9,113.5 62,106.7 61.1,99.1 40,90.9 44.4,88.2 40,82.5
	52.1,80.5 59.8,83.7 67.7,82.4 64.7,69.3 82.7,72.6 88.7,65.1 95,63.6 94.9,56.3 103.7,51.3 118.4,66.9 123.4,65.7 127.6,71.8
	150,78.9 144.3,96.7 139.6,97.2 133.1,112.1 139.4,108.7 145.2,129.1 "/>
</svg>
