<svg xmlns="http://www.w3.org/2000/svg" viewBox="0 0 100 100"><path style="fill:none;stroke:currentColor;stroke-linecap:round;stroke-linejoin:round;stroke-miterlimit:10;" d="M58.19118,46.64879s2.516,0.911,2.516-1.975"/><path style="fill:none;stroke:currentColor;stroke-linecap:round;stroke-linejoin:round;stroke-miterlimit:10;" d="M50.26387,46.3354a18.01563,18.01563,0,0,0-8.713-.138v-2.273a18.03282,18.03282,0,0,1,8.713.139v2.272Z"/><path style="fill:currentColor;" d="M35.59938,48.28139a0.9135,0.9135,0,1,1,.914.914,0.91371,0.91371,0,0,1-.914-0.914"/><path style="fill:#ffffff;" d="M43.74647,35.30678a2.161,2.161,0,1,1,2.161,2.161,2.161,2.161,0,0,1-2.161-2.161"/><circle style="fill:none;stroke:currentColor;stroke-linecap:round;stroke-linejoin:round;stroke-miterlimit:10;" cx="45.90746" cy="35.30679" r="2.161"/><circle style="fill:none;stroke:currentColor;stroke-linecap:round;stroke-linejoin:round;stroke-miterlimit:10;opacity:0.3;" cx="45.90746" cy="27.90649" r="2.161"/><path style="fill:none;stroke:currentColor;stroke-linecap:round;stroke-linejoin:round;stroke-miterlimit:10;" d="M60.255,74.2545a9.885,9.885,0,1,1,9.884-9.884"/><line style="fill:none;stroke:currentColor;stroke-linecap:round;stroke-linejoin:round;stroke-miterlimit:10;" x1="55.77867" y1="63.99538" x2="60.16264" y2="63.99538"/><polyline style="fill:none;stroke:currentColor;stroke-linecap:round;stroke-linejoin:round;stroke-miterlimit:10;" points="58.196 62.036 60.232 63.995 58.196 65.955"/><polyline style="fill:none;stroke:currentColor;stroke-linecap:round;stroke-linejoin:round;stroke-miterlimit:10;" points="57.943 59.495 63.12 59.495 63.12 68.495 57.943 68.495"/><path style="fill:none;stroke:currentColor;stroke-linecap:round;stroke-linejoin:round;stroke-miterlimit:10;" d="M59.51823,51.72781c0.0097-.1637.02283-0.32678,0.02283-0.49219,0-5.89-6.228-10.664-13.909-10.664a17.06341,17.06341,0,0,0-7.162,1.528,6.27623,6.27623,0,0,0-3.492-2.679H31.972a8.78387,8.78387,0,0,1,2.881,5.097,10.45885,10.45885,0,0,0-2.205,2.918h-2.787v7.151h2.576a11.10882,11.10882,0,0,0,4.38,4.89606l-2.057,5.463h4.143l1.449-3.847a17.58989,17.58989,0,0,0,5.28.8,17.867,17.867,0,0,0,2.22064-.153"/></svg>