<?xml version="1.0" encoding="utf-8"?>
<!-- Generator: Adobe Illustrator 19.2.1, SVG Export Plug-In . SVG Version: 6.00 Build 0)  -->
<svg version="1.1" xmlns="http://www.w3.org/2000/svg" xmlns:xlink="http://www.w3.org/1999/xlink" x="0px" y="0px"
	 viewBox="0 0 190 190" style="enable-background:new 0 0 190 190;" xml:space="preserve">
	<path d="M72.3,96.4c4.3-9.8,6.2-17.5,2.8-18.4c-1.3-0.3-3-0.5-4.5,1.9c-0.5,0.8-1,1.7-1.4,2.6c-0.7,1.5-1.3,3.1-3,3.1
		c-2.2,0-3.9-2.5-6.4-6c-1.6-2.2-3.8-4-5.7-3c-1.2,0.7-3.5,1.9,2,20.4c2.6-1.5,5.5-2.4,8.7-2.4C67.4,94.5,69.9,95.2,72.3,96.4z" style="fill:none;stroke:currentColor;stroke-width:2;stroke-linecap:round;stroke-linejoin:round;stroke-miterlimit:10;"/>
	<path d="M88.2,126.6c0-11.3-6.2-25.2-15.9-30.2c-2.3-1.2-4.9-1.9-7.6-1.9c-3.1,0-6,0.9-8.7,2.4
		c-9.2,5.4-14.9,18.7-14.9,29.6c0,0-2,21.7,23.6,21.7C90,148.2,88.2,126.6,88.2,126.6z" style="fill:none;stroke:currentColor;stroke-width:2;stroke-linecap:round;stroke-linejoin:round;stroke-miterlimit:10;"/>
  <circle cx="64.7" cy="64.9" r="5.2" style="fill:none;stroke:currentColor;stroke-width:2;stroke-linecap:round;stroke-linejoin:round;stroke-miterlimit:10;"/>
  <circle cx="64.7" cy="47.2" r="5.2" style="fill:none;stroke:currentColor;stroke-width:2;stroke-linecap:round;stroke-linejoin:round;stroke-miterlimit:10;"/>
  <path d="M149.1,118.8V117c0,0-0.4-3.9-15.1-8.6c-14.7-4.6-14.8-13-14.8-13v-4.1c0,0,3.8-4.8,4.7-9.8
  	c0.5-2.7,1.5-3.2,2-3.7c1.3-1.2,1.4-2.1,1.4-3.1c0-1-0.2-1.8-1.3-3.1l0-11.9c0,0,0.2-11.9-14.6-12l0,0c0,0-0.1,0-0.1,0
  	c0,0-0.1,0-0.1,0l0,0c-14.8,0.1-14.6,12-14.6,12l0,11.9c-1.1,1.3-1.3,2.1-1.3,3.1c0,1,0.1,1.9,1.4,3.1c0.5,0.5,1.5,1,2,3.7
  	c1,5,4.7,9.8,4.7,9.8v4.1c0,0-0.1,8.3-14.8,13" style="fill-rule:evenodd;clip-rule:evenodd;fill:none;stroke:currentColor;stroke-width:2;stroke-linecap:round;stroke-linejoin:round;stroke-miterlimit:10;"/>
</svg>
