<?xml version="1.0" standalone="no"?><!DOCTYPE svg PUBLIC "-//W3C//DTD SVG 1.1//EN" "http://www.w3.org/Graphics/SVG/1.1/DTD/svg11.dtd"><svg width="100%" height="100%" viewBox="0 0 30 40" version="1.1" xmlns="http://www.w3.org/2000/svg" xmlns:xlink="http://www.w3.org/1999/xlink" xml:space="preserve"><g style="fill-rule:evenodd;clip-rule:evenodd;stroke-linejoin:round;stroke-miterlimit:1.41421;"><path d="M14.957,39.97c-0.88,-0.613 -14.957,-10.644 -14.957,-24.97l0,-0.097c0.053,-8.234 6.754,-14.903 15,-14.903c8.246,0 14.947,6.669 15,14.903l0,0.097c0,14.788 -15,25 -15,25l-0.043,-0.03ZM15,4.279c5.85,0 10.599,4.75 10.599,10.599c0,5.85 -4.749,10.599 -10.599,10.599c-5.85,0 -10.599,-4.749 -10.599,-10.599c0,-5.849 4.749,-10.599 10.599,-10.599Z" style="fill:currentColor;"/></g></svg>