<?xml version="1.0" encoding="utf-8"?>
<!-- Generator: Adobe Illustrator 19.2.1, SVG Export Plug-In . SVG Version: 6.00 Build 0)  -->
<svg version="1.1" id="Calque_1" xmlns="http://www.w3.org/2000/svg" xmlns:xlink="http://www.w3.org/1999/xlink" viewBox="0 0 100 100" xml:space="preserve">
  <path style="fill:none;stroke:currentColor;stroke-linecap:round;stroke-linejoin:round;stroke-miterlimit:10;" d="M63.8,48.9c0-7.5-6.1-13.6-13.6-13.6c-7.5,0-13.6,6.1-13.6,13.6c0,5.2,2.9,9.7,7.2,12v5.7h12.9v-5.7
  	C60.9,58.6,63.8,54.1,63.8,48.9z"/>
  <path style="fill:none;stroke:currentColor;stroke-linecap:round;stroke-linejoin:round;stroke-miterlimit:10;" d="M45.7,57.2c-3.1-1.7-5-4.8-5-8.3c0-5.2,4.2-9.4,9.4-9.4"/>
  <line style="fill:none;stroke:currentColor;stroke-linecap:round;stroke-linejoin:round;stroke-miterlimit:10;" x1="43.7" y1="70.9" x2="56.6" y2="70.9"/>
  <line style="fill:none;stroke:currentColor;stroke-linecap:round;stroke-linejoin:round;stroke-miterlimit:10;" x1="43.7" y1="75.2" x2="56.6" y2="75.2"/>
	<line style="fill:none;stroke:currentColor;stroke-linecap:round;stroke-linejoin:round;stroke-miterlimit:10;" x1="50.2" y1="30.5" x2="50.2" y2="24.8"/>
	<line style="fill:none;stroke:currentColor;stroke-linecap:round;stroke-linejoin:round;stroke-miterlimit:10;" x1="36.9" y1="36.1" x2="32.8" y2="32"/>
	<line style="fill:none;stroke:currentColor;stroke-linecap:round;stroke-linejoin:round;stroke-miterlimit:10;" x1="31.3" y1="49.4" x2="25.6" y2="49.4"/>
	<line style="fill:none;stroke:currentColor;stroke-linecap:round;stroke-linejoin:round;stroke-miterlimit:10;" x1="69" y1="49.4" x2="74.7" y2="49.4"/>
	<line style="fill:none;stroke:currentColor;stroke-linecap:round;stroke-linejoin:round;stroke-miterlimit:10;" x1="63.5" y1="36.1" x2="67.5" y2="32"/>
</svg>
