<?xml version="1.0" encoding="utf-8"?>
<!-- Generator: Adobe Illustrator 19.2.1, SVG Export Plug-In . SVG Version: 6.00 Build 0)  -->
<svg version="1.1" xmlns="http://www.w3.org/2000/svg" xmlns:xlink="http://www.w3.org/1999/xlink" viewBox="0 0 100 100" xml:space="preserve">
	<circle cx="50.2" cy="50" r="18.3" style="fill-rule:evenodd;clip-rule:evenodd;fill:none;stroke:currentColor;stroke-linecap:round;stroke-linejoin:round;stroke-miterlimit:10;"/>
	<path d="M40.8,52.2c-0.5,0-1-0.2-1.4-0.6c-0.8-0.8-0.8-2,0-2.8c0.4-0.4,0.9-0.6,1.4-0.6c0.5,0,1,0.2,1.4,0.6
		c0.8,0.8,0.8,2.1,0,2.8C41.8,52,41.3,52.2,40.8,52.2z" style="fill:none;stroke:currentColor;stroke-miterlimit:10;" />
	<path d="M50.2,52.2c-0.5,0-1-0.2-1.4-0.6c-0.8-0.8-0.8-2,0-2.8c0.4-0.4,0.9-0.6,1.4-0.6c0.5,0,1,0.2,1.4,0.6
		c0.8,0.8,0.8,2.1,0,2.8C51.2,52,50.7,52.2,50.2,52.2z" style="fill:none;stroke:currentColor;stroke-miterlimit:10;"/>
	<path d="M59.5,52.2c-0.5,0-1-0.2-1.4-0.6c-0.8-0.8-0.8-2,0-2.8c0.4-0.4,0.9-0.6,1.4-0.6c0.5,0,1,0.2,1.4,0.6
		c0.8,0.8,0.8,2.1,0,2.8C60.6,52,60.1,52.2,59.5,52.2z" style="fill:none;stroke:currentColor;stroke-miterlimit:10;" />
</svg>
