<?xml version="1.0" encoding="utf-8"?>
<!-- Generator: Adobe Illustrator 19.2.1, SVG Export Plug-In . SVG Version: 6.00 Build 0)  -->
<svg version="1.1" id="Calque_1" xmlns="http://www.w3.org/2000/svg" xmlns:xlink="http://www.w3.org/1999/xlink"  viewBox="0 0 100 100" xml:space="preserve">
	<path d="M56.6576958,38.6767006H27.0121994c-1.4657974,0-2.6553001,1.1894989-2.6553001,2.6562996v22.285099
		c0,1.464901,1.1895027,2.6543007,2.6553001,2.6543007h21.4149971l-1.2870979,5.0567017l7.2930031-5.0567017h2.2245941
		c1.4658012,0,2.6533012-1.1893997,2.6533012-2.6543007v-22.285099
		C59.310997,39.8661995,58.123497,38.6767006,56.6576958,38.6767006z" style="fill:none;stroke:currentColor;stroke-linecap:round;stroke-linejoin:round;stroke-miterlimit:10;"/>
	<path d="M40.6889992,38.6767006v-7.3515015c0-1.4667988,1.1884003-2.6542988,2.6543007-2.6542988H72.9888
		c1.4657974,0,2.6542969,1.1875,2.6542969,2.6542988v22.285099c0,1.4668007-1.1884995,2.6543007-2.6542969,2.6543007h-2.3360062
		l1.2871017,5.0567017l-7.2929001-5.0567017H59.310997" style="fill:none;stroke:currentColor;stroke-linecap:round;stroke-linejoin:round;stroke-miterlimit:10;"/>
	<path d="M35.8969994,53.5145988c-0.1825981,0-0.3554993-0.0723-0.4864006-0.2011986
		c-0.2694969-0.2695007-0.2694969-0.7070007,0-0.9785004c0.1299019-0.1288986,0.3017998-0.2010994,0.4864006-0.2010994
		c0.1845016,0,0.3584023,0.0722008,0.4892006,0.2010994c0.2695999,0.2734985,0.267601,0.7109985-0.0018997,0.9785004
		C36.2564011,53.4422989,36.0834999,53.5145988,35.8969994,53.5145988z" style="stroke:currentColor;stroke-miterlimit:10;"/>
	<path d="M41.8325005,53.5145988c-0.1826019,0-0.3554001-0.0723-0.4863014-0.2011986
		c-0.2695007-0.2695007-0.2695007-0.7070007,0-0.9785004c0.1299019-0.1288986,0.3017998-0.2010994,0.4863014-0.2010994
		c0.1856003,0,0.3583984,0.0722008,0.4892998,0.2010994c0.2695007,0.2734985,0.267601,0.7109985-0.0009995,0.9785004
		C42.1918983,53.4422989,42.019001,53.5145988,41.8325005,53.5145988z" style="stroke:currentColor;stroke-miterlimit:10;"/>
	<path d="M47.7699966,53.5145988c-0.1825981,0-0.3563995-0.0723-0.4862976-0.2011986
		c-0.2705002-0.2695007-0.2705002-0.7070007,0-0.9785004c0.1288986-0.1288986,0.3017998-0.2010994,0.4862976-0.2010994
		c0.1846008,0,0.357399,0.0722008,0.4883003,0.2010994c0.2695007,0.2734985,0.267601,0.7109985-0.0009995,0.9785004
			C48.1283989,53.4422989,47.9555969,53.5145988,47.7699966,53.5145988z" style="stroke:currentColor;stroke-miterlimit:10;"/>
</svg>
