<?xml version="1.0" encoding="utf-8"?>
<!-- Generator: Adobe Illustrator 19.2.1, SVG Export Plug-In . SVG Version: 6.00 Build 0)  -->
<svg version="1.1" id="Calque_1" xmlns="http://www.w3.org/2000/svg" xmlns:xlink="http://www.w3.org/1999/xlink" x="0px" y="0px"
	 viewBox="0 0 100 100" style="enable-background:new 0 0 100 100;" xml:space="preserve">
	<line x1="75" y1="28.0002003" x2="75" y2="40.0001984" style="fill-rule:evenodd;clip-rule:evenodd;fill:none;stroke:currentColor;stroke-linecap:round;stroke-linejoin:round;stroke-miterlimit:10;"/>
	<path d="M79,28.0002003v12.9999981c0,1.6504021-1.3515091,2.9976006-3,2.9976006h-6
		c-1.6504059,0-3-1.3471985-3-2.9976006V28.0002003" style="fill-rule:evenodd;clip-rule:evenodd;fill:none;stroke:currentColor;stroke-linecap:round;stroke-linejoin:round;stroke-miterlimit:10;"/>
	<line x1="71" y1="28.0002003" x2="71" y2="40.0001984" style="fill-rule:evenodd;clip-rule:evenodd;fill:none;stroke:currentColor;stroke-linecap:round;stroke-linejoin:round;stroke-miterlimit:10;"/>
	<path d="M75,43.9998016v3c0,0.8652,0.0331955,1.7304001,0.1034927,2.5917969l1.5586014,18.4217987
		C76.8437958,70.1579971,75.1523895,71.9998016,73,71.9998016l0,0c-2.1523056,0-3.8457031-1.8418045-3.6640015-3.9864044
		l1.5604935-18.4217987C70.9648972,48.7302017,71,47.8650017,71,46.9998016v-3" style="fill-rule:evenodd;clip-rule:evenodd;fill:none;stroke:currentColor;stroke-linecap:round;stroke-linejoin:round;stroke-miterlimit:10;"/>
	<circle cx="43" cy="49.9999008" r="21.9999008" style="fill-rule:evenodd;clip-rule:evenodd;fill:none;stroke:currentColor;stroke-linecap:round;stroke-linejoin:round;stroke-miterlimit:10;"/>
	<circle cx="42.9995232" cy="49.9998741" r="13.6214485" style="fill-rule:evenodd;clip-rule:evenodd;fill:none;stroke:currentColor;stroke-linecap:round;stroke-linejoin:round;stroke-miterlimit:10;"/>
</svg>
