<?xml version="1.0" standalone="no"?><!DOCTYPE svg PUBLIC "-//W3C//DTD SVG 1.1//EN" "http://www.w3.org/Graphics/SVG/1.1/DTD/svg11.dtd"><svg width="100%" height="100%" viewBox="0 0 658 302" version="1.1" xmlns="http://www.w3.org/2000/svg" xmlns:xlink="http://www.w3.org/1999/xlink" xml:space="preserve" style="fill-rule:evenodd;clip-rule:evenodd;stroke-linejoin:round;stroke-miterlimit:1.41421;"><g><circle cx="150.999" cy="150.999" r="150.999" style="fill:#ffd400;"/><circle cx="506.645" cy="150.999" r="150.999" style="fill:#76635c;"/><g><path d="M460.196,135.823c0,-9.088 -4.854,-16.676 -17.646,-16.676c-13.327,0 -18.441,7.675 -18.441,20.114l9.529,0c0,-6.352 1.235,-13.057 8.733,-13.057c5.559,0 7.767,4.323 7.767,9.443c0,19.409 -26.207,18.79 -26.207,45.965l36.528,0l0,-8.47l-25.322,0c4.765,-15.262 25.059,-16.586 25.059,-37.319l0,0Z" style="fill:#ffd300;"/><path d="M488.203,119.147c-11.997,0 -18.703,7.587 -18.703,31.851c0,24.261 6.706,31.852 18.703,31.852c12.002,0 18.706,-7.591 18.706,-31.852c0,-24.263 -6.704,-31.851 -18.706,-31.851l0,0ZM488.203,175.792c-6.882,0 -8.646,-6.623 -8.646,-24.794c0,-18.177 1.764,-24.794 8.646,-24.794c6.883,0 8.649,6.617 8.649,24.794c0,18.171 -1.766,24.794 -8.649,24.794Z" style="fill:#ffd300;"/><path d="M530.357,120.382c-1.763,7.94 -8.733,9.353 -14.735,9.353l-0.967,0l0,6.529l12.969,0l0,45.349l10.059,0l0,-62.465l-7.325,0l0,1.234l-0.001,0l0,0Z" style="fill:#ffd300;"/><path d="M582.489,160.184l0,-40.851l-10.347,0l-21.854,40.228l0,8.74l22.567,0l0,14.184l9.633,0l0,-14.184l6.87,0l0,-8.117l-6.869,0l0,0ZM572.856,160.184l-14.36,0l14.186,-26.045l0.175,0l0,26.045l-0.001,0l0,0Z" style="fill:#ffd300;"/></g><g><path d="M69.667,185.235l-7.244,14.691l6.431,0l4.148,-9.847l4.193,9.847l6.591,0l-7.242,-14.691l6.752,-14.363l-6.387,0l-3.704,9.399l-3.743,-9.399l-6.47,0l6.675,14.363ZM106.414,180.677c0,-4.23 -0.609,-10.376 -8.991,-10.376c-8.79,0 -9.888,6.27 -9.888,15.099c0,8.828 1.098,15.098 9.888,15.098c7.688,0 9.235,-5.414 9.235,-11.68l-5.86,0c0,6.266 -1.544,7.364 -3.661,7.364c-2.523,0 -3.745,-1.588 -3.745,-10.376c0,-8.222 0.692,-11.189 3.663,-11.189c2.646,0 3.5,1.83 3.5,6.061l5.859,0l0,-0.001l0,0ZM112.3,170.872l0,29.055l17.065,0l0,-4.802l-11.206,0l0,-7.813l10.188,0l0,-4.799l-10.188,0l0,-6.838l10.798,0l0,-4.803l-16.657,0l0,0ZM151.533,199.926l0,-4.802l-10.374,0l0,-24.253l-5.857,0l0,29.055l16.231,0ZM172.945,199.926l0,-4.802l-10.378,0l0,-24.253l-5.859,0l0,29.055l16.237,0ZM200.49,170.872l0,29.055l5.371,0l0,-20.347l7.244,20.347l6.673,0l0,-29.055l-5.371,0l0,19.897l-7.162,-19.897l-6.755,0ZM244.37,180.677c0,-4.23 -0.61,-10.376 -8.992,-10.376c-8.789,0 -9.888,6.27 -9.888,15.099c0,8.828 1.099,15.098 9.888,15.098c7.688,0 9.234,-5.414 9.234,-11.68l-5.859,0c0,6.266 -1.545,7.364 -3.66,7.364c-2.523,0 -3.744,-1.588 -3.744,-10.376c0,-8.222 0.692,-11.189 3.661,-11.189c2.645,0 3.501,1.83 3.501,6.061l5.859,0l0,-0.001l0,0ZM250.254,170.872l0,29.055l16.165,0l0,-4.802l-10.304,0l0,-7.813l9.285,0l0,-4.799l-9.285,0l0,-6.838l9.895,0l0,-4.803l-15.756,0l0,0ZM177.797,170.872l0,29.055l16.653,0l0,-4.802l-10.795,0l0,-7.813l9.78,0l0,-4.799l-9.78,0l0,-6.838l10.387,0l0,-4.803l-16.245,0l0,0ZM41.309,170.872l0,29.055l17.07,0l0,-4.802l-11.21,0l0,-7.813l10.192,0l0,-4.799l-10.192,0l0,-6.838l10.803,0l0,-4.803l-16.663,0l0,0Z" style="fill:#76635c;"/><g><g><path d="M229.041,126.957l9.512,-0.001c0,-6.823 -4.432,-11.947 -12.219,-11.947c-11.649,0 -13.82,8.514 -13.82,14.602c0,3.584 1.485,15.671 16.156,15.671c2.545,0 5.487,-0.25 9.102,-1.247l0,-5.084c-5.747,2.501 -14.271,2.612 -15.356,-6.85c-0.906,-7.909 0.565,-12.937 3.332,-12.937c2.404,0 3.293,3.498 3.293,7.793l0,0Z" style="fill:#fff;fill-rule:nonzero;"/><path d="M256.385,125.657c-0.049,-3.246 -0.683,-6.493 -3.04,-6.493c-2.233,0 -3.056,2.58 -3.4,6.493l6.44,0ZM266.417,127.161l0,2.987l-16.593,0c0.585,11.682 9.335,11.325 15.484,8.803l0,5.084c-3.613,0.997 -6.11,1.246 -8.886,1.246c-14.256,0 -16.379,-10.615 -16.379,-16.007c0,-6.236 2.731,-14.28 13.646,-14.271c8.047,0.005 12.728,5.093 12.728,12.158Z" style="fill:#fff;fill-rule:nonzero;"/><path d="M165.17,140.092l1.624,0.003l0,-10.709c-2.353,0.209 -5.717,1.251 -5.722,5.911c-0.004,4.366 2.075,4.712 4.098,4.795l0,0ZM176.734,125.57l0,18.825l-15.682,-0.003c-5.769,-0.005 -10,-2.37 -9.989,-8.835c0.021,-10.496 12.192,-10.114 15.73,-10.125l0,-0.729c0.006,-6.396 -6.348,-5.776 -10.141,-4.668c-0.81,0.245 -1.534,0.511 -2.119,0.771l0.001,-4.726c3.386,-0.805 5.665,-1.076 9.23,-1.076c8.359,-0.002 12.97,3.936 12.97,10.566Z" style="fill:#fff;fill-rule:nonzero;"/><path d="M151.215,115.002l-2.118,0c-8.222,0.001 -13.584,4.375 -13.59,10.22l0.002,19.173l9.941,0l0,-18.868c0.007,-5.292 3.539,-5.977 5.767,-6.048l-0.002,-4.477l0,0Z" style="fill:#fff;fill-rule:nonzero;"/><path d="M133.583,104.118c-8.676,0 -16.012,1.225 -16.012,11.839l0,28.438l9.941,0l0,-23.961l6.796,0l0,-4.462l-6.796,0l0,-2.23c0.006,-5.292 4.197,-5.216 8.188,-5.216l-0.001,-4.407c-0.717,-0.001 -2.116,-0.001 -2.116,-0.001l0,0Z" style="fill:#fff;fill-rule:nonzero;"/><path d="M182.193,115.972l-0.001,28.423l9.943,0l0,-23.959l0.529,0c3.453,0.018 5.904,0.318 5.904,6.872l0,17.088l9.941,0l0,-16.536c0,-5.306 -0.021,-11.884 -14.086,-11.884l-12.23,-0.004l0,0Z" style="fill:#fff;fill-rule:nonzero;"/><circle cx="106.778" cy="154.687" r="5.417" style="fill:#fff;"/></g><g><rect x="101.807" y="115.972" width="9.942" height="28.423" style="fill:#76635c;"/><path d="M52.069,140.184c4.101,0 5.526,-3.895 5.526,-10.338c0,-6.147 -1.425,-9.739 -5.667,-9.739l-0.622,-0.001l0,20.082l0.763,-0.004l0,0ZM55.073,144.395l-13.765,0l0,-40.277l9.998,0l0,11.854l2.895,0c13.499,0 13.491,10.561 13.491,13.943c0,4.454 -1.409,14.48 -12.619,14.48l0,0Z" style="fill:#76635c;fill-rule:nonzero;"/><path d="M82.321,120.108l-0.762,-0.003l0,20.082l0.62,-0.001c4.242,0 5.668,-3.594 5.668,-9.739c0.001,-6.444 -1.425,-10.339 -5.526,-10.339l0,0ZM85.325,115.972c11.209,0 12.619,10.026 12.619,14.481c0,3.381 0.008,13.942 -13.491,13.942l-2.894,0l0,11.854l-9.999,0l0,-40.277l13.765,0Z" style="fill:#76635c;fill-rule:nonzero;"/><circle cx="106.778" cy="105.68" r="5.417" style="fill:#76635c;"/></g></g></g></g></svg>