<?xml version="1.0" encoding="utf-8"?>
<!-- Generator: Adobe Illustrator 19.2.1, SVG Export Plug-In . SVG Version: 6.00 Build 0)  -->
<svg version="1.1" xmlns="http://www.w3.org/2000/svg" xmlns:xlink="http://www.w3.org/1999/xlink" x="0px" y="0px"
	 viewBox="0 0 300 300" style="enable-background:new 0 0 300 300;" xml:space="preserve">
	<path style="fill:none;stroke:currentColor;stroke-width:4;stroke-linecap:round;stroke-linejoin:round;stroke-miterlimit:10;" d="M165.9,185.5c-2.8-0.5-4.9-2.9-4.7-5.8c0.1-3.1,0.1-6.4,0.1-9.8c0-7.9,9.5-17.3,10-28.4c3.2-6.5,5-13,5-18.1
		c0-3.3-0.8-5.5-2.2-6.9c0.8-4.1,1.4-8.5,2.2-13c3.2-18-3-31-18.9-36.6c-5.7-2-29.4-6.1-38.2-14.7c0,0-1,14.3-3.9,15.6
		c-15.5,7-21.7,17.8-18.4,35.6c0.8,4.5,1.5,8.8,2.2,13c-1.4,1.4-2.2,3.6-2.2,6.9c0,5,1.8,11.5,4.9,18.1c0.5,11,10,20,10,28.4
		c0,3.4,0,6.7,0.1,9.8c0.1,2.9-1.9,5.3-4.7,5.8c-19.1,3.4-34.9,10-44.5,18.5"/>
	<line style="fill:none;stroke:currentColor;stroke-width:4;stroke-linecap:round;stroke-linejoin:round;stroke-miterlimit:10;" x1="198.6" y1="228" x2="198.6" y2="190"/>
	<line style="fill:none;stroke:currentColor;stroke-width:4;stroke-linecap:round;stroke-linejoin:round;stroke-miterlimit:10;" x1="179.6" y1="209" x2="217.6" y2="209"/>
	<path style="fill:none;stroke:currentColor;stroke-width:4;stroke-linecap:round;stroke-linejoin:round;stroke-miterlimit:10;" d="M198.6,246.8c-20.9,0-37.8-16.9-37.8-37.8c0-20.9,16.9-37.8,37.8-37.8c20.9,0,37.8,16.9,37.8,37.8"/>
</svg>
