<?xml version="1.0" encoding="utf-8"?>
<!-- Generator: Adobe Illustrator 19.2.1, SVG Export Plug-In . SVG Version: 6.00 Build 0)  -->
<svg version="1.1" xmlns="http://www.w3.org/2000/svg" xmlns:xlink="http://www.w3.org/1999/xlink" x="0px" y="0px"
	 viewBox="0 0 300 300" style="enable-background:new 0 0 300 300;" xml:space="preserve">
	<path style="fill:none;stroke:currentColor;stroke-width:4;stroke-linecap:round;stroke-linejoin:round;stroke-miterlimit:10;" d="M167.5,173.8c0-9.6-7.8-17.4-17.4-17.4c-9.6,0-17.4,7.8-17.4,17.4c0,7,4.2,13.1,10.2,15.8l-5.2,31.3h24.8
		l-5.2-31.3C163.3,186.8,167.5,180.8,167.5,173.8z"/>
	<path style="fill:none;stroke:currentColor;stroke-width:4;stroke-linecap:round;stroke-linejoin:round;stroke-miterlimit:10;" d="M74.1,250.5V127.6c0-3.9,3.2-7.1,7.1-7.1l138-0.7c3.9,0,7.1,3.2,7.1,7.1v122.9c0,3.9-3.2,7.1-7.1,7.1l-138,0.7
		C77.3,257.6,74.1,254.4,74.1,250.5z"/>
	<path style="fill:none;stroke:currentColor;stroke-width:4;stroke-linecap:round;stroke-linejoin:round;stroke-miterlimit:10;" d="M105,119.8V87.4c0-24.9,20.2-45.2,45.2-45.2c24.9,0,45.2,20.2,45.2,45.2v32.5"/>
	<path style="fill:none;stroke:currentColor;stroke-width:4;stroke-linecap:round;stroke-linejoin:round;stroke-miterlimit:10;" d="M121.8,118.4V87.4c0-15.7,12.7-28.4,28.4-28.4s28.4,12.7,28.4,28.4v30.1"/>
</svg>
