<?xml version="1.0" standalone="no"?>
<!DOCTYPE svg PUBLIC "-//W3C//DTD SVG 1.1//EN" "http://www.w3.org/Graphics/SVG/1.1/DTD/svg11.dtd">
<svg width="100%" height="100%" viewBox="0 0 85 33" version="1.1" xmlns="http://www.w3.org/2000/svg" xmlns:xlink="http://www.w3.org/1999/xlink" xml:space="preserve" style="fill-rule:evenodd;clip-rule:evenodd;stroke-linejoin:round;stroke-miterlimit:1.41421;">
    <g id="Calque_1_4_">
        <g transform="matrix(1.00592,1.44929e-18,1.44929e-18,1,-58.0917,-83.7326)">
            <rect x="57.75" y="83.733" width="84.5" height="33" style="fill:rgb(3,92,158);"/>
        </g>
        <g transform="matrix(1,0,0,1,-57.75,-83.7326)">
            <rect x="104.15" y="95.833" width="3.9" height="11.6" style="fill:white;"/>
            <rect x="127.25" y="91.833" width="3.9" height="15.6" style="fill:white;"/>
            <rect x="104.15" y="91.833" width="3.9" height="3.1" style="fill:white;"/>
            <path d="M95.65,97.333L95.65,95.833L91.75,95.833L91.75,110.833L95.65,110.833L95.65,105.933C98.05,108.933 101.95,107.633 103.15,104.333C103.85,102.233 103.85,100.133 102.75,98.133C101.35,95.533 97.55,94.633 95.65,97.333ZM97.65,104.233C96.45,104.233 95.55,103.233 95.55,101.733C95.55,100.333 96.55,99.133 97.75,99.133C98.95,99.133 99.75,100.333 99.75,101.733C99.75,103.233 98.85,104.233 97.65,104.233Z" style="fill:white;fill-rule:nonzero;"/>
            <path d="M77.65,97.733C78.65,96.833 79.65,96.133 80.55,95.333C78.15,91.833 73.45,91.433 70.15,93.933C66.65,96.533 66.25,101.833 69.15,105.333C71.35,108.033 76.95,109.333 80.65,104.533L78.15,102.433C75.95,104.433 74.05,104.433 72.65,103.033C71.25,101.733 70.962,98.761 72.262,97.261C74.85,94.527 76.862,96.861 77.65,97.733Z" style="fill:white;fill-rule:nonzero;"/>
            <path d="M113.65,92.833L109.75,92.833L109.75,95.933L108.45,95.933L108.45,99.233L109.75,99.233L109.75,105.233C109.75,105.233 109.85,107.633 112.65,107.733C115.45,107.833 116.05,107.033 116.05,107.033L116.05,103.733C116.05,103.733 115.55,104.233 114.45,104.233C113.45,104.233 113.55,103.733 113.55,103.733L113.55,99.133L115.95,99.133L115.95,95.833L113.55,95.833L113.65,92.833Z" style="fill:white;fill-rule:nonzero;"/>
            <path d="M89.25,96.733C86.85,95.033 84.15,95.733 81.45,96.733L82.05,99.333C82.05,99.333 88.05,97.433 87.45,100.833C87.45,100.833 85.75,100.433 83.85,100.633C81.95,100.733 80.75,102.033 80.65,103.733C80.55,105.833 81.25,107.033 83.15,107.533C85.95,108.233 87.45,106.333 87.45,106.133L87.45,107.533L91.05,107.533L91.05,100.133C91.05,99.333 90.95,97.933 89.25,96.733ZM87.45,103.433C87.45,104.433 86.55,105.033 85.55,105.133C84.75,105.133 84.05,104.733 84.05,103.833C84.05,102.433 86.05,102.533 87.45,102.733L87.45,103.433Z" style="fill:white;fill-rule:nonzero;"/>
            <path d="M124.85,96.733C122.45,95.033 119.75,95.733 117.05,96.733L117.65,99.333C117.65,99.333 123.65,97.433 123.05,100.833C123.05,100.833 121.35,100.433 119.45,100.633C117.55,100.733 116.35,102.133 116.25,103.733C116.15,105.833 116.85,107.033 118.75,107.533C121.55,108.233 123.05,106.333 123.05,106.133L123.05,107.533L126.65,107.533L126.65,100.133C126.75,99.333 126.65,97.933 124.85,96.733ZM123.15,103.433C123.15,104.433 122.25,105.033 121.25,105.133C120.45,105.133 119.75,104.733 119.75,103.833C119.75,102.433 121.75,102.533 123.15,102.733L123.15,103.433Z" style="fill:white;fill-rule:nonzero;"/>
        </g>
    </g>
</svg>
