<?xml version="1.0" standalone="no"?>
<!DOCTYPE svg PUBLIC "-//W3C//DTD SVG 1.1//EN" "http://www.w3.org/Graphics/SVG/1.1/DTD/svg11.dtd">
<svg width="100%" height="100%" viewBox="0 0 73 33" version="1.1" xmlns="http://www.w3.org/2000/svg" xmlns:xlink="http://www.w3.org/1999/xlink" xml:space="preserve" style="fill-rule:evenodd;clip-rule:evenodd;stroke-linejoin:round;stroke-miterlimit:1.41421;">
    <g>
        <g transform="matrix(1.00557,2.5821e-19,2.5821e-19,1.00452,-64.3266,-84.1954)">
            <path d="M100.268,116.666C88.211,116.666 76.155,116.665 64.098,116.668C63.994,116.668 63.97,116.645 63.97,116.54C63.973,105.675 63.973,94.81 63.97,83.944C63.97,83.84 63.994,83.817 64.098,83.817C88.211,83.819 112.324,83.819 136.438,83.817C136.542,83.817 136.566,83.84 136.566,83.944C136.563,94.81 136.563,105.675 136.566,116.54C136.566,116.645 136.542,116.668 136.438,116.668C124.381,116.665 112.324,116.666 100.268,116.666Z" style="fill:rgb(27,92,171);fill-rule:nonzero;"/>
        </g>
        <g transform="matrix(1.00557,2.5821e-19,2.5821e-19,1.00452,-64.3266,-84.1954)">
            <path d="M115.763,106.033C115.763,106.078 115.763,106.123 115.763,106.168C115.763,107.633 115.761,109.097 115.765,110.562C115.765,110.676 115.749,110.718 115.618,110.717C114.58,110.711 113.542,110.712 112.504,110.717C112.388,110.717 112.36,110.687 112.36,110.572C112.364,107.245 112.363,103.917 112.361,100.589C112.361,100.488 112.377,100.447 112.493,100.448C113.48,100.453 114.468,100.452 115.455,100.449C115.541,100.449 115.596,100.474 115.651,100.543C116.791,101.962 117.934,103.379 119.077,104.796C119.113,104.841 119.152,104.884 119.195,104.933C119.227,104.875 119.214,104.824 119.214,104.775C119.214,103.385 119.216,101.994 119.212,100.604C119.211,100.49 119.228,100.447 119.359,100.447C120.402,100.454 121.445,100.453 122.487,100.449C122.596,100.448 122.626,100.475 122.626,100.586C122.623,103.918 122.623,107.25 122.625,110.583C122.625,110.682 122.606,110.717 122.498,110.716C121.557,110.712 120.616,110.712 119.675,110.716C119.588,110.716 119.541,110.679 119.492,110.619C118.372,109.225 117.252,107.832 116.131,106.439C116.018,106.299 115.904,106.16 115.791,106.02C115.782,106.024 115.772,106.028 115.763,106.033Z" style="fill:white;fill-rule:nonzero;"/>
        </g>
        <g transform="matrix(1.00557,2.5821e-19,2.5821e-19,1.00452,-64.3266,-84.1954)">
            <path d="M99.538,105.348C99.888,105.46 100.193,105.574 100.481,105.735C101.428,106.265 101.764,107.103 101.671,108.112C101.56,109.312 100.823,110.007 99.748,110.404C99.138,110.629 98.499,110.71 97.853,110.712C95.967,110.717 94.081,110.713 92.195,110.716C92.08,110.717 92.05,110.689 92.05,110.573C92.054,107.241 92.053,103.91 92.05,100.578C92.05,100.472 92.08,100.449 92.182,100.449C94.128,100.452 96.075,100.444 98.021,100.455C98.752,100.459 99.467,100.573 100.125,100.926C101.696,101.77 101.572,103.696 100.813,104.528C100.514,104.856 100.154,105.091 99.748,105.261C99.689,105.285 99.631,105.309 99.538,105.348Z" style="fill:white;fill-rule:nonzero;"/>
        </g>
        <g transform="matrix(1.00557,2.5821e-19,2.5821e-19,1.00452,-64.3266,-84.1954)">
            <path d="M88.041,110.714C87.977,110.714 87.937,110.714 87.896,110.714C86.682,110.714 85.467,110.712 84.253,110.716C84.151,110.717 84.099,110.681 84.045,110.599C83.454,109.697 82.858,108.798 82.268,107.895C82.206,107.801 82.139,107.767 82.031,107.774C81.902,107.782 81.772,107.776 81.642,107.776C81.461,107.776 81.461,107.776 81.461,107.951C81.461,108.822 81.458,109.693 81.464,110.565C81.465,110.688 81.434,110.717 81.312,110.717C80.264,110.711 79.217,110.712 78.17,110.716C78.059,110.717 78.021,110.696 78.021,110.575C78.025,107.248 78.025,103.92 78.021,100.592C78.021,100.475 78.053,100.448 78.167,100.449C79.868,100.452 81.569,100.441 83.269,100.455C84.183,100.462 85.082,100.589 85.904,101.023C86.927,101.562 87.523,102.403 87.646,103.563C87.719,104.246 87.666,104.914 87.378,105.547C87.044,106.282 86.483,106.796 85.775,107.16C85.682,107.208 85.661,107.237 85.728,107.335C86.477,108.42 87.221,109.51 87.966,110.598C87.987,110.629 88.006,110.66 88.041,110.714Z" style="fill:white;fill-rule:nonzero;"/>
        </g>
        <g transform="matrix(1.00557,2.5821e-19,2.5821e-19,1.00452,-64.3266,-84.1954)">
            <path d="M123.018,105.584C123.018,103.92 123.02,102.256 123.016,100.592C123.015,100.477 123.043,100.448 123.159,100.448C125.982,100.452 128.804,100.452 131.627,100.448C131.756,100.448 131.776,100.486 131.776,100.603C131.771,101.442 131.771,102.281 131.776,103.12C131.777,103.235 131.747,103.266 131.631,103.266C129.94,103.262 128.248,103.265 126.556,103.26C126.416,103.26 126.386,103.301 126.391,103.43C126.401,103.666 126.402,103.903 126.391,104.139C126.385,104.272 126.421,104.31 126.558,104.31C127.98,104.304 129.403,104.306 130.826,104.306C130.984,104.306 131.142,104.31 131.299,104.305C131.378,104.303 131.402,104.329 131.402,104.408C131.399,105.163 131.397,105.919 131.403,106.674C131.404,106.804 131.331,106.786 131.252,106.786C129.7,106.786 128.147,106.786 126.594,106.787C126.378,106.787 126.395,106.743 126.394,106.984C126.393,107.234 126.401,107.485 126.391,107.735C126.386,107.862 126.422,107.898 126.551,107.897C128.252,107.893 129.953,107.894 131.654,107.895C131.875,107.895 131.844,107.865 131.845,108.087C131.846,108.917 131.843,109.746 131.847,110.576C131.848,110.679 131.829,110.717 131.714,110.717C128.858,110.713 126.003,110.713 123.148,110.717C123.032,110.717 123.016,110.677 123.016,110.576C123.019,108.912 123.018,107.248 123.018,105.584Z" style="fill:white;fill-rule:nonzero;"/>
        </g>
        <g transform="matrix(1.00557,2.5821e-19,2.5821e-19,1.00452,-64.3266,-84.1954)">
            <path d="M111.943,103.542C111.943,104.52 111.96,105.498 111.938,106.476C111.921,107.245 111.76,107.991 111.407,108.684C110.896,109.687 110.066,110.302 109.006,110.628C108.09,110.91 107.15,110.952 106.201,110.893C105.546,110.853 104.907,110.731 104.299,110.478C103.062,109.965 102.316,109.035 101.992,107.748C101.861,107.229 101.807,106.699 101.806,106.166C101.8,104.312 101.805,102.458 101.8,100.604C101.8,100.472 101.84,100.448 101.961,100.448C103.028,100.453 104.094,100.453 105.16,100.448C105.273,100.448 105.305,100.472 105.305,100.59C105.301,102.43 105.302,104.271 105.301,106.111C105.301,106.377 105.334,106.637 105.419,106.89C105.623,107.496 106.06,107.81 106.685,107.871C106.935,107.896 107.185,107.879 107.429,107.809C108.013,107.641 108.384,107.161 108.441,106.489C108.454,106.337 108.461,106.184 108.461,106.032C108.463,104.224 108.463,102.416 108.459,100.609C108.459,100.487 108.484,100.447 108.616,100.448C109.682,100.454 110.748,100.453 111.814,100.448C111.933,100.448 111.956,100.482 111.955,100.594C111.95,101.577 111.952,102.559 111.952,103.542C111.949,103.542 111.946,103.542 111.943,103.542Z" style="fill:white;fill-rule:nonzero;"/>
        </g>
        <g transform="matrix(1.00557,2.5821e-19,2.5821e-19,1.00452,-64.3266,-84.1954)">
            <path d="M90.096,100.055C89.507,100.055 88.937,100.055 88.367,100.055C87.746,100.055 87.125,100.053 86.504,100.058C86.407,100.059 86.36,100.032 86.324,99.938C86.178,99.549 86.018,99.164 85.87,98.776C85.841,98.697 85.804,98.672 85.721,98.673C84.6,98.675 83.479,98.675 82.357,98.672C82.274,98.672 82.237,98.697 82.208,98.775C82.061,99.169 81.905,99.56 81.76,99.954C81.727,100.044 81.678,100.057 81.596,100.057C80.456,100.055 79.316,100.054 78.176,100.058C78.062,100.058 78.058,100.03 78.098,99.935C78.995,97.796 79.889,95.656 80.785,93.516C81.297,92.293 81.811,91.071 82.319,89.846C82.359,89.748 82.406,89.718 82.51,89.719C83.557,89.723 84.605,89.722 85.652,89.719C85.744,89.718 85.791,89.744 85.827,89.831C87.232,93.194 88.639,96.557 90.046,99.92C90.061,99.957 90.074,99.996 90.096,100.055Z" style="fill:white;fill-rule:nonzero;"/>
        </g>
        <g transform="matrix(1.00557,2.5821e-19,2.5821e-19,1.00452,-64.3266,-84.1954)">
            <path d="M68.802,94.913C68.802,93.258 68.803,91.604 68.798,89.949C68.798,89.818 68.837,89.792 68.96,89.793C69.998,89.797 71.036,89.797 72.075,89.793C72.194,89.792 72.237,89.813 72.236,89.947C72.232,92.283 72.234,94.619 72.23,96.955C72.229,97.085 72.255,97.123 72.392,97.123C74.089,97.118 75.785,97.121 77.481,97.117C77.609,97.116 77.643,97.149 77.642,97.277C77.636,98.153 77.637,99.029 77.642,99.905C77.642,100.025 77.615,100.059 77.489,100.059C74.643,100.054 71.798,100.055 68.952,100.058C68.828,100.059 68.799,100.027 68.799,99.905C68.803,98.241 68.802,96.577 68.802,94.913Z" style="fill:white;fill-rule:nonzero;"/>
        </g>
        <g transform="matrix(1.00557,2.5821e-19,2.5821e-19,1.00452,-64.3266,-84.1954)">
            <path d="M73.228,100.451C74.651,100.451 76.074,100.453 77.497,100.448C77.629,100.447 77.654,100.487 77.653,100.61C77.648,101.476 77.648,102.343 77.653,103.209C77.654,103.325 77.625,103.357 77.508,103.356C76.725,103.351 75.942,103.352 75.158,103.354C74.914,103.355 74.942,103.317 74.942,103.565C74.941,105.896 74.94,108.227 74.944,110.558C74.944,110.683 74.914,110.718 74.786,110.717C73.752,110.711 72.719,110.711 71.685,110.717C71.547,110.718 71.502,110.691 71.503,110.541C71.508,108.2 71.505,105.86 71.509,103.52C71.51,103.387 71.478,103.35 71.343,103.351C70.541,103.357 69.739,103.351 68.938,103.356C68.828,103.357 68.799,103.326 68.799,103.218C68.803,102.338 68.804,101.457 68.799,100.576C68.798,100.468 68.833,100.449 68.932,100.449C70.364,100.452 71.796,100.451 73.228,100.451Z" style="fill:white;fill-rule:nonzero;"/>
        </g>
        <g transform="matrix(1.00557,2.5821e-19,2.5821e-19,1.00452,-64.3266,-84.1954)">
            <path d="M88.138,105.583C88.138,103.923 88.14,102.264 88.135,100.605C88.135,100.476 88.17,100.447 88.295,100.448C89.365,100.453 90.436,100.453 91.507,100.448C91.62,100.448 91.652,100.472 91.652,100.591C91.649,103.918 91.649,107.246 91.652,110.574C91.652,110.693 91.62,110.717 91.507,110.716C90.431,110.712 89.356,110.712 88.281,110.716C88.168,110.717 88.135,110.694 88.136,110.575C88.14,108.911 88.139,107.247 88.138,105.583Z" style="fill:white;fill-rule:nonzero;"/>
        </g>
        <g transform="matrix(1.00557,2.5821e-19,2.5821e-19,1.00452,-64.3266,-84.1954)">
            <path d="M96.479,106.597C96.772,106.615 97.129,106.567 97.484,106.624C97.627,106.647 97.763,106.689 97.889,106.761C98.124,106.894 98.239,107.096 98.237,107.365C98.234,107.63 98.106,107.822 97.879,107.95C97.646,108.081 97.387,108.112 97.127,108.115C96.59,108.121 96.053,108.115 95.515,108.119C95.427,108.119 95.397,108.097 95.398,108.003C95.404,107.567 95.402,107.132 95.399,106.696C95.398,106.618 95.419,106.594 95.499,106.596C95.804,106.6 96.11,106.597 96.479,106.597Z" style="fill:rgb(27,92,171);fill-rule:nonzero;"/>
        </g>
        <g transform="matrix(1.00557,2.5821e-19,2.5821e-19,1.00452,-64.3266,-84.1954)">
            <path d="M96.284,104.481C96.024,104.481 95.765,104.477 95.506,104.483C95.419,104.485 95.398,104.456 95.399,104.372C95.403,103.965 95.402,103.558 95.399,103.151C95.398,103.074 95.418,103.045 95.499,103.047C96.054,103.058 96.609,103.028 97.164,103.065C97.322,103.075 97.473,103.116 97.616,103.184C97.858,103.299 97.974,103.5 97.974,103.762C97.975,104.023 97.865,104.225 97.623,104.344C97.415,104.447 97.191,104.474 96.964,104.479C96.737,104.485 96.51,104.48 96.284,104.481Z" style="fill:rgb(27,92,171);fill-rule:nonzero;"/>
        </g>
        <g transform="matrix(1.00557,2.5821e-19,2.5821e-19,1.00452,-64.3266,-84.1954)">
            <path d="M81.461,104.324C81.461,104.028 81.462,103.731 81.46,103.434C81.459,103.365 81.467,103.322 81.555,103.324C82.111,103.337 82.668,103.305 83.223,103.344C83.333,103.351 83.443,103.374 83.549,103.404C84.002,103.535 84.244,103.841 84.254,104.287C84.265,104.75 84.034,105.076 83.589,105.233C83.34,105.321 83.08,105.33 82.822,105.334C82.409,105.34 81.997,105.333 81.584,105.337C81.489,105.339 81.456,105.314 81.459,105.214C81.465,104.918 81.461,104.621 81.461,104.324Z" style="fill:rgb(27,92,171);fill-rule:nonzero;"/>
        </g>
        <g transform="matrix(1.00557,2.5821e-19,2.5821e-19,1.00452,-64.3266,-84.1954)">
            <path d="M84.045,93.761C84.161,94.07 84.265,94.346 84.369,94.622C84.558,95.123 84.747,95.625 84.938,96.125C84.969,96.206 84.978,96.244 84.864,96.243C84.322,96.238 83.78,96.24 83.238,96.242C83.145,96.243 83.116,96.23 83.155,96.127C83.451,95.35 83.742,94.571 84.045,93.761Z" style="fill:rgb(27,92,171);fill-rule:nonzero;"/>
        </g>
    </g>
</svg>
