<svg xmlns="http://www.w3.org/2000/svg" width="100%" height="100%" viewBox="0 0 120 33" stroke-linejoin="round"><style>.a{fill:#231f20;}.b{fill:#fff;}</style><rect width="120" height="29.95" fill="#4ba1d9"/><rect y="31.34" width="120" height="1.66" fill="#ec2227"/><rect x="15.12" y="8.73" width="0.69" height="18.42" class="a"/><path d="M20.21 27.65l0 2.31 0.7 0 0-2.14c-0.04-0.05-0.07-0.11-0.11-0.17l-0.59 0Z" class="a"/><path d="M27.3 14.06c0.85 0.77 1.46 1.98 1.46 3.78 0 4.19-3.95 6.07-5.63 6.2 0.14 1.91 0.83 2.92 1.68 3.28 -0.51-0.54-0.89-1.43-0.99-2.78 1.67-0.13 5.63-2.01 5.63-6.2 0-2.26-0.96-3.6-2.15-4.28Z" class="a"/><path d="M26.66 29.94c-0.02 0-0.05 0.01-0.07 0.01l0.77 0 0-2.04c-0.22 0.05-0.43 0.06-0.69 0.06l0 1.97Z" class="a"/><path d="M23.39 29.95l0.73 0c-0.54-0.1-1.09-0.3-1.62-0.61 0.28 0.25 0.58 0.45 0.89 0.61Z" class="a"/><path d="M23.65 21.22c0-0.03 0-0.06 0-0.09 0-4.12 0.71-5.1 1.53-5.1 0.02 0 0.04 0.01 0.05 0.01 -0.17-0.35-0.42-0.5-0.75-0.5 -0.82 0-1.53 0.97-1.53 5.1 0 0.33 0 0.58 0.04 0.81 0.21-0.01 0.43-0.1 0.66-0.22Z" class="a"/><path d="M42.57 2.93c1.69 1.38 2.8 3.58 2.8 6.87 0 7.75-6.33 10.41-8.06 10.82l-0.1 9.33 0.7 0 0.09-8.83c1.52-0.36 6.58-2.46 7.79-8.21l0.05-2.18c0 0 0.07-0.02 0.2-0.05 0-0.13 0.02-0.25 0.02-0.39 0-3.72-1.42-6.05-3.49-7.37Z" class="a"/><path d="M38 4.72c0.58 0 1.13 0.11 1.63 0.36 -0.64-0.63-1.45-0.86-2.33-0.86l0 12.73c0.16-0.02 0.41-0.12 0.7-0.29l0-11.94Z" class="a"/><path d="M50.4 29.95l0.06-0.05 0-1.15 -1.28 1.21 1.23 0Z" class="a"/><path d="M47.03 29.95l0.43 0c-0.36-0.1-0.71-0.25-1.04-0.45 0.2 0.17 0.4 0.32 0.62 0.45Z" class="a"/><path d="M52.7 11.63c0.96 0.87 1.54 2.27 1.54 4.39l0 13.94 0.69 0 0-13.44c0-2.59-0.86-4.1-2.23-4.89Z" class="a"/><path d="M50.17 19.25l0-0.84c-0.7 0.07-2.71 1.72-2.71 5.35 0 2.15 0.67 3.11 1.33 3.23 -0.36-0.5-0.63-1.37-0.63-2.73 0-2.75 1.16-4.36 2.02-5.01Z" class="a"/><path d="M49.9 14.02c-0.3-0.43-0.82-0.62-1.5-0.62 -0.74 0-1.32 0.06-1.92 0.18l-0.02 0.66c0.91-0.22 1.6-0.34 2.63-0.34 0.3 0 0.57 0.04 0.8 0.12Z" class="a"/><path d="M63.73 13.77l-0.49 0c-1.93 0-3.33 1.7-3.33 3.99l-0.01 12.2 0.69 0 0.01-11.7c0-2.28 1.4-3.99 3.33-3.99l0.49 0 0-3.18 -0.69 0 0 2.68Z" class="a"/><path d="M60.4 11.41l0-0.33 -0.69 0.04 0 1c0.14-0.18 0.36-0.45 0.69-0.71Z" class="a"/><path d="M69.36 4.72l-0.7 0 0 3.51 -3.04 0 0 0.5 3.74 0 0-4.01Z" class="a"/><rect x="68.83" y="11.09" width="0.69" height="18.87" class="a"/><path d="M70.3 29.95l1.17 0c-0.37-0.06-0.72-0.13-1.05-0.22l-0.12 0.22Z" class="a"/><path d="M76.84 18.43c-1.64-1.54-1.97-2.28-1.97-3.03 0-0.79 0.74-1.46 1.65-1.46 0.66 0 1.11 0.08 1.52 0.26l1.48-2.73c-0.26-0.09-0.54-0.18-0.83-0.25l-1.35 2.49c-0.41-0.19-0.86-0.26-1.52-0.26 -0.9 0-1.64 0.68-1.64 1.46 0 0.75 0.33 1.5 1.97 3.04 2.38 2.17 3.49 3.82 3.49 6.55 0 2.85-2.11 4.93-4.86 5.48l2.26 0c1.95-0.9 3.3-2.69 3.3-4.97 0-2.73-1.11-4.38-3.49-6.55Z" class="a"/><path d="M85.06 4.72l-0.69 0 0 3.51 -3.04 0 0 0.5 3.74 0 0-4.01Z" class="a"/><rect x="84.53" y="11.09" width="0.7" height="18.87" class="a"/><path d="M94.74 11.55c1.01 0.88 1.75 2.3 1.75 4.43 0 4.83-4.56 7-6.49 7.15 0.16 2.17 0.93 3.33 1.89 3.77 -0.62-0.62-1.08-1.66-1.2-3.27 1.93-0.15 6.49-2.32 6.49-7.15 0-2.59-1.09-4.14-2.45-4.92Z" class="a"/><path d="M90.49 19.94c0-0.08 0-0.15 0-0.24 0-4.76 0.82-5.88 1.76-5.88 0.05 0 0.09 0.01 0.13 0.02 -0.19-0.35-0.47-0.52-0.83-0.52 -0.94 0-1.77 1.12-1.77 5.88 0 0.38 0 0.67 0.04 0.94 0.21-0.01 0.43-0.09 0.66-0.2Z" class="a"/><path d="M90.3 29.95l0.79 0c-0.64-0.13-1.28-0.36-1.89-0.73 0.35 0.3 0.72 0.54 1.1 0.73Z" class="a"/><path d="M94.06 29.95c-0.01 0-0.03 0-0.04 0.01l0.74 0 0-2.43c-0.23 0.05-0.44 0.06-0.69 0.07l0 2.35Z" class="a"/><path d="M106.99 11.66c1.22 1.09 1.91 2.9 1.91 5.48l0 12.81 0.7 0 0-12.31c0-3.04-0.95-5-2.6-5.98Z" class="a"/><path d="M101.26 11.09l0 0.51 0.56-0.51 -0.56 0Z" class="a"/><path d="M103.23 13.58c-0.99 0-1.64 1.16-1.64 2.51l0 13.86 0.7 0 0-13.36c0-1.35 0.66-2.51 1.64-2.51 0.11 0 0.21 0.02 0.31 0.05 -0.27-0.34-0.61-0.55-1-0.55Z" class="a"/><rect x="64.92" y="4.22" width="3.74" height="4.01" class="b"/><rect x="80.63" y="4.22" width="3.74" height="4.01" class="b"/><path d="M109.6 29.95l-0.7 0 0-12.81c0-2.59-0.69-4.4-1.91-5.48 -0.95-0.85-2.23-1.26-3.76-1.26 -0.37 0-0.49 0-0.7 0.04l-0.71 0.65 -0.56 0.51 0-0.51 0-0.5 -3.74 0 0 19.37 -2.76 0 -0.73 0c0.01 0 0.03 0 0.04-0.01l0-2.35 0-0.57c-0.37 0.08-0.7 0.08-1.23 0.08 -0.32 0-0.64-0.07-0.94-0.2 -0.96-0.43-1.74-1.6-1.89-3.76 1.93-0.15 6.49-2.32 6.49-7.15 0-2.13-0.74-3.55-1.75-4.42 -0.93-0.81-2.09-1.15-3.14-1.15 -2.3 0-5.88 1.24-5.88 9.81 0 5.29 1.58 7.85 3.48 9.01 0.61 0.38 1.25 0.6 1.89 0.73l-0.78 0 -5.08 0 -0.69 0 0-18.87 0-0.5 -4.07 0 0 19.37 -3.43 0 -2.26 0c2.75-0.54 4.86-2.62 4.86-5.47 0-2.73-1.11-4.38-3.49-6.55 -1.64-1.54-1.97-2.29-1.97-3.03 0-0.79 0.74-1.46 1.65-1.46 0.66 0 1.11 0.08 1.52 0.26l1.35-2.49 0.13-0.25c-0.86-0.3-1.81-0.56-3.25-0.56 -3.12 0-5.55 2.1-5.55 4.83 0 1.99 0.7 3.19 3.25 5.62 1.48 1.69 2.01 2.7 2.01 4.05 0 1.16-1.03 2.02-2.3 2.02 -0.66 0-1.19-0.07-1.77-0.34l-1.6 2.88c0.26 0.1 0.53 0.2 0.82 0.28 0.33 0.09 0.68 0.16 1.05 0.22l-1.17 0 -0.78 0 -0.69 0 0-18.87 0-0.5 -4.07 0 0 19.37 -4.17 0 -0.69 0 0.01-12.2c0-2.28 1.4-3.99 3.33-3.99l0.49 0 0-2.68 0-0.5 -0.74 0c-1.23 0-2.05 0.4-2.59 0.83 -0.33 0.26-0.55 0.52-0.69 0.71l0-1 0-0.53 -3.86 0.2 0 19.17 -0.91 0 -0.69 0 0-13.94c0-2.12-0.58-3.52-1.54-4.39 -0.98-0.89-2.35-1.23-3.93-1.23 -1.37 0-2.34 0.19-2.73 0.29 -0.13 0.03-0.19 0.05-0.19 0.05l-0.05 2.18 -0.02 0.82c0.25-0.06 0.48-0.11 0.71-0.16 0.6-0.12 1.18-0.18 1.92-0.18 0.68 0 1.2 0.2 1.5 0.62 0.17 0.25 0.27 0.57 0.27 0.99l0 0.38c-1.77 0.22-6.62 2.4-6.62 8.39 0 2.64 1.22 4.76 2.86 5.73 0.33 0.2 0.68 0.35 1.05 0.45l-0.43 0 -9.12 0 -0.7 0 0.1-9.33c1.73-0.41 8.06-3.07 8.06-10.82 0-3.29-1.11-5.49-2.8-6.87 -1.69-1.38-3.96-1.93-6.29-1.93l-3.33 0 -0.1 28.96 -5.5 0 -0.76 0c0.02 0 0.05-0.01 0.07-0.01l0-1.97 0-0.56c-0.32 0.07-0.61 0.07-1.07 0.07 -0.27 0-0.53-0.06-0.78-0.16 -0.85-0.36-1.54-1.37-1.68-3.28 1.68-0.13 5.63-2.01 5.63-6.2 0-1.8-0.61-3.01-1.46-3.78 -0.82-0.74-1.85-1.06-2.78-1.06 -1.99 0-5.09 1.07-5.09 8.51 0 2.9 0.55 4.85 1.37 6.15 0.04 0.06 0.07 0.11 0.11 0.17 0.47 0.69 1.01 1.19 1.59 1.53 0.53 0.31 1.07 0.5 1.62 0.61l-0.73 0 -2.48 0 -0.69 0 0-2.31 0-0.5 -4.4 0 -0.69 0 0-18.42 0-0.5 -3.78 0 0 21.72 -11.34 0 0 1.38 120 0 0-1.38 -10.4 0ZM89.79 19.2c0-4.76 0.82-5.88 1.77-5.88 0.36 0 0.63 0.16 0.83 0.52 0.21 0.39 0.33 1 0.33 1.92 0 2.17-1.15 3.68-2.22 4.18 -0.23 0.11-0.45 0.19-0.66 0.2 -0.04-0.26-0.04-0.56-0.04-0.94ZM22.95 20.63c0-4.12 0.71-5.09 1.53-5.09 0.33 0 0.58 0.15 0.75 0.51 0.16 0.34 0.25 0.86 0.25 1.61 0 1.82-0.93 3.1-1.83 3.58 -0.23 0.12-0.45 0.21-0.66 0.22 -0.04-0.23-0.04-0.49-0.04-0.81ZM101.59 16.09c0-1.35 0.66-2.51 1.64-2.51 0.4 0 0.74 0.21 1 0.55 0.37 0.47 0.6 1.18 0.6 1.96l0 13.86 -2.55 0 -0.69 0 0-13.86ZM47.45 23.77c0-3.63 2.02-5.28 2.71-5.35l0 7.53c-0.16 0.45-0.62 1.09-1.23 1.09 -0.05 0-0.1-0.02-0.15-0.02 -0.66-0.13-1.33-1.08-1.33-3.23ZM50.46 28.75l0 1.21 -0.06 0 -1.23 0 1.28-1.21ZM40.96 9.76c0 4.2-1.82 6.21-2.96 6.9 -0.29 0.17-0.53 0.27-0.69 0.29l0-12.73c0.87 0 1.69 0.23 2.33 0.86 0.81 0.8 1.33 2.24 1.33 4.68Z" class="b"/></svg>

