<?xml version="1.0" standalone="no"?>
<!DOCTYPE svg PUBLIC "-//W3C//DTD SVG 1.1//EN" "http://www.w3.org/Graphics/SVG/1.1/DTD/svg11.dtd">
<svg width="100%" height="100%" viewBox="0 0 127 32" version="1.1" xmlns="http://www.w3.org/2000/svg" xmlns:xlink="http://www.w3.org/1999/xlink" xml:space="preserve" style="fill-rule:evenodd;clip-rule:evenodd;stroke-linejoin:round;stroke-miterlimit:1.41421;">
    <g id="Calque_1_3_">
        <g transform="matrix(1,0,0,1,-38.4,-84.625)">
            <path d="M147.891,113.646C146.219,115.318 143.956,116.302 141.398,116.302C136.381,116.302 132.249,112.17 132.249,107.153C132.249,102.136 136.381,98.004 141.398,98.004C143.956,98.004 146.219,98.988 147.891,100.66L145.235,103.611C144.349,102.628 142.972,101.939 141.398,101.939C138.545,101.939 136.184,104.3 136.184,107.153C136.184,110.006 138.545,112.367 141.398,112.367C142.874,112.367 144.251,111.776 145.235,110.694L147.891,113.646Z" style="fill:rgb(20,21,63);fill-rule:nonzero;"/>
        </g>
        <g transform="matrix(1,0,0,1,-38.4,-84.625)">
            <path d="M156.154,98.102C151.137,98.102 147.006,102.234 147.006,107.251C147.006,112.268 151.137,116.4 156.154,116.4C161.172,116.4 165.303,112.268 165.303,107.251C165.303,102.136 161.27,98.102 156.154,98.102ZM156.154,112.465C153.302,112.465 150.941,110.104 150.941,107.251C150.941,104.398 153.302,102.037 156.154,102.037C159.007,102.037 161.368,104.398 161.368,107.251C161.368,110.104 159.106,112.465 156.154,112.465Z" style="fill:rgb(20,21,63);fill-rule:nonzero;"/>
        </g>
        <g transform="matrix(1,0,0,1,-38.4,-84.625)">
            <rect x="126.642" y="98.594" width="4.033" height="17.117" style="fill:rgb(223,37,41);"/>
        </g>
        <g transform="matrix(1,0,0,1,-38.4,-84.625)">
            <rect x="74.602" y="89.445" width="4.033" height="26.364" style="fill:rgb(20,21,63);"/>
        </g>
        <g transform="matrix(1,0,0,1,-38.4,-84.625)">
            <path d="M38.4,84.625L38.4,93.872L39.679,93.872L43.122,89.445L43.122,84.625L38.4,84.625Z" style="fill:rgb(18,20,57);fill-rule:nonzero;"/>
        </g>
        <g transform="matrix(1,0,0,1,-38.4,-84.625)">
            <path d="M44.696,84.625L44.696,93.872L45.975,93.872L49.516,89.445L49.516,84.625L44.696,84.625Z" style="fill:rgb(18,20,57);fill-rule:nonzero;"/>
        </g>
        <g transform="matrix(1,0,0,1,-38.4,-84.625)">
            <path d="M124.97,98.594L121.92,98.594L121.92,92.2L117.887,92.2L117.887,98.594L114.935,98.594L114.935,102.136L117.887,102.136L117.887,115.81L121.92,115.81L121.92,102.136L124.97,102.136L124.97,98.594Z" style="fill:rgb(20,21,63);fill-rule:nonzero;"/>
        </g>
        <g transform="matrix(1,0,0,1,-38.4,-84.625)">
            <path d="M73.618,98.594L70.667,98.594L70.667,92.2L66.634,92.2L66.634,98.594L63.682,98.594L63.682,102.136L66.634,102.136L66.634,115.81L70.667,115.81L70.667,102.136L73.618,102.136L73.618,98.594Z" style="fill:rgb(20,21,63);fill-rule:nonzero;"/>
        </g>
        <g transform="matrix(1,0,0,1,-38.4,-84.625)">
            <circle cx="128.708" cy="92.2" r="2.754" style="fill:rgb(223,37,41);"/>
        </g>
        <g transform="matrix(1,0,0,1,-38.4,-84.625)">
            <path d="M108.344,98.102C105.196,98.102 103.819,99.971 103.819,99.971L103.819,98.693L99.786,98.693L99.786,115.81L103.819,115.81L103.819,104.693C103.819,103.611 105.098,101.939 107.361,101.939C109.918,101.939 110.312,104.103 110.312,104.103L110.312,115.908L114.345,115.908L114.345,103.611C114.345,99.971 111.492,98.102 108.344,98.102Z" style="fill:rgb(20,21,63);fill-rule:nonzero;"/>
        </g>
        <g transform="matrix(1,0,0,1,-38.4,-84.625)">
            <path d="M93.982,98.594L93.982,99.775C92.604,98.693 91.03,98.102 89.26,98.102C84.243,98.102 80.111,102.234 80.111,107.251C80.111,112.268 84.243,116.4 89.26,116.4C91.03,116.4 92.703,115.711 93.982,114.728L93.982,115.81L98.015,115.81L98.015,98.594L93.982,98.594ZM89.26,112.465C86.505,112.465 84.538,110.006 84.538,107.251C84.538,104.103 86.604,102.136 89.456,102.136C92.211,102.136 94.178,104.497 94.178,107.251C94.08,109.907 92.014,112.465 89.26,112.465Z" style="fill:rgb(20,21,63);fill-rule:nonzero;"/>
        </g>
        <g transform="matrix(1,0,0,1,-38.4,-84.625)">
            <path d="M58.567,98.594L58.567,99.775C57.19,98.693 55.616,98.102 53.845,98.102C48.828,98.102 44.696,102.234 44.696,107.251C44.696,112.268 48.828,116.4 53.845,116.4C55.616,116.4 57.288,115.711 58.567,114.728L58.567,115.81L62.6,115.81L62.6,98.594L58.567,98.594ZM53.943,112.465C51.189,112.465 49.221,110.006 49.221,107.251C49.221,104.103 51.287,102.136 54.14,102.136C56.894,102.136 58.862,104.497 58.862,107.251C58.764,109.907 56.796,112.465 53.943,112.465Z" style="fill:rgb(20,21,63);fill-rule:nonzero;"/>
        </g>
    </g>
</svg>
