<?xml version="1.0" standalone="no"?>
<!DOCTYPE svg PUBLIC "-//W3C//DTD SVG 1.1//EN" "http://www.w3.org/Graphics/SVG/1.1/DTD/svg11.dtd">
<svg width="100%" height="100%" viewBox="0 0 80 33" version="1.1" xmlns="http://www.w3.org/2000/svg" xmlns:xlink="http://www.w3.org/1999/xlink" xml:space="preserve" style="fill-rule:evenodd;clip-rule:evenodd;stroke-linejoin:round;stroke-miterlimit:1.41421;">
    <g>
        <rect x="0" y="0.001" width="80" height="32.971" style="fill:rgb(1,95,196);"/>
        <g>
            <path d="M39.631,8.337C39.643,8.34 39.655,8.343 39.667,8.346C39.667,8.469 39.667,8.594 39.667,8.716C39.667,11.632 39.666,14.546 39.667,17.46C39.667,17.763 39.675,17.772 39.981,17.772C41.244,17.775 42.508,17.776 43.771,17.778C44.091,17.778 44.099,17.77 44.099,17.454C44.099,12.656 44.099,7.859 44.099,3.061C44.099,2.737 44.095,2.734 43.778,2.734C41.786,2.736 39.794,2.743 37.802,2.734C37.55,2.733 37.455,2.813 37.397,3.052C36.735,5.817 36.063,8.579 35.392,11.341C35.381,11.385 35.403,11.454 35.313,11.465C35.292,11.389 35.27,11.317 35.252,11.243C34.586,8.51 33.918,5.778 33.262,3.044C33.206,2.811 33.115,2.74 32.875,2.74C27.248,2.751 21.621,2.755 15.994,2.76C15.682,2.76 15.681,2.761 15.681,3.082L15.681,11.055C15.662,11.061 15.644,11.067 15.626,11.072C15.531,10.942 15.442,10.81 15.341,10.686C14.914,10.165 14.382,9.788 13.755,9.546C13.7,9.525 13.619,9.519 13.609,9.448C13.599,9.373 13.682,9.359 13.729,9.323C13.786,9.283 13.846,9.248 13.905,9.21C14.886,8.584 15.366,7.695 15.356,6.523C15.342,4.807 14.438,3.576 12.793,3.066C12.105,2.853 11.398,2.77 10.685,2.767C8.042,2.758 5.399,2.766 2.756,2.766C2.423,2.767 2.423,2.767 2.423,3.097C2.423,7.856 2.423,12.615 2.423,17.374C2.423,17.71 2.423,17.71 2.774,17.71C5.479,17.713 8.184,17.713 10.889,17.718C11.301,17.719 11.711,17.692 12.113,17.612C13.552,17.32 14.766,16.677 15.558,15.384C15.581,15.347 15.597,15.293 15.681,15.328C15.681,15.403 15.681,15.489 15.681,15.573C15.681,16.193 15.689,16.813 15.676,17.433C15.672,17.653 15.735,17.727 15.963,17.726C17.296,17.717 18.629,17.724 19.962,17.725C20.27,17.725 20.271,17.724 20.272,17.418C20.272,15.751 20.272,14.085 20.272,12.418C20.272,12.034 20.272,12.033 20.647,12.034C22.414,12.036 24.181,12.037 25.948,12.04C26.271,12.04 26.272,12.039 26.272,11.726C26.272,10.749 26.272,9.772 26.272,8.796C26.272,8.469 26.271,8.468 25.939,8.468C24.149,8.47 22.358,8.466 20.568,8.478C20.33,8.48 20.258,8.406 20.267,8.173C20.283,7.754 20.271,7.335 20.272,6.918C20.272,6.594 20.273,6.591 20.59,6.593C22.482,6.594 24.373,6.597 26.264,6.599C26.604,6.6 26.604,6.6 26.604,6.945C26.604,10.441 26.606,13.936 26.6,17.433C26.599,17.665 26.662,17.738 26.899,17.739C28.147,17.74 29.395,17.716 30.642,17.757C30.973,17.768 30.974,17.76 30.974,17.427L30.974,8.207C31.068,8.279 31.062,8.364 31.081,8.433C31.893,11.433 32.704,14.43 33.515,17.43C33.605,17.763 33.604,17.763 33.951,17.763C34.889,17.766 35.827,17.76 36.765,17.772C36.989,17.775 37.094,17.706 37.153,17.484C37.927,14.603 38.708,11.727 39.488,8.847C39.535,8.677 39.584,8.507 39.631,8.337ZM7.206,6.311C7.64,6.317 8.073,6.313 8.592,6.313C9.017,6.341 9.529,6.263 10.037,6.356C10.734,6.481 11.056,6.835 11.032,7.447C11.006,8.097 10.616,8.502 9.933,8.573C9.014,8.666 8.092,8.597 7.171,8.618C7.033,8.621 6.975,8.555 6.975,8.421C6.976,7.785 6.977,7.15 6.974,6.516C6.973,6.35 7.055,6.308 7.206,6.311ZM10.259,14.151C9.371,14.249 8.479,14.188 7.589,14.195C6.886,14.201 6.98,14.303 6.975,13.584C6.97,12.933 6.979,12.281 6.971,11.632C6.968,11.419 7.045,11.343 7.256,11.347C7.705,11.358 8.154,11.35 8.676,11.35C9.145,11.37 9.687,11.332 10.229,11.38C11.041,11.456 11.521,11.927 11.539,12.698C11.559,13.516 11.084,14.063 10.259,14.152L10.259,14.151Z" style="fill:rgb(230,147,36);fill-rule:nonzero;"/>
            <g>
                <path d="M56.562,27.094C54.952,27.118 53.341,27.099 51.731,27.114C51.37,27.118 51.205,26.996 51.24,26.629C51.25,26.528 51.253,26.421 51.24,26.32C51.183,25.885 51.379,25.766 51.797,25.773C53.186,25.797 54.575,25.776 55.963,25.793C56.329,25.798 56.465,25.674 56.45,25.308C56.428,24.761 56.42,24.213 56.452,23.668C56.479,23.225 56.296,23.12 55.885,23.126C54.497,23.147 53.108,23.126 51.719,23.144C51.348,23.15 51.202,23.016 51.24,22.656C51.251,22.554 51.253,22.448 51.24,22.347C51.184,21.923 51.356,21.787 51.786,21.793C53.351,21.817 54.918,21.796 56.483,21.814C56.85,21.817 56.983,21.695 56.971,21.329C56.95,20.71 56.95,20.088 56.971,19.468C56.983,19.081 56.832,18.957 56.45,18.96C53.776,18.975 51.102,18.98 48.428,18.966C48.006,18.964 47.902,19.121 47.906,19.513C47.921,21.138 47.912,22.763 47.912,24.388C47.912,26.058 47.914,27.727 47.911,29.397C47.91,29.671 47.932,29.891 48.3,29.894C51.106,29.904 53.913,29.924 56.719,29.945C57.019,29.948 57.149,29.829 57.145,29.525C57.135,28.906 57.118,28.284 57.151,27.665C57.176,27.206 57,27.087 56.562,27.094Z" style="fill:rgb(230,147,36);fill-rule:nonzero;"/>
                <path d="M30.413,23.513C29.551,23.195 28.644,23.044 27.764,22.793C27.395,22.689 27.022,22.579 26.732,22.308C26.428,22.022 26.425,21.69 26.715,21.422C27.348,20.838 28.795,21.146 29.105,21.951C29.199,22.192 29.329,22.262 29.562,22.26C30.301,22.255 31.04,22.247 31.778,22.266C32.159,22.276 32.284,22.124 32.224,21.761C32.046,20.708 31.542,19.881 30.58,19.374C29.349,18.726 28.026,18.697 26.69,18.854C25.979,18.937 25.313,19.185 24.723,19.606C23.604,20.406 23.254,21.533 23.409,22.838C23.54,23.933 24.3,24.518 25.252,24.912C25.759,25.121 26.284,25.267 26.808,25.423C27.528,25.638 28.274,25.785 28.948,26.133C29.467,26.401 29.567,26.939 29.168,27.345C28.648,27.872 27.984,27.818 27.336,27.702C26.758,27.598 26.381,27.243 26.29,26.645C26.246,26.354 26.117,26.239 25.823,26.253C25.425,26.271 25.025,26.257 24.626,26.258C24.257,26.258 23.887,26.258 23.518,26.259C22.937,26.26 22.882,26.326 22.98,26.899C23.211,28.259 24.012,29.153 25.261,29.673C26.368,30.134 27.527,30.211 28.701,30.087C29.71,29.981 30.674,29.717 31.5,29.083C32.693,28.166 33.1,26.308 32.386,24.994C31.955,24.201 31.216,23.809 30.413,23.513Z" style="fill:rgb(230,147,36);fill-rule:nonzero;"/>
                <path d="M10.849,24.054C10.501,23.903 10.591,23.782 10.839,23.627C12.239,22.752 11.986,20.555 10.912,19.747C10.323,19.305 9.651,19.088 8.93,19.08C6.906,19.058 4.882,19.071 2.858,19.055C2.486,19.052 2.421,19.22 2.424,19.541C2.434,21.18 2.428,22.82 2.428,24.46C2.428,26.1 2.435,27.74 2.423,29.379C2.42,29.713 2.504,29.854 2.867,29.853C4.862,29.838 6.856,29.854 8.85,29.844C9.669,29.839 10.411,29.563 11.092,29.112C12.796,27.981 12.841,24.914 10.849,24.053L10.849,24.054ZM5.734,22.26C5.723,21.528 5.732,21.529 6.45,21.526C6.936,21.525 7.422,21.521 7.906,21.592C8.42,21.668 8.705,21.939 8.709,22.371C8.713,22.835 8.427,23.157 7.939,23.248C7.559,23.317 7.177,23.323 6.913,23.315C5.529,23.303 5.751,23.427 5.734,22.26ZM7.887,27.329C7.606,27.337 7.326,27.331 6.964,27.331C6.637,27.294 6.118,27.507 5.844,27.249C5.547,26.969 5.744,26.438 5.738,26.017C5.726,25.166 5.642,25.233 6.516,25.23C6.973,25.228 7.431,25.221 7.888,25.234C8.667,25.255 9.087,25.641 9.074,26.303C9.061,26.942 8.635,27.312 7.887,27.329Z" style="fill:rgb(230,147,36);fill-rule:nonzero;"/>
                <path d="M46.542,18.974C45.803,18.993 45.064,18.999 44.326,18.975C43.938,18.961 43.814,19.091 43.818,19.481C43.837,21.032 43.827,22.583 43.824,24.135C43.823,24.291 43.864,24.457 43.728,24.695C43.582,24.434 43.466,24.234 43.354,24.028C42.496,22.462 41.635,20.895 40.786,19.323C40.659,19.087 40.507,18.978 40.233,18.981C39.361,18.996 38.489,18.999 37.618,18.984C37.297,18.979 37.176,19.085 37.177,19.418C37.186,22.757 37.187,26.095 37.176,29.433C37.175,29.796 37.321,29.888 37.651,29.882C38.39,29.868 39.129,29.862 39.867,29.887C40.263,29.901 40.371,29.755 40.367,29.374C40.349,27.778 40.358,26.183 40.361,24.588C40.362,24.437 40.322,24.275 40.445,24.082C40.566,24.291 40.663,24.454 40.756,24.62C41.674,26.255 42.596,27.888 43.505,29.529C43.643,29.778 43.8,29.897 44.094,29.891C44.906,29.876 45.719,29.874 46.531,29.894C46.906,29.905 47.011,29.754 47.01,29.4C47,26.076 47,22.751 47.01,19.427C47.011,19.073 46.881,18.965 46.542,18.974Z" style="fill:rgb(230,147,36);fill-rule:nonzero;"/>
                <path d="M36.273,19.403C36.273,19.097 36.161,18.984 35.857,18.989C35.045,19.001 34.233,19.012 33.422,18.987C33.026,18.975 32.916,19.124 32.92,19.502C32.936,21.156 32.927,22.808 32.927,24.46C32.927,26.099 32.937,27.737 32.919,29.374C32.915,29.766 33.044,29.891 33.429,29.879C34.225,29.856 35.023,29.865 35.819,29.879C36.131,29.883 36.274,29.788 36.273,29.451C36.266,26.103 36.266,22.752 36.273,19.403Z" style="fill:rgb(230,147,36);fill-rule:nonzero;"/>
                <path d="M22.721,23.108C22.721,21.758 22.707,20.65 22.728,19.543C22.736,19.147 22.591,19.026 22.211,19.038C21.473,19.061 20.734,19.065 19.996,19.04C19.569,19.023 19.434,19.177 19.438,19.6C19.456,21.373 19.447,23.144 19.444,24.918C19.444,25.376 19.42,25.832 19.316,26.281C19.129,27.088 18.62,27.487 17.8,27.487C16.98,27.487 16.443,27.081 16.248,26.307C16.169,25.99 16.142,25.668 16.142,25.341C16.147,23.406 16.142,21.472 16.147,19.536C16.147,19.26 16.136,19.04 15.761,19.048C14.905,19.063 14.048,19.058 13.191,19.052C12.927,19.05 12.824,19.162 12.829,19.427C12.876,21.817 12.711,24.213 12.921,26.6C13.056,28.147 13.851,29.257 15.358,29.769C16.735,30.237 18.15,30.248 19.554,29.952C21.443,29.556 22.364,28.57 22.643,26.671C22.828,25.41 22.679,24.134 22.721,23.107L22.721,23.108Z" style="fill:rgb(230,147,36);fill-rule:nonzero;"/>
                <path d="M76.582,24.579C76.14,24.007 75.512,23.709 74.856,23.463C73.927,23.114 72.941,22.969 71.997,22.674C71.685,22.575 71.379,22.463 71.145,22.222C70.909,21.981 70.895,21.718 71.148,21.486C71.702,20.978 73.285,21.15 73.443,22.004C73.495,22.289 73.648,22.356 73.903,22.355C74.701,22.347 75.499,22.344 76.297,22.357C76.635,22.362 76.752,22.21 76.707,21.896C76.567,20.921 76.214,20.039 75.333,19.525C73.417,18.406 71.42,18.365 69.446,19.337C68.204,19.948 67.665,21.061 67.684,22.43C67.703,23.811 68.557,24.555 69.741,25.025C69.905,25.091 70.072,25.152 70.242,25.203C71.075,25.456 71.914,25.692 72.743,25.959C73.512,26.207 73.777,26.469 73.723,26.865C73.659,27.337 73.243,27.626 72.514,27.704C72.456,27.71 72.396,27.713 72.337,27.713C71.379,27.707 70.986,27.412 70.747,26.484C70.69,26.26 70.56,26.21 70.363,26.213C69.92,26.216 69.477,26.213 69.033,26.215C68.605,26.215 68.176,26.231 67.748,26.21C67.381,26.192 67.235,26.328 67.282,26.7C67.416,27.763 67.858,28.646 68.759,29.263C70.653,30.565 73.939,30.546 75.824,29.225C77.286,28.201 77.654,25.964 76.582,24.579Z" style="fill:rgb(230,147,36);fill-rule:nonzero;"/>
                <path d="M65.069,23.644C64.649,23.457 64.216,23.312 63.772,23.198C63.171,23.044 62.568,22.901 61.969,22.74C61.612,22.645 61.26,22.523 60.977,22.272C60.713,22.038 60.664,21.772 60.916,21.501C61.402,20.977 63.094,21.079 63.267,22.016C63.318,22.287 63.459,22.341 63.693,22.341C64.476,22.336 65.259,22.326 66.041,22.35C66.464,22.362 66.552,22.168 66.493,21.808C66.288,20.561 65.643,19.632 64.461,19.162C62.984,18.573 61.466,18.535 59.953,19.032C59.147,19.296 58.472,19.758 58.01,20.495C56.96,22.168 57.489,24.032 59.258,24.877C59.686,25.082 60.136,25.225 60.589,25.359C61.395,25.6 62.222,25.778 62.997,26.111C63.662,26.395 63.736,27.04 63.173,27.46C62.285,28.124 60.807,27.632 60.537,26.57C60.468,26.3 60.338,26.21 60.075,26.219C59.647,26.234 59.218,26.222 58.79,26.222C58.79,26.224 58.79,26.225 58.79,26.225C58.377,26.225 57.962,26.243 57.55,26.219C57.167,26.198 57.053,26.355 57.101,26.716C57.257,27.886 57.784,28.847 58.833,29.403C60.986,30.543 63.186,30.495 65.325,29.382C66.62,28.708 67.054,27.51 66.957,26.097C66.873,24.862 66.144,24.121 65.069,23.644Z" style="fill:rgb(230,147,36);fill-rule:nonzero;"/>
            </g>
        </g>
    </g>
</svg>
