<?xml version="1.0" standalone="no"?>
<!DOCTYPE svg PUBLIC "-//W3C//DTD SVG 1.1//EN" "http://www.w3.org/Graphics/SVG/1.1/DTD/svg11.dtd">
<svg width="100%" height="100%" viewBox="0 0 166 33" version="1.1" xmlns="http://www.w3.org/2000/svg" xmlns:xlink="http://www.w3.org/1999/xlink" xml:space="preserve" style="fill-rule:evenodd;clip-rule:evenodd;stroke-linejoin:round;stroke-miterlimit:1.41421;">
    <g>
        <g transform="matrix(0.998604,-4.42276e-18,-4.42276e-18,1.01666,-16.8604,-85.4592)">
            <path d="M124.92,105.118L123.849,105.118C123.386,105.118 123.286,104.764 123.437,104.277C123.613,103.708 123.925,102.816 123.925,102.816L128.63,102.816C128.63,102.816 128.892,103.624 129.131,104.357C129.312,104.912 128.72,105.118 128.368,105.118L127.452,105.118L127.452,108.396L136.774,108.396L136.774,104.949L135.843,104.949C135.137,104.949 134.924,104.328 134.501,103.324C134.154,102.5 130.161,92.139 130.161,92.139L123.829,92.139C123.829,92.139 119.537,103.656 119.332,104.147C119.097,104.721 118.731,104.949 118.096,104.949L117.181,104.949L117.181,108.396L124.92,108.396L124.92,105.118L124.92,105.118ZM126.303,95.806L126.355,95.806L127.9,100.586L124.687,100.586L126.303,95.806Z" style="fill:white;fill-rule:nonzero;"/>
            <path d="M107.308,108.682C116.138,108.682 116.544,102.348 116.55,101.931C116.562,101.059 116.585,99.841 116.585,99.841L108.706,99.841L108.706,102.836L110.993,102.836C110.993,103.533 110.425,105.26 107.967,105.26C106.759,105.26 103.991,104.841 103.991,99.875C103.991,96.938 105.712,95.353 107.932,95.353C110.886,95.353 111.942,97.855 111.942,97.855L115.599,97.855L115.599,92.139L111.959,92.139L111.959,93.361C111.959,93.361 110.395,91.895 106.77,91.895C100.3,91.895 97.606,96.531 97.606,99.945C97.606,105.081 100.947,108.682 107.308,108.682Z" style="fill:white;fill-rule:nonzero;"/>
            <path d="M96.437,104.949L95.18,104.949C94.681,104.949 94.37,104.756 94.37,104.197L94.37,96.415C94.37,95.803 94.558,95.601 95.157,95.601L96.437,95.601L96.437,92.139L86.158,92.139L86.158,95.601L87.468,95.601C88.154,95.601 88.255,95.912 88.255,96.415L88.255,104.215C88.255,104.818 87.882,104.949 87.444,104.949L86.158,104.949L86.158,108.396L96.437,108.396L96.437,104.949L96.437,104.949Z" style="fill:white;fill-rule:nonzero;"/>
            <path d="M148.172,104.949L147.162,104.949C146.472,104.949 146.387,104.573 146.387,104.165L146.387,101.539L148.595,101.539L152.64,108.396L158.841,108.396L158.841,104.949L157.705,104.949C157.072,104.949 156.966,104.648 156.65,104.23C156.333,103.812 154.363,100.782 154.363,100.782C154.363,100.782 157.248,99.979 157.248,96.949C157.248,93.919 154.68,92.838 153.59,92.559C152.499,92.282 150.141,92.139 149.509,92.139L146.343,92.139L138.282,92.139L138.282,95.601L139.392,95.601C140.085,95.601 140.178,95.941 140.178,96.415L140.178,104.141C140.178,104.481 140.124,104.949 139.356,104.949L138.282,104.949L138.282,108.396L148.172,108.396L148.172,104.949L148.172,104.949ZM146.387,95.382L148.831,95.382C149.542,95.382 150.811,95.63 150.811,97.089C150.811,98.174 149.986,98.727 148.63,98.727L146.387,98.727L146.387,95.382Z" style="fill:white;fill-rule:nonzero;"/>
            <path d="M167.908,108.68C173.136,108.68 177.251,105.859 177.251,100.328C177.251,95.064 173.33,91.895 167.977,91.895C161.09,91.895 158.595,96.458 158.595,100.12C158.595,104.974 162.041,108.68 167.908,108.68ZM167.912,95.313C169.659,95.313 170.937,96.466 170.937,100.154C170.937,104.145 169.61,105.26 168.089,105.26C166.572,105.26 164.982,104.369 164.982,99.837C164.982,97.049 166.061,95.313 167.912,95.313Z" style="fill:white;fill-rule:nonzero;"/>
            <path d="M39.843,101.323L35.715,101.323L35.715,104.116C35.715,104.663 35.234,104.935 34.841,104.935L31.859,104.935C31.346,104.935 31.028,104.588 31.028,104.213L31.028,96.415C31.028,95.825 31.212,95.601 31.815,95.601L33.086,95.601L33.086,92.14L22.749,92.14L22.749,95.601L24.03,95.601C24.713,95.601 24.816,95.917 24.816,96.415L24.816,104.198C24.816,104.759 24.515,104.949 23.953,104.949L22.749,104.949L22.749,108.396L39.843,108.396L39.843,101.323Z" style="fill:white;fill-rule:nonzero;"/>
            <path d="M77.942,104.949L76.59,104.949C75.739,104.949 75.457,104.684 75.457,104.035L75.457,101.685L79.025,101.685L79.025,98.534L75.457,98.534L75.457,95.601L79.312,95.601C79.964,95.601 80.258,96.003 80.258,96.475L80.258,97.362L84.515,97.362L84.515,92.139L67.112,92.139L67.112,95.601L68.482,95.601C69.164,95.601 69.246,95.961 69.246,96.452L69.246,104.264C69.246,104.672 68.957,104.949 68.543,104.949L67.112,104.949L67.112,108.396L77.942,108.396L77.942,104.949L77.942,104.949Z" style="fill:white;fill-rule:nonzero;"/>
            <path d="M58.646,103.158L54.391,103.158L54.391,104.045C54.391,104.628 53.981,104.935 53.468,104.935L49.59,104.935L49.59,101.685L53.594,101.685L53.594,98.534L49.59,98.534L49.59,95.601L53.297,95.601C54.122,95.601 54.391,95.961 54.391,96.493L54.391,97.362L58.646,97.362L58.646,92.139L41.644,92.139L41.644,95.601L42.615,95.601C43.297,95.601 43.38,95.928 43.38,96.452L43.38,104.264C43.38,104.748 43.054,104.949 42.563,104.949L41.644,104.949L41.644,108.396L58.646,108.396L58.646,103.158L58.646,103.158Z" style="fill:white;fill-rule:nonzero;"/>
        </g>
        <g transform="matrix(0.998604,-4.42276e-18,-4.42276e-18,1.01666,-16.8604,-85.4592)">
            <path d="M16.884,84.059L16.884,116.518L183.116,116.518L183.116,116.514L183.116,84.063L183.116,84.059L16.884,84.059ZM147.162,104.949L148.172,104.949L148.172,108.396L138.282,108.396L138.282,104.949L139.356,104.949C140.124,104.949 140.178,104.481 140.178,104.141L140.178,96.415C140.178,95.941 140.085,95.601 139.392,95.601L138.282,95.601L138.282,92.139L149.509,92.139C150.141,92.139 152.499,92.282 153.59,92.559C154.68,92.838 157.248,93.919 157.248,96.949C157.248,99.979 154.363,100.782 154.363,100.782C154.363,100.782 156.333,103.812 156.65,104.23C156.966,104.648 157.072,104.949 157.705,104.949L158.841,104.949L158.841,108.396L152.64,108.396L148.595,101.539L146.387,101.539L146.387,104.165C146.387,104.573 146.472,104.949 147.162,104.949ZM158.595,100.12C158.595,96.458 161.09,91.895 167.977,91.895C173.33,91.895 177.251,95.064 177.251,100.328C177.251,105.859 173.136,108.68 167.908,108.68C162.041,108.68 158.595,104.974 158.595,100.12ZM129.131,104.357C128.892,103.624 128.63,102.816 128.63,102.816L123.925,102.816C123.925,102.816 123.613,103.708 123.437,104.277C123.286,104.764 123.386,105.118 123.849,105.118L124.92,105.118L124.92,108.396L117.181,108.396L117.181,104.949L118.096,104.949C118.731,104.949 119.097,104.721 119.332,104.147C119.537,103.656 123.829,92.139 123.829,92.139L130.161,92.139C130.161,92.139 134.154,102.5 134.501,103.324C134.924,104.328 135.137,104.949 135.843,104.949L136.774,104.949L136.774,108.396L127.452,108.396L127.452,105.118L128.368,105.118C128.72,105.118 129.312,104.912 129.131,104.357ZM107.967,105.26C110.425,105.26 110.993,103.533 110.993,102.836L108.706,102.836L108.706,99.841L116.585,99.841C116.585,99.841 116.562,101.059 116.55,101.931C116.544,102.348 116.138,108.682 107.308,108.682C100.947,108.682 97.606,105.081 97.606,99.945C97.606,96.531 100.3,91.895 106.77,91.895C110.395,91.895 111.959,93.361 111.959,93.361L111.959,92.139L115.599,92.139L115.599,97.855L111.942,97.855C111.942,97.855 110.886,95.353 107.932,95.353C105.712,95.353 103.991,96.938 103.991,99.875C103.991,104.841 106.759,105.26 107.967,105.26ZM95.18,104.949L96.437,104.949L96.437,108.396L86.158,108.396L86.158,104.949L87.444,104.949C87.882,104.949 88.255,104.818 88.255,104.215L88.255,96.415C88.255,95.912 88.154,95.601 87.468,95.601L86.158,95.601L86.158,92.139L96.437,92.139L96.437,95.601L95.157,95.601C94.558,95.601 94.37,95.803 94.37,96.415L94.37,104.197C94.37,104.756 94.681,104.949 95.18,104.949ZM79.312,95.601L75.457,95.601L75.457,98.534L79.025,98.534L79.025,101.685L75.457,101.685L75.457,104.035C75.457,104.684 75.739,104.949 76.59,104.949L77.942,104.949L77.942,108.396L67.112,108.396L67.112,104.949L68.543,104.949C68.957,104.949 69.246,104.672 69.246,104.264L69.246,96.452C69.246,95.961 69.164,95.601 68.482,95.601L67.112,95.601L67.112,92.139L84.515,92.139L84.515,97.362L80.258,97.362L80.258,96.475C80.258,96.003 79.964,95.601 79.312,95.601ZM53.297,95.601L49.59,95.601L49.59,98.534L53.594,98.534L53.594,101.685L49.59,101.685L49.59,104.935L53.468,104.935C53.981,104.935 54.391,104.628 54.391,104.045L54.391,103.158L58.646,103.158L58.646,108.396L41.644,108.396L41.644,104.949L42.563,104.949C43.054,104.949 43.38,104.748 43.38,104.264L43.38,96.452C43.38,95.928 43.297,95.601 42.615,95.601L41.644,95.601L41.644,92.139L58.646,92.139L58.646,97.362L54.391,97.362L54.391,96.493C54.391,95.961 54.122,95.601 53.297,95.601ZM24.03,95.601L22.749,95.601L22.749,92.14L33.086,92.14L33.086,95.601L31.815,95.601C31.212,95.601 31.028,95.825 31.028,96.415L31.028,104.213C31.028,104.588 31.346,104.935 31.859,104.935L34.841,104.935C35.234,104.935 35.715,104.663 35.715,104.116L35.715,101.323L39.843,101.323L39.843,108.396L22.749,108.396L22.749,104.949L23.953,104.949C24.515,104.949 24.816,104.759 24.816,104.198L24.816,96.415C24.816,95.917 24.713,95.601 24.03,95.601Z" style="fill:rgb(52,118,180);fill-rule:nonzero;"/>
            <path d="M150.811,97.089C150.811,95.63 149.542,95.382 148.831,95.382L146.387,95.382L146.387,98.727L148.63,98.727C149.986,98.727 150.811,98.174 150.811,97.089Z" style="fill:rgb(52,118,180);fill-rule:nonzero;"/>
            <path d="M126.303,95.806L124.687,100.586L127.9,100.586L126.355,95.806L126.303,95.806Z" style="fill:rgb(52,118,180);fill-rule:nonzero;"/>
            <path d="M168.089,105.26C169.61,105.26 170.937,104.145 170.937,100.154C170.937,96.466 169.659,95.313 167.912,95.313C166.061,95.313 164.982,97.049 164.982,99.837C164.982,104.369 166.572,105.26 168.089,105.26Z" style="fill:rgb(52,118,180);fill-rule:nonzero;"/>
        </g>
    </g>
</svg>
