<?xml version="1.0" standalone="no"?>
<!DOCTYPE svg PUBLIC "-//W3C//DTD SVG 1.1//EN" "http://www.w3.org/Graphics/SVG/1.1/DTD/svg11.dtd">
<svg width="100%" height="100%" viewBox="0 0 98 33" version="1.1" xmlns="http://www.w3.org/2000/svg" xmlns:xlink="http://www.w3.org/1999/xlink" xml:space="preserve" style="fill-rule:evenodd;clip-rule:evenodd;stroke-linejoin:round;stroke-miterlimit:1.41421;">
    <g id="Calque_1_2_">
        <g transform="matrix(0.996948,-7.53574e-21,-7.53574e-21,0.996979,-51.0437,-83.3474)">
            <path d="M140.1,88.2L140.1,97.6L129.1,97.6L129.1,96.2L138.5,96.2L138.5,87.6C137.3,87.2 135.9,87 134.5,87C126.5,87 120,93.6 120,101.5C120,107.5 123.8,112.7 129,114.8L129,105.4L140.2,105.4L140.2,106.8L130.8,106.8L130.8,115.2C132.2,115.6 133.6,115.8 135,115.8C143,115.8 149.5,109.2 149.5,101.3C149.2,95.6 145.4,90.2 140.1,88.2Z" style="fill:rgb(224,34,40);fill-rule:nonzero;"/>
        </g>
        <g transform="matrix(0.996948,-7.53574e-21,-7.53574e-21,0.996979,-51.0437,-83.3474)">
            <path d="M66.4,87.4C70.8,87.4 72.8,90.4 72.8,94.2C72.8,98 70.6,101.2 66.4,101.2C61.6,101.2 59.8,97.8 59.8,94.2C59.8,90 62.2,87.4 66.4,87.4ZM66.4,98.9C69.2,98.9 70,95.9 70,94.3C70,92.9 69.2,89.7 66.4,89.7C63.6,89.7 62.4,92.1 62.4,94.3C62.4,96 63.2,98.9 66.4,98.9Z" style="fill:rgb(224,34,40);fill-rule:nonzero;"/>
        </g>
        <g transform="matrix(0.996948,-7.53574e-21,-7.53574e-21,0.996979,-51.0437,-83.3474)">
            <path d="M82.5,100.9L82.5,99.1C81.5,100.5 80.3,101.1 78.5,101.1C75.7,101.1 73.7,99.7 73.7,96.3L73.7,87.7L76.7,87.7L76.7,96.3C76.7,98.5 77.9,99.1 79.3,99.1C82.3,99.1 82.5,96.3 82.5,94.9L82.5,87.7L85.3,87.7L85.3,100.8L82.5,100.8L82.5,100.9Z" style="fill:rgb(224,34,40);fill-rule:nonzero;"/>
        </g>
        <g transform="matrix(0.996948,-7.53574e-21,-7.53574e-21,0.996979,-51.0437,-83.3474)">
            <path d="M98.6,96C98.2,98.8 96.6,101 92.6,101C88.6,101 86.4,98.2 86.4,94.6C86.4,90.8 88.4,87.6 92.6,87.6C96.6,87.6 98.8,90.4 98.8,95L89,95C89,96.8 89.8,99 92.6,99C95.6,99 96,96.4 96,96.2L98.6,96ZM95.9,93C95.7,91.2 94.7,89.6 92.7,89.6C90.3,89.6 89.1,91.6 89.1,93L95.9,93Z" style="fill:rgb(224,34,40);fill-rule:nonzero;"/>
        </g>
        <g transform="matrix(0.996948,-7.53574e-21,-7.53574e-21,0.996979,-51.0437,-83.3474)">
            <path d="M117.2,111.3C116.8,114.1 115.2,116.3 111.2,116.3C107.2,116.3 105,113.5 105,109.9C105,106.1 107,102.9 111.2,102.9C115.2,102.9 117.4,105.7 117.4,110.3L107.6,110.3C107.6,112.1 108.4,114.3 111.2,114.3C114.2,114.3 114.6,111.7 114.6,111.5L117.2,111.3ZM114.6,108.5C114.4,106.7 113.4,105.1 111.4,105.1C109,105.1 107.8,107.1 107.8,108.5L114.6,108.5Z" style="fill:rgb(224,34,40);fill-rule:nonzero;"/>
        </g>
        <g transform="matrix(0.996948,-7.53574e-21,-7.53574e-21,0.996979,-51.0437,-83.3474)">
            <path d="M107.2,91.2C107.2,90.6 106.6,89.6 104.6,89.6C103.8,89.6 102,89.6 102,91C102,92.4 103.4,92.6 105.6,93C108.4,93.6 110.4,94 110.4,97C110.4,99.6 108,101.2 104.8,101.2C98.8,101.2 99.2,97.8 99,96.2L101.6,96.2C101.6,97.2 101.4,99 104.8,99C106.4,99 107.6,98.6 107.6,97.2C107.6,95.8 106.4,95.6 104.2,95.2C100.8,94.8 99.4,93.6 99.4,91.2C99.4,88.4 102.2,87.6 105,87.6C109.8,87.6 110.2,91.2 110.2,91.4C110,91.2 107.2,91.2 107.2,91.2Z" style="fill:rgb(224,34,40);fill-rule:nonzero;"/>
        </g>
        <g transform="matrix(0.996948,-7.53574e-21,-7.53574e-21,0.996979,-51.0437,-83.3474)">
            <path d="M114.8,89.8L114.8,97.8C114.8,98.8 115.6,98.8 116,98.8L117.4,98.8L117.4,100.8C117.4,100.8 114.8,100.8 114,100.8C113.2,100.8 112.2,99.8 112.2,98.4L112.2,89.8L110,89.8L110,87.8L112.2,87.8L112.2,83.6L115,83.6L115,87.8L117.4,87.8L117.4,89.8L114.8,89.8Z" style="fill:rgb(224,34,40);fill-rule:nonzero;"/>
        </g>
        <g transform="matrix(0.996948,-7.53574e-21,-7.53574e-21,0.996979,-51.0437,-83.3474)">
            <path d="M56,105.5L56,116.3L53.2,116.3L53.2,105.5L51.2,105.5L51.2,103.3L53.4,103.3L53.4,101.3C53.4,99.3 55,98.5 56.4,98.5C56.8,98.5 58.8,98.5 58.8,98.5L58.8,100.7C58.8,100.7 57.6,100.7 57.4,100.7C56.4,100.7 56,101.1 56,102.1L56,103.3L58.8,103.3L58.8,105.5C58.6,105.5 56,105.5 56,105.5Z" style="fill:rgb(224,34,40);fill-rule:nonzero;"/>
        </g>
        <g transform="matrix(0.996948,-7.53574e-21,-7.53574e-21,0.996979,-51.0437,-83.3474)">
            <path d="M62.6,116.3L60,116.3L60,103.4L62.6,103.4L62.6,105.6C63.4,104.2 64.8,103 66.6,103C66.8,103 67.8,103 67.8,103L67.8,105.4L66.6,105.4C63.6,105.4 62.6,108 62.6,109C62.6,109.1 62.6,116.3 62.6,116.3Z" style="fill:rgb(224,34,40);fill-rule:nonzero;"/>
        </g>
        <g transform="matrix(0.996948,-7.53574e-21,-7.53574e-21,0.996979,-51.0437,-83.3474)">
            <path d="M67.4,107.3C67.6,104.3 69.8,102.9 73.2,102.9C75,102.9 78.4,103.3 78.4,106.7L78.4,116.3L75.8,116.3C75.8,116.3 75.8,116.1 75.8,114.9C75,115.9 73.2,116.7 71.4,116.7C68.2,116.7 67,114.7 67,112.7C67,111.7 67.2,109.3 71,108.7L74.6,108.1C75.4,108.1 75.8,107.5 75.8,106.7C75.8,105.5 75,105.1 73.2,105.1C71.2,105.1 70.4,105.9 70.4,107.1L67.4,107.3ZM75.9,109.9C75.5,110.1 75.1,110.3 72.1,110.7C70.9,110.9 69.9,111.1 69.9,112.7C69.9,114.1 70.9,114.5 72.1,114.5C73.9,114.5 75.9,113.5 75.9,112.1L75.9,109.9Z" style="fill:rgb(224,34,40);fill-rule:nonzero;"/>
        </g>
        <g transform="matrix(0.996948,-7.53574e-21,-7.53574e-21,0.996979,-51.0437,-83.3474)">
            <path d="M91.1,116.3L88.3,116.3L88.3,108.5C88.3,106.1 87.5,105.1 85.5,105.1C84.1,105.1 82.3,106.1 82.3,108.9L82.3,116.3L79.5,116.3L79.5,103.4L82.3,103.4L82.3,105.2C83.1,104.2 84.5,102.8 86.3,102.8C87.5,102.8 91.1,103.4 91.1,107.6L91.1,116.3Z" style="fill:rgb(224,34,40);fill-rule:nonzero;"/>
        </g>
        <g transform="matrix(0.996948,-7.53574e-21,-7.53574e-21,0.996979,-51.0437,-83.3474)">
            <path d="M101.6,107.5C101.4,106.1 100.2,105.1 98.6,105.1C95.6,105.1 94.8,107.5 94.8,109.7C94.8,111.7 95.4,114.3 98.4,114.3C100,114.3 101,113.1 101.4,111.3L104.2,111.3C104,113.3 102.4,116.5 98.4,116.5C94.2,116.5 92,113.7 92,109.7C92,104.9 95,102.7 98.4,102.7C101.6,102.7 103.8,104.7 104,107.5L101.6,107.5L101.6,107.5Z" style="fill:rgb(224,34,40);fill-rule:nonzero;"/>
        </g>
    </g>
</svg>
