<?xml version="1.0" standalone="no"?>
<!DOCTYPE svg PUBLIC "-//W3C//DTD SVG 20010904//EN"
 "http://www.w3.org/TR/2001/REC-SVG-20010904/DTD/svg10.dtd">
<svg version="1.0" xmlns="http://www.w3.org/2000/svg"
 width="310.000000pt" height="310.000000pt" viewBox="0 0 310.000000 310.000000"
 preserveAspectRatio="xMidYMid meet">
<metadata>
Created by potrace 1.11, written by Peter Selinger 2001-2013
</metadata>
<g transform="translate(0.000000,310.000000) scale(0.100000,-0.100000)"
fill="#000000" stroke="none">
<path d="M1406 2861 c-4 -5 -17 -8 -31 -6 -14 1 -25 -1 -25 -5 0 -4 -10 -8
-22 -8 -13 0 -45 -6 -73 -12 -27 -6 -57 -12 -65 -13 -8 -1 -18 -6 -21 -10 -3
-4 -16 -9 -27 -10 -12 -1 -22 -5 -22 -10 0 -4 -4 -6 -9 -3 -4 3 -26 -3 -47
-13 -21 -11 -42 -17 -46 -14 -5 2 -8 0 -8 -5 0 -10 -47 -27 -63 -23 -5 1 -6
-3 -2 -9 3 -5 -1 -10 -9 -10 -9 0 -25 -9 -36 -20 -12 -12 -20 -15 -20 -8 0 7
-7 2 -16 -10 -8 -12 -19 -20 -24 -17 -4 3 -11 -2 -14 -11 -3 -8 -10 -12 -16
-9 -5 3 -10 2 -10 -2 0 -5 -13 -16 -28 -25 -16 -10 -47 -35 -70 -56 -23 -22
-42 -38 -42 -35 0 2 -11 -7 -24 -19 -13 -13 -22 -26 -20 -30 3 -4 -5 -9 -16
-13 -11 -4 -18 -11 -15 -16 4 -5 1 -9 -4 -9 -6 0 -24 -19 -41 -42 -16 -22 -30
-37 -30 -32 0 5 -8 -6 -17 -23 -10 -18 -28 -43 -40 -57 -15 -17 -18 -26 -10
-30 7 -2 4 -5 -6 -5 -10 -1 -15 -5 -12 -11 3 -5 1 -10 -5 -10 -6 0 -8 -4 -5
-10 3 -5 1 -10 -5 -10 -6 0 -8 -5 -5 -10 3 -6 -1 -13 -9 -16 -9 -3 -13 -10
-10 -15 3 -5 0 -9 -5 -9 -6 0 -11 -7 -11 -16 0 -9 -9 -29 -21 -45 -11 -16 -17
-33 -14 -39 3 -5 1 -10 -5 -10 -6 0 -9 -4 -5 -9 3 -5 1 -12 -5 -16 -5 -3 -10
-17 -10 -30 0 -13 -5 -27 -10 -30 -6 -4 -8 -10 -5 -15 3 -5 1 -11 -5 -15 -6
-4 -8 -11 -4 -16 3 -5 1 -16 -5 -23 -6 -7 -12 -26 -13 -42 -1 -16 -4 -33 -7
-39 -3 -5 -7 -23 -8 -40 -4 -59 -11 -106 -17 -112 -3 -3 -1 -12 5 -20 7 -7 7
-13 2 -13 -13 0 -11 -73 2 -82 7 -5 7 -8 0 -8 -5 0 -9 -19 -8 -42 0 -24 2 -43
3 -43 1 0 3 -16 4 -35 1 -20 6 -42 11 -49 6 -10 4 -12 -4 -6 -10 6 -11 3 -2
-14 7 -12 9 -26 6 -31 -3 -6 -2 -10 2 -10 5 0 9 -15 8 -32 0 -18 6 -39 13 -46
6 -7 13 -22 13 -33 1 -18 4 -30 9 -46 1 -5 2 -11 1 -15 0 -5 5 -8 11 -8 10 0
10 -2 0 -9 -10 -6 -10 -10 3 -21 8 -7 15 -20 15 -29 0 -9 7 -26 15 -37 8 -12
11 -24 8 -28 -3 -3 -1 -6 5 -6 7 0 12 -9 12 -20 0 -11 5 -20 11 -20 5 0 7 -5
4 -10 -3 -6 -1 -10 5 -10 6 0 8 -4 5 -10 -3 -5 -2 -10 3 -10 4 0 14 -16 22
-35 7 -19 17 -32 22 -29 4 3 8 0 8 -7 0 -7 11 -27 25 -44 13 -18 21 -35 18
-39 -4 -3 1 -6 10 -6 10 0 17 -8 17 -21 0 -12 4 -17 11 -14 6 4 13 -2 16 -14
3 -11 9 -18 14 -15 5 3 9 -2 9 -11 0 -9 4 -13 10 -10 5 3 10 2 10 -4 0 -10 75
-91 84 -91 2 0 20 -15 40 -33 62 -56 110 -93 102 -77 -6 11 -4 11 6 -1 7 -9
18 -18 23 -20 6 -2 9 -7 7 -11 -2 -8 13 -12 31 -9 4 0 7 -4 7 -10 0 -6 6 -9
14 -6 8 3 17 -1 20 -9 3 -9 10 -12 16 -9 5 3 10 1 10 -4 0 -6 7 -11 15 -11 8
0 15 -4 15 -10 0 -5 7 -7 15 -4 8 4 17 -1 21 -9 3 -9 12 -13 20 -10 8 3 14 0
14 -6 0 -6 7 -8 15 -5 8 4 15 1 15 -7 0 -7 2 -10 6 -7 3 3 37 -5 77 -19 40
-13 84 -25 100 -25 15 -1 27 -4 27 -9 0 -4 14 -6 30 -5 17 1 30 -1 30 -5 0 -4
11 -6 25 -4 14 1 25 -2 25 -8 0 -5 5 -5 13 2 8 6 17 8 21 4 10 -10 198 -11
219 -1 12 6 17 5 17 -4 0 -10 2 -10 9 1 6 9 11 10 15 2 5 -7 13 -8 25 -1 10 5
21 6 25 3 3 -3 6 -1 6 5 0 6 12 9 30 7 17 -2 30 0 30 4 0 5 11 7 25 6 14 -2
27 1 31 6 3 5 9 7 14 4 5 -3 11 -1 15 4 3 6 12 8 20 4 8 -3 15 -1 15 4 0 5 9
9 19 10 26 2 172 63 192 80 9 7 19 10 22 6 4 -3 7 0 7 7 0 7 3 11 6 7 4 -3 26
7 50 23 23 17 45 30 49 30 4 0 12 6 19 12 8 7 24 20 36 28 56 37 230 200 214
200 -5 0 2 7 14 16 12 8 22 22 22 30 0 8 4 13 9 9 5 -3 12 4 16 15 3 11 11 20
16 20 5 0 9 6 9 13 0 8 9 22 20 32 11 10 18 20 15 23 -2 3 4 16 15 30 11 13
17 29 13 35 -3 5 -1 7 5 3 9 -6 22 16 22 37 -1 4 6 15 15 23 8 9 13 19 10 24
-3 5 -1 10 4 12 5 1 11 12 13 23 1 11 10 26 18 33 8 8 9 11 3 7 -9 -4 -11 -1
-7 9 3 9 10 13 15 10 5 -3 6 2 3 11 -4 8 -2 21 4 28 6 6 13 30 16 52 4 21 10
42 14 45 4 3 7 15 6 27 -1 13 2 23 7 23 4 0 6 11 3 25 -3 16 0 25 8 25 9 0 8
3 -2 10 -8 5 -10 10 -4 10 11 0 12 6 17 146 2 44 7 86 12 94 5 9 4 11 -3 6 -8
-5 -12 1 -12 14 0 14 4 19 13 14 9 -6 9 -4 -1 8 -7 9 -15 45 -17 80 -2 35 -4
63 -5 63 -1 0 -4 13 -6 30 -3 16 -9 34 -14 40 -4 5 -7 21 -6 35 1 14 -4 31
-11 38 -7 7 -10 19 -7 27 4 8 1 15 -6 15 -6 0 -9 4 -5 9 3 5 1 12 -5 16 -15 9
-12 28 3 19 6 -4 4 2 -5 13 -10 11 -18 27 -18 36 0 9 -4 17 -8 17 -5 0 -15 18
-22 40 -7 22 -19 45 -27 51 -7 6 -10 15 -7 20 3 5 0 9 -5 9 -6 0 -11 6 -11 13
0 7 -9 23 -20 35 -11 12 -21 25 -22 29 -1 12 -31 57 -43 65 -5 4 -10 13 -10
20 -1 7 -6 12 -13 11 -7 -2 -12 3 -12 10 0 7 -24 37 -52 67 -29 29 -52 58 -50
64 2 6 1 8 -3 4 -4 -4 -23 8 -42 25 -20 18 -39 31 -44 30 -5 -2 -9 4 -9 12 0
8 -9 15 -21 15 -11 0 -17 4 -14 10 3 5 -5 15 -19 22 -14 6 -26 15 -26 20 0 5
-4 7 -9 4 -5 -3 -14 1 -21 9 -7 8 -19 15 -26 15 -8 0 -14 5 -14 10 0 6 -6 10
-14 10 -7 0 -19 7 -26 15 -7 8 -16 12 -21 9 -5 -3 -9 0 -9 6 0 6 -4 9 -9 5 -5
-3 -16 2 -24 10 -9 8 -20 15 -26 15 -6 0 -27 9 -46 20 -20 11 -34 16 -30 10 3
-6 0 -7 -9 -4 -9 3 -16 10 -16 14 0 5 -9 7 -20 5 -11 -2 -20 0 -20 6 0 5 -9 9
-19 9 -11 0 -23 5 -26 10 -4 6 -10 8 -15 5 -5 -3 -27 1 -49 9 -23 8 -38 9 -34
3 3 -6 1 -7 -6 -3 -14 9 -49 16 -107 20 -23 2 -48 7 -55 12 -8 5 -9 3 -4 -6 5
-9 4 -11 -3 -6 -20 12 -51 15 -57 5 -4 -5 -12 -6 -18 -2 -18 11 -67 12 -67 0
0 -5 -7 -4 -15 3 -9 7 -15 8 -15 2 0 -11 -18 -11 -37 1 -6 4 -14 3 -17 -2z
m104 -374 c0 12 61 10 81 -2 7 -5 14 -4 16 2 4 12 41 6 62 -11 11 -8 13 -8 7
2 -4 6 -2 12 3 12 6 0 11 -3 11 -7 0 -5 10 -8 23 -9 12 0 36 -3 52 -7 17 -4
44 -10 60 -13 17 -4 35 -11 42 -16 7 -5 18 -6 24 -2 8 4 9 3 5 -4 -5 -8 0 -12
13 -12 11 0 26 -6 33 -13 7 -7 17 -14 21 -14 20 -2 67 -26 67 -35 0 -5 5 -6
10 -3 6 3 13 0 16 -8 3 -9 19 -21 35 -27 16 -7 29 -16 29 -21 0 -5 5 -9 11 -9
16 0 39 -26 31 -35 -4 -5 -2 -5 4 -2 14 8 47 -26 37 -38 -5 -4 -3 -6 3 -2 11
6 84 -64 84 -81 0 -6 8 -16 18 -21 9 -6 13 -11 9 -11 -4 0 1 -10 12 -21 11
-12 27 -37 36 -55 8 -18 20 -36 25 -39 6 -4 8 -11 5 -16 -4 -5 -1 -9 5 -9 7 0
10 -7 7 -15 -4 -8 -1 -17 5 -21 7 -5 8 -2 3 7 -5 8 -4 11 0 7 5 -5 10 -20 11
-35 2 -14 7 -29 11 -32 4 -3 9 -15 11 -26 2 -11 6 -27 9 -35 8 -19 12 -39 15
-67 1 -13 6 -23 11 -23 5 0 4 -6 -2 -14 -8 -10 -9 -15 -1 -18 7 -2 11 -40 12
-100 1 -66 5 -95 12 -92 6 3 4 0 -4 -8 -8 -7 -15 -28 -14 -48 0 -19 -2 -39 -6
-45 -4 -5 -6 -19 -4 -30 1 -10 -1 -24 -5 -30 -5 -5 -7 -20 -6 -32 1 -12 -2
-20 -7 -17 -4 3 -8 -3 -8 -13 0 -11 -5 -24 -12 -31 -9 -9 -9 -12 3 -12 9 0 10
-3 3 -8 -10 -7 -39 -69 -39 -84 0 -4 -9 -14 -20 -23 -11 -9 -14 -13 -6 -10 8
5 7 -2 -5 -21 -31 -48 -88 -128 -101 -142 -7 -7 -13 -18 -13 -23 0 -6 -4 -8
-9 -4 -5 3 -13 -4 -16 -16 -4 -11 -9 -18 -12 -15 -3 3 -14 -6 -25 -19 -11 -14
-27 -25 -36 -25 -13 0 -14 -2 -4 -8 9 -6 5 -12 -15 -23 -16 -8 -31 -18 -35
-24 -4 -5 -13 -10 -20 -10 -7 -1 -12 -7 -10 -14 1 -7 -2 -10 -7 -7 -5 3 -20
-4 -35 -15 -14 -11 -26 -18 -26 -14 0 3 -13 -3 -29 -14 -15 -11 -31 -18 -35
-14 -3 3 -6 0 -6 -7 0 -7 -3 -10 -7 -7 -3 4 -12 2 -20 -4 -7 -6 -13 -8 -13 -5
0 4 -7 0 -16 -9 -13 -13 -19 -13 -32 -3 -9 8 -13 8 -9 2 4 -7 -4 -15 -21 -19
-15 -5 -34 -10 -42 -12 -8 -3 -23 -4 -32 -4 -10 0 -18 -6 -18 -12 0 -7 -4 -6
-10 3 -5 8 -10 10 -10 3 0 -6 -13 -10 -30 -9 -16 1 -30 -1 -30 -4 0 -3 -19 -5
-42 -4 -24 1 -49 -3 -57 -10 -12 -9 -13 -8 -6 3 6 11 2 13 -19 7 -15 -4 -25
-3 -23 1 3 4 -24 8 -59 7 -35 0 -64 2 -64 6 0 4 -13 7 -30 8 -16 0 -35 4 -42
9 -7 4 -23 8 -35 9 -12 0 -28 6 -36 12 -8 7 -17 9 -20 5 -4 -3 -7 -1 -7 5 0 6
-7 9 -17 5 -11 -4 -14 -3 -9 5 5 8 -1 12 -18 12 -14 0 -26 5 -26 10 0 6 -9 10
-20 10 -11 0 -20 4 -20 8 0 5 -16 14 -35 22 -19 7 -32 17 -29 22 3 4 -2 8 -10
8 -8 0 -27 11 -42 25 -15 14 -33 25 -41 25 -8 0 -12 4 -8 9 3 6 -4 15 -15 21
-11 6 -17 16 -14 22 4 6 3 8 -3 5 -5 -4 -24 9 -40 28 -17 19 -34 31 -38 27 -5
-4 -5 -2 -2 5 4 6 -2 22 -13 35 -55 65 -70 87 -70 101 0 9 -5 19 -11 23 -17
10 -71 133 -64 144 4 6 1 10 -4 10 -6 0 -11 11 -11 25 0 14 -4 25 -8 25 -8 0
-12 21 -15 73 -1 15 -5 27 -8 27 -3 0 -5 10 -4 23 1 12 -2 28 -8 35 -6 8 -6
12 2 12 7 0 9 5 6 10 -4 6 -6 41 -6 78 2 98 3 106 14 120 6 8 5 12 -4 12 -11
0 -11 2 1 10 12 8 12 10 1 10 -9 0 -10 4 -4 13 10 12 28 85 25 100 -1 4 3 7 8
7 5 0 9 3 8 8 -3 12 25 92 33 92 4 0 10 7 13 16 4 10 2 13 -6 7 -7 -4 -3 6 10
21 12 16 22 35 22 43 0 7 7 16 15 19 8 4 13 10 10 14 -3 5 1 12 9 17 8 4 14
11 13 14 -5 15 159 199 176 199 5 0 14 6 22 13 32 30 54 45 59 40 3 -4 6 -1 6
5 0 7 7 12 16 12 9 0 12 5 8 13 -4 6 -4 9 1 5 4 -4 23 2 42 13 18 11 33 17 33
12 0 -4 4 -2 9 6 5 8 20 16 32 18 13 2 26 7 29 11 5 7 15 10 60 19 13 2 29 8
35 13 6 5 26 10 43 12 18 1 32 7 32 13 0 5 5 3 10 -5 9 -13 10 -13 10 0 0 13
1 13 10 0 5 -8 10 -10 10 -3 0 6 13 10 30 9 17 -1 30 2 30 7 0 5 7 4 15 -3 8
-7 15 -8 15 -3z"/>
<path d="M1480 2344 c0 -5 -19 -11 -42 -13 -24 -1 -44 -6 -46 -11 -2 -5 -9 -7
-16 -4 -7 3 -26 -1 -42 -7 -16 -7 -33 -13 -39 -14 -30 -4 -65 -18 -65 -26 0
-5 -3 -9 -7 -8 -17 2 -53 -14 -53 -24 0 -6 -3 -7 -7 -4 -3 4 -12 -1 -20 -11
-10 -11 -12 -12 -8 -2 4 10 2 9 -8 -2 -8 -10 -17 -15 -20 -11 -4 3 -9 -2 -13
-11 -3 -9 -13 -16 -21 -16 -8 0 -11 -5 -7 -12 5 -8 2 -9 -10 -5 -9 4 -14 3
-11 -2 3 -5 -4 -12 -15 -16 -11 -4 -18 -11 -15 -16 4 -5 -1 -9 -9 -9 -9 0 -16
-3 -16 -7 0 -5 -13 -21 -28 -38 -15 -16 -38 -46 -51 -65 -13 -19 -31 -40 -39
-47 -8 -6 -15 -23 -16 -36 0 -14 -4 -23 -9 -20 -4 2 -10 -9 -13 -26 -4 -17
-10 -31 -14 -31 -7 0 -24 -57 -21 -72 0 -5 -4 -8 -10 -8 -5 0 -7 -5 -4 -10 4
-6 1 -17 -5 -25 -6 -8 -9 -19 -5 -25 4 -6 1 -17 -5 -25 -10 -12 -10 -15 1 -15
9 0 10 -3 4 -8 -5 -4 -10 -23 -10 -42 0 -19 -3 -43 -8 -54 -7 -14 -6 -17 5
-10 11 6 11 5 -1 -9 -7 -9 -9 -17 -4 -17 5 0 8 -19 8 -42 -1 -24 4 -63 12 -88
16 -55 16 -53 1 -44 -7 4 -6 -1 3 -12 9 -10 14 -25 12 -31 -3 -7 0 -13 7 -13
6 0 10 -8 8 -17 -2 -11 2 -17 10 -15 8 1 11 -2 7 -9 -8 -12 48 -127 77 -158
10 -12 16 -21 12 -21 -4 0 3 -8 14 -19 12 -10 22 -23 22 -29 0 -6 9 -14 20
-17 11 -4 18 -10 16 -14 -3 -4 4 -15 15 -24 10 -9 19 -15 19 -12 0 3 13 -9 29
-25 15 -17 33 -30 40 -30 6 0 11 -4 11 -10 0 -5 5 -10 11 -10 6 0 17 -7 26
-15 8 -8 19 -13 24 -10 5 4 9 2 9 -3 0 -11 111 -60 154 -69 11 -2 26 -9 35
-16 12 -10 13 -9 6 3 -8 13 -7 13 8 1 9 -7 17 -10 17 -5 0 5 5 2 10 -6 7 -11
10 -11 10 -2 0 8 5 10 12 6 7 -4 33 -9 58 -11 25 -1 55 -5 68 -8 12 -3 22 -2
22 2 0 5 28 9 63 11 90 3 107 5 107 12 0 5 18 9 58 12 6 1 12 5 12 10 0 4 9 8
19 8 11 0 23 5 26 10 4 6 11 8 16 5 5 -4 9 -1 9 4 0 6 3 10 8 10 21 -4 32 2
26 13 -5 8 -2 9 9 5 10 -3 17 -2 17 3 0 5 10 12 22 16 12 3 27 12 34 18 6 6
22 18 34 26 12 8 35 27 50 43 16 15 33 27 39 27 6 0 10 3 9 8 -2 4 6 18 17 30
57 68 65 78 65 85 0 4 9 17 20 29 10 12 17 24 15 28 -2 4 3 16 13 26 9 10 18
28 20 39 2 11 10 30 18 43 8 12 12 27 9 32 -3 5 -1 11 5 15 6 4 8 11 5 16 -4
5 -2 9 3 9 5 0 8 16 7 35 0 19 3 35 7 35 4 0 8 5 8 11 0 6 -6 7 -12 2 -7 -4
-5 5 4 19 10 15 14 30 9 33 -6 3 -6 18 -1 35 5 18 5 32 -1 36 -6 4 -6 11 2 20
9 11 9 14 0 14 -7 0 -9 5 -6 10 4 6 1 18 -7 27 -11 14 -11 16 1 9 10 -7 12 -2
7 20 -4 16 -8 38 -10 49 -14 70 -24 102 -48 148 -5 10 -6 22 -3 27 3 5 0 12
-6 16 -8 5 -9 3 -4 -6 5 -8 4 -11 -3 -6 -6 4 -9 13 -6 20 3 7 -2 19 -11 26 -8
7 -15 19 -15 26 0 8 -4 14 -10 14 -5 0 -10 7 -10 15 0 9 -7 18 -15 21 -8 4
-12 10 -9 15 3 5 1 9 -4 9 -5 0 -15 11 -22 25 -7 13 -17 22 -22 19 -4 -3 -8 1
-8 9 0 11 -27 37 -70 67 -3 3 -12 14 -18 25 -6 11 -12 14 -12 8 0 -9 -6 -7
-19 5 -34 30 -45 38 -78 52 -18 8 -33 19 -33 23 0 5 -4 6 -9 2 -5 -3 -12 -1
-16 5 -4 6 -11 8 -16 5 -5 -4 -9 -1 -9 5 0 6 -4 9 -9 5 -5 -3 -12 -1 -16 5 -4
6 -11 8 -16 5 -5 -4 -9 -1 -9 5 0 6 -4 9 -9 5 -5 -3 -13 0 -17 6 -4 8 -9 7
-15 -2 -7 -11 -9 -11 -9 -1 0 7 -4 10 -10 7 -5 -3 -10 -2 -10 4 0 5 -9 8 -20
6 -11 -2 -22 -1 -24 3 -3 4 -27 7 -55 7 -28 0 -51 3 -51 8 0 4 -6 5 -12 0 -19
-11 -72 -11 -80 1 -5 8 -8 8 -8 0z m-184 -287 c4 -4 13 -2 21 4 7 6 13 7 13 2
0 -5 7 -10 15 -10 8 0 15 5 15 11 0 6 4 5 9 -2 4 -8 12 -14 16 -14 4 0 12 6
16 14 5 7 9 8 9 2 0 -14 60 -14 60 0 0 6 4 5 9 -2 11 -17 22 -17 32 0 6 10 11
10 20 1 9 -9 16 -10 26 -2 7 7 13 7 13 2 0 -5 7 -10 15 -10 8 0 15 5 15 11 0
6 4 5 9 -2 4 -8 12 -14 16 -14 4 0 12 6 16 14 5 7 9 8 9 2 0 -14 60 -14 60 0
0 6 4 5 9 -2 11 -17 22 -17 32 0 6 10 11 10 20 1 9 -9 16 -10 26 -2 7 7 13 7
13 2 0 -5 7 -10 15 -10 8 0 15 5 15 11 0 6 4 5 9 -2 4 -8 12 -14 16 -14 4 0
12 6 16 14 5 8 9 8 9 2 0 -6 8 -11 18 -11 35 0 42 -3 42 -18 0 -8 6 -15 13
-15 8 0 7 -4 -3 -10 -11 -7 -11 -10 -2 -10 9 0 8 -6 -4 -23 l-18 -23 -302 1
c-263 0 -301 -2 -299 -15 1 -8 -3 -18 -9 -22 -7 -5 -7 -8 -1 -8 11 0 13 -46 2
-56 -4 -4 -4 -12 0 -17 11 -18 10 -62 -1 -69 -7 -5 -7 -8 -1 -8 11 0 12 -101
1 -118 -4 -7 -3 -12 2 -12 10 0 8 -81 -2 -98 -4 -6 -3 -13 1 -15 10 -6 9 -100
-1 -115 -4 -7 -3 -12 2 -12 10 0 8 -81 -2 -98 -4 -6 -3 -13 1 -15 10 -6 9
-100 -1 -115 -4 -7 -3 -12 2 -12 4 0 8 -22 8 -49 -1 -38 -6 -52 -21 -62 -14
-9 -20 -9 -23 0 -3 9 -8 9 -19 0 -9 -8 -17 -9 -21 -3 -4 6 -15 14 -26 17 -12
5 -15 11 -9 20 6 7 9 209 9 493 -1 473 -1 481 19 491 22 10 41 10 51 0z m299
-222 c22 1 46 4 52 8 6 4 14 4 17 -1 6 -10 93 -9 102 1 4 4 12 3 18 -1 15 -9
80 -9 87 1 3 4 15 -4 27 -18 12 -14 19 -25 14 -25 -4 0 -1 -4 6 -9 11 -6 9
-14 -10 -33 -22 -24 -28 -25 -131 -24 -65 1 -107 -3 -107 -9 0 -7 -3 -7 -8 0
-6 9 -26 10 -94 6 -14 -1 -16 -12 -16 -65 1 -58 3 -63 22 -61 12 0 29 -2 38
-7 9 -4 19 -4 22 0 6 10 121 7 137 -4 8 -4 9 -3 5 4 -13 21 14 13 39 -12 19
-19 22 -30 16 -52 -4 -16 -13 -30 -19 -30 -7 -1 -13 -2 -14 -4 -10 -7 -44 -7
-54 1 -8 6 -14 7 -18 0 -7 -11 -55 -9 -75 3 -9 6 -12 5 -8 -1 7 -12 -97 -12
-109 0 -4 4 -13 2 -20 -3 -14 -12 -36 -10 -46 5 -5 6 -8 5 -8 -3 0 -7 -4 -11
-8 -8 -5 3 -8 24 -7 46 1 22 -2 43 -7 46 -4 3 -5 11 -1 17 13 20 12 41 0 49
-9 6 -9 8 0 8 13 0 13 34 0 46 -4 4 -2 13 3 20 12 14 10 36 -5 46 -6 5 -5 8 3
8 8 0 10 8 6 25 -6 26 -5 27 48 29 15 1 30 5 34 9 4 4 12 3 18 -1 6 -5 29 -8
51 -7z m209 -464 c11 -1 17 -4 13 -7 -3 -4 0 -13 8 -21 11 -11 12 -19 5 -34
-6 -10 -7 -19 -3 -19 4 0 -1 -6 -11 -12 -26 -15 -247 -19 -239 -4 4 6 -1 5
-10 -3 -14 -11 -17 -29 -16 -86 1 -40 -1 -78 -5 -83 -3 -6 -2 -14 4 -17 8 -5
7 -11 -1 -21 -6 -8 -8 -14 -3 -14 5 0 2 -4 -5 -9 -9 -6 -22 -6 -32 0 -12 6
-20 5 -24 -1 -5 -8 -11 -8 -19 -1 -7 6 -15 8 -18 5 -3 -3 -4 9 -3 26 1 17 -2
30 -9 30 -7 0 -7 3 -1 8 15 11 17 32 4 48 -7 8 -7 14 -2 14 13 0 11 43 -2 52
-6 5 -6 8 1 8 13 0 14 31 1 48 -6 7 -6 12 0 12 5 0 9 15 8 33 -1 17 1 37 6 42
6 8 241 12 353 6z"/>
</g>
</svg>
