<?xml version="1.0" encoding="UTF-8"?><!DOCTYPE svg PUBLIC "-//W3C//DTD SVG 1.1//EN" "http://www.w3.org/Graphics/SVG/1.1/DTD/svg11.dtd"><svg xmlns="http://www.w3.org/2000/svg"><symbol id="category-agriculture" viewBox="0 0 100 100"><path d="M74.7 42.9H58.1L46.9 26.5c-1-.9-2.2-1.5-3.6-1.5H31.8c-2 0-4.7 2.7-5.4 5.4L24 42.9c-3 0-3.3 2.4-3.3 5.4v8.3c1.9-5.3 6.9-9 12.9-9 7.6 0 13.7 6.1 13.7 13.7v.3h12.3c1.5-2.2 4.1-3.6 6.9-3.6 2.9 0 5.4 1.4 6.9 3.6h.2c3 0 4.2-1.1 5.4-5.4l1.1-7.9c0-2.9-2.4-5.4-5.4-5.4z" fill="none" stroke="currentColor" stroke-linecap="round" stroke-linejoin="round" stroke-miterlimit="10"/><path d="M33.6 47.6c-5.9 0-11 3.8-12.9 9-.5 1.5-.8 3-.8 4.6 0 7.6 6.1 13.7 13.7 13.7 7.5 0 13.5-6 13.7-13.4v-.3c0-7.5-6.1-13.6-13.7-13.6z" fill="none" stroke="currentColor" stroke-linecap="round" stroke-linejoin="round" stroke-miterlimit="10"/><path d="M33.6 55.3c-3.3 0-6 2.7-6 6v.3c.2 3.2 2.8 5.7 6 5.7s5.8-2.5 6-5.7v-.3c0-3.3-2.7-6-6-6zM73.4 61.6c-1.5-2.2-4.1-3.6-6.9-3.6-2.9 0-5.4 1.4-6.9 3.6-1 1.4-1.6 3.1-1.6 4.9 0 4.7 3.8 8.5 8.5 8.5s8.5-3.8 8.5-8.5c0-1.9-.6-3.5-1.6-4.9zm-6.9 7.9c-1.7 0-3.1-1.4-3.1-3.1 0-1.7 1.4-3.1 3.1-3.1 1.7 0 3.1 1.4 3.1 3.1 0 1.7-1.4 3.1-3.1 3.1zM65.4 30.4c-2.6 0-2.6 3.2-2.6 5.8v6.7M57.6 50.1v3.8M62 50.1v3.8M66.4 50.1v3.8M73.8 53.8c-1 0-1.8-.8-1.8-1.8s.8-1.8 1.8-1.8M52.8 42.9l-8.5-12.7c-.7-.6-2.6-1-3.6-1h-6.5c-1.7 0-3.1 1.6-3.8 3.8l-.8 10h8.1c3.4.5 6.5 2 8.9 4.3h6.1v-4.4z" fill="none" stroke="currentColor" stroke-linecap="round" stroke-linejoin="round" stroke-miterlimit="10"/></symbol><symbol id="category-autre" viewBox="0 0 100 100"><circle cx="50.2" cy="50" r="18.3" clip-rule="evenodd" fill="none" stroke="currentColor" stroke-linecap="round" stroke-linejoin="round" stroke-miterlimit="10"/><path d="M40.8 52.2c-.5 0-1-.2-1.4-.6-.8-.8-.8-2 0-2.8.4-.4.9-.6 1.4-.6.5 0 1 .2 1.4.6.8.8.8 2.1 0 2.8-.4.4-.9.6-1.4.6zM50.2 52.2c-.5 0-1-.2-1.4-.6-.8-.8-.8-2 0-2.8.4-.4.9-.6 1.4-.6.5 0 1 .2 1.4.6.8.8.8 2.1 0 2.8-.4.4-.9.6-1.4.6zM59.5 52.2c-.5 0-1-.2-1.4-.6-.8-.8-.8-2 0-2.8.4-.4.9-.6 1.4-.6.5 0 1 .2 1.4.6.8.8.8 2.1 0 2.8-.3.4-.8.6-1.4.6z" fill="none" stroke="currentColor" stroke-miterlimit="10"/></symbol><symbol id="category-commerce" viewBox="0 0 100 100"><path fill="none" stroke="currentColor" stroke-linecap="round" stroke-linejoin="round" stroke-miterlimit="10" d="M37.7 30.6l-6 19.3 13.7 26.4 25.3-13.1-13.8-26.5z"/><ellipse transform="rotate(-27.511 43.915 42.621)" cx="43.9" cy="42.6" rx="3.3" ry="3.3" fill="none" stroke="currentColor" stroke-linecap="round" stroke-linejoin="round" stroke-miterlimit="10"/><path d="M30.5 38.3c-2.5-4.8-.6-10.8 4.2-13.3s10.8-.6 13.3 4.2.6 10.8-4.2 13.3M45.7 57l8.2-4.3M47.7 60.8l8.2-4.3" fill="none" stroke="currentColor" stroke-linecap="round" stroke-linejoin="round" stroke-miterlimit="10"/></symbol><symbol id="category-communication" viewBox="0 0 100 100"><path d="M56.658 38.677H27.012a2.656 2.656 0 0 0-2.655 2.656v22.285a2.656 2.656 0 0 0 2.655 2.654h21.415L47.14 71.33l7.293-5.057h2.225a2.654 2.654 0 0 0 2.653-2.654V41.333a2.655 2.655 0 0 0-2.653-2.656z" fill="none" stroke="currentColor" stroke-linecap="round" stroke-linejoin="round" stroke-miterlimit="10"/><path d="M40.689 38.677v-7.352a2.654 2.654 0 0 1 2.654-2.654H72.99a2.654 2.654 0 0 1 2.654 2.654V53.61a2.654 2.654 0 0 1-2.654 2.655h-2.336l1.287 5.056-7.293-5.056h-5.336" fill="none" stroke="currentColor" stroke-linecap="round" stroke-linejoin="round" stroke-miterlimit="10"/><path d="M35.897 53.515a.691.691 0 1 1 .002-1.383.691.691 0 0 1-.002 1.383zM41.833 53.515a.69.69 0 1 1 .002-1.382.69.69 0 0 1-.002 1.382zM47.77 53.515a.69.69 0 0 1-.486-1.18.692.692 0 0 1 .975 0 .694.694 0 0 1-.002.978.684.684 0 0 1-.487.202z" stroke="currentColor" stroke-miterlimit="10"/></symbol><symbol id="category-construction" viewBox="0 0 100 100"><path d="M68.482 67.124l-36.966.002a2.414 2.414 0 0 0 0 4.828h36.966a2.416 2.416 0 0 0 0-4.83zM63.94 67.124H36.06L47.4 28.046h5.2zM56.24 40.59L41.87 47.1M53.44 31.51l-8.08 3.66M58.94 49.89l-20.58 9.32M61.65 59.24l-17.4 7.88" fill="none" stroke="currentColor" stroke-linecap="round" stroke-linejoin="round" stroke-miterlimit="10"/></symbol><symbol id="category-consultation" viewBox="0 0 100 100"><path d="M63.8 48.9c0-7.5-6.1-13.6-13.6-13.6s-13.6 6.1-13.6 13.6c0 5.2 2.9 9.7 7.2 12v5.7h12.9v-5.7c4.2-2.3 7.1-6.8 7.1-12z" fill="none" stroke="currentColor" stroke-linecap="round" stroke-linejoin="round" stroke-miterlimit="10"/><path d="M45.7 57.2c-3.1-1.7-5-4.8-5-8.3 0-5.2 4.2-9.4 9.4-9.4M43.7 70.9h12.9M43.7 75.2h12.9M50.2 30.5v-5.7M36.9 36.1L32.8 32M31.3 49.4h-5.7M69 49.4h5.7M63.5 36.1l4-4.1" fill="none" stroke="currentColor" stroke-linecap="round" stroke-linejoin="round" stroke-miterlimit="10"/></symbol><symbol id="category-health" viewBox="0 0 100 100"><path d="M50 39.4c-3.6-2.2-21.1-2.9-21.1 13.4 0 13.9 14.5 26.2 19.7 21.9.4-.4.9-.7 1.3-1.1.4.3.9.7 1.3 1.1 5.2 4.4 19.7-8 19.7-21.9.2-16.5-17.2-15.6-20.9-13.4zM50.2 30.3s.7 4.6-.2 9.1" fill="none" stroke="currentColor" stroke-linecap="round" stroke-linejoin="round" stroke-miterlimit="10"/><path d="M46.7 26.6c.6.6 2.8 2.9 3.5 3.7 1-1.8 2.6-3.5 4.6-4.6 4.1-2.1 11.3-1 11.6-.5-1.9 7.1-12.44 8.795-15.94 9.095M55.9 71.4c2.5-1.1 5.2-3.4 7.3-6.5M33.3 57.3c.2.9.5 1.8.8 2.7M41.5 42.2c-4.3 1-8.6 4.1-8.6 11.4" fill="none" stroke="currentColor" stroke-linecap="round" stroke-linejoin="round" stroke-miterlimit="10"/></symbol><symbol id="category-hotellerie" viewBox="0 0 100 100"><path d="M72.594 38.387C72.594 28.1 62.479 27.582 50 27.582c-12.479 0-22.594.52-22.594 10.805v10.031h45.188V38.387zM75.752 56.168a3 3 0 0 1-3 3H27.248a3 3 0 0 1-3-3v-4.75a3 3 0 0 1 3-3h45.504a3 3 0 0 1 3 3v4.75zM24.25 59.17h51.5v8.91h-51.5z" fill="none" stroke="currentColor" stroke-linecap="round" stroke-linejoin="round" stroke-miterlimit="10"/><path d="M44.479 46.377c0 1.127-1.342 2.041-3 2.041h-6.73c-1.657 0-3-.914-3-2.041V41.8c0-1.127 1.343-2.041 3-2.041h6.73c1.658 0 3 .914 3 2.04v4.578zM68.252 46.377c0 1.127-1.342 2.041-3 2.041h-6.73c-1.657 0-3-.914-3-2.041V41.8c0-1.127 1.343-2.041 3-2.041h6.73c1.658 0 3 .914 3 2.04v4.578zM24.25 68.08v4.34M75.75 68.08v4.34" fill="none" stroke="currentColor" stroke-linecap="round" stroke-linejoin="round" stroke-miterlimit="10"/><path d="M34.75 37.389a.634.634 0 1 1 0-1.268.634.634 0 0 1 0 1.268zM44.916 37.389a.634.634 0 1 1 0-1.268.634.634 0 0 1 0 1.268zM55.082 37.389a.634.634 0 1 1 0-1.268.634.634 0 0 1 0 1.268zM65.248 37.389a.634.634 0 1 1 0-1.268.634.634 0 0 1 0 1.268zM39.834 32.234a.635.635 0 1 1 .45-1.084.635.635 0 0 1-.45 1.084zM50 32.234a.635.635 0 1 1 .45-1.084.635.635 0 0 1-.45 1.084zM60.166 32.234a.635.635 0 1 1 .45-1.084.635.635 0 0 1-.45 1.084zM50 42.543a.63.63 0 0 1-.447-.184.635.635 0 0 1 .896-.9.635.635 0 0 1-.449 1.084z" stroke="currentColor" stroke-miterlimit="10"/></symbol><symbol id="category-industrie" viewBox="0 0 100 100"><path fill="none" stroke="currentColor" stroke-linecap="round" stroke-linejoin="round" stroke-miterlimit="10" d="M72.8 46.4l-12.6 6.2h-.4v-6.2L47 52.7l-.3-.1v-6.2l-13 6.4V36.2h-6.1v39.7h45.2zM30.4 31.9s-.9-4.1 7.5-4.1 8.7-2.5 8.7-4"/><path fill="none" stroke="currentColor" stroke-linecap="round" stroke-linejoin="round" stroke-miterlimit="10" d="M32.6 59.8h7.9v5.9h-7.9zM46.2 59.8h7.9v5.9h-7.9zM59.9 59.8h7.9v5.9h-7.9z"/></symbol><symbol id="category-it" viewBox="0 0 100 100"><path d="M65.103 27.193c7.764 0 14.059 6.292 14.059 14.057M65.103 31.632c5.312 0 9.617 4.306 9.617 9.618M65.103 36.071a5.179 5.179 0 0 1 5.18 5.179M66.206 65.062a3 3 0 0 1-3 3h-37.61a3 3 0 0 1-3-3V44.081c0-1.657 1.341-3 3-3h37.61a3 3 0 0 1 3 3v20.981zM67.956 70.376c0 1.259-.935 2.28-2.09 2.28H22.934c-1.152 0-2.088-1.021-2.088-2.28 0-1.26.936-2.281 2.088-2.281h42.934c1.154 0 2.09 1.021 2.09 2.28z" fill="none" stroke="currentColor" stroke-linecap="round" stroke-linejoin="round" stroke-miterlimit="10"/><path fill="none" stroke="currentColor" stroke-linecap="round" stroke-linejoin="round" stroke-miterlimit="10" d="M26.496 64.162v-19.18h35.81v7.412"/></symbol><symbol id="category-media" viewBox="0 0 100 100"><path d="M46.6 28.9h-19v36.9H50V32.3c0-1.9-1.5-3.4-3.4-3.4zM53.4 28.9h19v37H50V32.3c0-1.9 1.5-3.4 3.4-3.4z" fill="none" stroke="currentColor" stroke-linecap="round" stroke-linejoin="round" stroke-miterlimit="10"/><path fill="none" stroke="currentColor" stroke-linecap="round" stroke-linejoin="round" stroke-miterlimit="10" d="M27.7 33.2h-5.5v37.9H50v-5.2M72.3 33.2h5.5v37.9H50v-5.2M33.3 37h11M33.3 42.3h11M33.3 47.7h11M33.3 53h11M33.3 58.3h11M55.3 53h11M55.3 58.3h11"/><path fill="none" stroke="currentColor" stroke-linecap="round" stroke-linejoin="round" stroke-miterlimit="10" d="M60.8 28.9v18.5l3.1-4 3.1 4V28.9z"/></symbol><symbol id="category-medical" viewBox="0 0 100 100"><path d="M30.38 30.381a8.252 8.252 0 0 0 0 11.668l27.985 27.984.021-.022c3.24 2.82 8.152 2.696 11.236-.388s3.21-7.996.39-11.237l.02-.021-27.984-27.984a8.25 8.25 0 0 0-11.668 0z" fill="none" stroke="currentColor" stroke-linecap="round" stroke-linejoin="round" stroke-miterlimit="10"/><path d="M69.619 30.381a8.249 8.249 0 0 0-11.666 0L29.968 58.365l.02.021c-2.819 3.24-2.696 8.153.388 11.237s7.998 3.209 11.239.388l.02.022 27.984-27.984a8.249 8.249 0 0 0 0-11.668z" fill="none" stroke="currentColor" stroke-linecap="round" stroke-linejoin="round" stroke-miterlimit="10"/><path d="M50 44.166a.635.635 0 1 1 .45-1.084.635.635 0 0 1-.45 1.084zM53.234 47.4a.635.635 0 1 1 .45-1.084.637.637 0 0 1-.45 1.084zM56.468 50.634a.633.633 0 1 1 0-1.267.63.63 0 0 1 .447.183.626.626 0 0 1 .002.898.63.63 0 0 1-.449.186zM46.765 47.4a.628.628 0 0 1-.447-.185.636.636 0 1 1 1.082-.45.635.635 0 0 1-.635.635zM46.765 53.869a.635.635 0 0 1 .002-1.269.634.634 0 0 1-.002 1.269zM53.234 53.87a.634.634 0 1 1 0-1.27.634.634 0 1 1 0 1.27zM43.53 50.634a.637.637 0 0 1-.447-.183.64.64 0 0 1-.002-.9.636.636 0 1 1 .45 1.083zM50 50.634a.63.63 0 0 1-.448-.183.637.637 0 0 1 .45-1.086c.167 0 .328.066.447.186a.635.635 0 0 1-.45 1.083zM50 57.103a.635.635 0 1 1 0 0z" stroke="currentColor" stroke-miterlimit="10"/></symbol><symbol id="category-restauration" viewBox="0 0 100 100"><path clip-rule="evenodd" fill="none" stroke="currentColor" stroke-linecap="round" stroke-linejoin="round" stroke-miterlimit="10" d="M75 28v12M79 28v13a3.007 3.007 0 0 1-3 2.998h-6c-1.65 0-3-1.347-3-2.998V28M71 28v12M75 44v3c0 .865.033 1.73.103 2.592l1.56 18.421a3.677 3.677 0 0 1-7.326 0l1.56-18.421C70.964 48.73 71 47.865 71 47v-3"/><circle cx="43" cy="50" r="22" clip-rule="evenodd" fill="none" stroke="currentColor" stroke-linecap="round" stroke-linejoin="round" stroke-miterlimit="10"/><circle cx="43" cy="50" r="13.62" clip-rule="evenodd" fill="none" stroke="currentColor" stroke-linecap="round" stroke-linejoin="round" stroke-miterlimit="10"/></symbol><symbol id="category-textile" viewBox="0 0 100 100"><path fill="none" stroke="currentColor" stroke-linecap="round" stroke-linejoin="round" stroke-miterlimit="10" d="M74.218 55.972H46.544V28.298H30.782v43.436h43.436zM25.78 32.02h5M25.78 37.16h5M25.78 42.3h5M25.78 47.44h5M25.78 52.59h5M25.78 57.73h5M25.78 62.87h5M25.78 68.02h5M49.32 60.97v-5M54.46 60.97v-5M59.6 60.97v-5M64.75 60.97v-5M69.89 60.97v-5M46.54 28.3l27.68 27.67"/></symbol><symbol id="category-transport" viewBox="0 0 100 100"><circle cx="38.25" cy="66.61" r="3.25" clip-rule="evenodd" fill="none" stroke="currentColor" stroke-linecap="round" stroke-linejoin="round" stroke-miterlimit="10"/><circle cx="61.75" cy="66.61" r="3.25" clip-rule="evenodd" fill="none" stroke="currentColor" stroke-linecap="round" stroke-linejoin="round" stroke-miterlimit="10"/><path d="M69.626 67.883c0 3.944-3.314 7.141-7.404 7.141H37.776c-4.09 0-7.402-3.197-7.402-7.141V35.467c0-3.945 3.313-7.142 7.402-7.142h24.446c4.09 0 7.404 3.197 7.404 7.142v32.416zM30.37 37.37h39.26M30.37 59.54h39.26M39.4 40.95l-4.32 4.31M65.04 40.95l-4.31 4.31M40.57 45.23l-5.52 5.52M44.89 40.92l-1.8 1.8M54.472 59.537a4.484 4.484 0 1 1 8.969 0" clip-rule="evenodd" fill="none" stroke="currentColor" stroke-linecap="round" stroke-linejoin="round" stroke-miterlimit="10"/><path d="M41.858 28.325v-2.389c0-3.208 3.647-4.908 8.141-4.908 4.496 0 8.14 1.7 8.14 4.908v2.39M39.34 75.02l-4.63 3.95M60.66 75.02l4.63 3.95M45.21 32.98h9.58" clip-rule="evenodd" fill="none" stroke="currentColor" stroke-linecap="round" stroke-linejoin="round" stroke-miterlimit="10"/></symbol><symbol id="header-contact" viewBox="0 0 300 300"><path fill="none" stroke="currentColor" stroke-width="4" stroke-linecap="round" stroke-linejoin="round" stroke-miterlimit="10" d="M248.3 253.6H86.2V140.5h162.1v113.1"/><path fill="none" stroke="currentColor" stroke-width="4" stroke-linecap="round" stroke-linejoin="round" stroke-miterlimit="10" d="M248.3 140.5l-81 75.8-81.1-75.8M86.5 252.6l60.2-55.5M187.6 197.4l60.7 56.2"/><path fill="none" stroke="currentColor" stroke-width="4" stroke-linecap="round" stroke-linejoin="round" stroke-miterlimit="10" d="M51.8 252.6V46.5h143v83.2M77.7 74.6h87M77.7 93.6h87M77.7 113.4h87"/></symbol><symbol id="header-fiscalite" viewBox="0 0 300 300"><path d="M129.8 127.1c-8.8 1.7-18.4 2.6-28.3 2.6-16.1 0-31.1-2.4-43.8-6.5l-5.6-2c-19.3-7.5-31.8-19.3-31.8-32.6v34.6c0 13.2 12.3 25 31.4 32.5.1.1.3.1.4.1 13.7 5.3 30.8 8.5 49.4 8.5 5.7 0 11.2-.3 16.5-.9M121.9 195.5c-6.5.9-13.4 1.3-20.4 1.3-18.6 0-35.7-3.2-49.4-8.5-.1 0-.3-.1-.4-.1-19.1-7.5-31.4-19.3-31.4-32.5v32.5c0 1.5.2 2.9.5 4.3 4.3 20.7 38.8 36.8 80.7 36.8 13.6 0 26.3-1.7 37.6-4.7" clip-rule="evenodd" fill="none" stroke="currentColor" stroke-width="4" stroke-linecap="round" stroke-linejoin="round" stroke-miterlimit="10"/><path d="M118 163.5c-5.3.6-10.8.9-16.5.9-18.6 0-35.7-3.2-49.4-8.5-.1-.1-.3-.1-.4-.1-19.1-7.5-31.4-19.3-31.4-32.5v32.5c0 13.2 12.3 25 31.4 32.5.1.1.3.1.4.1 13.7 5.3 30.8 8.5 49.4 8.5 7.1 0 13.9-.5 20.4-1.3M182.6 90.2c0-.5.1-1.1.1-1.6 0-22.7-36.3-41.1-81.2-41.1-44.8 0-81.2 18.4-81.2 41.1 0 13.3 12.5 25.1 31.8 32.6 1.8.7 3.7 1.4 5.6 2 12.6 4.1 27.6 6.5 43.8 6.5 10 0 19.5-.9 28.3-2.6" clip-rule="evenodd" fill="none" stroke="currentColor" stroke-width="4" stroke-linecap="round" stroke-linejoin="round" stroke-miterlimit="10"/><path d="M198.9 88.5c-5.6 0-11 .6-16.3 1.6-20.7 4.2-38.5 16.3-50.2 33-.9 1.3-1.8 2.6-2.6 3.9-5.3 8.6-9 18.2-10.9 28.6-.4 2.6-.8 5.2-1 7.8-.2 2.1-.3 4.2-.3 6.3 0 6.3.7 12.5 2.1 18.4.6 2.5 1.3 4.9 2.1 7.3 3.7 10.9 9.5 20.8 17.2 29.1 14.8 16.2 36.1 26.3 59.8 26.3 44.8 0 81.2-36.4 81.2-81.2.1-44.7-36.2-81.1-81.1-81.1z" clip-rule="evenodd" fill="none" stroke="currentColor" stroke-width="4" stroke-linecap="round" stroke-linejoin="round" stroke-miterlimit="10"/><path d="M241.4 194.6c-8.2 12.7-22.4 21.1-38.6 21.1-25.4 0-45.9-20.6-45.9-45.9s20.6-45.9 45.9-45.9c17.2 0 32.2 9.5 40.1 23.5M143.8 162.6h74.7M218.5 176.9h-74.7" clip-rule="evenodd" fill="none" stroke="currentColor" stroke-width="4" stroke-linecap="round" stroke-linejoin="round" stroke-miterlimit="10"/></symbol><symbol id="header-legal" viewBox="0 0 300 300"><path fill="none" stroke="currentColor" stroke-width="4" stroke-linecap="round" stroke-linejoin="round" stroke-miterlimit="10" d="M169 83.5h48.5M83.2 83.5h48.4M150.3 64.8V53.6M150.3 244.6V102.2M116.7 244.6h67.2"/><circle cx="150.3" cy="83.5" r="18.7" fill="none" stroke="currentColor" stroke-width="4" stroke-linecap="round" stroke-linejoin="round" stroke-miterlimit="10"/><path fill="none" stroke="currentColor" stroke-width="4" stroke-linecap="round" stroke-linejoin="round" stroke-miterlimit="10" d="M183.9 184H251M251.1 184c0 18.5-15 33.6-33.6 33.6s-33.6-15-33.6-33.6M233.3 197.1c-3.8 4.6-9.5 7.5-15.8 7.5M99 197.1c-3.8 4.6-9.5 7.5-15.8 7.5M183.9 183.9l33.6-100.4 33.6 100.4M49.6 184h67.1"/><path d="M116.8 184c0 18.5-15 33.6-33.6 33.6s-33.6-15-33.6-33.6M49.6 183.9L83.2 83.5l33.6 100.4" fill="none" stroke="currentColor" stroke-width="4" stroke-linecap="round" stroke-linejoin="round" stroke-miterlimit="10"/></symbol><symbol id="header-recrutement" viewBox="0 0 300 300"><path d="M165.9 185.5c-2.8-.5-4.9-2.9-4.7-5.8.1-3.1.1-6.4.1-9.8 0-7.9 9.5-17.3 10-28.4 3.2-6.5 5-13 5-18.1 0-3.3-.8-5.5-2.2-6.9.8-4.1 1.4-8.5 2.2-13 3.2-18-3-31-18.9-36.6-5.7-2-29.4-6.1-38.2-14.7 0 0-1 14.3-3.9 15.6-15.5 7-21.7 17.8-18.4 35.6.8 4.5 1.5 8.8 2.2 13-1.4 1.4-2.2 3.6-2.2 6.9 0 5 1.8 11.5 4.9 18.1.5 11 10 20 10 28.4 0 3.4 0 6.7.1 9.8.1 2.9-1.9 5.3-4.7 5.8-19.1 3.4-34.9 10-44.5 18.5M198.6 228v-38M179.6 209h38M198.6 246.8c-20.9 0-37.8-16.9-37.8-37.8s16.9-37.8 37.8-37.8 37.8 16.9 37.8 37.8" fill="none" stroke="currentColor" stroke-width="4" stroke-linecap="round" stroke-linejoin="round" stroke-miterlimit="10"/></symbol><symbol id="header-securite" viewBox="0 0 300 300"><path d="M167.5 173.8c0-9.6-7.8-17.4-17.4-17.4-9.6 0-17.4 7.8-17.4 17.4 0 7 4.2 13.1 10.2 15.8l-5.2 31.3h24.8l-5.2-31.3c6-2.8 10.2-8.8 10.2-15.8z" fill="none" stroke="currentColor" stroke-width="4" stroke-linecap="round" stroke-linejoin="round" stroke-miterlimit="10"/><path d="M74.1 250.5V127.6c0-3.9 3.2-7.1 7.1-7.1l138-.7c3.9 0 7.1 3.2 7.1 7.1v122.9c0 3.9-3.2 7.1-7.1 7.1l-138 .7c-3.9 0-7.1-3.2-7.1-7.1zM105 119.8V87.4c0-24.9 20.2-45.2 45.2-45.2 24.9 0 45.2 20.2 45.2 45.2v32.5" fill="none" stroke="currentColor" stroke-width="4" stroke-linecap="round" stroke-linejoin="round" stroke-miterlimit="10"/><path d="M121.8 118.4v-31c0-15.7 12.7-28.4 28.4-28.4s28.4 12.7 28.4 28.4v30.1" fill="none" stroke="currentColor" stroke-width="4" stroke-linecap="round" stroke-linejoin="round" stroke-miterlimit="10"/></symbol><symbol id="notification-enterprise" viewBox="0 0 100 100"><path fill="none" stroke="currentColor" stroke-linecap="round" stroke-linejoin="round" d="M49.875 62.117H37.42V40.526h25.16v4.999"/><path fill="none" stroke="currentColor" stroke-linecap="round" stroke-linejoin="round" d="M40.24 44.85h3.75v4.13h-3.75zM48.13 44.85h3.75v4.13h-3.75zM56.012 47.97v-3.124h3.75v1.562M48.125 62.117v-8.772h2.75M38.84 37.97h22.31"/></symbol><symbol id="notification-offer" viewBox="0 0 100 100"><path fill="none" stroke="currentColor" stroke-linecap="round" stroke-linejoin="round" d="M49.704 64.124h-10.74V35.876h22.072v18.128"/><circle cx="50" cy="42.07" r="3.03" fill="none" stroke="currentColor" stroke-linecap="round" stroke-linejoin="round"/><path fill="none" stroke="currentColor" stroke-linecap="round" stroke-linejoin="round" d="M48.115 44.443v4.691L50 47.155l1.886 1.979v-4.691M43.69 52.28h12.32M43.69 55.81h12.32M43.69 59.51h8.18"/></symbol><symbol id="notification-project" viewBox="0 0 100 100"><path fill="none" stroke="currentColor" stroke-linecap="round" stroke-linejoin="round" d="M44.04 47.29h11.92M44.04 50.7h11.92M44.04 54.29h11.92M61.037 52.429V35.01H47.72v8.756h-8.757V64.99H48M47.72 35.01l-8.76 8.76"/></symbol><symbol id="notification-remboursement" viewBox="0 0 100 100"><path fill="none" stroke="currentColor" stroke-linecap="round" stroke-linejoin="round" d="M46.225 43.155l-5.823-1.201 1.425-5.771M53.325 52.94a3.66 3.66 0 0 1-3.091 1.708 3.724 3.724 0 1 1 3.209-5.542M45.51 50.35h5.98M51.49 51.87h-5.98M41.482 41.203a12.95 12.95 0 1 1-3.812 5.716"/></symbol><symbol id="promo-balance" viewBox="0 0 190 190"><path d="M149.4 107.8c-7 5-11.7 8-21 8s-14-3-21-8l21-49.9 21 49.9zM82.4 107.8c-7 5-11.7 8-21 8s-14-3-21-8l21-49.9 21 49.9z" clip-rule="evenodd" fill="none" stroke="currentColor" stroke-width="2" stroke-linecap="round" stroke-linejoin="round" stroke-miterlimit="10"/><path clip-rule="evenodd" fill="none" stroke="currentColor" stroke-width="2" stroke-miterlimit="10" d="M61.4 57.9h67"/><path clip-rule="evenodd" fill="none" stroke="currentColor" stroke-width="2" stroke-linecap="round" stroke-linejoin="round" stroke-miterlimit="10" d="M94.9 49.9v89.9"/><path clip-rule="evenodd" fill="none" stroke="currentColor" stroke-width="2" stroke-miterlimit="10" d="M40.4 107.8h42"/><path clip-rule="evenodd" fill="none" stroke="currentColor" stroke-width="2" stroke-linecap="round" stroke-linejoin="round" stroke-miterlimit="10" d="M107.4 107.8h42M108.4 140.3h-27"/></symbol><symbol id="promo-barchart" viewBox="0 0 190 190"><path fill="none" stroke="currentColor" stroke-width="2" stroke-linecap="round" stroke-linejoin="round" d="M56.1 131h78.6M67.3 81.9h11.4V131H67.3zM89.7 100.7h11.4V131H89.7zM112 59h11.4v72H112z"/></symbol><symbol id="promo-calendarweek" viewBox="0 0 190 190"><circle cx="74.1" cy="71.3" r="3.2" fill="none" stroke-width="2" stroke="currentColor"/><path d="M74.1 68.2v-8.9" fill="none" stroke-width="2" stroke="currentColor"/><circle cx="115.9" cy="71.3" r="3.2" fill="none" stroke-width="2" stroke="currentColor"/><path d="M115.8 68.2v-8.9M53.2 131.7V70.4c0-4.5 3.7-8.2 8.2-8.2h67.2c4.5 0 8.2 3.7 8.2 8.2v61.3" fill="none" stroke-width="2" stroke="currentColor"/><path d="M67.5 96.9l1.8 1.8 3.5-3.5M77.5 96.9l1.8 1.8 3.4-3.5M87.4 96.9l1.8 1.8 3.5-3.5M97.3 96.9l1.8 1.8 3.5-3.5M107.3 96.9l1.8 1.8 3.4-3.5M117.2 96.9l1.8 1.8 3.5-3.5" fill="none" stroke-width="2" stroke="currentColor"/></symbol><symbol id="promo-clock" viewBox="0 0 190 190"><path d="M134.9 141.1c8.9-9.7 14.4-22.6 14.4-36.8 0-30-24.3-54.4-54.4-54.4-30 0-54.4 24.3-54.4 54.4 0 14.2 5.5 27.1 14.4 36.8" fill="none" stroke="currentColor" stroke-width="2" stroke-linecap="round" stroke-linejoin="round" stroke-miterlimit="10"/><path fill="none" stroke="currentColor" stroke-width="2" stroke-linecap="round" stroke-linejoin="round" stroke-miterlimit="10" d="M94.9 72.8v31.5h19.3"/></symbol><symbol id="promo-francemap" viewBox="0 0 190 190"><path d="M102.7 85.7c-5.7 0-10.3 4.4-10.3 9.7 0 5.2 9.4 18.7 9.8 19.3.2.3.6.3.9.1.1 0 .1-.1.1-.1.4-.6 9.8-14.1 9.8-19.3 0-5.4-4.6-9.7-10.3-9.7z" fill="none" stroke="currentColor" stroke-width="2" stroke-linecap="round" stroke-linejoin="round"/><circle cx="102.7" cy="95.5" r="2.7" fill="none" stroke="currentColor" stroke-width="2" stroke-linecap="round" stroke-linejoin="round"/><path fill="none" stroke="currentColor" stroke-width="2" stroke-linecap="round" stroke-linejoin="round" d="M68.7 138.1l3-17.8 5.2 6.3-5-13.1-9.9-6.8-.9-7.6L40 90.9l4.4-2.7-4.4-5.7 12.1-2 7.7 3.2 7.9-1.3-3-13.1 18 3.3 6-7.5 6.3-1.5-.1-7.3 8.8-5 14.7 15.6 5-1.2 4.2 6.1 22.4 7.1-5.7 17.8-4.7.5-6.5 14.9 6.3-3.4 5.8 20.4"/></symbol><symbol id="promo-handshake" viewBox="0 0 190 190"><path fill="none" stroke="currentColor" stroke-linecap="round" stroke-linejoin="round" stroke-width="2" d="M43.91 77.64h13.9v33.31h-13.9zM132.19 77.64h13.9v33.31h-13.9zM75.865 77.639l10.583-9.058h28.863a9.218 9.218 0 0 1-9.218 9.218M97.11 77.822L75.349 96.784a9.218 9.218 0 0 0 13.005.894l9.69-8.444h17.984"/><path d="M108.276 105.815l6.19 6.569a5.1 5.1 0 1 0 7.425-6.996l-14.548-15.441M75.865 77.822h-18.05v26.303h6.444l20.935 14.138s5.14 4.878 10.546 2.505 18.095-9.053 18.095-9.053M132.186 104.125V77.822H97.681" fill="none" stroke="currentColor" stroke-linecap="round" stroke-linejoin="round" stroke-width="2"/><path fill="none" stroke="currentColor" stroke-linecap="round" stroke-linejoin="round" stroke-width="2" d="M132.063 104.125h-6.444l-3.728 1.263"/></symbol><symbol id="promo-info" viewBox="0 0 190 190"><path clip-rule="evenodd" fill="none" stroke="currentColor" stroke-width="2" stroke-linecap="round" stroke-linejoin="round" stroke-miterlimit="10" d="M40.7 139.8v-89h63v25h25v64M103.7 50.8l25 25M55.4 139.8h56M55.4 125.5h56M55.4 111.2h56M55.4 96.8h31.1M149.7 75.8v64M139.2 75.8v64"/></symbol><symbol id="promo-linechart" viewBox="0 0 190 190"><circle cx="50.4" cy="130" r="9.5" clip-rule="evenodd" fill="none" stroke="currentColor" stroke-width="2" stroke-linecap="round" stroke-linejoin="round" stroke-miterlimit="10"/><circle cx="140.6" cy="61" r="9.5" clip-rule="evenodd" fill="none" stroke="currentColor" stroke-width="2" stroke-linecap="round" stroke-linejoin="round" stroke-miterlimit="10"/><circle cx="78.2" cy="95.5" r="4.5" clip-rule="evenodd" fill="none" stroke="currentColor" stroke-width="2" stroke-linecap="round" stroke-linejoin="round" stroke-miterlimit="10"/><circle cx="114.5" cy="116.9" r="4.5" clip-rule="evenodd" fill="none" stroke="currentColor" stroke-width="2" stroke-linecap="round" stroke-linejoin="round" stroke-miterlimit="10"/><path clip-rule="evenodd" fill="none" stroke="currentColor" stroke-width="2" stroke-linecap="round" stroke-linejoin="round" stroke-miterlimit="10" d="M116.7 112.9l19.4-43.5M56.4 122.6l19-23.6M82.1 97.8l28.6 16.8"/></symbol><symbol id="promo-linechart2" viewBox="0 0 190 190"><circle cx="50.1" cy="114.7" r="9.5" fill="none" stroke="currentColor" stroke-width="2" stroke-linecap="round" stroke-linejoin="round"/><circle cx="140.2" cy="55.6" r="9.5" fill="none" stroke="currentColor" stroke-width="2" stroke-linecap="round" stroke-linejoin="round"/><circle cx="77.9" cy="90.1" r="4.5" fill="none" stroke="currentColor" stroke-width="2" stroke-linecap="round" stroke-linejoin="round"/><circle cx="114.2" cy="111.5" r="4.5" fill="none" stroke="currentColor" stroke-width="2" stroke-linecap="round" stroke-linejoin="round"/><path fill="none" stroke="currentColor" stroke-width="2" stroke-linecap="round" stroke-linejoin="round" d="M116.3 107.5l19.9-43.2M57.4 108.6l17.7-15M81.8 92.4l28.5 16.8"/></symbol><symbol id="promo-money" viewBox="0 0 190 190"><path d="M70.8 101.8c-.6-.1-1.3-.2-1.9-.3.6.2 1.2.3 1.9.3z" fill="none"/><path d="M71.2 98.2c.8-4.6 2.4-8.9 4.6-12.7-6.3-.3-12.3-1.4-17.4-3-.9-.3-1.9-.6-2.7-1-9.4-3.7-15.4-9.4-15.4-15.9v16.8" fill="none" stroke="currentColor" stroke-width="2" stroke-linecap="round" stroke-linejoin="round" stroke-miterlimit="10"/><path d="M118.9 66.5c-2.8-.6-5.8-1-8.8-1-2.7 0-5.4.3-7.9.8-10 2.1-18.7 7.9-24.4 16-.4.6-.9 1.3-1.3 1.9-.2.4-.5.8-.7 1.1-2.2 3.9-3.8 8.2-4.6 12.7-.2 1.2-.4 2.4-.5 3.7v.1c-.1 1-.1 2-.1 3 0 3.1.4 6.1 1 8.9.3 1.2.6 2.4 1 3.6 0 .1.1.2.1.3 1.8 5.2 4.6 9.9 8.2 13.8.7.8 1.4 1.5 2.2 2.2 7 6.6 16.5 10.6 26.9 10.6 21.8 0 39.5-17.7 39.5-39.5 0-18.5-13.1-34.2-30.6-38.2z" fill="none" stroke="currentColor" stroke-width="2" stroke-linecap="round" stroke-linejoin="round" stroke-miterlimit="10"/><path d="M130.7 117.1c-4 6.2-10.9 10.2-18.8 10.2-12.3 0-22.3-10-22.3-22.3s10-22.3 22.3-22.3c8.4 0 15.7 4.6 19.5 11.4M83.3 101.5h36.3M119.6 108.5H83.3M75.8 85.4c.2-.4.4-.8.7-1.1.4-.6.8-1.3 1.3-1.9 5.7-8.1 14.3-14 24.4-16 2.6-.5 5.2-.8 7.9-.8 3 0 6 .4 8.8 1l.3-.2v-.8c0-11-17.7-20-39.5-20s-39.5 9-39.5 20M72.8 117.8c0-.1-.1-.2-.1-.3-.4-1.2-.7-2.4-1-3.6-.7-2.9-1-5.9-1-8.9 0-1 .1-2 .1-3v-.1c-.6-.1-1.3-.2-1.9-.3-.2 0-.3-.1-.5-.1-1-.2-2-.3-2.9-.5-.3-.1-.6-.1-.9-.2-.5-.1-.9-.2-1.3-.3-.5-.1-1-.2-1.5-.4-.4-.1-.7-.2-1.1-.3-.7-.2-1.3-.4-2-.6-.2-.1-.5-.1-.7-.2-.8-.3-1.5-.5-2.2-.8-.1 0-.1 0-.2-.1-9.3-3.7-15.3-9.4-15.3-15.8v15.8M81 131.7c-3.6-4-6.4-8.7-8.2-13.8-6.3-.6-12.1-1.9-17.1-3.8-.1 0-.1 0-.2-.1-9.3-3.7-15.3-9.4-15.3-15.8V114c0 .7.1 1.4.2 2.1 2.1 10.1 18.8 17.9 39.2 17.9 1.2 0 2.3 0 3.5-.1-.7-.7-1.4-1.5-2.1-2.2z" fill="none" stroke="currentColor" stroke-width="2" stroke-linecap="round" stroke-linejoin="round" stroke-miterlimit="10"/></symbol><symbol id="promo-pagestack" viewBox="0 0 190 190"><path fill="none" stroke="currentColor" stroke-width="2" stroke-linecap="round" stroke-linejoin="round" d="M125.2 103.8V65h-18.6V46.3H59.7v83.9M106.6 46.3L125.2 65M70.6 86h41.7M70.6 96h41.7M70.6 75.4h23.2"/><ellipse cx="112.3" cy="109.5" rx="17.7" ry="8.4" fill="none" stroke="currentColor" stroke-width="2" stroke-linecap="round" stroke-linejoin="round"/><path d="M130 117.9c0 4.6-7.9 8.4-17.7 8.4s-17.7-3.8-17.7-8.4M130 130.3v-20.8M94.7 109.5v20.7" fill="none" stroke="currentColor" stroke-width="2" stroke-linecap="round" stroke-linejoin="round"/></symbol><symbol id="promo-people" viewBox="0 0 190 190"><path class="st0" d="M140.7 140.5v-7.1s-.5-4.8-18.3-10.4c-17.9-5.6-18-15.7-18-15.7v-5s4.6-5.8 5.8-11.9c.6-3.2 1.8-3.9 2.4-4.5 1.5-1.5 1.6-2.6 1.6-3.8 0-1.2-.2-2.2-1.5-3.8V63.9s.2-14.4-17.7-14.5h-.1-.1C76.8 49.6 77.1 64 77.1 64v14.4c-1.3 1.6-1.5 2.6-1.5 3.8 0 1.2.1 2.3 1.6 3.8.6.6 1.8 1.3 2.4 4.5 1.2 6 5.8 11.9 5.8 11.9v5s-.1 10.1-18 15.7-18.3 10.4-18.3 10.4v7.1" clip-rule="evenodd" fill="none" stroke="currentColor" stroke-width="2" stroke-linecap="round" stroke-linejoin="round" stroke-miterlimit="10"/><path class="st0" d="M75 114.9c-11.5-3.6-11.5-10.1-11.5-10.1v-3.2s2.9-3.7 3.7-7.6c.4-2.1 1.2-2.5 1.6-2.9 1-1 1.1-1.7 1.1-2.4 0-.8-.2-1.4-1-2.4v-9.2s.2-9.2-11.4-9.3h-.1-.1C45.8 67.7 45.9 77 45.9 77v9.2c-.8 1-1 1.6-1 2.4 0 .8.1 1.5 1.1 2.4.4.4 1.2.8 1.6 2.9.8 3.9 3.7 7.6 3.7 7.6v3.2s-.1 6.5-11.5 10.1M150.1 114.9c-11.5-3.6-11.5-10.1-11.5-10.1v-3.2s2.9-3.7 3.7-7.6c.4-2.1 1.2-2.5 1.6-2.9 1-1 1.1-1.7 1.1-2.4 0-.8-.2-1.4-1-2.4v-9.2s.2-9.2-11.4-9.3h-.1-.1C120.9 67.7 121 77 121 77v9.2c-.8 1-1 1.6-1 2.4 0 .8.1 1.5 1.1 2.4.4.4 1.2.8 1.6 2.9.8 3.9 3.7 7.6 3.7 7.6v3.2s-.1 6.5-11.5 10.1" clip-rule="evenodd" fill="none" stroke="currentColor" stroke-width="2" stroke-linecap="round" stroke-linejoin="round" stroke-miterlimit="10"/></symbol><symbol id="promo-piggybank" viewBox="0 0 190 190"><circle cx="112.3" cy="78.7" r="7.5" fill="none" stroke="currentColor" stroke-width="2" stroke-linecap="round" stroke-linejoin="round" stroke-miterlimit="10"/><path d="M115.7 80.2c-.6 1.3-1.9 2.3-3.4 2.3-2.1 0-3.7-1.7-3.7-3.7 0-2.1 1.7-3.7 3.7-3.7 1.5 0 2.8.9 3.4 2.2M112.2 78.7h-4.4" fill="none" stroke="currentColor" stroke-width="2" stroke-linecap="round" stroke-linejoin="round" stroke-miterlimit="10"/><circle cx="112.3" cy="56" r="7.5" fill="none" stroke="currentColor" stroke-width="2" stroke-linecap="round" stroke-linejoin="round" stroke-miterlimit="10"/><path d="M115.7 57.5c-.6 1.3-1.9 2.3-3.4 2.3-2.1 0-3.7-1.7-3.7-3.7s1.7-3.7 3.7-3.7c1.5 0 2.8.9 3.4 2.2M112.2 56h-4.4" fill="none" stroke="currentColor" stroke-width="2" stroke-linecap="round" stroke-linejoin="round" stroke-miterlimit="10"/><circle cx="60" cy="111.7" r="2.3" fill="none" stroke="currentColor" stroke-width="2" stroke-linecap="round" stroke-linejoin="round" stroke-miterlimit="10"/><path d="M60 138.9c-2.3-1.2-5-3.2-7.8-6.5L41.6 129l-1.8-12.4s7.6-2.2 8.4-3.6c3.6-6.7 4.1-8.7 8.4-11.7 4.2-3 9.9-4.4 9.9-4.4s1.9-.3 2.5-1.5c.7-1.4-.8-3.3-2.1-5.2-2.6-3.9-4-5.8-2.7-7 .5-.5 5.2-1.5 11.2 4.5C78.6 91 80 94 80 94s1.3 2.8 3.9.7c2-1.6 9.6-7.8 19-8.7M121.6 88s12.5 2.4 18.7 17.5c5.3 13.1.5 24.6.5 24.6" fill="none" stroke="currentColor" stroke-width="2" stroke-linecap="round" stroke-linejoin="round" stroke-miterlimit="10"/><path d="M150 98.6s-6.1-.6-8.2-2.9c-1.7-1.8-1.8-3.1-.4-4 2.4-1.5 5.6 3.1 2.6 5.6-1.6 1.4-5.6 4.3-5.6 4.3" fill="none" stroke="currentColor" stroke-width="2" stroke-linecap="round" stroke-linejoin="round" stroke-miterlimit="10"/></symbol><symbol id="promo-profile" viewBox="0 0 190 190"><path class="st0" clip-rule="evenodd" fill="none" stroke="currentColor" stroke-width="2" stroke-linecap="round" stroke-linejoin="round" stroke-miterlimit="10" d="M113.6 106.9h35.8M113.6 95.8h35.8M113.6 84.8h35.8M113.6 73.8h17.9M132.3 140.5v-7.1s-.5-4.8-18.3-10.4c-17.9-5.6-18-15.7-18-15.7v-5s4.6-5.8 5.8-11.9c.6-3.2 1.8-3.9 2.4-4.5 1.5-1.5 1.6-2.6 1.6-3.8 0-1.2-.2-2.2-1.5-3.8V63.9s.2-14.4-17.7-14.5h-.1-.1C68.4 49.6 68.7 64 68.7 64v14.4c-1.3 1.6-1.5 2.6-1.5 3.8 0 1.2.1 2.3 1.6 3.8.6.6 1.8 1.3 2.4 4.5 1.2 6 5.8 11.9 5.8 11.9v5s-.1 10.1-18 15.7-18.3 10.4-18.3 10.4v7.1"/></symbol><symbol id="promo-projects" viewBox="0 0 190 190"><path clip-rule="evenodd" fill="none" stroke="currentColor" stroke-width="2" stroke-linecap="round" stroke-linejoin="round" stroke-miterlimit="10" d="M116.6 139.8V69.4H97.9V50.8H51v89h88M97.9 50.8l18.7 18.6M61.9 114.9h41.8M61.9 104.2h41.8M61.9 93.5h41.8M61.9 82.8h23.2M139 69.4v70.4M127.8 69.4v70.4"/></symbol><symbol id="promo-protection" viewBox="0 0 190 190"><path d="M94.9 45.5s-9.9 18-40 18v45s5.5 23.8 40 36c34.5-12.2 40-36 40-36v-45c-30.1 0-40-18-40-18z" clip-rule="evenodd" fill="none" stroke="currentColor" stroke-width="2" stroke-linecap="round" stroke-linejoin="round" stroke-miterlimit="10"/><path clip-rule="evenodd" fill="none" stroke="currentColor" stroke-width="2" stroke-linecap="round" stroke-linejoin="round" stroke-miterlimit="10" d="M83.4 94.6l8.7 10.1 14.3-19.4"/></symbol><symbol id="promo-saving" viewBox="0 0 190 190"><path d="M72.3 96.4c4.3-9.8 6.2-17.5 2.8-18.4-1.3-.3-3-.5-4.5 1.9-.5.8-1 1.7-1.4 2.6-.7 1.5-1.3 3.1-3 3.1-2.2 0-3.9-2.5-6.4-6-1.6-2.2-3.8-4-5.7-3-1.2.7-3.5 1.9 2 20.4 2.6-1.5 5.5-2.4 8.7-2.4 2.6-.1 5.1.6 7.5 1.8z" fill="none" stroke="currentColor" stroke-width="2" stroke-linecap="round" stroke-linejoin="round" stroke-miterlimit="10"/><path d="M88.2 126.6c0-11.3-6.2-25.2-15.9-30.2-2.3-1.2-4.9-1.9-7.6-1.9-3.1 0-6 .9-8.7 2.4-9.2 5.4-14.9 18.7-14.9 29.6 0 0-2 21.7 23.6 21.7 25.3 0 23.5-21.6 23.5-21.6z" fill="none" stroke="currentColor" stroke-width="2" stroke-linecap="round" stroke-linejoin="round" stroke-miterlimit="10"/><circle cx="64.7" cy="64.9" r="5.2" fill="none" stroke="currentColor" stroke-width="2" stroke-linecap="round" stroke-linejoin="round" stroke-miterlimit="10"/><circle cx="64.7" cy="47.2" r="5.2" fill="none" stroke="currentColor" stroke-width="2" stroke-linecap="round" stroke-linejoin="round" stroke-miterlimit="10"/><path d="M149.1 118.8V117s-.4-3.9-15.1-8.6c-14.7-4.6-14.8-13-14.8-13v-4.1s3.8-4.8 4.7-9.8c.5-2.7 1.5-3.2 2-3.7 1.3-1.2 1.4-2.1 1.4-3.1s-.2-1.8-1.3-3.1V59.7s.2-11.9-14.6-12h-.1-.1c-14.8.1-14.6 12-14.6 12v11.9c-1.1 1.3-1.3 2.1-1.3 3.1s.1 1.9 1.4 3.1c.5.5 1.5 1 2 3.7 1 5 4.7 9.8 4.7 9.8v4.1s-.1 8.3-14.8 13" clip-rule="evenodd" fill="none" stroke="currentColor" stroke-width="2" stroke-linecap="round" stroke-linejoin="round" stroke-miterlimit="10"/></symbol><symbol id="promo-transparancy" viewBox="0 0 190 190"><path d="M121.7 68c-6.8-12-19.7-20-34.4-20-21.8 0-39.6 17.7-39.6 39.6 0 14.8 8.1 27.6 20.1 34.4 6.8 12 19.7 20 34.4 20 21.8 0 39.6-17.7 39.6-39.6 0-14.7-8.1-27.6-20.1-34.4z" clip-rule="evenodd" fill="none" stroke="currentColor" stroke-width="2" stroke-miterlimit="10"/><path d="M67.9 122c-3.3-5.8-5.2-12.4-5.2-19.5 0-21.8 17.7-39.6 39.6-39.6 7.1 0 13.7 1.9 19.5 5.1" clip-rule="evenodd" fill="none" stroke="currentColor" stroke-width="2" stroke-linecap="round" stroke-miterlimit="10" stroke-dasharray="9,10"/></symbol><symbol id="promo-verified" viewBox="0 0 190 190"><path clip-rule="evenodd" fill="none" stroke="currentColor" stroke-width="2" stroke-linecap="round" stroke-linejoin="round" stroke-miterlimit="10" d="M70.5 68.2h49.1M70.5 79.8h49.1M70.5 91.4h49.1M70.5 102.9h49.1M70.5 114.5H95M130.5 53.7L135 59l7.6-10.3M128.4 150c4.5 0 8.2-3.7 8.2-8.2V81.7l-6.1 5.3V65.5c-4.2-2.2-7.1-6.6-7.2-11.7H61.4c-4.5 0-8.2 3.7-8.2 8.2v79.8c0 4.5 3.7 8.2 8.2 8.2"/><path d="M136.5 67c-2.2 0-4.3-.5-6.1-1.5v21.6l6.1-5.3 6.1 5.3V65.5c-1.8 1-3.9 1.5-6.1 1.5z" clip-rule="evenodd" fill="none" stroke="currentColor" stroke-width="2" stroke-linecap="round" stroke-linejoin="round" stroke-miterlimit="10"/><path d="M136.5 40.3c-7.4 0-13.3 6-13.3 13.3v.2c.1 5.1 3 9.5 7.2 11.7 1.8 1 3.9 1.5 6.1 1.5 2.2 0 4.3-.5 6.1-1.5 4.3-2.2 7.2-6.7 7.2-11.8.1-7.4-5.9-13.4-13.3-13.4z" clip-rule="evenodd" fill="none" stroke="currentColor" stroke-width="2" stroke-linecap="round" stroke-linejoin="round" stroke-miterlimit="10"/></symbol><symbol id="notification-account-borne" viewBox="0 0 100 100"><path d="M58.191 46.649s2.516.91 2.516-1.975M50.264 46.335a18.016 18.016 0 0 0-8.713-.138v-2.273a18.033 18.033 0 0 1 8.713.14v2.271z" fill="none" stroke="currentColor" stroke-linecap="round" stroke-linejoin="round" stroke-miterlimit="10"/><path d="M35.6 48.281a.913.913 0 1 1 .913.914.914.914 0 0 1-.914-.914" fill="currentColor"/><path d="M43.746 35.307a2.161 2.161 0 1 1 2.161 2.16 2.161 2.161 0 0 1-2.16-2.16" fill="#fff"/><circle cx="45.91" cy="35.31" r="2.16" fill="none" stroke="currentColor" stroke-linecap="round" stroke-linejoin="round" stroke-miterlimit="10"/><circle cx="45.91" cy="27.91" r="2.16" fill="none" stroke="currentColor" stroke-linecap="round" stroke-linejoin="round" stroke-miterlimit="10" opacity=".3"/><path d="M60.255 74.254a9.885 9.885 0 1 1 9.884-9.884M55.78 64h4.38" fill="none" stroke="currentColor" stroke-linecap="round" stroke-linejoin="round" stroke-miterlimit="10"/><path fill="none" stroke="currentColor" stroke-linecap="round" stroke-linejoin="round" stroke-miterlimit="10" d="M58.196 62.036l2.036 1.959-2.036 1.96"/><path fill="none" stroke="currentColor" stroke-linecap="round" stroke-linejoin="round" stroke-miterlimit="10" d="M57.943 59.495h5.177v9h-5.177M59.518 51.728c.01-.164.023-.327.023-.492 0-5.89-6.228-10.664-13.909-10.664A17.063 17.063 0 0 0 38.47 42.1a6.276 6.276 0 0 0-3.492-2.68h-3.006a8.784 8.784 0 0 1 2.881 5.098 10.459 10.459 0 0 0-2.205 2.918h-2.787v7.15h2.576a11.109 11.109 0 0 0 4.38 4.897l-2.057 5.463h4.143l1.449-3.847a17.59 17.59 0 0 0 5.28.8 17.867 17.867 0 0 0 2.22-.153"/></symbol><symbol id="notification-account-cb" viewBox="0 0 100 100"><path d="M58.191 46.649s2.516.91 2.516-1.975M50.264 46.335a18.016 18.016 0 0 0-8.713-.138v-2.273a18.033 18.033 0 0 1 8.713.14v2.271z" fill="none" stroke="currentColor" stroke-linecap="round" stroke-linejoin="round" stroke-miterlimit="10"/><path d="M35.6 48.281a.913.913 0 1 1 .913.914.914.914 0 0 1-.914-.914" fill="currentColor"/><circle cx="45.91" cy="35.31" r="2.16" fill="none" stroke="currentColor" stroke-linecap="round" stroke-linejoin="round" stroke-miterlimit="10"/><path d="M60.255 74.254a9.885 9.885 0 1 1 9.884-9.884M54.449 66.94l1.471-6.342 10.14 2.353-1.47 6.342z" fill="none" stroke="currentColor" stroke-linecap="round" stroke-linejoin="round" stroke-miterlimit="10"/><path d="M65.043 65.938a.734.734 0 0 1-.171-.02l-9.03-2.095a.75.75 0 1 1 .34-1.46l9.03 2.094a.75.75 0 0 1-.17 1.48z" fill="currentColor"/><circle cx="45.91" cy="27.91" r="2.16" fill="none" stroke="currentColor" stroke-linecap="round" stroke-linejoin="round" stroke-miterlimit="10" opacity=".3"/><path d="M59.518 51.728c.01-.164.023-.327.023-.492 0-5.89-6.228-10.664-13.909-10.664A17.063 17.063 0 0 0 38.47 42.1a6.276 6.276 0 0 0-3.492-2.68h-3.006a8.784 8.784 0 0 1 2.881 5.098 10.459 10.459 0 0 0-2.205 2.918h-2.787v7.15h2.576a11.109 11.109 0 0 0 4.38 4.897l-2.057 5.463h4.143l1.449-3.847a17.59 17.59 0 0 0 5.28.8 17.867 17.867 0 0 0 2.22-.153" fill="none" stroke="currentColor" stroke-linecap="round" stroke-linejoin="round" stroke-miterlimit="10"/></symbol><symbol id="notification-account-lowbalance" viewBox="0 0 100 100"><path d="M58.203 39.811s2.516.911 2.516-1.975M50.275 39.498a18.016 18.016 0 0 0-8.713-.138v-2.273a18.033 18.033 0 0 1 8.713.139v2.272z" fill="none" stroke-linecap="round" stroke-linejoin="round" stroke="currentColor"/><path d="M35.61 41.444a.913.913 0 1 1 .915.914.914.914 0 0 1-.914-.914" fill="currentColor"/><path d="M59.53 44.89c.01-.163.023-.327.023-.492 0-5.89-6.228-10.664-13.91-10.664a17.063 17.063 0 0 0-7.161 1.528 6.276 6.276 0 0 0-3.492-2.679h-3.006a8.784 8.784 0 0 1 2.88 5.097 10.459 10.459 0 0 0-2.204 2.918h-2.787v7.151h2.576a11.109 11.109 0 0 0 4.38 4.896l-2.057 5.463h4.143l1.449-3.847a17.59 17.59 0 0 0 5.28.8 17.867 17.867 0 0 0 2.22-.153" fill="none" stroke-linecap="round" stroke-linejoin="round" stroke="currentColor"/><path fill="none" stroke-linecap="round" stroke-linejoin="round" stroke="#f7941e" d="M63.66 54.11l-6.75 6.76M61.413 60.862l-4.588.088.089-4.587M60.244 67.417a9.885 9.885 0 1 1 9.884-9.884"/></symbol><symbol id="notification-account-notauto" viewBox="0 0 100 100"><title>notifications</title><path d="M58.203 39.811s2.516.911 2.516-1.975M50.275 39.498a18.016 18.016 0 0 0-8.713-.138v-2.273a18.033 18.033 0 0 1 8.713.139v2.272z" fill="none" stroke-linecap="round" stroke-linejoin="round" stroke="currentColor"/><path d="M35.61 41.444a.913.913 0 1 1 .915.914.914.914 0 0 1-.914-.914" fill="currentColor"/><path d="M59.53 44.89c.01-.163.023-.327.023-.492 0-5.89-6.228-10.664-13.91-10.664a17.063 17.063 0 0 0-7.161 1.528 6.276 6.276 0 0 0-3.492-2.679h-3.006a8.784 8.784 0 0 1 2.88 5.097 10.459 10.459 0 0 0-2.204 2.918h-2.787v7.151h2.576a11.109 11.109 0 0 0 4.38 4.896l-2.057 5.463h4.143l1.449-3.847a17.59 17.59 0 0 0 5.28.8 17.867 17.867 0 0 0 2.22-.153" fill="none" stroke-linecap="round" stroke-linejoin="round" stroke="currentColor"/><path d="M60.244 67.417a9.885 9.885 0 1 1 9.884-9.884M54.91 55.89h10.66v3.28H54.91z" fill="none" stroke-linecap="round" stroke-linejoin="round" stroke="#ed1c24"/></symbol><symbol id="notification-account-withdraw" viewBox="0 0 100 100"><path d="M62.907 51.71s2.516.91 2.516-1.976M54.98 51.396a18.016 18.016 0 0 0-8.713-.138v-2.273a18.033 18.033 0 0 1 8.713.139v2.272z" fill="none" stroke="currentColor" stroke-linecap="round" stroke-linejoin="round"/><path d="M64.257 56.296c0-5.89-6.227-10.664-13.91-10.664a17.063 17.063 0 0 0-7.161 1.528 6.276 6.276 0 0 0-3.492-2.68h-3.006a8.786 8.786 0 0 1 2.88 5.099 10.46 10.46 0 0 0-2.204 2.917h-2.787v7.15h2.576a11.109 11.109 0 0 0 4.38 4.897l-2.057 5.463h4.143l1.449-3.847a17.8 17.8 0 0 0 10.559 0l1.449 3.847h4.143l-2.057-5.463c3.11-1.955 5.095-4.923 5.095-8.247z" fill="none" stroke="currentColor" stroke-linecap="round" stroke-linejoin="round"/><path d="M40.315 53.342a.913.913 0 1 1 .914.914.914.914 0 0 1-.914-.914M51 41.58V30.33M47.258 34.09l3.744-3.891 3.744 3.891" fill="none" stroke="currentColor" stroke-linecap="round" stroke-linejoin="round"/></symbol><symbol id="notification-circle-accepted" viewBox="0 0 100 100"><path d="M50 59.885a9.885 9.885 0 1 1 9.884-9.884M53.612 46.684l-4.564 6.564-2.818-3.025" fill="none" stroke="#00a14b" stroke-linecap="round" stroke-linejoin="round"/></symbol><symbol id="notification-circle-inprogress" viewBox="0 0 100 100"><path d="M50 59.885a9.885 9.885 0 1 1 9.884-9.884M50.04 45.83v4.24M47.18 51.52l2.86-1.45M50 56.68A6.679 6.679 0 1 1 56.679 50" fill="none" stroke="#f7941e" stroke-linecap="round" stroke-linejoin="round"/></symbol><symbol id="notification-circle-justice" viewBox="0 0 100 100"><path d="M50 60.046a9.885 9.885 0 1 1 9.884-9.884M44.001 51.826l1.967-6.069 1.983 6.064" fill="none" stroke="#f7941e" stroke-linecap="round" stroke-linejoin="round"/><path fill="none" stroke="#f7941e" stroke-linecap="round" stroke-linejoin="round" d="M52.107 51.826l1.967-6.069 1.983 6.064M45.968 45.757h8.106M50.02 56.16v-10.4M56.057 51.975a1.975 1.975 0 1 1-3.95 0M47.893 51.975a1.975 1.975 0 1 1-3.95 0M48.6 56.16h3.04"/></symbol><symbol id="notification-circle-lowsell" viewBox="0 0 100 100"><path fill="none" stroke="#f7941e" stroke-linecap="round" stroke-linejoin="round" d="M53.42 46.58l-6.76 6.76M51.17 53.33l-4.588.088.089-4.587M50 59.885a9.885 9.885 0 1 1 9.884-9.884"/></symbol><symbol id="notification-circle-notauto" viewBox="0 0 100 100"><path d="M50 59.885a9.885 9.885 0 1 1 9.884-9.884M44.67 48.36h10.66v3.28H44.67z" fill="none" stroke="#ed1c24" stroke-linecap="round" stroke-linejoin="round"/></symbol><symbol id="notification-circle-palace" viewBox="0 0 100 100"><path d="M50 59.885a9.885 9.885 0 1 1 9.884-9.884M54.791 48.213L50 44.834l-4.791 3.379h9.582zM45.51 50.02v2.89M50 50.02v2.89M54.49 50.02v2.89M44.97 54.54h10.06" fill="none" stroke="#f7941e" stroke-linecap="round" stroke-linejoin="round"/></symbol><symbol id="notification-circle-paused" viewBox="0 0 100 100"><path d="M50 59.885a9.885 9.885 0 1 1 9.884-9.884M48.57 48.2v3.6M51.43 48.2v3.6" fill="none" stroke="#f7941e" stroke-linecap="round" stroke-linejoin="round"/></symbol><symbol id="notification-circle-plus" viewBox="0 0 100 100"><path d="M50 59.885a9.885 9.885 0 1 1 9.884-9.884M45.36 50h9.28M50 45.36v9.28" fill="none" stroke="#00a14b" stroke-linecap="round" stroke-linejoin="round"/></symbol><symbol id="notification-circle-recovery" viewBox="0 0 100 100"><path d="M50 59.9c-5.5 0-9.9-4.4-9.9-9.9s4.4-9.9 9.9-9.9 9.9 4.4 9.9 9.9" fill="none" stroke="#f7941e" stroke-linecap="round" stroke-linejoin="round"/><path fill="none" stroke="#f7941e" stroke-linecap="round" stroke-linejoin="round" d="M44.9 53.1l2.9-3 3 3 3.6-6.1"/><path fill="none" stroke="#f7941e" stroke-linecap="round" stroke-linejoin="round" d="M51.6 47.7l2.8-.7.7 2.8"/></symbol><symbol id="notification-circle-rejected" viewBox="0 0 100 100"><path d="M50 59.885a9.885 9.885 0 1 1 9.884-9.884M46.64 53.27l6.56-6.57M46.64 46.7l6.56 6.57" fill="none" stroke="#ed1c24" stroke-linecap="round" stroke-linejoin="round"/></symbol><symbol id="notification-enterprise-accepted" viewBox="0 0 100 100"><title>notifications</title><path fill="none" stroke-linecap="round" stroke-linejoin="round" stroke="currentColor" d="M45.455 59.095H33V37.504h25.16v4.999"/><path fill="none" stroke-linecap="round" stroke-linejoin="round" stroke="currentColor" d="M35.82 41.82h3.75v4.13h-3.75zM43.71 41.82h3.75v4.13h-3.75zM51.593 44.948v-3.125h3.75v1.563M43.705 59.095v-8.772h2.75M34.42 34.95h22.31"/><path d="M58.16 65.375a9.885 9.885 0 1 1 9.884-9.884M61.772 52.174l-4.564 6.564-2.818-3.025" fill="none" stroke-linecap="round" stroke-linejoin="round" stroke="#00a14b"/></symbol><symbol id="notification-enterprise-inprogress" viewBox="0 0 100 100"><title>notifications</title><path fill="none" stroke="currentColor" stroke-linecap="round" stroke-linejoin="round" d="M45.5 59.1H33V37.5h25.2v5"/><path fill="none" stroke="currentColor" stroke-linecap="round" stroke-linejoin="round" d="M35.8 41.9h3.8V46h-3.8zM43.7 41.9h3.8V46h-3.8zM51.6 45v-3.1h3.7v1.5M43.7 59.1v-8.7h2.8M34.4 35h22.3"/><path fill="none" stroke="#f7941e" stroke-linecap="round" stroke-linejoin="round" d="M58.2 51.4v4.2M55.3 57l2.9-1.4M58.2 65.4c-5.5 0-9.9-4.4-9.9-9.9s4.4-9.9 9.9-9.9 9.9 4.4 9.9 9.9M58.2 62.2a6.7 6.7 0 1 1 6.7-6.7"/></symbol><symbol id="notification-enterprise-justice" viewBox="0 0 100 100"><title>notifications</title><path fill="none" stroke="currentColor" stroke-linecap="round" stroke-linejoin="round" d="M45.5 59.1H33V37.5h25.2v5"/><path fill="none" stroke="currentColor" stroke-linecap="round" stroke-linejoin="round" d="M35.8 41.8h3.8v4.1h-3.8zM43.7 41.8h3.8v4.1h-3.8zM51.6 44.9v-3.1h3.7v1.6M43.7 59.1v-8.8h2.8M34.4 34.9h22.3"/><path d="M58.2 65.4c-5.5 0-9.9-4.4-9.9-9.9s4.4-9.9 9.9-9.9S68 50 68 55.5" fill="none" stroke="#f7941e" stroke-linecap="round" stroke-linejoin="round"/><path fill="none" stroke="#f7941e" stroke-linecap="round" stroke-linejoin="round" d="M52.2 57.2l1.9-6.1 2 6M60.3 57.2l1.9-6.1 2 6M54.1 51.1h8.1M58.2 61.5V51.1M64.2 57.3c0 1.1-.9 2-2 2s-2-.9-2-2M56.1 57.3c0 1.1-.9 2-2 2s-2-.9-2-2M56.8 61.5h3"/></symbol><symbol id="notification-enterprise-palace" viewBox="0 0 100 100"><path fill="none" stroke="currentColor" stroke-linecap="round" stroke-linejoin="round" d="M45.5 59.1H33V37.5h25.2v5"/><path fill="none" stroke="currentColor" stroke-linecap="round" stroke-linejoin="round" d="M35.8 41.8h3.8v4.1h-3.8zM43.7 41.8h3.8v4.1h-3.8zM51.6 44.9v-3.1h3.7v1.6M43.7 59.1v-8.8h2.8M34.4 34.9h22.3"/><path d="M58.2 65.4c-5.5 0-9.9-4.4-9.9-9.9s4.4-9.9 9.9-9.9S68 50 68 55.5" fill="none" stroke="#f7941e" stroke-linecap="round" stroke-linejoin="round"/><path fill="none" stroke="#f7941e" stroke-linecap="round" stroke-linejoin="round" d="M63 53.7l-4.8-3.4-4.8 3.4zM53.7 55.5v2.9M58.2 55.5v2.9M62.7 55.5v2.9M53.1 60h10.1"/></symbol><symbol id="notification-enterprise-paused" viewBox="0 0 100 100"><path fill="none" stroke="currentColor" stroke-linecap="round" stroke-linejoin="round" d="M45.5 59.1H33V37.5h25.2v5"/><path fill="none" stroke="currentColor" stroke-linecap="round" stroke-linejoin="round" d="M35.8 41.8h3.8v4.1h-3.8zM43.7 41.8h3.8v4.1h-3.8zM51.6 44.9v-3.1h3.7v1.6M43.7 59.1v-8.8h2.8M34.4 34.9h22.3"/><path d="M58.2 65.4c-5.5 0-9.9-4.4-9.9-9.9s4.4-9.9 9.9-9.9S68 50 68 55.5M56.7 53.7v3.6M59.6 53.7v3.6" fill="none" stroke="#f7941e" stroke-linecap="round" stroke-linejoin="round"/></symbol><symbol id="notification-enterprise-recovery" viewBox="0 0 100 100"><title>notifications</title><path fill="none" stroke-linecap="round" stroke-linejoin="round" stroke="currentColor" d="M45.455 59.095H33V37.504h25.16v4.999"/><path fill="none" stroke-linecap="round" stroke-linejoin="round" stroke="currentColor" d="M35.82 41.82h3.75v4.13h-3.75zM43.71 41.82h3.75v4.13h-3.75zM43.705 59.095v-8.772h2.75M34.42 34.95h22.31M51.593 44.948v-3.125h3.75v1.563"/><path d="M58.16 65.375a9.885 9.885 0 1 1 9.884-9.884M53.045 58.532l2.962-2.961 2.961 2.961 3.598-6.085" fill="none" stroke-linecap="round" stroke-linejoin="round" stroke="#f7941e"/><path fill="none" stroke-linecap="round" stroke-linejoin="round" stroke="#f7941e" d="M59.788 53.156l2.778-.709.709 2.778"/></symbol><symbol id="notification-enterprise-rejected" viewBox="0 0 100 100"><path fill="none" stroke-linecap="round" stroke-linejoin="round" stroke="currentColor" d="M45.455 59.095H33V37.504h25.16v4.999"/><path fill="none" stroke-linecap="round" stroke-linejoin="round" stroke="currentColor" d="M35.82 41.82h3.75v4.13h-3.75zM43.71 41.82h3.75v4.13h-3.75zM51.593 44.948v-3.125h3.75v1.563M43.705 59.095v-8.772h2.75M34.42 34.95h22.31"/><path d="M58.16 65.375a9.885 9.885 0 1 1 9.884-9.884M54.8 58.76l6.56-6.57M54.8 52.19l6.56 6.56" fill="none" stroke-linecap="round" stroke-linejoin="round" stroke="#ed1c24"/></symbol><symbol id="notification-offer-accepted" viewBox="0 0 100 100"><path fill="none" stroke-linecap="round" stroke-linejoin="round" stroke="currentColor" d="M44.186 57.784h-10.74V29.536h22.072v18.128"/><circle cx="44.48" cy="35.73" r="3.03" fill="none" stroke-linecap="round" stroke-linejoin="round" stroke="currentColor"/><path fill="none" stroke-linecap="round" stroke-linejoin="round" stroke="currentColor" d="M42.596 38.102v4.691l1.885-1.979 1.886 1.979v-4.691M38.17 45.94H50.5M38.17 49.47H50.5M38.17 53.17h8.18"/><path d="M56.67 70.434a9.885 9.885 0 1 1 9.884-9.884M60.282 57.233l-4.564 6.564-2.818-3.025" fill="none" stroke-linecap="round" stroke-linejoin="round" stroke="#00a14b"/></symbol><symbol id="notification-offer-rejected" viewBox="0 0 100 100"><path fill="none" stroke-linecap="round" stroke-linejoin="round" stroke="currentColor" d="M44.186 57.784h-10.74V29.536h22.072v18.128"/><circle cx="44.48" cy="35.73" r="3.03" fill="none" stroke-linecap="round" stroke-linejoin="round" stroke="currentColor"/><path fill="none" stroke-linecap="round" stroke-linejoin="round" stroke="currentColor" d="M42.596 38.102v4.691l1.885-1.979 1.886 1.979v-4.691M38.17 45.94H50.5M38.17 49.47H50.5M38.17 53.17h8.18"/><path fill="none" stroke-linecap="round" stroke-linejoin="round" stroke="#ed1c24" d="M53.31 63.81l6.56-6.56M53.31 57.25l6.56 6.56M56.67 70.434a9.885 9.885 0 1 1 9.884-9.884"/></symbol><symbol id="notification-project-added" viewBox="0 0 100 100"><path fill="none" stroke-linecap="round" stroke-linejoin="round" stroke="currentColor" d="M39.1 42.22h11.92M39.1 45.63h11.92M39.1 49.22h11.92M56.095 47.358v-17.42H42.779v8.757h-8.757v21.224h9.037M42.78 29.94l-8.76 8.76"/><path d="M56.094 70.062a9.885 9.885 0 1 1 9.884-9.884M51.45 60.18h9.29M56.09 55.54v9.28" fill="none" stroke-linecap="round" stroke-linejoin="round" stroke="#00a14b"/></symbol></svg>