<?xml version="1.0" encoding="utf-8"?>
<!-- Generator: Adobe Illustrator 19.2.1, SVG Export Plug-In . SVG Version: 6.00 Build 0)  -->
<svg version="1.1" xmlns="http://www.w3.org/2000/svg" xmlns:xlink="http://www.w3.org/1999/xlink" x="0px" y="0px"
	 viewBox="0 0 300 300" style="enable-background:new 0 0 300 300;" xml:space="preserve">
<path style="fill-rule:evenodd;clip-rule:evenodd;fill:none;stroke:currentColor;stroke-width:4;stroke-linecap:round;stroke-linejoin:round;stroke-miterlimit:10;" d="M129.8,127.1c-8.8,1.7-18.4,2.6-28.3,2.6c-16.1,0-31.1-2.4-43.8-6.5l-5.6-2
	c-19.3-7.5-31.8-19.3-31.8-32.6v34.6c0,13.2,12.3,25,31.4,32.5c0.1,0.1,0.3,0.1,0.4,0.1c13.7,5.3,30.8,8.5,49.4,8.5
	c5.7,0,11.2-0.3,16.5-0.9"/>
<path style="fill-rule:evenodd;clip-rule:evenodd;fill:none;stroke:currentColor;stroke-width:4;stroke-linecap:round;stroke-linejoin:round;stroke-miterlimit:10;" d="M121.9,195.5c-6.5,0.9-13.4,1.3-20.4,1.3c-18.6,0-35.7-3.2-49.4-8.5c-0.1,0-0.3-0.1-0.4-0.1
	c-19.1-7.5-31.4-19.3-31.4-32.5v32.5c0,1.5,0.2,2.9,0.5,4.3c4.3,20.7,38.8,36.8,80.7,36.8c13.6,0,26.3-1.7,37.6-4.7"/>
<path style="fill-rule:evenodd;clip-rule:evenodd;fill:none;stroke:currentColor;stroke-width:4;stroke-linecap:round;stroke-linejoin:round;stroke-miterlimit:10;" d="M118,163.5c-5.3,0.6-10.8,0.9-16.5,0.9c-18.6,0-35.7-3.2-49.4-8.5c-0.1-0.1-0.3-0.1-0.4-0.1
	c-19.1-7.5-31.4-19.3-31.4-32.5v32.5c0,13.2,12.3,25,31.4,32.5c0.1,0.1,0.3,0.1,0.4,0.1c13.7,5.3,30.8,8.5,49.4,8.5
	c7.1,0,13.9-0.5,20.4-1.3"/>
<path style="fill-rule:evenodd;clip-rule:evenodd;fill:none;stroke:currentColor;stroke-width:4;stroke-linecap:round;stroke-linejoin:round;stroke-miterlimit:10;" d="M182.6,90.2c0-0.5,0.1-1.1,0.1-1.6c0-22.7-36.3-41.1-81.2-41.1c-44.8,0-81.2,18.4-81.2,41.1
	c0,13.3,12.5,25.1,31.8,32.6c1.8,0.7,3.7,1.4,5.6,2c12.6,4.1,27.6,6.5,43.8,6.5c10,0,19.5-0.9,28.3-2.6"/>
<path style="fill-rule:evenodd;clip-rule:evenodd;fill:none;stroke:currentColor;stroke-width:4;stroke-linecap:round;stroke-linejoin:round;stroke-miterlimit:10;" d="M198.9,88.5c-5.6,0-11,0.6-16.3,1.6c-20.7,4.2-38.5,16.3-50.2,33c-0.9,1.3-1.8,2.6-2.6,3.9
	c-5.3,8.6-9,18.2-10.9,28.6c-0.4,2.6-0.8,5.2-1,7.8c-0.2,2.1-0.3,4.2-0.3,6.3c0,6.3,0.7,12.5,2.1,18.4c0.6,2.5,1.3,4.9,2.1,7.3
	c3.7,10.9,9.5,20.8,17.2,29.1c14.8,16.2,36.1,26.3,59.8,26.3c44.8,0,81.2-36.4,81.2-81.2C280.1,124.9,243.8,88.5,198.9,88.5z"/>
<path style="fill-rule:evenodd;clip-rule:evenodd;fill:none;stroke:currentColor;stroke-width:4;stroke-linecap:round;stroke-linejoin:round;stroke-miterlimit:10;" d="M241.4,194.6c-8.2,12.7-22.4,21.1-38.6,21.1c-25.4,0-45.9-20.6-45.9-45.9s20.6-45.9,45.9-45.9
	c17.2,0,32.2,9.5,40.1,23.5"/>
<line style="fill-rule:evenodd;clip-rule:evenodd;fill:none;stroke:currentColor;stroke-width:4;stroke-linecap:round;stroke-linejoin:round;stroke-miterlimit:10;" x1="143.8" y1="162.6" x2="218.5" y2="162.6"/>
<line style="fill-rule:evenodd;clip-rule:evenodd;fill:none;stroke:currentColor;stroke-width:4;stroke-linecap:round;stroke-linejoin:round;stroke-miterlimit:10;" x1="218.5" y1="176.9" x2="143.8" y2="176.9"/>
</svg>
