<?xml version="1.0" encoding="utf-8"?>
<!-- Generator: Adobe Illustrator 19.2.1, SVG Export Plug-In . SVG Version: 6.00 Build 0)  -->
<svg version="1.1" xmlns="http://www.w3.org/2000/svg" xmlns:xlink="http://www.w3.org/1999/xlink" x="0px" y="0px"
	 viewBox="0 0 300 300" style="enable-background:new 0 0 300 300;" xml:space="preserve">
	<line style="fill:none;stroke:currentColor;stroke-width:4;stroke-linecap:round;stroke-linejoin:round;stroke-miterlimit:10;" x1="169" y1="83.5" x2="217.5" y2="83.5"/>
	<line style="fill:none;stroke:currentColor;stroke-width:4;stroke-linecap:round;stroke-linejoin:round;stroke-miterlimit:10;" x1="83.2" y1="83.5" x2="131.6" y2="83.5"/>
	<line style="fill:none;stroke:currentColor;stroke-width:4;stroke-linecap:round;stroke-linejoin:round;stroke-miterlimit:10;" x1="150.3" y1="64.8" x2="150.3" y2="53.6"/>
	<line style="fill:none;stroke:currentColor;stroke-width:4;stroke-linecap:round;stroke-linejoin:round;stroke-miterlimit:10;" x1="150.3" y1="244.6" x2="150.3" y2="102.2"/>
	<line style="fill:none;stroke:currentColor;stroke-width:4;stroke-linecap:round;stroke-linejoin:round;stroke-miterlimit:10;" x1="116.7" y1="244.6" x2="183.9" y2="244.6"/>
	<circle style="fill:none;stroke:currentColor;stroke-width:4;stroke-linecap:round;stroke-linejoin:round;stroke-miterlimit:10;" cx="150.3" cy="83.5" r="18.7"/>
	<line style="fill:none;stroke:currentColor;stroke-width:4;stroke-linecap:round;stroke-linejoin:round;stroke-miterlimit:10;" x1="183.9" y1="184" x2="251" y2="184"/>
	<path style="fill:none;stroke:currentColor;stroke-width:4;stroke-linecap:round;stroke-linejoin:round;stroke-miterlimit:10;" d="M251.1,184c0,18.5-15,33.6-33.6,33.6c-18.6,0-33.6-15-33.6-33.6"/>
	<path style="fill:none;stroke:currentColor;stroke-width:4;stroke-linecap:round;stroke-linejoin:round;stroke-miterlimit:10;" d="M233.3,197.1c-3.8,4.6-9.5,7.5-15.8,7.5"/>
	<path style="fill:none;stroke:currentColor;stroke-width:4;stroke-linecap:round;stroke-linejoin:round;stroke-miterlimit:10;" d="M99,197.1c-3.8,4.6-9.5,7.5-15.8,7.5"/>
	<polyline style="fill:none;stroke:currentColor;stroke-width:4;stroke-linecap:round;stroke-linejoin:round;stroke-miterlimit:10;" points="183.9,183.9 217.5,83.5 251.1,183.9 	"/>
	<line style="fill:none;stroke:currentColor;stroke-width:4;stroke-linecap:round;stroke-linejoin:round;stroke-miterlimit:10;" x1="49.6" y1="184" x2="116.7" y2="184"/>
	<path style="fill:none;stroke:currentColor;stroke-width:4;stroke-linecap:round;stroke-linejoin:round;stroke-miterlimit:10;" d="M116.8,184c0,18.5-15,33.6-33.6,33.6c-18.6,0-33.6-15-33.6-33.6"/>
	<polyline style="fill:none;stroke:currentColor;stroke-width:4;stroke-linecap:round;stroke-linejoin:round;stroke-miterlimit:10;" points="49.6,183.9 83.2,83.5 116.8,183.9 	"/>
</svg>
