<?xml version="1.0" encoding="utf-8"?>
<!-- Generator: Adobe Illustrator 19.2.1, SVG Export Plug-In . SVG Version: 6.00 Build 0)  -->
<svg version="1.1" id="Calque_1" xmlns="http://www.w3.org/2000/svg" xmlns:xlink="http://www.w3.org/1999/xlink" x="0px" y="0px"
	 viewBox="0 0 300 300" xml:space="preserve">
	<polygon style="fill:none;stroke:currentColor;stroke-width:4;stroke-linecap:round;stroke-linejoin:round;stroke-miterlimit:10;" points="115.7528229,223.6439514 47.2584648,244.2447815 47.2584648,75.7461777 115.7528229,55.1453362 	"/>
	<polyline style="fill:none;stroke:currentColor;stroke-width:4;stroke-linecap:round;stroke-linejoin:round;stroke-miterlimit:10;" points="115.7528229,223.6439514 184.2471771,244.2447815 184.2471771,75.7461777 115.7528229,55.1453362
		"/>
	<polyline style="fill:none;stroke:currentColor;stroke-width:4;stroke-linecap:round;stroke-linejoin:round;stroke-miterlimit:10;" points="184.2471771,75.7461777 252.7415314,55.1453362 252.7415314,223.6439514 184.2471771,244.2447815
		"/>
			<path style="fill:none;stroke:currentColor;stroke-width:4;stroke-linecap:round;stroke-linejoin:round;" d="M47.2584686,150.8143768c0,0,0.6756287-2.1661835,2.0208282-5.6454926"/>
			<path style="fill:none;stroke:currentColor;stroke-width:4;stroke-linecap:round;stroke-linejoin:round;stroke-dasharray:12.2945356,12.2945356;" d="M54.1918945,133.9030609c9.6674957-19.8410797,29.3881378-48.5193481,58.8061523-35.8270874
				c34.3370209,14.8145447,24.0105743,69.3482971,56.2133331,88.6298218
				c22.8946075,13.7082214,38.6711273-1.8859711,45.4062195-14.872406"/>
			<path style="fill:none;stroke:currentColor;stroke-width:4;stroke-linecap:round;stroke-linejoin:round;" d="M217.0618286,166.1855927c0.8108215-2.3608704,1.2246704-4.4038086,1.2246704-5.848999"/>
		<line style="fill:none;stroke:currentColor;stroke-width:4;stroke-linecap:round;stroke-linejoin:round;stroke-miterlimit:10;" x1="223.7076569" y1="140.2147675" x2="212.8653564" y2="151.0570679"/>
		<line style="fill:none;stroke:currentColor;stroke-width:4;stroke-linecap:round;stroke-linejoin:round;stroke-miterlimit:10;" x1="223.7076569" y1="151.0570679" x2="212.8653564" y2="140.2147675"/>
</svg>
