<?xml version="1.0" encoding="utf-8"?>
<!-- Generator: Adobe Illustrator 19.2.1, SVG Export Plug-In . SVG Version: 6.00 Build 0)  -->
<svg version="1.1" xmlns="http://www.w3.org/2000/svg" xmlns:xlink="http://www.w3.org/1999/xlink" x="0px" y="0px"
	 viewBox="0 0 100 100" style="enable-background:new 0 0 100 100;" xml:space="preserve">
	<title>notifications</title>
	<polyline style="fill:none;stroke:currentColor;stroke-linecap:round;stroke-linejoin:round;" points="45.5,59.1 33,59.1 33,37.5 58.2,37.5 58.2,42.5 	"/>
	<rect x="35.8" y="41.9" style="fill:none;stroke:currentColor;stroke-linecap:round;stroke-linejoin:round;" width="3.8" height="4.1"/>
	<rect x="43.7" y="41.9" style="fill:none;stroke:currentColor;stroke-linecap:round;stroke-linejoin:round;" width="3.8" height="4.1"/>
	<polyline style="fill:none;stroke:currentColor;stroke-linecap:round;stroke-linejoin:round;" points="51.6,45 51.6,41.9 55.3,41.9 55.3,43.4 	"/>
	<polyline style="fill:none;stroke:currentColor;stroke-linecap:round;stroke-linejoin:round;" points="43.7,59.1 43.7,50.4 46.5,50.4 	"/>
	<line style="fill:none;stroke:currentColor;stroke-linecap:round;stroke-linejoin:round;" x1="34.4" y1="35" x2="56.7" y2="35"/>
	<line style="fill:none;stroke:#F7941E;stroke-linecap:round;stroke-linejoin:round;" x1="58.2" y1="51.4" x2="58.2" y2="55.6"/>
	<line style="fill:none;stroke:#F7941E;stroke-linecap:round;stroke-linejoin:round;" x1="55.3" y1="57" x2="58.2" y2="55.6"/>
	<path style="fill:none;stroke:#F7941E;stroke-linecap:round;stroke-linejoin:round;" d="M58.2,65.4c-5.5,0-9.9-4.4-9.9-9.9s4.4-9.9,9.9-9.9s9.9,4.4,9.9,9.9c0,0,0,0,0,0"/>
	<path style="fill:none;stroke:#F7941E;stroke-linecap:round;stroke-linejoin:round;" d="M58.2,62.2c-3.7,0-6.7-3-6.7-6.7c0-3.7,3-6.7,6.7-6.7c3.7,0,6.7,3,6.7,6.7l0,0"/>
</svg>
