<svg xmlns="http://www.w3.org/2000/svg" viewBox="0 0 270 270"><defs><style>.a{fill:#7c4ec4;}.b{fill:#4e2491;}.c,.h{fill:none;}.c,.d,.e,.g,.h{stroke:#263149;stroke-miterlimit:10;stroke-width:3px;}.d{fill:#fed9b7;}.e,.g{fill:#734741;}.f{fill:#263149;}.g,.h{stroke-linecap:round;}.i{fill:#ce4d75;}</style></defs><title>-avatar-level-</title><path class="a" d="M134.19 174.4c-6.36 0-12.57 1.6-18.13 2.6h35.85c-5.41-1-11.46-2.6-17.72-2.6z"/><path class="b" d="M165.36 182c-3.62-1-8.24-3-13.45-5h-35.86c-5.37 2-10.14 4-13.89 5h63.2z"/><path class="a" d="M93.58 186.4a2.25 2.25 0 0 1-.82.6h81.64a2.12 2.12 0 0 1-.79-.6s-3.13-1.4-8.25-4.4h-63.2c-5.31 3-8.58 4.4-8.58 4.4z"/><path class="b" d="M87.49 192h92c-1.52-2-3.33-3-5.13-5h-81.6c-1.99 2-3.76 3-5.27 5z"/><path class="a" d="M84.63 197h97.73c-.7-2-1.68-3-2.83-5h-92c-1.23 2-2.21 4-2.9 5z"/><path class="b" d="M83.55 202h99.9a39.3 39.3 0 0 0-1.09-5H84.63a37.6 37.6 0 0 0-1.08 5z"/><path class="a" d="M83 203.83V207h100v-3.17a7.38 7.38 0 0 0 .45-1.83h-99.9c-.03 1-.55 1.36-.55 1.83z"/><path class="b" d="M83 207h100v5H83z"/><path class="a" d="M83 212h100v5H83z"/><path class="b" d="M83 217h100v5H83z"/><path class="a" d="M83 222h100v5H83z"/><path class="b" d="M83 227h100v5H83z"/><path class="a" d="M83 236.58a9.48 9.48 0 0 0 2.6.42h97.12a1.08 1.08 0 0 1 .29.13V232H83v4.58z"/><path class="b" d="M101.21 242H167a85.51 85.51 0 0 0 15.74-5H85.6a82 82 0 0 0 15.61 5z"/><path class="a" d="M134.18 246c11.27 0 22.33-1 32.8-4h-65.77c10.49 3 21.7 4 32.97 4z"/><path class="c" d="M174.2 187.5s-18.3 17.58-39.13 17.58c-21.17 0-41-17.58-41-17.58-5.67 4-10.53 9.19-10.53 17v31.58a135.5 135.5 0 0 0 51.09 10A143.53 143.53 0 0 0 184.5 237v-32.5c-1-8.3-5.5-13.43-10.3-17z"/><path class="d" d="M133 163.5h2.53c4.19 0 7.59 2.69 7.59 6v6.66c20.06 2.75 30.76 11.34 30.76 11.34 0 10.51-39.6 20-39.6 20s-40.4-9.65-40.4-20a81.45 81.45 0 0 1 31.54-11.32v-6.68c.03-3.31 3.42-6 7.58-6z"/><rect class="e" x="114.46" y="23.91" width="39.68" height="41.53" rx="19.84" ry="19.84"/><path class="d" d="M89 117.68c-5.52 0-10-4.1-10-9.16s4.47-9.16 10-9.16M181 99.36c5.52 0 10 4.1 10 9.16s-4.47 9.16-10 9.16"/><path class="d" d="M134.22 69C94 69 87.33 99.5 87.33 99.5l-.3 17c.8 27 28 55 47.48 55s46.48-28 47.48-55l-1-17S174.45 69 134.22 69z"/><circle class="f" cx="152.3" cy="110.09" r="2.92"/><circle class="f" cx="117.7" cy="110.09" r="2.92"/><path class="g" d="M131.35 69.07a23.08 23.08 0 0 1-1-13.52"/><path class="h" d="M130.06 131.63a11.72 11.72 0 0 0 8.48 0"/><path class="i" d="M121 143.69c6.08 0 9.58-2.58 12.9-2.58s6.88 2.58 12.9 2.58a17.58 17.58 0 0 1-25.8 0z"/><path class="e" d="M183.5 92.21v4.58c0 .81 0 1.61-.07 2.41a47.4 47.4 0 0 1-1.62 10.31l-.58-10a1.31 1.31 0 0 0 0-.18h-2a52.94 52.94 0 0 1-47.87-30.29C93.88 70.58 87.55 99.5 87.55 99.5l-.82 8c-1.19-4.22-1.2-6.17-1.2-10.75v-4.54a49.15 49.15 0 0 1 40.79-48.28 48.06 48.06 0 0 1 8.19-.7 49.13 49.13 0 0 1 48.99 48.98z"/><path class="h" d="M106 104.34c8.08-6.6 10.93-3.05 21.37-2.5M163 104.34c-8.08-6.6-10.93-3.05-21.37-2.5"/><path class="c" d="M134.3 207.5v-6.37M170.94 241.08v-30.66M100.06 241.69v-31.27"/></svg>