<svg xmlns="http://www.w3.org/2000/svg" viewBox="0 0 270 270"><defs><style>.a,.h,.j,.l,.p{fill:none;}.b{fill:#285e9e;}.c{fill:#f5b006;}.d{fill:#1d1d1b;}.e{fill:#383189;}.f{fill:#734741;}.f,.g,.h,.i,.j,.p{stroke:#263149;}.f,.g,.h,.i,.j,.k,.l,.p{stroke-miterlimit:10;}.f,.g,.i,.j,.l,.p{stroke-width:3px;}.g{fill:#bdd8ff;}.h,.k{stroke-width:2px;}.i{fill:#fed9b7;}.j,.l{stroke-linecap:round;}.k{stroke:#534a4a;fill:url(#a);}.l{stroke:#0d2835;}.m{fill:#0d2835;}.n{fill:#263149;}.o{fill:#ce4d75;}</style><pattern id="a" width="62.5" height="59.57" patternTransform="translate(1148.52 29.14)" patternUnits="userSpaceOnUse" viewBox="0 0 62.5 59.57"><path d="M0 0h62.5v59.57H0z" class="a"/><path d="M0 0h62.5v59.57H0z" class="b"/><path d="M14.52 16.67l-2.68 1.41-9 4.19-.58-.1-.46-1.06.58-.93 13.55-6.44 3.51-1.85 7.7-3.41c.92-.54 2-1.46 3.07-.93l-.13 1.76z" class="c"/><path d="M30 18.58a11.75 11.75 0 0 1-2.83-1.41l-.1.24a47.64 47.64 0 0 1 2.24 5.36c-2.1-.88-3.71-3.27-6.1-3.61l-.34.44 5.95 8.53c.19.68 1.07 1.37.59 2l-.7-.13L20 23a21.84 21.84 0 0 1-2.24-1.41v.83L22 30l-.15.58h-.65l-7.85-7-.35.26c.34 2.29 1.56 4.63 1.75 7l-.58.1-5.59-4.76-.73.1c0 1.37.54 2.92.58 4.19-1.51 0-2.54-2-3.95-2.68l-.24.73L4 40.81v12.72c0 .39-.49.88 0 1.17l22.72.15.44-.59.38-9.26.1-8.19a1.09 1.09 0 0 0-.49-1.07l-15.79-.34h-.44l-.24 1.07-.1 11.36a2.29 2.29 0 0 0-.15 1.17l.34.2c3.66 0 6.68-.1 10.09.15l.34-.35-.1-6.92c-1.22-.44-2.87-.15-4.09-.24-.88 1.37.78 3.56-1 4.34l-1.27-.1c-1.27-1.71-.49-4.24-.68-6.34.24-.78 1.17-.49 1.75-.68l7.6.1.59.91-.21 10.44a5.2 5.2 0 0 1-.93 1.17l-14-.24a1.59 1.59 0 0 1-1.07-.93v-5.76l.58-11 .63-.7 19.56.15a1.6 1.6 0 0 1 1.32 1L29.64 55a3.17 3.17 0 0 1-.83 2.24H2.48a1.76 1.76 0 0 1-1.07-1.51l.15-18.24L2 27l.58-1 16.28-8c3.07-2.34 6.87-2.83 9.95-5.17a1.49 1.49 0 0 1 .93-.1l.49.59z" class="d"/><path d="M28.22 4.54L24 6.39l-13.42 6.34-7.41 3.6a2.85 2.85 0 0 1-.93.1 11.2 11.2 0 0 1-.44-4.29c1-.34 1.61 1.36 2.54 1.17a50.66 50.66 0 0 1-2.78-6.24l.34-.2c1.8.93 3.36 2.78 5.17 3.37l-.49-1L1.9 1.37a.67.67 0 0 1 .24-.74C3.8 1.51 5.21 3 6.82 4l5.95 4.68a1.23 1.23 0 0 0 .73-.49L10 1.12a.5.5 0 0 1 .2-.49l1.06.37 5.36 4.68c.44 0 .73 1 1.17.34-.29-1.63-.79-3.19-.93-4.9.54-.93 1 .34 1.51.34L22 4.73c1.74-.88 1.2-4.73 3.88-3.51 1.32 1 3.95.34 4.09 2.34z" class="e"/><path d="M45.73 42.85L43 41.44l-9-4.19-.58.1-.42 1.07.59.93 13.55 6.44 3.51 1.85L58.36 51c.93.54 2 1.46 3.07.93l-.15-1.76z" class="c"/><path d="M61.18 41a11.76 11.76 0 0 0-2.83 1.41l-.1-.24a47.63 47.63 0 0 0 2.24-5.36c-2.1.88-3.7 3.27-6.09 3.61l-.34-.44L60 31.4c.2-.68 1.07-1.37.59-2l-.68.1-8.68 7A21.47 21.47 0 0 0 49 37.93v-.83l4.24-7.61-.15-.59h-.68l-7.85 7-.34-.24c.34-2.29 1.56-4.63 1.75-7l-.59-.1-5.61 4.78-.73-.1c0-1.37.54-2.92.59-4.19-1.51 0-2.54 2-3.95 2.68l-.24-.73-.24-12.28V6c0-.39-.49-.88 0-1.17l22.72-.14.44.58.39 9.26.1 8.19a1.1 1.1 0 0 1-.49 1.07l-15.79.34h-.45l-.24-1.07-.1-11.36a2.31 2.31 0 0 1-.15-1.17l.34-.2c3.66 0 6.68.1 10.09-.15l.34.34-.1 6.92c-1.22.44-2.88.15-4.09.24-.88-1.37.78-3.56-1-4.34l-1.27.1c-1.27 1.71-.49 4.24-.68 6.34.25.78 1.17.49 1.75.68l7.6-.1.59-.93L55 9a5.11 5.11 0 0 0-.93-1.17L40 8.09A1.58 1.58 0 0 0 39 9v5.75l.58 11 .68.73 19.55-.15a1.6 1.6 0 0 0 1.32-1l-.29-20.84A3.18 3.18 0 0 0 60 2.24H33.69a1.76 1.76 0 0 0-1.07 1.51L32.76 22l.44 10.57.59.93 16.28 8c3.07 2.34 6.87 2.83 9.95 5.17a1.49 1.49 0 0 0 .93.1l.49-.59z" class="d"/><path d="M59.43 55l-4.19-1.85-13.46-6.35-7.41-3.61a2.81 2.81 0 0 0-.93-.1 11.21 11.21 0 0 0-.44 4.3c1 .34 1.61-1.37 2.54-1.17a50.59 50.59 0 0 0-2.78 6.24l.34.2c1.8-.93 3.36-2.78 5.17-3.36l-.49 1-4.68 7.86a.67.67 0 0 0 .24.73C35 58 36.42 56.55 38 55.58l6-4.68a1.22 1.22 0 0 1 .73.49l-3.51 7a.5.5 0 0 0 .2.49l1.07-.39 5.36-4.68c.44 0 .73-1 1.17-.34-.29 1.66-.78 3.22-.93 4.92.54.93 1-.34 1.51-.34l3.66-3.27c1.71.88 1.17 4.73 3.85 3.51C58.4 57.33 61 58 61.18 56z" class="e"/></pattern></defs><path d="M87.23 87.51h94.96V193.4H87.23z" class="f"/><path d="M175.1 183.51s-18.85-16-39.68-16c-21.17 0-40.22 16-40.22 16-5.67 4-9.7 9.19-9.7 17v29.83c14 5.66 31 8.76 47.92 8.76a134.48 134.48 0 0 0 52.08-10.42v-28.17c0-8.3-5.62-13.43-10.4-17z" class="g"/><path d="M134.71 185.68v53.42" class="h"/><path d="M133.6 155.51h2.53c4.19 0 7.59 2.69 7.59 6v6.66l7.09 2.43-15.94 19.4-16.67-19.24 7.81-2.57v-6.68c-.01-3.31 3.4-6 7.59-6zM89 109.69c-5.52 0-10-4.1-10-9.16s4.47-9.16 10-9.16M181 91.37c5.52 0 10 4.1 10 9.16s-4.47 9.16-10 9.16" class="i"/><path d="M134.17 52.51c-26 0-46.89 20-46.89 20l-.3 36c.8 27 28 55 47.48 55s46.48-28 47.48-55l-1-36s-21.26-20-46.77-20z" class="i"/><path d="M130.46 123.64c-1.33-.58 2.91 2.41 8.48 0" class="j"/><path d="M119.42 169.51L134.87 190l-12.28 6.5-10-23.78zM157.25 172.73l-10 23.78-12.38-6.51 15.55-20.5z" class="g"/><path d="M134.71 210.65v-17.51" class="k"/><path d="M130.29 104.45a4.5 4.5 0 1 1 9 0" class="l"/><rect width="23.89" height="23.6" x="139.24" y="92.39" class="l" rx="11.8" ry="11.8"/><path d="M165.61 102.1h-2.41a2 2 0 0 1-2-2v-2.41c0-1.1-1.1-2 0-2h4.42a2 2 0 0 1 2 2v2.42a2 2 0 0 1-2.01 1.99z" class="m"/><rect width="23.89" height="23.6" x="106.4" y="92.39" class="l" rx="11.8" ry="11.8" transform="rotate(-180 118.34 104.19)"/><path d="M103.91 102.1h2.42a2 2 0 0 0 2-2v-2.41c0-1.1 1.1-2 0-2h-4.42a2 2 0 0 0-2 2v2.42a2 2 0 0 0 2 1.99z" class="m"/><path d="M134.81 30.9c59.73 0 47.22 70.77 47.22 70.77s-7.09-42.16-36.42-42.16c0 35.14-58.28 42.16-58.28 42.16S75.08 30.9 134.81 30.9z" class="f"/><circle cx="151.14" cy="104.17" r="2.92" class="n"/><circle cx="118.3" cy="104.17" r="2.92" class="n"/><path d="M147.64 134.77c-2.23 3.07-6.27 8.06-12.93 8.06s-10.7-5-12.94-8.06c6.57 2.1 9.2-.33 12.94-.33s6.36 2.43 12.93.33z" class="o"/><path d="M170 233.93v-30.5M99.08 234.93v-31.5" class="p"/></svg>