<svg xmlns="http://www.w3.org/2000/svg" viewBox="0 0 270 270"><defs><style>.a{fill:#fff;}.b{fill:#b0dded;}.c,.f{fill:none;}.c,.d,.e,.f{stroke:#263149;stroke-miterlimit:10;stroke-width:3px;}.d{fill:#fed9b7;}.e{fill:#734741;}.f{stroke-linecap:round;}.g{fill:#263149;}</style></defs><title>-avatar-level-</title><path class="a" d="M174.76,192s-18.78-16-39.6-16c-21.17,0-40.34,16-40.34,16-5.67,4-9.82,9.19-9.82,17v28.83a132.34,132.34,0,0,0,50.48,9.76A137.32,137.32,0,0,0,185,238.17V209C185,200.65,179.54,195.52,174.76,192Z"/><polygon class="b" points="172.44 190.29 96.22 190.29 106.78 183.29 162 183.29 172.44 190.29"/><polygon class="b" points="184.44 207.18 84.45 207.18 86.45 200.18 182.33 200.18 184.44 207.18"/><rect class="b" x="84.45" y="217.07" width="99.99" height="7"/><rect class="b" x="98.45" y="233.95" width="71" height="7"/><path class="c" d="M174.51,192S155.86,176,135,176c-21.17,0-40.53,16-40.53,16-5.67,4-10,9.19-10,17v28.83A136.18,136.18,0,0,0,135,247.55a133.35,133.35,0,0,0,49.52-9.37V209C184.5,200.65,179.29,195.52,174.51,192Z"/><path class="d" d="M84.5,225.5V238c5,1.82,10,3.39,14,4.71V225.5h-14Z"/><path class="d" d="M169.5,225.5V243a92.54,92.54,0,0,0,14-4.58V225.5h-14Z"/><path class="c" d="M169.45,235.45v-23"/><path class="c" d="M98.5,235.45v-23"/><path class="d" d="M133.91,161h2a6,6,0,0,1,6,6v23c0,3.31-7,7-7,7s-7-3.69-7-7V167A6,6,0,0,1,133.91,161Z"/><path class="d" d="M83.48,122c-7.27,0-13.17-5.4-13.17-12.07s5.89-12.07,13.17-12.07"/><path class="d" d="M186.52,97.82c7.27,0,13.17,5.4,13.17,12.07S193.79,122,186.52,122"/><path class="d" d="M135.16,30c-26,0-50.89,34-50.89,34L84,122c0.8,27,23.54,50,51.48,50s50.48-23,51.48-50l-1-58S160.66,30,135.16,30Z"/><path class="e" d="M84,104.45s-17-52.06,26.38-75l6,5s11-10.47,36-12l3,10s45.32,9.82,31.09,72h-4v-22l-10-6v-14s-38.62-14.17-74.47,0v14l-10,6v22H84Z"/><polyline class="f" points="140.11 128.43 134.91 131.61 129.71 128.43"/><path class="f" d="M131,144.6s10.38,0.86,15.85-2.81"/><circle class="g" cx="152.73" cy="109.6" r="2.92"/><circle class="g" cx="118.12" cy="109.6" r="2.92"/><line class="f" x1="108.76" y1="104.69" x2="116.15" y2="97.3"/><line class="f" x1="154.76" y1="97.3" x2="162.15" y2="104.69"/></svg>