<svg xmlns="http://www.w3.org/2000/svg" viewBox="0 0 270 270"><defs><style>.a{fill:#fff8f8;}.a,.b,.c,.d,.e,.h{stroke:#263149;stroke-miterlimit:10;stroke-width:3px;}.b,.h{fill:none;}.c{fill:#fed9b7;}.d{fill:#fff;}.e{fill:#734741;}.f{fill:#534a4a;opacity:0.1;}.g{fill:#263149;}.h{stroke-linecap:round;}</style></defs><title>-avatar-level-</title><path class="a" d="M174.51,192S155.86,176,135,176c-21.17,0-40.53,16-40.53,16-5.67,4-10,9.19-10,17v28.83A136.18,136.18,0,0,0,135,247.6a133.35,133.35,0,0,0,49.52-9.37V209C184.5,200.71,179.29,195.57,174.51,192Z"/><path class="b" d="M170.56,242.7V212.51"/><path class="b" d="M99.69,242.7V212.51"/><path class="c" d="M133.91,165h2a6,6,0,0,1,6,6v11c0,0.75-7,13.17-7,13.17s-7-12.38-7-13.17V171A6,6,0,0,1,133.91,165Z"/><path class="d" d="M128,175l5,17-11.83,10V178.23Z"/><path class="d" d="M148.81,178.23V202L137,192l5-17Z"/><path class="c" d="M83.48,122c-7.27,0-13.17-5.4-13.17-12.07s5.89-12.07,13.17-12.07"/><path class="c" d="M186.52,97.87c7.27,0,13.17,5.4,13.17,12.07S193.79,122,186.52,122"/><path class="c" d="M134.79,25.71C108.8,25.71,83.9,64,83.9,64l-0.3,58c0.8,27,23.54,50,51.48,50s50.48-23,51.48-50l-1-58S180.73,25.71,134.79,25.71Z"/><path class="e" d="M172.1,62.45c-7.35-2.38-42.73-13-74.47-.44V76l-10,6v22h-4S67.39,78.9,83.18,48.56L83,40.28C106.94,11.66,140.11,26,140.11,26L145,22.73s25.53,3.52,30.68,21.89ZM175.95,45c9.29,10.83,17,29.31,10.16,59.06h-4V82l-10-6V62.45Z"/><path class="f" d="M186.14,122l0-20h-5.52v20c-10.81,18.13-25,22.12-25,22.12l-15-10.06-5.6,3-5.6-3-15.12,10.06s-14.24-4-25-22.12V102H83.63l0,20c0,28,25.48,49.75,51.06,50h0.43C160.66,171.76,186.14,150,186.14,122Z"/><circle class="g" cx="118.69" cy="107.18" r="3.42"/><circle class="g" cx="151.07" cy="107.8" r="3.42"/><path class="h" d="M161.19,107.18s-1.44-2.22-5.27-2.77l-11.77-1.67c-5.17-.74-5.05-4.87-5.05-4.87"/><path class="h" d="M109.09,107.18s1.44-2.22,5.27-2.77l11.77-1.67c5.17-.74,5.05-4.87,5.05-4.87"/><polyline class="h" points="140.11 132.68 134.91 135.86 129.71 132.68"/><path class="h" d="M123.91,146.34c3.49,5.25,12.9,3.27,20.84,3.27"/><path class="h" d="M123.43,141.05c-5.22,0-5.69,4.11-5.69,4.11"/><line class="b" x1="135.13" y1="192.17" x2="135.13" y2="247.6"/></svg>