<svg xmlns="http://www.w3.org/2000/svg" viewBox="0 0 270 270"><defs><style>.a,.d{fill:#4e2491;}.b{fill:#7c4ec4;}.c,.g,.h,.i,.j{fill:none;}.c,.d,.e,.f,.g{stroke:#263149;stroke-width:3px;}.c,.d,.e,.f,.g,.h,.i,.j{stroke-miterlimit:10;}.e{fill:#fed9b7;}.f{fill:#734741;}.g,.j{stroke-linecap:round;}.h,.i{stroke:#dba063;}.h{stroke-width:1.5px;}.i{stroke-width:2px;}.j{stroke:#4c302c;stroke-width:4px;}.k{fill:#263149;}</style></defs><title>-avatar-level-</title><path class="a" d="M174.71,190.35s-18.8-16-39.63-16c-21.17,0-40.3,16-40.3,16-5.67,4-9.78,9.19-9.78,17v28.83a132.34,132.34,0,0,0,50.48,9.76A137.32,137.32,0,0,0,185,236.57V207.36C185,199.05,179.49,193.92,174.71,190.35Z"/><path class="b" d="M185,212.69v5A74.77,74.77,0,0,1,173.9,216,76.5,76.5,0,0,0,155.34,214,76.74,76.74,0,0,0,136.76,216,83,83,0,0,1,117.15,218,83,83,0,0,1,97.54,216a73.8,73.8,0,0,0-12.44-1.79,0.19,0.19,0,0,1-.09,0v-5a0.16,0.16,0,0,0,.09,0,79.77,79.77,0,0,1,13.49,1.89,77.22,77.22,0,0,0,18.58,2,77.37,77.37,0,0,0,18.59-2,82.44,82.44,0,0,1,19.61-2,82,82,0,0,1,19.57,2A82.57,82.57,0,0,0,185,212.69Z"/><path class="b" d="M185,205.91a1.33,1.33,0,0,1-.08-0.12,80.64,80.64,0,0,1-11-1.77,76.5,76.5,0,0,0-18.59-2A77,77,0,0,0,136.77,204a83.09,83.09,0,0,1-19.61,2,81.66,81.66,0,0,1-19.61-2.16c-3.43-.72-6.75-0.86-11.76-1.86H85.73a45.81,45.81,0,0,1,2.36-4.72A81.23,81.23,0,0,1,98.56,199a77,77,0,0,0,18.59,2,77.58,77.58,0,0,0,18.6-1.94,82.55,82.55,0,0,1,19.61-2,84.2,84.2,0,0,1,19.79,2.05,64.28,64.28,0,0,0,8.86,1.47V201h-0.31A12.48,12.48,0,0,1,185,205.91Z"/><path class="b" d="M177.82,193h0a18.69,18.69,0,0,1-3.84-.9,76.09,76.09,0,0,0-18.59-2A77.19,77.19,0,0,0,136.77,192a83.21,83.21,0,0,1-19.61,2A82.9,82.9,0,0,1,97.55,192c-1.14-.24-2.31-0.48-3.49-0.7,0.34-.26.68-0.64,1-0.88,0,0,1.63-1.38,4.44-3.38h0a70.79,70.79,0,0,0,17.62,1.88,78.18,78.18,0,0,0,18.6-1.88,83.46,83.46,0,0,1,19.61-2c5.85,0,10,0,13.39,1h0c0.49,0,1,1,1.4,1h0a34.84,34.84,0,0,0,2.8,2.17,16.74,16.74,0,0,1,2.1,1.83h0a1.27,1.27,0,0,1,1.36,1h0A1.27,1.27,0,0,1,177.82,193Z"/><path class="b" d="M153.46,178A75,75,0,0,0,136.77,180,83,83,0,0,1,117.16,182c-3.21,0-5.9-.11-8.24-0.3A74.92,74.92,0,0,1,120.47,177a75.32,75.32,0,0,0,15.28-1.91c0.76-.16,1.52-0.32,2.31-0.47A52.64,52.64,0,0,1,153.46,178Z"/><path class="b" d="M85,233.17a0.16,0.16,0,0,0,.09,0,79.77,79.77,0,0,1,13.49,1.89,77.22,77.22,0,0,0,18.58,2,77.37,77.37,0,0,0,18.59-2,82.44,82.44,0,0,1,19.61-2,81.56,81.56,0,0,1,19.52,2,81.7,81.7,0,0,0,10,1.62L173.86,240A76.27,76.27,0,0,0,155.32,238,76.63,76.63,0,0,0,136.75,240a82.9,82.9,0,0,1-19.6,2.05A82.53,82.53,0,0,1,97.58,240L85,236v-2.83Z"/><path class="b" d="M185,224.69v5A74.77,74.77,0,0,1,173.9,228,76.5,76.5,0,0,0,155.34,226,76.74,76.74,0,0,0,136.76,228,83,83,0,0,1,117.15,230,83,83,0,0,1,97.54,228a73.8,73.8,0,0,0-12.44-1.79,0.19,0.19,0,0,1-.09,0v-5a0.16,0.16,0,0,0,.09,0,79.77,79.77,0,0,1,13.49,1.89,77.22,77.22,0,0,0,18.58,2,77.37,77.37,0,0,0,18.59-2,82.44,82.44,0,0,1,19.61-2,82,82,0,0,1,19.57,2A82.57,82.57,0,0,0,185,224.69Z"/><path class="c" d="M170.94,240.93V210.85"/><path class="c" d="M100.06,241.27V210.85"/><path class="c" d="M174.46,190.33s-18.67-16-39.5-16c-21.17,0-40.49,16-40.49,16-5.67,4-10,9.19-10,17v28.86A136.18,136.18,0,0,0,135,245.95a133.35,133.35,0,0,0,49.52-9.37V207.33C184.5,199,179.24,193.89,174.46,190.33Z"/><path class="d" d="M127.88,173.35v19l-7.83,8V176.58Z"/><path class="d" d="M149.72,176.58v23.78l-7.83-8v-19Z"/><path class="e" d="M133.91,163.35h2a6,6,0,0,1,6,6v23c0,3.31-7,7-7,7s-7-3.69-7-7v-23A6,6,0,0,1,133.91,163.35Z"/><path class="e" d="M83.48,120.36c-7.27,0-13.17-5.4-13.17-12.07s5.89-12.07,13.17-12.07"/><path class="e" d="M186.52,96.22c7.27,0,13.17,5.4,13.17,12.07s-5.89,12.07-13.17,12.07"/><path class="e" d="M134.71,49.36c-26,0-50.89,13-50.89,13l-0.3,58c0.8,27,23.54,50,51.48,50s50.48-23,51.48-50l-1-58S160.21,49.36,134.71,49.36Z"/><path class="f" d="M83.63,100.35C69,37.69,111.52,24.05,135.51,24.05s64.82,14.12,50.59,76.3h-4v-22l-10-20H97.63l-10,20v22h-4Z"/><polyline class="g" points="140.11 126.83 134.91 130.01 129.71 126.83"/><path class="h" d="M129.93,99.89c0,8.65-1.9,15.69-10.5,15.91H115c-11.46,0-13.92-8.13-13.92-16.92"/><path class="i" d="M130.93,98.53a4,4,0,1,1,8,0"/><path class="j" d="M98.55,99s15.28-11.43,32.38,0"/><path class="h" d="M139.91,99.89c0,8.65,1.9,15.69,10.5,15.91h4.42c11.46,0,13.92-8.13,13.92-16.92"/><path class="j" d="M171.29,99S156,87.52,138.91,99"/><path class="g" d="M126.92,145a27.81,27.81,0,0,0,15.85-1.52"/><circle class="k" cx="151.34" cy="105.01" r="2.92"/><circle class="k" cx="118.5" cy="105.01" r="2.92"/></svg>