<?xml version="1.0" encoding="utf-8"?>
<!-- Generator: Adobe Illustrator 19.2.1, SVG Export Plug-In . SVG Version: 6.00 Build 0)  -->
<svg version="1.1" id="Calque_1" xmlns="http://www.w3.org/2000/svg" xmlns:xlink="http://www.w3.org/1999/xlink" x="0px" y="0px"
	 viewBox="0 0 190 190" style="enable-background:new 0 0 190 190;" xml:space="preserve">
	<path d="M70.8,101.8L70.8,101.8c-0.6-0.1-1.3-0.2-1.9-0.3C69.5,101.7,70.1,101.8,70.8,101.8z" style="fill:none"/>
	<path d="M71.2,98.2c0.8-4.6,2.4-8.9,4.6-12.7c-6.3-0.3-12.3-1.4-17.4-3c-0.9-0.3-1.9-0.6-2.7-1
		c-9.4-3.7-15.4-9.4-15.4-15.9v16.8" style="fill:none;stroke:currentColor;stroke-width:2;stroke-linecap:round;stroke-linejoin:round;stroke-miterlimit:10;"/>
	<path d="M118.9,66.5c-2.8-0.6-5.8-1-8.8-1c-2.7,0-5.4,0.3-7.9,0.8c-10,2.1-18.7,7.9-24.4,16c-0.4,0.6-0.9,1.3-1.3,1.9
		c-0.2,0.4-0.5,0.8-0.7,1.1c-2.2,3.9-3.8,8.2-4.6,12.7c-0.2,1.2-0.4,2.4-0.5,3.7l0,0v0.1c-0.1,1-0.1,2-0.1,3c0,3.1,0.4,6.1,1,8.9
		c0.3,1.2,0.6,2.4,1,3.6c0,0.1,0.1,0.2,0.1,0.3c1.8,5.2,4.6,9.9,8.2,13.8c0.7,0.8,1.4,1.5,2.2,2.2c7,6.6,16.5,10.6,26.9,10.6
		c21.8,0,39.5-17.7,39.5-39.5C149.5,86.2,136.4,70.5,118.9,66.5z" style="fill:none;stroke:currentColor;stroke-width:2;stroke-linecap:round;stroke-linejoin:round;stroke-miterlimit:10;"/>
	<path d="M130.7,117.1c-4,6.2-10.9,10.2-18.8,10.2c-12.3,0-22.3-10-22.3-22.3s10-22.3,22.3-22.3
		c8.4,0,15.7,4.6,19.5,11.4" style="fill:none;stroke:currentColor;stroke-width:2;stroke-linecap:round;stroke-linejoin:round;stroke-miterlimit:10;"/>
	<line x1="83.3" y1="101.5" x2="119.6" y2="101.5" style="fill:none;stroke:currentColor;stroke-width:2;stroke-linecap:round;stroke-linejoin:round;stroke-miterlimit:10;"/>
	<line x1="119.6" y1="108.5" x2="83.3" y2="108.5" style="fill:none;stroke:currentColor;stroke-width:2;stroke-linecap:round;stroke-linejoin:round;stroke-miterlimit:10;"/>
	<path d="M75.8,85.4c0.2-0.4,0.4-0.8,0.7-1.1c0.4-0.6,0.8-1.3,1.3-1.9c5.7-8.1,14.3-14,24.4-16c2.6-0.5,5.2-0.8,7.9-0.8
		c3,0,6,0.4,8.8,1l0.3-0.2c0-0.3,0-0.5,0-0.8c0-11-17.7-20-39.5-20s-39.5,9-39.5,20" style="fill:none;stroke:currentColor;stroke-width:2;stroke-linecap:round;stroke-linejoin:round;stroke-miterlimit:10;"/>
	<path d="M72.8,117.8c0-0.1-0.1-0.2-0.1-0.3c-0.4-1.2-0.7-2.4-1-3.6c-0.7-2.9-1-5.9-1-8.9c0-1,0.1-2,0.1-3v-0.1
		c-0.6-0.1-1.3-0.2-1.9-0.3c-0.2,0-0.3-0.1-0.5-0.1c-1-0.2-2-0.3-2.9-0.5c-0.3-0.1-0.6-0.1-0.9-0.2c-0.5-0.1-0.9-0.2-1.3-0.3
		c-0.5-0.1-1-0.2-1.5-0.4c-0.4-0.1-0.7-0.2-1.1-0.3c-0.7-0.2-1.3-0.4-2-0.6c-0.2-0.1-0.5-0.1-0.7-0.2c-0.8-0.3-1.5-0.5-2.2-0.8
		c-0.1,0-0.1,0-0.2-0.1c-9.3-3.7-15.3-9.4-15.3-15.8v15.8" style="fill:none;stroke:currentColor;stroke-width:2;stroke-linecap:round;stroke-linejoin:round;stroke-miterlimit:10;"/>
	<path d="M81,131.7c-3.6-4-6.4-8.7-8.2-13.8c-6.3-0.6-12.1-1.9-17.1-3.8c-0.1,0-0.1,0-0.2-0.1
		c-9.3-3.7-15.3-9.4-15.3-15.8V114c0,0.7,0.1,1.4,0.2,2.1c2.1,10.1,18.8,17.9,39.2,17.9c1.2,0,2.3,0,3.5-0.1
		C82.4,133.2,81.7,132.4,81,131.7z" style="fill:none;stroke:currentColor;stroke-width:2;stroke-linecap:round;stroke-linejoin:round;stroke-miterlimit:10;"/>
</svg>
