<?xml version="1.0" encoding="utf-8"?>
<!-- Generator: Adobe Illustrator 19.2.1, SVG Export Plug-In . SVG Version: 6.00 Build 0)  -->
<svg version="1.1" id="Calque_1" xmlns="http://www.w3.org/2000/svg" xmlns:xlink="http://www.w3.org/1999/xlink" x="0px" y="0px"
	 viewBox="0 0 190 190" style="enable-background:new 0 0 190 190;" xml:space="preserve">
	<line x1="70.5" y1="68.2" x2="119.6" y2="68.2" style="fill-rule:evenodd;clip-rule:evenodd;fill:none;stroke:currentColor;stroke-width:2;stroke-linecap:round;stroke-linejoin:round;stroke-miterlimit:10;"/>
	<line x1="70.5" y1="79.8" x2="119.6" y2="79.8" style="fill-rule:evenodd;clip-rule:evenodd;fill:none;stroke:currentColor;stroke-width:2;stroke-linecap:round;stroke-linejoin:round;stroke-miterlimit:10;"/>
	<line x1="70.5" y1="91.4" x2="119.6" y2="91.4" style="fill-rule:evenodd;clip-rule:evenodd;fill:none;stroke:currentColor;stroke-width:2;stroke-linecap:round;stroke-linejoin:round;stroke-miterlimit:10;"/>
	<line x1="70.5" y1="102.9" x2="119.6" y2="102.9" style="fill-rule:evenodd;clip-rule:evenodd;fill:none;stroke:currentColor;stroke-width:2;stroke-linecap:round;stroke-linejoin:round;stroke-miterlimit:10;"/>
	<line x1="70.5" y1="114.5" x2="95" y2="114.5" style="fill-rule:evenodd;clip-rule:evenodd;fill:none;stroke:currentColor;stroke-width:2;stroke-linecap:round;stroke-linejoin:round;stroke-miterlimit:10;"/>
	<polyline points="130.5,53.7 135,59 142.6,48.7 " style="fill-rule:evenodd;clip-rule:evenodd;fill:none;stroke:currentColor;stroke-width:2;stroke-linecap:round;stroke-linejoin:round;stroke-miterlimit:10;"/>
	<path d="M128.4,150c4.5,0,8.2-3.7,8.2-8.2v-18.7V81.7l-6.1,5.3V65.5c-4.2-2.2-7.1-6.6-7.2-11.7H61.4
		c-4.5,0-8.2,3.7-8.2,8.2v18.7v42.4v18.7c0,4.5,3.7,8.2,8.2,8.2" style="fill-rule:evenodd;clip-rule:evenodd;fill:none;stroke:currentColor;stroke-width:2;stroke-linecap:round;stroke-linejoin:round;stroke-miterlimit:10;"/>
	<path d="M136.5,67c-2.2,0-4.3-0.5-6.1-1.5v21.6l6.1-5.3l6.1,5.3V65.5C140.8,66.5,138.7,67,136.5,67z" style="fill-rule:evenodd;clip-rule:evenodd;fill:none;stroke:currentColor;stroke-width:2;stroke-linecap:round;stroke-linejoin:round;stroke-miterlimit:10;"/>
	<path d="M136.5,40.3c-7.4,0-13.3,6-13.3,13.3c0,0.1,0,0.1,0,0.2c0.1,5.1,3,9.5,7.2,11.7c1.8,1,3.9,1.5,6.1,1.5
		c2.2,0,4.3-0.5,6.1-1.5c4.3-2.2,7.2-6.7,7.2-11.8C149.9,46.3,143.9,40.3,136.5,40.3z" style="fill-rule:evenodd;clip-rule:evenodd;fill:none;stroke:currentColor;stroke-width:2;stroke-linecap:round;stroke-linejoin:round;stroke-miterlimit:10;"/>
</svg>
