<svg xmlns="http://www.w3.org/2000/svg" viewBox="0 0 100 100"><path style="fill:none;stroke:currentColor;stroke-linecap:round;stroke-linejoin:round;" d="M62.90716,51.70939s2.516,0.911,2.516-1.975"/><path style="fill:none;stroke:currentColor;stroke-linecap:round;stroke-linejoin:round;" d="M54.97985,51.396a18.01563,18.01563,0,0,0-8.713-.138V48.985a18.03282,18.03282,0,0,1,8.713.139v2.272Z"/><path style="fill:none;stroke:currentColor;stroke-linecap:round;stroke-linejoin:round;" d="M64.25686,56.29579c0-5.889-6.227-10.664-13.909-10.664a17.06319,17.06319,0,0,0-7.162,1.528,6.27646,6.27646,0,0,0-3.492-2.679h-3.006a8.78627,8.78627,0,0,1,2.881,5.098,10.45942,10.45942,0,0,0-2.205,2.917h-2.787v7.151h2.576a11.10866,11.10866,0,0,0,4.38,4.896l-2.057,5.463h4.143l1.449-3.847a17.79958,17.79958,0,0,0,10.559,0l1.449,3.847h4.143l-2.057-5.463C62.27186,62.58781,64.25686,59.61979,64.25686,56.29579Z"/><path style="fill:none;stroke:currentColor;stroke-linecap:round;stroke-linejoin:round;" d="M40.31536,53.3419a0.9135,0.9135,0,1,1,.914.914,0.91372,0.91372,0,0,1-.914-0.914"/><line style="fill:none;stroke:currentColor;stroke-linecap:round;stroke-linejoin:round;" x1="51.00185" y1="41.57569" x2="51.00185" y2="30.33171"/><polyline style="fill:none;stroke:currentColor;stroke-linecap:round;stroke-linejoin:round;" points="47.258 34.09 51.002 30.199 54.746 34.09"/></svg>
