<?xml version="1.0" encoding="utf-8"?>
<!-- Generator: Adobe Illustrator 19.2.1, SVG Export Plug-In . SVG Version: 6.00 Build 0)  -->
<svg id="Calque_1" data-name="Calque 1" xmlns="http://www.w3.org/2000/svg" viewBox="0 0 190 190">
  <rect style="fill:none;stroke:currentColor;stroke-linecap:round;stroke-linejoin:round;stroke-width:2px;" x="43.91153" y="77.63857" width="13.90277" height="33.30872"/>
  <rect style="fill:none;stroke:currentColor;stroke-linecap:round;stroke-linejoin:round;stroke-width:2px;" x="132.18569" y="77.63857" width="13.90277" height="33.30872"/>
  <path style="fill:none;stroke:currentColor;stroke-linecap:round;stroke-linejoin:round;stroke-width:2px;" d="M75.86472,77.63857l10.58333-9.05722h28.86282a9.218,9.218,0,0,1-9.21795,9.21795"/>
  <path style="fill:none;stroke:currentColor;stroke-linecap:round;stroke-linejoin:round;stroke-width:2px;" d="M97.10991,77.82238L75.349,96.78356a9.218,9.218,0,0,0,13.00545.89414l9.69033-8.4436h17.98352"/>
  <path style="fill:none;stroke:currentColor;stroke-linecap:round;stroke-linejoin:round;stroke-width:2px;" d="M108.27634,105.81478l6.18915,6.56919a5.10087,5.10087,0,1,0,7.4253-6.99574L107.34271,89.94684"/>
  <path style="fill:none;stroke:currentColor;stroke-linecap:round;stroke-linejoin:round;stroke-width:2px;" d="M75.86472,77.82238H57.81428V104.125h6.44427l20.935,14.1378s5.14132,4.8778,10.54639,2.50478,18.09507-9.05285,18.09507-9.05285"/>
  <polyline style="fill:none;stroke:currentColor;stroke-linecap:round;stroke-linejoin:round;stroke-width:2px;" points="132.186 104.125 132.186 77.822 106.093 77.822 97.681 77.822"/>
  <polyline style="fill:none;stroke:currentColor;stroke-linecap:round;stroke-linejoin:round;stroke-width:2px;" points="132.063 104.125 125.619 104.125 121.891 105.388"/>
</svg>