<?xml version="1.0" encoding="utf-8"?>
<!-- Generator: Adobe Illustrator 18.0.0, SVG Export Plug-In . SVG Version: 6.00 Build 0)  -->
<!DOCTYPE svg PUBLIC "-//W3C//DTD SVG 1.1//EN" "http://www.w3.org/Graphics/SVG/1.1/DTD/svg11.dtd">
<svg version="1.1" id="Calque_1" xmlns="http://www.w3.org/2000/svg" xmlns:xlink="http://www.w3.org/1999/xlink" x="0px" y="0px"
	 viewBox="0 0 617.9 148.4" enable-background="new 0 0 617.9 148.4" xml:space="preserve">
<g>
	<g>
		<path fill="#7D868C" d="M194.7,142.8l5.5-12.1h3.3l-8.2,18h-1.1l-8.2-18h3.4L194.7,142.8z"/>
		<path fill="#7D868C" d="M213.9,130.3c5.5,0,9.5,3.9,9.5,9.2c0,5.2-4.1,9.2-9.5,9.2c-5.4,0-9.5-3.9-9.5-9.2
			C204.4,134.4,208.6,130.3,213.9,130.3z M213.9,145.9c3.4,0,6.1-2.8,6.1-6.4c0-3.6-2.6-6.4-6.1-6.4c-3.5,0-6.1,2.8-6.1,6.4
			C207.8,143.1,210.5,145.9,213.9,145.9z"/>
		<path fill="#7D868C" d="M231.8,148.7c-2.1,0-4.2-0.7-5.8-1.7l1.1-2.8c1.5,1,3.2,1.6,4.8,1.6c2.1,0,3.1-1,3.1-2.2
			c0-1.2-0.7-1.9-3.9-3.1c-3.5-1.3-4.6-2.9-4.6-5c0-2.7,2.2-5.1,6-5.1c1.9,0,3.8,0.6,4.9,1.2l-1,2.8c-1-0.6-2.6-1.2-4-1.2
			c-1.9,0-2.7,1-2.7,2.3c0,1.1,1,1.8,3.5,2.8c4,1.5,5.1,3.1,5.1,5.4C238.1,146.8,235.7,148.7,231.8,148.7z"/>
		<path fill="#7D868C" d="M250.4,130.6h3.1v17.8h-3.1V130.6z"/>
		<path fill="#7D868C" d="M258.7,130.5h1l11,11.4v-11.3h3.1v17.9H273l-11.1-11.1v11h-3.1V130.5z"/>
		<path fill="#7D868C" d="M276.7,130.6h14.9v2.9h-5.8v14.9h-3.2v-14.9h-5.9V130.6z"/>
		<path fill="#7D868C" d="M294.6,130.6h11.5v2.9h-8.4v5h7.6v2.8h-7.6v4.2h8.4v2.9h-11.5V130.6z M297.4,129.3l-0.5-1.4l5.6-2.8
			l0.9,2.5L297.4,129.3z"/>
		<path fill="#7D868C" d="M310.6,130.6h5.7c4.7,0,7.1,2.6,7.1,6.3c0,2.5-1,4.4-3.2,5.4l4.5,6h-3.7l-3.8-5.2c-0.5,0-1,0.1-1.6,0.1
			h-1.9v5.2h-3.1V130.6z M313.8,133.5v7h2.3c2.9,0,3.9-1.6,3.9-3.5c0-1.9-1-3.4-3.9-3.4H313.8z"/>
		<path fill="#7D868C" d="M328.1,130.6h11.5v2.9h-8.4v5h7.6v2.8h-7.6v4.2h8.4v2.9h-11.5V130.6z M335.2,128.2l-1.6-2.1l-1.6,2.1h-2.6
			l3.7-4.5h1.1l3.6,4.5H335.2z"/>
		<path fill="#7D868C" d="M341.9,130.6h14.9v2.9H351v14.9h-3.2v-14.9h-5.9V130.6z"/>
		<path fill="#7D868C" d="M364.2,148.7c-2.1,0-4.2-0.7-5.8-1.7l1.1-2.8c1.5,1,3.2,1.6,4.8,1.6c2.1,0,3.1-1,3.1-2.2
			c0-1.2-0.7-1.9-3.9-3.1c-3.5-1.3-4.7-2.9-4.7-5c0-2.7,2.2-5.1,6-5.1c1.9,0,3.8,0.6,4.9,1.2l-1,2.8c-1-0.6-2.6-1.2-4-1.2
			c-1.9,0-2.7,1-2.7,2.3c0,1.1,1,1.8,3.5,2.8c4,1.5,5.1,3.1,5.1,5.4C370.6,146.8,368.2,148.7,364.2,148.7z"/>
		<path fill="#7D868C" d="M387.4,148.7c-2.1,0-4.2-0.7-5.8-1.7l1.1-2.8c1.5,1,3.2,1.6,4.8,1.6c2.1,0,3.1-1,3.1-2.2
			c0-1.2-0.7-1.9-3.9-3.1c-3.5-1.3-4.6-2.9-4.6-5c0-2.7,2.2-5.1,6-5.1c1.9,0,3.8,0.6,4.9,1.2l-1,2.8c-1-0.6-2.6-1.2-4-1.2
			c-1.9,0-2.7,1-2.7,2.3c0,1.1,1,1.8,3.5,2.8c4,1.5,5.1,3.1,5.1,5.4C393.7,146.8,391.3,148.7,387.4,148.7z"/>
		<path fill="#7D868C" d="M397.6,130.6h11.5v2.9h-8.4v5h7.6v2.8h-7.6v4.2h8.4v2.9h-11.5V130.6z"/>
		<path fill="#7D868C" d="M422,130.6h5.7c4.7,0,7.1,2.6,7.1,6.3c0,2.5-1,4.4-3.2,5.4l4.5,6h-3.7l-3.8-5.2c-0.5,0-1,0.1-1.6,0.1h-1.9
			v5.2H422V130.6z M425.1,133.5v7h2.3c2.9,0,3.9-1.6,3.9-3.5c0-1.9-1-3.4-3.9-3.4H425.1z"/>
		<path fill="#7D868C" d="M439.5,130.6H451v2.9h-8.4v5h7.6v2.8h-7.6v4.2h8.4v2.9h-11.5V130.6z"/>
		<path fill="#7D868C" d="M455.5,130.5h1l11,11.4v-11.3h3.1v17.9h-0.8l-11.1-11.1v11h-3.1V130.5z"/>
		<path fill="#7D868C" d="M490.5,147.2c0,0-2.3,1.5-5.9,1.5c-6,0-10-3.9-10-9.2c0-5.1,4.3-9.2,9.6-9.2c3.9,0,6.3,1.4,6.3,1.4
			l-1.1,2.7c0,0-2.3-1.2-4.6-1.2c-4.2,0-6.7,2.6-6.7,6.3c0,3.6,2.7,6.2,6.4,6.2c3,0,5.2-1.2,5.2-1.2L490.5,147.2z"/>
		<path fill="#7D868C" d="M502,130.3c5.5,0,9.5,3.9,9.5,9.2c0,5.2-4.1,9.2-9.5,9.2c-5.4,0-9.5-3.9-9.5-9.2
			C492.6,134.4,496.7,130.3,502,130.3z M502.1,145.9c3.4,0,6.1-2.8,6.1-6.4c0-3.6-2.6-6.4-6.1-6.4c-3.5,0-6.1,2.8-6.1,6.4
			C496,143.1,498.6,145.9,502.1,145.9z"/>
		<path fill="#7D868C" d="M515.6,130.5h1l11,11.4v-11.3h3.1v17.9h-0.8l-11.1-11.1v11h-3.1V130.5z"/>
		<path fill="#7D868C" d="M533.6,130.6h14.9v2.9h-5.8v14.9h-3.2v-14.9h-5.9V130.6z"/>
		<path fill="#7D868C" d="M551.5,130.6h5.7c4.7,0,7.1,2.6,7.1,6.3c0,2.5-1,4.4-3.2,5.4l4.5,6h-3.7l-3.8-5.2c-0.5,0-1,0.1-1.6,0.1
			h-1.9v5.2h-3.1V130.6z M554.6,133.5v7h2.3c2.9,0,3.9-1.6,3.9-3.5c0-1.9-1-3.4-3.9-3.4H554.6z"/>
		<path fill="#7D868C" d="M568.9,130.6h11.5v2.9h-8.4v5h7.6v2.8h-7.6v4.2h8.4v2.9h-11.5V130.6z"/>
		<path fill="#7D868C" d="M585,130.5h1l11,11.4v-11.3h3.1v17.9h-0.8l-11.1-11.1v11H585V130.5z"/>
		<path fill="#7D868C" d="M603,130.6h14.9v2.9h-5.8v14.9h-3.2v-14.9H603V130.6z"/>
	</g>
	<path fill="#A70064" d="M186.8,40c0-2.7,0.9-5.1,2.8-6.9c1.9-1.9,4.2-2.8,6.9-2.8c1.3,0,2.5,0.3,3.7,0.8c1.2,0.5,2.3,1.2,3.1,2.1
		c0.9,0.9,1.6,1.9,2.1,3.1c0.5,1.2,0.8,2.4,0.8,3.8v41.3c0,1.4,0.3,2.7,0.8,3.9c0.5,1.2,1.3,2.3,2.2,3.2c0.9,0.9,2,1.6,3.2,2.2
		c1.2,0.6,2.5,0.8,3.9,0.8c1.4,0,2.7-0.3,3.9-0.8c1.2-0.5,2.3-1.3,3.2-2.2c0.9-0.9,1.7-2,2.2-3.2c0.5-1.2,0.8-2.5,0.8-3.9V40
		c0-2.7,1-5.1,2.9-6.9c1.9-1.9,4.2-2.8,6.9-2.8c1.3,0,2.5,0.3,3.7,0.8c1.2,0.5,2.3,1.2,3.1,2.1c0.9,0.9,1.6,1.9,2.1,3.1
		c0.5,1.2,0.8,2.4,0.8,3.8v41.3c0,4.1-0.8,7.9-2.4,11.5c-1.6,3.6-3.7,6.7-6.4,9.4c-2.7,2.7-5.8,4.8-9.4,6.4
		c-3.6,1.6-7.5,2.4-11.5,2.4c-4.1,0-7.9-0.8-11.5-2.4c-3.6-1.6-6.8-3.7-9.5-6.4c-2.7-2.7-4.8-5.8-6.4-9.4c-1.6-3.6-2.4-7.4-2.4-11.5
		V40z"/>
	<path fill="#A70064" d="M255.3,58.2c0-4.1,0.8-7.9,2.4-11.5c1.6-3.6,3.7-6.7,6.4-9.4c2.7-2.7,5.8-4.8,9.4-6.4
		c3.6-1.6,7.5-2.4,11.5-2.4c4.1,0,7.9,0.8,11.5,2.4c3.6,1.6,6.8,3.7,9.5,6.4c2.7,2.7,4.8,5.8,6.4,9.4c1.6,3.6,2.4,7.4,2.4,11.5V99
		c0,2.7-0.9,5.1-2.8,6.9c-1.9,1.9-4.2,2.8-6.9,2.8c-1.3,0-2.6-0.3-3.8-0.8c-1.2-0.5-2.2-1.2-3.1-2.1c-0.9-0.9-1.6-1.9-2.1-3.1
		c-0.6-1.2-0.8-2.5-0.8-3.8V58.2c0-1.4-0.3-2.7-0.8-3.9c-0.6-1.2-1.3-2.3-2.2-3.2c-0.9-0.9-2-1.6-3.2-2.2c-1.3-0.5-2.6-0.8-4-0.8
		c-1.4,0-2.7,0.3-3.9,0.8c-1.2,0.5-2.3,1.3-3.2,2.2c-0.9,0.9-1.7,2-2.2,3.2c-0.5,1.2-0.8,2.5-0.8,3.9V99c0,2.7-0.9,5.1-2.8,6.9
		c-1.9,1.9-4.2,2.8-6.9,2.8c-1.3,0-2.6-0.3-3.8-0.8c-1.2-0.5-2.2-1.2-3.1-2.1c-0.9-0.9-1.6-1.9-2.1-3.1c-0.6-1.2-0.8-2.5-0.8-3.8
		V58.2z"/>
	<path fill="#A70064" d="M361.8,40c0-2.7,0.9-5.1,2.8-6.9c1.9-1.9,4.2-2.8,6.9-2.8c1.3,0,2.5,0.3,3.7,0.8c1.2,0.5,2.3,1.2,3.1,2.1
		c0.9,0.9,1.6,1.9,2.1,3.1c0.5,1.2,0.8,2.4,0.8,3.8v48.9H403c2.7,0,5.1,0.9,6.9,2.8c1.9,1.9,2.8,4.2,2.8,6.9c0,1.3-0.3,2.6-0.8,3.8
		c-0.5,1.2-1.2,2.2-2.1,3.1c-0.9,0.9-1.9,1.6-3.1,2.1c-1.2,0.5-2.4,0.8-3.8,0.8h-31.5c-1.3,0-2.6-0.3-3.8-0.8
		c-1.2-0.5-2.2-1.2-3.1-2.1c-0.9-0.9-1.6-1.9-2.1-3.1c-0.6-1.2-0.8-2.5-0.8-3.8V40z"/>
	<path fill="#A70064" d="M488.7,58.2c0-4.1,0.8-7.9,2.4-11.5c1.6-3.6,3.7-6.7,6.4-9.4c2.7-2.7,5.8-4.8,9.4-6.4
		c3.6-1.6,7.5-2.4,11.5-2.4c4.1,0,7.9,0.8,11.5,2.4c3.6,1.6,6.8,3.7,9.5,6.4c2.7,2.7,4.8,5.8,6.4,9.4c1.6,3.6,2.4,7.4,2.4,11.5V99
		c0,2.7-0.9,5.1-2.8,6.9c-1.9,1.9-4.2,2.8-6.9,2.8c-1.3,0-2.6-0.3-3.8-0.8c-1.2-0.5-2.2-1.2-3.1-2.1c-0.9-0.9-1.6-1.9-2.1-3.1
		c-0.5-1.2-0.8-2.5-0.8-3.8V58.2c0-1.4-0.3-2.7-0.8-3.9c-0.6-1.2-1.3-2.3-2.2-3.2c-0.9-0.9-2-1.6-3.2-2.2c-1.3-0.5-2.6-0.8-4-0.8
		c-1.4,0-2.7,0.3-3.9,0.8c-1.2,0.5-2.3,1.3-3.2,2.2c-0.9,0.9-1.7,2-2.2,3.2c-0.5,1.2-0.8,2.5-0.8,3.9V99c0,2.7-0.9,5.1-2.8,6.9
		c-1.9,1.9-4.2,2.8-6.9,2.8c-1.3,0-2.6-0.3-3.8-0.8c-1.2-0.5-2.2-1.2-3.1-2.1c-0.9-0.9-1.6-1.9-2.1-3.1c-0.5-1.2-0.8-2.5-0.8-3.8
		V58.2z"/>
	<path fill="#A70064" d="M557.8,40.4c0-2.7,0.9-5.1,2.8-6.9c1.9-1.9,4.2-2.8,6.9-2.8h19.9c4.1,0,7.9,0.8,11.6,2.3
		c3.6,1.5,6.8,3.6,9.5,6.3c2.7,2.7,4.8,5.8,6.4,9.4c1.6,3.6,2.4,7.4,2.4,11.5v18.8c0,4.1-0.8,7.9-2.4,11.5c-1.6,3.6-3.7,6.7-6.4,9.4
		c-2.7,2.7-5.8,4.8-9.4,6.3c-3.6,1.5-7.5,2.3-11.5,2.3h-20c-1.3,0-2.6-0.3-3.8-0.8c-1.2-0.5-2.2-1.2-3.1-2.1
		c-0.9-0.9-1.6-1.9-2.1-3.1c-0.5-1.2-0.8-2.5-0.8-3.8V40.4z M577.3,50.2v38.6h10.2c2.8,0,5.2-1,7.2-2.9c2-1.9,2.9-4.3,2.9-7V60.1
		c0-2.7-1-5.1-2.9-7c-2-1.9-4.4-2.9-7.3-2.9H577.3z"/>
	<path fill="#7D868C" d="M341.1,23.7c6.6,0,11.9-5.3,11.9-11.9c0-6.6-5.3-11.9-11.9-11.9c-6.6,0-11.9,5.3-11.9,11.9
		C329.2,18.4,334.5,23.7,341.1,23.7z"/>
	<path fill="#7D868C" d="M341.1,30.2h-12.3c-1.3,0-2.6,0.3-3.8,0.8c-1.2,0.6-2.2,1.3-3.1,2.1c-0.9,0.9-1.6,1.9-2.1,3.1
		c-0.5,1.2-0.8,2.5-0.8,3.7c0,2.7,0.9,5,2.8,6.9c1.9,1.9,4.2,2.9,6.9,2.9h2.6V99c0,1.3,0.3,2.6,0.8,3.8c0.5,1.2,1.3,2.3,2.1,3.1
		c0.9,0.9,1.9,1.6,3.1,2.1c1.2,0.5,2.4,0.8,3.8,0.8c2.7,0,5.1-0.9,6.9-2.8c1.9-1.9,2.8-4.2,2.8-6.9V40c0-2.7-0.9-5.1-2.8-6.9
		C346.1,31.1,343.8,30.2,341.1,30.2z"/>
	<g>
		<path fill="#A70064" d="M451.6,79.6c-2.7,0-5.1-1-6.9-2.9c-1.9-1.9-2.8-4.2-2.8-6.9c0-1.3,0.3-2.5,0.8-3.7
			c0.5-1.2,1.2-2.3,2.1-3.1c0.9-0.9,1.9-1.6,3.1-2.1c1.2-0.5,2.4-0.8,3.8-0.8h8.6c2.8,0,5.1,0.9,6.9,2.8c1.9,1.9,2.8,4.2,2.8,6.9
			c0,1.3-0.3,2.6-0.8,3.8c-0.5,1.2-1.2,2.2-2.1,3.1c-0.9,0.9-1.9,1.6-3.1,2.1c-1.2,0.6-2.5,0.8-3.8,0.8H451.6z"/>
		<g>
			<path fill="#A70064" d="M439.9,88.9H470c2.7,0,5.1,0.9,6.9,2.8c1.9,1.9,2.8,4.2,2.8,6.9c0,1.3-0.3,2.6-0.8,3.8
				c-0.5,1.2-1.2,2.2-2.1,3.1c-0.9,0.9-1.9,1.6-3.1,2.1c-1.2,0.5-2.4,0.8-3.8,0.8h-39.9c-1.3,0-2.6-0.3-3.8-0.8
				c-1.2-0.5-2.2-1.2-3.1-2.1c-0.9-0.9-1.6-1.9-2.1-3.1c-0.6-1.2-0.8-2.5-0.8-3.8V40.5c0-2.7,0.9-5.1,2.8-6.9
				c1.9-1.9,4.2-2.8,6.9-2.8H470c2.7,0,5.1,0.9,6.9,2.8c1.9,1.9,2.8,4.2,2.8,6.9c0,1.3-0.3,2.6-0.8,3.8c-0.5,1.2-1.2,2.2-2.1,3.1
				c-0.9,0.9-1.9,1.6-3.1,2.1c-1.2,0.6-2.4,0.8-3.8,0.8h-30.1V88.9z"/>
		</g>
	</g>
	<path fill="#A70064" d="M147.8,129.5c0,10.5-8.5,19-19,19H19c-10.5,0-19-8.5-19-19V19.7c0-10.5,8.5-19,19-19h109.9
		c10.5,0,19,8.5,19,19V129.5z"/>
	<g>
		<g>
			<g>
				<path fill="#FFFFFF" d="M48.3,114.4L48.3,114.4c3.6,0,7.2-0.7,10.7-2c3.5-1.4,6.6-3.5,9.4-6.2l25.9-25.9
					c0.8-0.8,1.3-1.7,1.7-2.7c0.4-1.1,0.6-2.1,0.6-3.2c0-1-0.2-2-0.6-3.1c-0.4-1-1-1.9-1.7-2.6c-1.6-1.6-3.5-2.4-5.7-2.4
					c0,0,0,0,0,0c-2.3,0-4.2,0.8-5.8,2.4L56.9,94.6c-1.2,1.2-2.6,2.1-4,2.7c-1.4,0.6-2.9,0.9-4.4,0.9l-0.2,0c-1.6,0-3.1-0.3-4.6-0.9
					c-1.5-0.6-2.9-1.5-4.1-2.7c-1.2-1.2-2.1-2.6-2.7-4.1C36.3,89,36,87.5,36,86c0-1.6,0.2-3.1,0.8-4.6c0.6-1.5,1.5-2.9,2.7-4.1
					l25.9-25.9c0.8-0.8,1.3-1.7,1.7-2.6c0.4-1.1,0.6-2.1,0.6-3.2c0-1-0.2-2-0.6-3.1c-0.4-1-1-1.9-1.7-2.6c-1.6-1.6-3.5-2.4-5.8-2.4
					c-2.2,0-4.1,0.8-5.8,2.4L27.9,65.7c-2.8,2.8-4.9,5.9-6.2,9.4c-1.4,3.5-2,7.1-2,10.8c0,3.7,0.7,7.3,2.1,10.8
					c1.4,3.5,3.5,6.7,6.3,9.5c2.8,2.8,6,4.9,9.5,6.3C41.1,113.7,44.7,114.4,48.3,114.4z"/>
			</g>
		</g>
		<g>
			<g>
				<path fill="#FFFFFF" d="M99.3,50.9c0.1,0,0.2,0,0.3,0c1.5,0,3,0.3,4.5,0.9c1.5,0.6,2.9,1.5,4.1,2.7c1.2,1.2,2.1,2.6,2.7,4.1
					c0.6,1.5,0.9,3,0.9,4.6c0,1.6-0.2,3.1-0.8,4.6c-0.6,1.5-1.5,2.9-2.7,4.1L82.4,97.9c-0.8,0.8-1.3,1.7-1.7,2.7
					c-0.4,1-0.6,2.1-0.6,3.2c0,1,0.2,2,0.6,3.1c0.4,1,1,1.9,1.7,2.6c1.6,1.6,3.5,2.4,5.8,2.4c2.2,0,4.1-0.8,5.8-2.4l25.9-25.9
					c2.8-2.8,4.9-5.9,6.2-9.4c1.4-3.5,2-7.1,2-10.8c0-3.7-0.7-7.3-2.1-10.8c-1.4-3.5-3.5-6.7-6.2-9.5c-2.8-2.8-5.9-4.9-9.5-6.3
					c-7-2.8-14.5-2.8-21.5,0c-3.5,1.4-6.6,3.4-9.4,6.2L53.4,68.9c-0.8,0.8-1.3,1.7-1.7,2.6c-0.4,1.1-0.6,2.1-0.6,3.2
					c0,1,0.2,2,0.6,3.1c0.4,1,1,1.9,1.7,2.6c1.6,1.6,3.5,2.4,5.8,2.4c2.3,0,4.2-0.8,5.8-2.4l25.9-25.9c1.2-1.2,2.6-2.1,4-2.7
					C96.4,51.2,97.8,50.9,99.3,50.9z"/>
			</g>
		</g>
	</g>
</g>
</svg>
