<?xml version="1.0" encoding="utf-8"?>
<!-- Generator: Adobe Illustrator 19.2.1, SVG Export Plug-In . SVG Version: 6.00 Build 0)  -->
<svg version="1.1" id="Calque_1" xmlns="http://www.w3.org/2000/svg" xmlns:xlink="http://www.w3.org/1999/xlink" x="0px" y="0px"
	 viewBox="0 0 100 100" style="enable-background:new 0 0 100 100;" xml:space="preserve">
	<path d="M30.3802166,30.3810616c-3.2206993,3.2220993-3.2206993,8.4448013,0,11.6674995l27.9843998,27.9842987
		l0.0214996-0.0214996c3.2402,2.8204041,8.152298,2.6954041,11.2362976-0.3885956s3.2089996-7.9961014,0.3887024-11.2364044
		l0.0214996-0.0213966l-27.9843979-27.983902C38.8255157,27.1593628,33.6029282,27.1588612,30.3802166,30.3810616z" style="fill:none;stroke:currentColor;stroke-linecap:round;stroke-linejoin:round;stroke-miterlimit:10;"/>
	<path d="M69.618515,30.3810616c-3.2206955-3.2216988-8.4452972-3.2216988-11.6660004,0l-27.9843979,27.983902
		l0.0195999,0.0213966c-2.8183994,3.240303-2.6954002,8.1524048,0.3885994,11.2364044s7.9981003,3.2089996,11.2383003,0.3885956
		l0.0195007,0.0214996L69.618515,42.0485611C72.841217,38.8258629,72.841217,33.6027603,69.618515,30.3810616z" style="fill:none;stroke:currentColor;stroke-linecap:round;stroke-linejoin:round;stroke-miterlimit:10;"/>
	<path d="M49.9994164,44.1656609c-0.1679993,0-0.3280983-0.0663986-0.4473-0.1854973
		c-0.2480011-0.2481003-0.2480011-0.6504021,0-0.8984032c0.1192017-0.1191978,0.277401-0.1856003,0.4473-0.1856003
		s0.3280983,0.0664024,0.4491997,0.1856003c0.2480011,0.25,0.2461014,0.6523018-0.0019989,0.8984032
		C50.3295174,44.0992622,50.1693153,44.1656609,49.9994164,44.1656609z" style="stroke:currentColor;stroke-miterlimit:10;"/>
	<path d="M53.2338142,47.4000626c-0.1679993,0-0.3261986-0.0653992-0.4453964-0.1836014
		c-0.25-0.25-0.2480011-0.6512985-0.0019035-0.8983994c0.1191025-0.1192017,0.2793007-0.1865005,0.4492035-0.1865005
		c0.1679993,0,0.3262138,0.0653992,0.4473,0.1845016c0.2460976,0.2471008,0.2460976,0.6484985,0,0.8964996
		C53.5619316,47.3336601,53.4017143,47.4000626,53.2338142,47.4000626z" style="stroke:currentColor;stroke-miterlimit:10;"/>
	<path d="M56.4681168,50.6344604c-0.1679001,0-0.3260994-0.0644989-0.4471855-0.1835976
		c-0.2481155-0.25-0.2481155-0.6523018-0.0020027-0.8974991c0.1210861-0.1220016,0.2812881-0.1865005,0.4491882-0.1865005
		c0.1679993,0,0.3281975,0.0644989,0.4473,0.1835976c0.1230011,0.1211014,0.1893997,0.2793007,0.1893997,0.4491997
		c0,0.1699028-0.0663986,0.330101-0.1875,0.4491997C56.7963142,50.5699615,56.636116,50.6344604,56.4681168,50.6344604z" style="stroke:currentColor;stroke-miterlimit:10;"/>
	<path d="M46.7650146,47.4000626c-0.169899,0-0.328083-0.0664024-0.4473-0.1855011
		c-0.1190987-0.1171989-0.1875-0.277401-0.1875-0.4473s0.0664024-0.330101,0.1856003-0.4501991
		c0.1191139-0.1201019,0.2793007-0.1865005,0.4491997-0.1865005c0.171917,0,0.330101,0.0674019,0.4512024,0.1884995
		c0.1171989,0.1161995,0.1835976,0.2763023,0.1835976,0.4463005c0,0.1679001-0.0663986,0.3281021-0.1855965,0.4482002
		C47.0931168,47.3346634,46.9330177,47.4000626,46.7650146,47.4000626z" style="stroke:currentColor;stroke-miterlimit:10;"/>
	<path d="M46.7650146,53.8688622c-0.169899,0-0.328083-0.0663986-0.4473-0.1856003
		c-0.2460976-0.2440987-0.2479973-0.6464996-0.0018997-0.8955002c0.1230011-0.1221008,0.2812004-0.1875,0.4512024-0.1875
		c0.1679115,0,0.3260994,0.0663986,0.4472008,0.1865005c0.2460976,0.2452011,0.2460976,0.6464996,0,0.8945999
		C47.091217,53.8024635,46.9330177,53.8688622,46.7650146,53.8688622z" style="stroke:currentColor;stroke-miterlimit:10;"/>
	<path d="M53.2338142,53.8697624c-0.1679993,0-0.3261986-0.0653992-0.4473-0.1845016
		c-0.25-0.2509995-0.2480965-0.6523972,0.0019035-0.8993988c0.1171989-0.1192017,0.2753983-0.1856003,0.4453964-0.1856003
		c0.1699028,0,0.3300018,0.0653992,0.4492035,0.1856003c0.2479973,0.2490005,0.2479973,0.6512985,0,0.8973999
		C53.5619316,53.8043633,53.4017143,53.8697624,53.2338142,53.8697624z" style="stroke:currentColor;stroke-miterlimit:10;"/>
	<path d="M43.5306168,50.6344604c-0.1679001,0-0.3260994-0.0653992-0.4472008-0.1835976
		c-0.2481003-0.25-0.2481003-0.6523018-0.0019989-0.9004021c0.1210976-0.1190987,0.2793007-0.1854973,0.4491997-0.1854973
		s0.3282013,0.0663986,0.4491997,0.1875c0.1192017,0.1190987,0.1856003,0.2782974,0.1856003,0.447197
		c0,0.1699028-0.0663986,0.3282013-0.1856003,0.4483032C43.8607178,50.5680618,43.7005157,50.6344604,43.5306168,50.6344604z" style="stroke:currentColor;stroke-miterlimit:10;"/>
	<path d="M49.9994164,50.6344604c-0.169899,0-0.3280983-0.0653992-0.4473-0.1835976
		c-0.2480011-0.25-0.2461014-0.6514015,0-0.8983994c0.1192017-0.1192017,0.2793007-0.1875,0.4491997-0.1875
		c0.1679993,0,0.3282013,0.0663986,0.4473,0.1864967c0.1190987,0.118103,0.1855011,0.2764015,0.1855011,0.4443016
		c0,0.1708984-0.0664024,0.3311005-0.1875,0.4522018C50.3275146,50.5680618,50.1693153,50.6344604,49.9994164,50.6344604z" style="stroke:currentColor;stroke-miterlimit:10;"/>
	<path d="M49.9994164,57.1031609c-0.169899,0-0.3280983-0.0663986-0.4473-0.1854973
		c-0.2480011-0.25-0.2461014-0.6504021,0-0.8965034c0.1192017-0.1200981,0.277401-0.1854973,0.4473-0.1854973
		c0.1679001,0,0.3280983,0.0643997,0.4472008,0.1825981c0.25,0.2490005,0.25,0.6513023,0.0038986,0.8994026
		C50.3275146,57.0387611,50.1693153,57.1031609,49.9994164,57.1031609z" style="stroke:currentColor;stroke-miterlimit:10;"/>
</svg>
