<?xml version="1.0" encoding="utf-8"?>
<!-- Generator: Adobe Illustrator 19.2.1, SVG Export Plug-In . SVG Version: 6.00 Build 0)  -->
<svg version="1.1" id="Calque_1" xmlns="http://www.w3.org/2000/svg" xmlns:xlink="http://www.w3.org/1999/xlink" x="0px" y="0px"
	 viewBox="0 0 190 190" style="enable-background:new 0 0 190 190;" xml:space="preserve">
	<circle cx="112.3" cy="78.7" r="7.5" style="fill:none;stroke:currentColor;stroke-width:2;stroke-linecap:round;stroke-linejoin:round;stroke-miterlimit:10;"/>
	<path d="M115.7,80.2c-0.6,1.3-1.9,2.3-3.4,2.3c-2.1,0-3.7-1.7-3.7-3.7c0-2.1,1.7-3.7,3.7-3.7c1.5,0,2.8,0.9,3.4,2.2" style="fill:none;stroke:currentColor;stroke-width:2;stroke-linecap:round;stroke-linejoin:round;stroke-miterlimit:10;"/>
	<line x1="112.2" y1="78.7" x2="107.8" y2="78.7" style="fill:none;stroke:currentColor;stroke-width:2;stroke-linecap:round;stroke-linejoin:round;stroke-miterlimit:10;"/>
	<circle cx="112.3" cy="56" r="7.5" style="fill:none;stroke:currentColor;stroke-width:2;stroke-linecap:round;stroke-linejoin:round;stroke-miterlimit:10;"/>
	<path d="M115.7,57.5c-0.6,1.3-1.9,2.3-3.4,2.3c-2.1,0-3.7-1.7-3.7-3.7s1.7-3.7,3.7-3.7c1.5,0,2.8,0.9,3.4,2.2" style="fill:none;stroke:currentColor;stroke-width:2;stroke-linecap:round;stroke-linejoin:round;stroke-miterlimit:10;"/>
	<line x1="112.2" y1="56" x2="107.8" y2="56" style="fill:none;stroke:currentColor;stroke-width:2;stroke-linecap:round;stroke-linejoin:round;stroke-miterlimit:10;"/>
	<circle cx="60" cy="111.7" r="2.3" style="fill:none;stroke:currentColor;stroke-width:2;stroke-linecap:round;stroke-linejoin:round;stroke-miterlimit:10;"/>
	<path d="M60,138.9c-2.3-1.2-5-3.2-7.8-6.5L41.6,129l-1.8-12.4c0,0,7.6-2.2,8.4-3.6c3.6-6.7,4.1-8.7,8.4-11.7
		c4.2-3,9.9-4.4,9.9-4.4s1.9-0.3,2.5-1.5c0.7-1.4-0.8-3.3-2.1-5.2c-2.6-3.9-4-5.8-2.7-7c0.5-0.5,5.2-1.5,11.2,4.5
		C78.6,91,80,94,80,94s1.3,2.8,3.9,0.7c2-1.6,9.6-7.8,19-8.7" style="fill:none;stroke:currentColor;stroke-width:2;stroke-linecap:round;stroke-linejoin:round;stroke-miterlimit:10;"/>
	<path d="M121.6,88c0,0,12.5,2.4,18.7,17.5c5.3,13.1,0.5,24.6,0.5,24.6" style="fill:none;stroke:currentColor;stroke-width:2;stroke-linecap:round;stroke-linejoin:round;stroke-miterlimit:10;"/>
	<path d="M150,98.6c0,0-6.1-0.6-8.2-2.9c-1.7-1.8-1.8-3.1-0.4-4c2.4-1.5,5.6,3.1,2.6,5.6c-1.6,1.4-5.6,4.3-5.6,4.3" style="fill:none;stroke:currentColor;stroke-width:2;stroke-linecap:round;stroke-linejoin:round;stroke-miterlimit:10;"/>
</svg>
