<?xml version="1.0" encoding="utf-8"?>
<!-- Generator: Adobe Illustrator 19.2.1, SVG Export Plug-In . SVG Version: 6.00 Build 0)  -->
<svg version="1.1" id="Calque_1" xmlns="http://www.w3.org/2000/svg" xmlns:xlink="http://www.w3.org/1999/xlink" x="0px" y="0px"
	 viewBox="0 0 100 100" style="enable-background:new 0 0 100 100;" xml:space="preserve">
	<path d="M74.7,42.9H58.1L46.9,26.5c-1-0.9-2.2-1.5-3.6-1.5H31.8c-2,0-4.7,2.7-5.4,5.4L24,42.9c-3,0-3.3,2.4-3.3,5.4
		v7.9c0,0.1,0,0.3,0,0.4c1.9-5.3,6.9-9,12.9-9c7.6,0,13.7,6.1,13.7,13.7c0,0.1,0,0.2,0,0.3h12.3c1.5-2.2,4.1-3.6,6.9-3.6
		c2.9,0,5.4,1.4,6.9,3.6h0.2c3,0,4.2-1.1,5.4-5.4l1.1-7.9C80.1,45.4,77.7,42.9,74.7,42.9z" style="fill:none;stroke:currentColor;stroke-linecap:round;stroke-linejoin:round;stroke-miterlimit:10;"/>
	<path d="M33.6,47.6c-5.9,0-11,3.8-12.9,9c-0.5,1.5-0.8,3-0.8,4.6c0,7.6,6.1,13.7,13.7,13.7c7.5,0,13.5-6,13.7-13.4
		c0-0.1,0-0.2,0-0.3C47.3,53.7,41.2,47.6,33.6,47.6z" style="fill:none;stroke:currentColor;stroke-linecap:round;stroke-linejoin:round;stroke-miterlimit:10;"/>
	<path d="M33.6,55.3c-3.3,0-6,2.7-6,6c0,0.1,0,0.2,0,0.3c0.2,3.2,2.8,5.7,6,5.7c3.2,0,5.8-2.5,6-5.7c0-0.1,0-0.2,0-0.3
		C39.6,58,36.9,55.3,33.6,55.3z" style="fill:none;stroke:currentColor;stroke-linecap:round;stroke-linejoin:round;stroke-miterlimit:10;"/>
	<path d="M73.4,61.6c-1.5-2.2-4.1-3.6-6.9-3.6c-2.9,0-5.4,1.4-6.9,3.6c-1,1.4-1.6,3.1-1.6,4.9c0,4.7,3.8,8.5,8.5,8.5
		s8.5-3.8,8.5-8.5C75,64.6,74.4,63,73.4,61.6z M66.5,69.5c-1.7,0-3.1-1.4-3.1-3.1c0-1.7,1.4-3.1,3.1-3.1c1.7,0,3.1,1.4,3.1,3.1
		C69.6,68.1,68.2,69.5,66.5,69.5z" style="fill:none;stroke:currentColor;stroke-linecap:round;stroke-linejoin:round;stroke-miterlimit:10;"/>
	<path d="M65.4,30.4c-2.6,0-2.6,3.2-2.6,5.8v6.7" style="fill:none;stroke:currentColor;stroke-linecap:round;stroke-linejoin:round;stroke-miterlimit:10;"/>
	<line x1="57.6" y1="50.1" x2="57.6" y2="53.9" style="fill:none;stroke:currentColor;stroke-linecap:round;stroke-linejoin:round;stroke-miterlimit:10;"/>
	<line x1="62" y1="50.1" x2="62" y2="53.9" style="fill:none;stroke:currentColor;stroke-linecap:round;stroke-linejoin:round;stroke-miterlimit:10;"/>
	<line x1="66.4" y1="50.1" x2="66.4" y2="53.9" style="fill:none;stroke:currentColor;stroke-linecap:round;stroke-linejoin:round;stroke-miterlimit:10;"/>
	<path d="M73.8,53.8c-1,0-1.8-0.8-1.8-1.8c0-1,0.8-1.8,1.8-1.8" style="fill:none;stroke:currentColor;stroke-linecap:round;stroke-linejoin:round;stroke-miterlimit:10;"/>
	<path d="M52.8,42.9l-8.5-12.7c-0.7-0.6-2.6-1-3.6-1h-6.5c-1.7,0-3.1,1.6-3.8,3.8l-0.8,10h8.1c3.4,0.5,6.5,2,8.9,4.3
		h6.1V42.9z" style="fill:none;stroke:currentColor;stroke-linecap:round;stroke-linejoin:round;stroke-miterlimit:10;"/>
</svg>
