<?xml version="1.0" standalone="no"?><!DOCTYPE svg PUBLIC "-//W3C//DTD SVG 1.1//EN" "http://www.w3.org/Graphics/SVG/1.1/DTD/svg11.dtd"><svg width="100%" height="100%" viewBox="0 0 300 300" preserveAspectRatio="xMidYMid keep" version="1.1" xmlns="http://www.w3.org/2000/svg" xmlns:xlink="http://www.w3.org/1999/xlink" xml:space="preserve" style="fill-rule:evenodd;clip-rule:evenodd;stroke-linecap:round;stroke-linejoin:round;stroke-miterlimit:1.41421;"><path d="M106.725,156.038c1.463,-8.417 4.391,-16.285 8.417,-23.238c-11.528,-0.549 -22.507,-2.562 -31.839,-5.49c-1.647,-0.549 -3.477,-1.098 -4.941,-1.83c-17.2,-6.77 -28.179,-17.2 -28.179,-29.094l0,30.741" style="fill:none;stroke-width:4px;stroke:#f6f6f6;"/><path d="M194.007,98.033c-5.123,-1.098 -10.613,-1.83 -16.102,-1.83c-4.941,0 -9.881,0.549 -14.456,1.464c-18.298,3.843 -34.218,14.456 -44.648,29.277c-0.731,1.098 -1.646,2.379 -2.378,3.477c-0.366,0.732 -0.915,1.464 -1.281,2.013c-4.026,7.136 -6.954,15.004 -8.417,23.238c-0.366,2.196 -0.732,4.392 -0.915,6.771l0,0.183c-0.183,1.83 -0.183,3.659 -0.183,5.489c0,5.673 0.732,11.162 1.83,16.286c0.548,2.196 1.097,4.391 1.829,6.587c0,0.183 0.183,0.366 0.183,0.549c3.294,9.515 8.418,18.115 15.005,25.252c1.281,1.464 2.562,2.744 4.026,4.025c12.808,12.077 30.192,19.396 49.222,19.396c39.89,0 72.278,-32.387 72.278,-72.278c0,-33.851 -23.971,-62.58 -55.993,-69.899Z" style="fill:none;stroke-width:4px;stroke:#f6f6f6;"/><path d="M215.599,190.622c-7.319,11.345 -19.945,18.664 -34.4,18.664c-22.507,0 -40.806,-18.298 -40.806,-40.805c0,-22.507 18.299,-40.805 40.806,-40.805c15.37,0 28.728,8.417 35.681,20.86" style="fill:none;stroke-width:4px;stroke:#f6f6f6;"/><path d="M128.866,162.077l66.422,0" style="fill:none;stroke-width:4px;stroke:#f6f6f6;"/><path d="M195.288,174.886l-66.422,0" style="fill:none;stroke-width:4px;stroke:#f6f6f6;"/><path d="M115.142,132.617c0.366,-0.732 0.732,-1.464 1.281,-2.013c0.732,-1.098 1.464,-2.379 2.378,-3.477c10.43,-14.821 26.167,-25.617 44.648,-29.277c4.758,-0.915 9.515,-1.464 14.456,-1.464c5.489,0 10.979,0.732 16.102,1.83l0.549,-0.366c0,-0.549 0,-0.915 0,-1.464c0,-20.128 -32.388,-36.596 -72.278,-36.596c-39.89,0 -72.278,16.468 -72.278,36.596" style="fill:none;stroke-width:4px;stroke:#f6f6f6;"/><path d="M109.652,191.903c0,-0.183 -0.183,-0.366 -0.183,-0.549c-0.732,-2.196 -1.281,-4.392 -1.829,-6.587c-1.281,-5.307 -1.83,-10.796 -1.83,-16.286c0,-1.83 0.183,-3.659 0.183,-5.489l0,-0.183c-1.098,-0.183 -2.379,-0.366 -3.477,-0.549c-0.366,0 -0.549,-0.183 -0.915,-0.183c-1.83,-0.366 -3.66,-0.549 -5.306,-0.915c-0.549,-0.183 -1.098,-0.183 -1.647,-0.366c-0.915,-0.183 -1.647,-0.366 -2.379,-0.549c-0.915,-0.183 -1.83,-0.366 -2.745,-0.732c-0.732,-0.183 -1.281,-0.366 -2.013,-0.549c-1.28,-0.366 -2.378,-0.732 -3.659,-1.098c-0.366,-0.183 -0.915,-0.183 -1.281,-0.366c-1.464,-0.549 -2.745,-0.915 -4.026,-1.464c-0.183,0 -0.183,0 -0.366,-0.183c-17.017,-6.77 -27.996,-17.2 -27.996,-28.911l0,28.911" style="fill:none;stroke-width:4px;stroke:#f6f6f6;"/><path d="M124.657,217.338c-6.587,-7.32 -11.711,-15.92 -15.005,-25.252c-11.528,-1.098 -22.141,-3.477 -31.29,-6.953c-0.183,0 -0.183,0 -0.366,-0.183c-17.017,-6.771 -27.996,-17.201 -27.996,-28.912l0,28.912c0,1.281 0.183,2.561 0.366,3.842c3.843,18.482 34.401,32.754 71.729,32.754c2.196,0 4.209,0 6.405,-0.183c-1.281,-1.281 -2.562,-2.745 -3.843,-4.025Z" style="fill:none;stroke-width:4px;stroke:#f6f6f6;"/></svg>