<?xml version="1.0" standalone="no"?><!DOCTYPE svg PUBLIC "-//W3C//DTD SVG 1.1//EN" "http://www.w3.org/Graphics/SVG/1.1/DTD/svg11.dtd"><svg width="100%" height="100%" viewBox="0 0 60 60" version="1.1" xmlns="http://www.w3.org/2000/svg" xmlns:xlink="http://www.w3.org/1999/xlink" xml:space="preserve" style="fill-rule:evenodd;clip-rule:evenodd;stroke-linecap:round;stroke-linejoin:round;stroke-miterlimit:1.41421;"><path d="M43.151,29.615c0,-7.226 -5.877,-13.103 -13.103,-13.103c-7.226,0 -13.103,5.877 -13.103,13.103c0,5.01 2.794,9.345 6.937,11.561l0,5.492l12.429,0l0,-5.492c4.046,-2.216 6.84,-6.551 6.84,-11.561Z" style="fill:none;stroke-width:2px;stroke:currentColor;"/><path d="M25.713,37.611c-2.987,-1.638 -4.818,-4.624 -4.818,-7.996c0,-5.01 4.047,-9.057 9.057,-9.057" style="fill:none;stroke-width:2px;stroke:currentColor;"/><path d="M23.786,50.811l12.428,0" style="fill:none;stroke-width:2px;stroke:currentColor;"/><path d="M23.786,54.953l12.428,0" style="fill:none;stroke-width:2px;stroke:currentColor;"/><path d="M30.048,11.887l0,-5.492" style="fill:none;stroke-width:2px;stroke:currentColor;"/><path d="M17.234,17.282l-3.95,-3.95" style="fill:none;stroke-width:2px;stroke:currentColor;"/><path d="M11.839,30.096l-5.492,0" style="fill:none;stroke-width:2px;stroke:currentColor;"/><path d="M48.161,30.096l5.492,0" style="fill:none;stroke-width:2px;stroke:currentColor;"/><path d="M42.862,17.282l3.854,-3.95" style="fill:none;stroke-width:2px;stroke:currentColor;"/></svg>