<?xml version="1.0" standalone="no"?><!DOCTYPE svg PUBLIC "-//W3C//DTD SVG 1.1//EN" "http://www.w3.org/Graphics/SVG/1.1/DTD/svg11.dtd"><svg width="100%" height="100%" viewBox="0 0 60 60" version="1.1" xmlns="http://www.w3.org/2000/svg" xmlns:xlink="http://www.w3.org/1999/xlink" xml:space="preserve" style="fill-rule:evenodd;clip-rule:evenodd;stroke-linecap:round;stroke-linejoin:round;stroke-miterlimit:1.41421;"><path d="M50.924,35.738l-26.662,0l0,-26.663l-15.186,0l0,41.85l41.848,0l0,-15.187Z" style="fill:none;stroke-width:2px;stroke:currentColor;"/><path d="M4.259,12.657l4.817,0" style="fill:none;stroke-width:2px;stroke:currentColor;"/><path d="M4.259,17.612l4.817,0" style="fill:none;stroke-width:2px;stroke:currentColor;"/><path d="M4.259,22.568l4.817,0" style="fill:none;stroke-width:2px;stroke:currentColor;"/><path d="M4.259,27.522l4.817,0" style="fill:none;stroke-width:2px;stroke:currentColor;"/><path d="M4.259,32.477l4.817,0" style="fill:none;stroke-width:2px;stroke:currentColor;"/><path d="M4.259,37.431l4.817,0" style="fill:none;stroke-width:2px;stroke:currentColor;"/><path d="M4.259,42.387l4.817,0" style="fill:none;stroke-width:2px;stroke:currentColor;"/><path d="M4.259,47.342l4.817,0" style="fill:none;stroke-width:2px;stroke:currentColor;"/><path d="M26.934,40.555l0,-4.817" style="fill:none;stroke-width:2px;stroke:currentColor;"/><path d="M31.888,40.555l0,-4.817" style="fill:none;stroke-width:2px;stroke:currentColor;"/><path d="M36.845,40.555l0,-4.817" style="fill:none;stroke-width:2px;stroke:currentColor;"/><path d="M41.8,40.555l0,-4.817" style="fill:none;stroke-width:2px;stroke:currentColor;"/><path d="M46.754,40.555l0,-4.817" style="fill:none;stroke-width:2px;stroke:currentColor;"/><path d="M24.262,9.075l26.662,26.663" style="fill:none;stroke-width:2px;stroke:currentColor;"/></svg>