<?xml version="1.0" standalone="no"?><!DOCTYPE svg PUBLIC "-//W3C//DTD SVG 1.1//EN" "http://www.w3.org/Graphics/SVG/1.1/DTD/svg11.dtd"><svg width="100%" height="100%" viewBox="0 0 60 60" version="1.1" xmlns="http://www.w3.org/2000/svg" xmlns:xlink="http://www.w3.org/1999/xlink" xml:space="preserve" style="fill-rule:evenodd;clip-rule:evenodd;stroke-linecap:round;stroke-linejoin:round;stroke-miterlimit:1.41421;"><circle cx="18.683" cy="46.005" r="3.131" style="fill:none;stroke-width:2px;stroke:currentColor;"/><circle cx="41.316" cy="46.005" r="3.131" style="fill:none;stroke-width:2px;stroke:currentColor;"/><path d="M48.909,47.229c0,3.801 -3.194,6.881 -7.134,6.881l-23.552,0c-3.94,0 -7.132,-3.08 -7.132,-6.881l0,-31.231c0,-3.801 3.192,-6.881 7.132,-6.881l23.552,0c3.94,0 7.134,3.08 7.134,6.881l0,31.231l0,0Z" style="fill:none;stroke-width:2px;stroke:currentColor;"/><path d="M11.091,17.836l37.818,0" style="fill:none;stroke-width:2px;stroke:currentColor;"/><path d="M11.091,39.189l37.818,0" style="fill:none;stroke-width:2px;stroke:currentColor;"/><path d="M19.789,21.277l-4.163,4.16" style="fill:none;stroke-width:2px;stroke:currentColor;"/><path d="M44.494,21.277l-4.16,4.16" style="fill:none;stroke-width:2px;stroke:currentColor;"/><path d="M20.914,25.408l-5.314,5.315" style="fill:none;stroke-width:2px;stroke:currentColor;"/><path d="M25.073,21.248l-1.733,1.734" style="fill:none;stroke-width:2px;stroke:currentColor;"/><path d="M34.308,39.189c0,-2.386 1.933,-4.32 4.321,-4.32c2.386,0 4.32,1.934 4.32,4.32" style="fill:none;stroke-width:2px;stroke:currentColor;"/><path d="M22.156,9.117l0,-2.301c0,-3.092 3.513,-4.73 7.843,-4.73c4.332,0 7.843,1.638 7.843,4.73l0,2.301" style="fill:none;stroke-width:2px;stroke:currentColor;"/><path d="M19.727,54.11l-4.456,3.804" style="fill:none;stroke-width:2px;stroke:currentColor;"/><path d="M40.272,54.11l4.456,3.804" style="fill:none;stroke-width:2px;stroke:currentColor;"/><path d="M25.383,13.599l9.234,0" style="fill:none;stroke-width:2px;stroke:currentColor;"/></svg>