<?xml version="1.0" standalone="no"?><!DOCTYPE svg PUBLIC "-//W3C//DTD SVG 1.1//EN" "http://www.w3.org/Graphics/SVG/1.1/DTD/svg11.dtd"><svg width="100%" height="100%" viewBox="0 0 60 60" version="1.1" xmlns="http://www.w3.org/2000/svg" xmlns:xlink="http://www.w3.org/1999/xlink" xml:space="preserve" style="fill-rule:evenodd;clip-rule:evenodd;stroke-linecap:round;stroke-linejoin:round;stroke-miterlimit:1.41421;"><circle cx="30" cy="30" r="17.631" style="fill:none;stroke-width:2px;stroke:currentColor;"/><path d="M20.944,32.12c-0.482,0 -0.964,-0.193 -1.349,-0.578c-0.771,-0.771 -0.771,-1.927 0,-2.698c0.385,-0.386 0.867,-0.578 1.349,-0.578c0.481,0 0.963,0.192 1.348,0.578c0.771,0.771 0.771,2.023 0,2.698c-0.385,0.385 -0.867,0.578 -1.348,0.578Z" style="fill:none;stroke-width:2px;stroke-linecap:butt;stroke-linejoin:miter;stroke:currentColor;"/><path d="M30,32.12c-0.482,0 -0.963,-0.193 -1.349,-0.578c-0.771,-0.771 -0.771,-1.927 0,-2.698c0.386,-0.386 0.867,-0.578 1.349,-0.578c0.482,0 0.963,0.192 1.349,0.578c0.771,0.771 0.771,2.023 0,2.698c-0.386,0.385 -0.867,0.578 -1.349,0.578Z" style="fill:none;stroke-width:2px;stroke-linecap:butt;stroke-linejoin:miter;stroke:currentColor;"/><path d="M38.96,32.12c-0.482,0 -0.963,-0.193 -1.349,-0.578c-0.77,-0.771 -0.77,-1.927 0,-2.698c0.386,-0.386 0.867,-0.578 1.349,-0.578c0.482,0 0.964,0.192 1.349,0.578c0.771,0.771 0.771,2.023 0,2.698c-0.289,0.385 -0.771,0.578 -1.349,0.578Z" style="fill:none;stroke-width:2px;stroke-linecap:butt;stroke-linejoin:miter;stroke:currentColor;"/></svg>