<?xml version="1.0" standalone="no"?><!DOCTYPE svg PUBLIC "-//W3C//DTD SVG 1.1//EN" "http://www.w3.org/Graphics/SVG/1.1/DTD/svg11.dtd"><svg width="100%" height="100%" viewBox="0 0 60 60" version="1.1" xmlns="http://www.w3.org/2000/svg" xmlns:xlink="http://www.w3.org/1999/xlink" xml:space="preserve" style="fill-rule:evenodd;clip-rule:evenodd;stroke-linecap:round;stroke-linejoin:round;stroke-miterlimit:1.41421;"><path d="M36.414,19.091l-28.562,0c-1.412,0 -2.558,1.146 -2.558,2.559l0,21.47c0,1.412 1.146,2.558 2.558,2.558l20.633,0l-1.24,4.872l7.026,-4.872l2.143,0c1.413,0 2.557,-1.146 2.557,-2.558l0,-21.47c0,-1.413 -1.144,-2.559 -2.557,-2.559Z" style="fill:none;stroke-width:2px;stroke:currentColor;"/><path d="M21.029,19.091l0,-7.083c0,-1.414 1.145,-2.558 2.558,-2.558l28.562,0c1.412,0 2.557,1.144 2.557,2.558l0,21.47c0,1.414 -1.145,2.558 -2.557,2.558l-2.251,0l1.24,4.872l-7.026,-4.872l-5.141,0" style="fill:none;stroke-width:2px;stroke:currentColor;"/><path d="M16.412,33.386c-0.176,0 -0.342,-0.07 -0.468,-0.194c-0.26,-0.259 -0.26,-0.681 0,-0.942c0.125,-0.125 0.291,-0.194 0.468,-0.194c0.178,0 0.346,0.069 0.472,0.194c0.259,0.263 0.258,0.685 -0.002,0.942c-0.123,0.124 -0.29,0.194 -0.47,0.194Z" style="fill:currentColor;fill-rule:nonzero;stroke-width:2px;stroke-linecap:butt;stroke-linejoin:miter;stroke:currentColor;"/><path d="M22.131,33.386c-0.176,0 -0.342,-0.07 -0.469,-0.194c-0.259,-0.259 -0.259,-0.681 0,-0.942c0.126,-0.125 0.291,-0.194 0.469,-0.194c0.179,0 0.345,0.069 0.471,0.194c0.26,0.263 0.258,0.685 -0.001,0.942c-0.124,0.124 -0.29,0.194 -0.47,0.194Z" style="fill:currentColor;fill-rule:nonzero;stroke-width:2px;stroke-linecap:butt;stroke-linejoin:miter;stroke:currentColor;"/><path d="M27.851,33.386c-0.175,0 -0.343,-0.07 -0.468,-0.194c-0.261,-0.259 -0.261,-0.681 0,-0.942c0.124,-0.125 0.291,-0.194 0.468,-0.194c0.178,0 0.345,0.069 0.471,0.194c0.26,0.263 0.258,0.685 -0.001,0.942c-0.124,0.124 -0.291,0.194 -0.47,0.194Z" style="fill:currentColor;fill-rule:nonzero;stroke-width:2px;stroke-linecap:butt;stroke-linejoin:miter;stroke:currentColor;"/></svg>