<?xml version="1.0" standalone="no"?><!DOCTYPE svg PUBLIC "-//W3C//DTD SVG 1.1//EN" "http://www.w3.org/Graphics/SVG/1.1/DTD/svg11.dtd"><svg width="100%" height="100%" viewBox="0 0 60 60" version="1.1" xmlns="http://www.w3.org/2000/svg" xmlns:xlink="http://www.w3.org/1999/xlink" xml:space="preserve" style="fill-rule:evenodd;clip-rule:evenodd;stroke-linecap:round;stroke-linejoin:round;stroke-miterlimit:1.41421;"><path d="M51.768,20.903c0,-9.91 -9.745,-10.41 -21.768,-10.41c-12.023,0 -21.768,0.5 -21.768,10.41l0,9.664l43.536,0l0,-9.664Z" style="fill:none;stroke-width:2px;stroke:currentColor;"/><path d="M54.811,38.034c0,1.596 -1.293,2.891 -2.891,2.891l-43.84,0c-1.596,0 -2.891,-1.295 -2.891,-2.891l0,-4.576c0,-1.596 1.295,-2.891 2.891,-2.891l43.84,0c1.598,0 2.891,1.295 2.891,2.891l0,4.576Z" style="fill:none;stroke-width:2px;stroke:currentColor;"/><rect x="5.189" y="40.925" width="49.622" height="8.583" style="fill:none;stroke-width:2px;stroke:currentColor;"/><path d="M24.68,28.601c0,1.086 -1.292,1.966 -2.89,1.966l-6.485,0c-1.595,0 -2.89,-0.88 -2.89,-1.966l0,-4.41c0,-1.086 1.295,-1.966 2.89,-1.966l6.485,0c1.598,0 2.89,0.88 2.89,1.966l0,4.41Z" style="fill:none;stroke-width:2px;stroke:currentColor;"/><path d="M47.585,28.601c0,1.086 -1.293,1.966 -2.89,1.966l-6.485,0c-1.596,0 -2.89,-0.88 -2.89,-1.966l0,-4.41c0,-1.086 1.294,-1.966 2.89,-1.966l6.485,0c1.597,0 2.89,0.88 2.89,1.966l0,4.41Z" style="fill:none;stroke-width:2px;stroke:currentColor;"/><path d="M5.189,49.507l0,4.183" style="fill:none;stroke-width:2px;stroke:currentColor;"/><path d="M54.811,49.507l0,4.183" style="fill:none;stroke-width:2px;stroke:currentColor;"/><path d="M15.307,19.941c-0.162,0 -0.314,-0.063 -0.431,-0.178c-0.239,-0.24 -0.239,-0.627 0,-0.865c0.115,-0.115 0.268,-0.179 0.431,-0.179c0.164,0 0.318,0.063 0.433,0.178c0.239,0.241 0.237,0.628 0,0.865c-0.115,0.115 -0.267,0.179 -0.433,0.179Z" style="fill:currentColor;fill-rule:nonzero;stroke-width:2px;stroke-linecap:butt;stroke-linejoin:miter;stroke:currentColor;"/><path d="M25.102,19.941c-0.162,0 -0.314,-0.063 -0.431,-0.178c-0.239,-0.24 -0.239,-0.627 0,-0.865c0.115,-0.115 0.267,-0.179 0.431,-0.179c0.164,0 0.318,0.063 0.433,0.178c0.239,0.241 0.237,0.628 0,0.865c-0.115,0.115 -0.268,0.179 -0.433,0.179Z" style="fill:currentColor;fill-rule:nonzero;stroke-width:2px;stroke-linecap:butt;stroke-linejoin:miter;stroke:currentColor;"/><path d="M34.896,19.941c-0.162,0 -0.314,-0.063 -0.431,-0.178c-0.239,-0.24 -0.239,-0.627 0,-0.865c0.115,-0.115 0.268,-0.179 0.431,-0.179c0.164,0 0.318,0.063 0.433,0.178c0.239,0.241 0.237,0.628 0,0.865c-0.115,0.115 -0.267,0.179 -0.433,0.179Z" style="fill:currentColor;fill-rule:nonzero;stroke-width:2px;stroke-linecap:butt;stroke-linejoin:miter;stroke:currentColor;"/><path d="M44.691,19.941c-0.162,0 -0.314,-0.063 -0.431,-0.178c-0.239,-0.24 -0.239,-0.627 0,-0.865c0.115,-0.115 0.267,-0.179 0.431,-0.179c0.163,0 0.318,0.063 0.433,0.178c0.239,0.241 0.237,0.628 0,0.865c-0.115,0.115 -0.268,0.179 -0.433,0.179Z" style="fill:currentColor;fill-rule:nonzero;stroke-width:2px;stroke-linecap:butt;stroke-linejoin:miter;stroke:currentColor;"/><path d="M20.205,14.975c-0.161,0 -0.316,-0.064 -0.43,-0.179c-0.239,-0.239 -0.239,-0.626 0,-0.865c0.114,-0.115 0.267,-0.179 0.43,-0.179c0.164,0 0.317,0.064 0.433,0.179c0.239,0.241 0.237,0.628 -0.002,0.865c-0.112,0.115 -0.267,0.179 -0.431,0.179Z" style="fill:currentColor;fill-rule:nonzero;stroke-width:2px;stroke-linecap:butt;stroke-linejoin:miter;stroke:currentColor;"/><path d="M30,14.975c-0.162,0 -0.316,-0.064 -0.431,-0.179c-0.239,-0.239 -0.239,-0.626 0,-0.865c0.115,-0.115 0.267,-0.179 0.431,-0.179c0.164,0 0.316,0.064 0.433,0.179c0.239,0.241 0.237,0.628 -0.002,0.865c-0.113,0.115 -0.267,0.179 -0.431,0.179Z" style="fill:currentColor;fill-rule:nonzero;stroke-width:2px;stroke-linecap:butt;stroke-linejoin:miter;stroke:currentColor;"/><path d="M39.795,14.975c-0.162,0 -0.317,-0.064 -0.431,-0.179c-0.239,-0.239 -0.239,-0.626 0,-0.865c0.114,-0.115 0.267,-0.179 0.431,-0.179c0.163,0 0.316,0.064 0.432,0.179c0.239,0.241 0.237,0.628 -0.002,0.865c-0.113,0.115 -0.267,0.179 -0.43,0.179Z" style="fill:currentColor;fill-rule:nonzero;stroke-width:2px;stroke-linecap:butt;stroke-linejoin:miter;stroke:currentColor;"/><path d="M30,24.907c-0.162,0 -0.316,-0.062 -0.431,-0.177c-0.239,-0.241 -0.239,-0.628 0,-0.865c0.115,-0.115 0.267,-0.179 0.431,-0.179c0.164,0 0.316,0.063 0.433,0.178c0.239,0.24 0.237,0.627 -0.002,0.865c-0.113,0.115 -0.267,0.178 -0.431,0.178Z" style="fill:currentColor;fill-rule:nonzero;stroke-width:2px;stroke-linecap:butt;stroke-linejoin:miter;stroke:currentColor;"/></svg>