<?xml version="1.0" encoding="utf-8"?>
<!-- Generator: Adobe Illustrator 19.2.1, SVG Export Plug-In . SVG Version: 6.00 Build 0)  -->
<svg version="1.1" id="Calque_1" xmlns="http://www.w3.org/2000/svg" xmlns:xlink="http://www.w3.org/1999/xlink"
	 viewBox="0 0 100 100" xml:space="preserve">
  <path d="M46.6,28.9h-19v36.9H50v-3.4V49.6V32.3C50,30.4,48.5,28.9,46.6,28.9z" style="fill:none;stroke:currentColor;stroke-linecap:round;stroke-linejoin:round;stroke-miterlimit:10;"/>
  <path d="M53.4,28.9h7.2H69h3.4v3.4v30.2v3.4H69H53.4H50v-3.4V49.6V32.3C50,30.4,51.5,28.9,53.4,28.9z" style="fill:none;stroke:currentColor;stroke-linecap:round;stroke-linejoin:round;stroke-miterlimit:10;"/>
  <polyline points="27.7,33.2 22.2,33.2 22.2,71.1 50,71.1 50,65.9 " style="fill:none;stroke:currentColor;stroke-linecap:round;stroke-linejoin:round;stroke-miterlimit:10;"/>
  <polyline points="72.3,33.2 77.8,33.2 77.8,71.1 50,71.1 50,65.9 " style="fill:none;stroke:currentColor;stroke-linecap:round;stroke-linejoin:round;stroke-miterlimit:10;"/>
  <line x1="33.3" y1="37" x2="44.3" y2="37" style="fill:none;stroke:currentColor;stroke-linecap:round;stroke-linejoin:round;stroke-miterlimit:10;"/>
  <line x1="33.3" y1="42.3" x2="44.3" y2="42.3" style="fill:none;stroke:currentColor;stroke-linecap:round;stroke-linejoin:round;stroke-miterlimit:10;"/>
  <line x1="33.3" y1="47.7" x2="44.3" y2="47.7" style="fill:none;stroke:currentColor;stroke-linecap:round;stroke-linejoin:round;stroke-miterlimit:10;"/>
  <line x1="33.3" y1="53" x2="44.3" y2="53" style="fill:none;stroke:currentColor;stroke-linecap:round;stroke-linejoin:round;stroke-miterlimit:10;"/>
  <line x1="33.3" y1="58.3" x2="44.3" y2="58.3" style="fill:none;stroke:currentColor;stroke-linecap:round;stroke-linejoin:round;stroke-miterlimit:10;"/>
  <line x1="55.3" y1="53" x2="66.3" y2="53" style="fill:none;stroke:currentColor;stroke-linecap:round;stroke-linejoin:round;stroke-miterlimit:10;"/>
  <line x1="55.3" y1="58.3" x2="66.3" y2="58.3" style="fill:none;stroke:currentColor;stroke-linecap:round;stroke-linejoin:round;stroke-miterlimit:10;"/>
  <polygon points="60.8,28.9 60.8,37.9 60.8,42.7 60.8,47.4 63.9,43.4 67,47.4 67,42.7 67,37.9 67,28.9 " style="fill:none;stroke:currentColor;stroke-linecap:round;stroke-linejoin:round;stroke-miterlimit:10;"/>
</svg>
