<svg xmlns="http://www.w3.org/2000/svg" viewBox="0 0 270 270"><defs><style>.a{fill:#2cbaa4;}.b{fill:#4cd6bb;}.c,.f{fill:none;}.c,.d,.e,.f{stroke:#263149;stroke-miterlimit:10;stroke-width:3px;}.d{fill:#fed9b7;}.e{fill:#734741;}.f{stroke-linecap:round;}</style></defs><title>-avatar-level-</title><path class="a" d="M175.5,190.61s-18.41-16-39.23-16c-21.17,0-40.89,16-40.89,16-5.67,4-10.37,9.19-10.37,17v28.52a135.43,135.43,0,0,0,100,0V207.61C185,199.31,180.28,194.18,175.5,190.61Z"/><path class="b" d="M136.82,245.68a62.89,62.89,0,0,1,15-1.82c1.6,0,3.13.06,4.58,0.17q2.61-.4,5.18-0.91a62.9,62.9,0,0,0-9.76-.72,67,67,0,0,0-19.6,3.06c-0.29.08-.6,0.26-0.93,0.35Z"/><path class="b" d="M92.75,204.71c-1.69-.49-4.08-1.31-7.06-1.9a14.56,14.56,0,0,1,.49-1.5c2.94,0.59,5.3,1.25,7,1.74A64.7,64.7,0,0,0,112,206h1.09a65.58,65.58,0,0,0,19.1-3,64.7,64.7,0,0,1,39.19,0,69.81,69.81,0,0,0,13.53,2.69,15,15,0,0,1,.08,1.52,69.75,69.75,0,0,1-14-2.77,65.74,65.74,0,0,0-19.17-3,63.8,63.8,0,0,0-19.18,3.24A64.84,64.84,0,0,1,113.09,208H112A63.61,63.61,0,0,1,92.75,204.71Z"/><path class="b" d="M171.38,239.37c0.73,0.21,1.59.41,2.57,0.67-0.91.28-1.83,0.55-2.75,0.8l-0.24-.07a65.75,65.75,0,0,0-19.17-3,64.66,64.66,0,0,0-19.18,3.08A66.44,66.44,0,0,1,113.09,244H112v-0.32c-4.79-1-9.47-1.47-14-2.77A58.08,58.08,0,0,0,112,243h1.09a63,63,0,0,0,19.1-3.32,66.24,66.24,0,0,1,19.6-3.2A68.71,68.71,0,0,1,171.38,239.37Z"/><path class="b" d="M92.75,198.68c-1.14-.34-2.6-0.9-4.35-1.32a14.92,14.92,0,0,1,1-1.36c1.48,0.37,2.74.73,3.75,1A64.12,64.12,0,0,0,112,200h1.09a65.35,65.35,0,0,0,19.1-3,65,65,0,0,1,39.19,0,70.54,70.54,0,0,0,11.84,2.53,16.13,16.13,0,0,1,.67,1.59A71.69,71.69,0,0,1,171,198.39a66.29,66.29,0,0,0-19.17-3,63.72,63.72,0,0,0-19.18,3.26A64.62,64.62,0,0,1,113.09,202H112A63.27,63.27,0,0,1,92.75,198.68Z"/><path class="b" d="M112,196a62.94,62.94,0,0,1-19-3.27c0.47-.4,1-0.87,1.45-1.23A63.69,63.69,0,0,0,112,194h1.09a64.77,64.77,0,0,0,19.1-3,64.7,64.7,0,0,1,39.19-.05c1.59,0.46,3.77,1.08,6.48,1.64a26.43,26.43,0,0,1,1.93,1.89,75,75,0,0,1-8.83-2.1,65.67,65.67,0,0,0-19.17-3,63.31,63.31,0,0,0-19.18,3.29A64.4,64.4,0,0,1,113.09,196H112Z"/><path class="b" d="M171.38,227.16A69.32,69.32,0,0,0,185,229.93v1.5a71.41,71.41,0,0,1-14-2.77,65.69,65.69,0,0,0-19.17-3,64.48,64.48,0,0,0-19.18,3.13A66,66,0,0,1,113.09,232H112a64.61,64.61,0,0,1-19.25-3.18A70.9,70.9,0,0,0,85,226.75v-1.52a83.51,83.51,0,0,1,8.16,1.9A65.36,65.36,0,0,0,112,230h1.09a66.48,66.48,0,0,0,19.1-2.87A65.49,65.49,0,0,1,171.38,227.16Z"/><path class="b" d="M112,184c-1.72,0-3.36-.47-4.91-0.6,0.83-.43,1.69-0.95,2.58-1.4,0.76,0,1.53,0,2.33,0h1.09a64,64,0,0,0,19.1-3.1A68.7,68.7,0,0,1,147,176c1.58,0.38,3.13.79,4.63,1.29a63.22,63.22,0,0,0-19,3.31A64.1,64.1,0,0,1,113.09,184H112Z"/><path class="b" d="M171.38,221.11A68.59,68.59,0,0,0,185,223.88v1.5a70.51,70.51,0,0,1-14-2.78,66.12,66.12,0,0,0-19.17-3,64.74,64.74,0,0,0-19.18,3.14A65.34,65.34,0,0,1,113.09,226H112a64,64,0,0,1-19.25-3.22A75.37,75.37,0,0,0,85,220.7v-1.53a82.51,82.51,0,0,1,8.16,1.92A64.34,64.34,0,0,0,112,224h1.09a65.45,65.45,0,0,0,19.1-2.91A65.6,65.6,0,0,1,171.38,221.11Z"/><path class="b" d="M185,211.78v1.5a70.51,70.51,0,0,1-14-2.78,66.12,66.12,0,0,0-19.17-3,64.28,64.28,0,0,0-19.18,3.2A65,65,0,0,1,113.09,214H112a63.76,63.76,0,0,1-19.25-3.27A70.59,70.59,0,0,0,85,208.6v-1c0-.18,0-0.35,0-0.53a78.27,78.27,0,0,1,8.15,2A64.29,64.29,0,0,0,112,212h1.09a65.53,65.53,0,0,0,19.1-3,65.11,65.11,0,0,1,39.19,0A69.3,69.3,0,0,0,185,211.78Z"/><path class="b" d="M171.38,233.34A70.29,70.29,0,0,0,185,236v0.14l-2.68,1.07A72.87,72.87,0,0,1,171,234.72a65.88,65.88,0,0,0-19.17-3,64.9,64.9,0,0,0-19.18,3.1A65.8,65.8,0,0,1,113.09,238H112a64.43,64.43,0,0,1-19.25-3.16,70.08,70.08,0,0,0-7.75-2v-1.52a65.33,65.33,0,0,1,8.16,2.36c3.54,1,10.1,3.35,18.84,3.35h1.09a62.5,62.5,0,0,0,19.1-3.35,65.89,65.89,0,0,1,19.6-3.22A68.33,68.33,0,0,1,171.38,233.34Z"/><path class="b" d="M171.38,215.06A69.48,69.48,0,0,0,185,217.82v1.5a69.94,69.94,0,0,1-14-2.77,65.75,65.75,0,0,0-19.17-3,64.57,64.57,0,0,0-19.18,3.18A65.19,65.19,0,0,1,113.09,220H112a63.84,63.84,0,0,1-19.25-3.24A69.45,69.45,0,0,0,85,214.66v-1.53a82.44,82.44,0,0,1,8.16,1.95A64.52,64.52,0,0,0,112,218h1.09a65.64,65.64,0,0,0,19.1-2.93A65.49,65.49,0,0,1,171.38,215.06Z"/><path class="b" d="M112,189.69a61.49,61.49,0,0,1-12.91-1.59c0.54-.37,1.13-0.76,1.78-1.18A58.78,58.78,0,0,0,112,188h1.09a64.54,64.54,0,0,0,19.1-3.07,67.2,67.2,0,0,1,19.6-3.07,63.15,63.15,0,0,1,12.81,1.29q2.27,1.3,4.13,2.52a59.44,59.44,0,0,0-36.12,1A64.54,64.54,0,0,1,113.09,190H112v-0.31Z"/><path class="c" d="M174.75,190.61s-18.53-16-39.36-16c-21.17,0-40.71,16-40.71,16-5.67,4-10.19,9.19-10.19,17v28.52a135.43,135.43,0,0,0,100,0V207.61C184.5,199.31,179.53,194.18,174.75,190.61Z"/><path class="d" d="M133.91,163.11h2a6,6,0,0,1,6,6v23c0,3.31-7,7-7,7s-7-3.69-7-7v-23A6,6,0,0,1,133.91,163.11Z"/><path class="d" d="M83.48,120.11c-7.27,0-13.17-5.4-13.17-12.07S76.21,96,83.48,96"/><path class="d" d="M186.52,96c7.27,0,13.17,5.4,13.17,12.07s-5.89,12.07-13.17,12.07"/><path class="d" d="M134.64,32.11c-26,0-50.89,30-50.89,30l-0.3,58c0.8,27,23.54,50,51.48,50s50.48-23,51.48-50l-1-58S160.15,32.11,134.64,32.11Z"/><path class="e" d="M83.63,102.11c-29.71-68,59.2-95.25,83.28-66.73,21.76,10.73,29,32.23,19.19,66.73h-4v-22L159.65,52.19,125.42,86.61l-15.75-13.5-9.5,11.25L87.63,80.11v22h-4Z"/><path class="f" d="M124.08,140.4s10.92,4.22,21.83,0"/><polyline class="f" points="140.11 125.18 134.91 128.36 129.71 125.18"/><path class="f" d="M162.75,108.36c0,9.47-15.68,9.47-15.68,0"/><path class="f" d="M122.75,108.36c0,9.47-15.68,9.47-15.68,0"/><path class="c" d="M170.79,240.83V210.61"/><path class="c" d="M99.92,241.27V210.61"/><polygon class="a" points="144.81 195.15 142 192.41 142 173.41 142.38 173.51 148.77 176.13 150 176.63 150 200.41 149.73 200.09 146.23 196.56 144.81 195.15"/><path class="b" d="M150,188v1.68c-3,.64-5.77,1.4-7.54,1.91a2.67,2.67,0,0,0-.46.11v-1.81C144,189.32,147,188.59,150,188Z"/><path class="b" d="M150,181.94v1.67c-3,.64-5.77,1.41-7.54,1.92a2.67,2.67,0,0,0-.46.11v-1.81C144,183.3,147,182.55,150,181.94Z"/><path class="b" d="M148.71,176.13l1.29,0.49v1c-3,.65-5.76,1.42-7.54,1.93a2.67,2.67,0,0,0-.46.11V177.8C144,177.34,145.95,176.69,148.71,176.13Z"/><path class="b" d="M150,194v1.69c-1,.27-2.61.56-3.73,0.85l-1.4-1.41C146.34,194.76,148,194.36,150,194Z"/><path class="b" d="M150.06,200v0.36l-0.3-.31Z"/><path class="b" d="M142.23,173.41l0.27,0.11-0.27.08v-0.19Z"/><polygon class="a" points="119.16 202.28 119.2 202.28 119.08 202.41 119.08 202.34 119.15 202.28 119.16 202.28"/><path class="b" d="M120.35,178.1h0Z"/><path class="a" d="M126.27,195h0l-4.9,5h0c-0.74,0-1.33.24-2.33,0.34v-4.05c1.5-.16,2.82-0.36,4-0.58S125.24,195.24,126.27,195Z"/><path class="a" d="M127,176.79V181a61.44,61.44,0,0,1-8,1.36v-3.69l1.33-.51h0.16c1.81-.27,3.45-0.59,5-0.93Z"/><path class="a" d="M119.2,202.28l-0.12.13v-0.11h0.12Z"/><path class="a" d="M127,188.84V193a63.94,63.94,0,0,1-8,1.32v-4A59.92,59.92,0,0,0,127,188.84Z"/><path class="a" d="M127,182.81V187a65.24,65.24,0,0,1-8,1.35v-4A59.77,59.77,0,0,0,127,182.81Z"/><path class="b" d="M127,193v1.4l-0.67.59-0.08,0c-1,.24-2.07.48-3.24,0.69s-2.51.42-4,.58v-2A63.94,63.94,0,0,0,127,193Z"/><path class="b" d="M127,187v1.86a59.92,59.92,0,0,1-8,1.45v-2A65.24,65.24,0,0,0,127,187Z"/><path class="b" d="M127,181v1.86a59.77,59.77,0,0,1-8,1.46v-2A61.44,61.44,0,0,0,127,181Z"/><path class="b" d="M121.33,200l-2.17,2.23h0a0.31,0.31,0,0,0-.12,0v-2C120,200.24,120.59,200.16,121.33,200Z"/><path class="b" d="M127,175.41v1.39l-1.53.36c-1.54.35-3.17,0.68-5,.95l0,0Z"/><path class="c" d="M127.91,173.11v19l-7.83,8V176.34Z"/><path class="c" d="M149.83,176.34v23.78l-7.83-8v-19Z"/></svg>