<?xml version="1.0" standalone="no"?>
<!DOCTYPE svg PUBLIC "-//W3C//DTD SVG 1.1//EN" "http://www.w3.org/Graphics/SVG/1.1/DTD/svg11.dtd">
<svg width="100%" height="100%" viewBox="0 0 110 40" version="1.1" xmlns="http://www.w3.org/2000/svg" xmlns:xlink="http://www.w3.org/1999/xlink" xml:space="preserve" style="fill-rule:evenodd;clip-rule:evenodd;stroke-linejoin:round;stroke-miterlimit:1.41421;">
    <g>
        <g transform="matrix(1.00489,5.41499e-19,5.41499e-19,1.00268,-45.489,-80.8228)">
            <path d="M70.138,88.582L70.138,108.914L70.157,109.57L70.157,109.59L70.157,111.888L73.17,111.888L73.17,110.691L73.17,110.673L73.17,90.358L73.17,90.343L73.17,88.582L71.258,88.582L70.138,88.582Z" style="fill:white;fill-rule:nonzero;"/>
        </g>
        <g transform="matrix(1.00489,5.41499e-19,5.41499e-19,1.00268,-45.489,-80.8228)">
            <path d="M112.213,109.05C112.039,108.76 111.962,108.354 111.962,107.872C111.962,107.273 111.962,97.812 111.962,91.092L111.962,90.976L112.831,90.976L112.831,88.582L112.059,88.582L111.943,88.582L111.943,88.466L111.962,86.593L111.981,85.048L108.95,86.071L108.95,88.582L108.834,88.582L108.081,88.582L108.081,90.976L108.931,90.976L108.931,110.15C108.931,110.324 108.95,110.478 108.969,110.614C109.027,110.98 109.162,111.251 109.355,111.444C109.626,111.714 109.973,111.869 110.398,111.927C110.553,111.946 110.707,111.946 110.862,111.927C110.919,111.927 110.977,111.927 111.055,111.927C111.692,111.888 112.368,111.676 112.889,111.444L112.889,109.494C112.599,109.455 112.368,109.301 112.213,109.05Z" style="fill:white;fill-rule:nonzero;"/>
        </g>
        <g transform="matrix(1.00489,5.41499e-19,5.41499e-19,1.00268,-45.489,-80.8228)">
            <path d="M68.671,109.03L67.975,109.03L65.967,109.03L65.851,109.03L65.851,108.914L65.851,108.007L65.851,107.993L65.851,93.003L65.851,92.996L65.851,85.048L65.851,84.585L62.511,84.585L62.511,111.888L69.906,111.888L69.906,109.899L69.906,109.494L69.906,109.478L69.906,109.03L68.683,109.03L68.671,109.03Z" style="fill:white;fill-rule:nonzero;"/>
        </g>
        <g transform="matrix(1.00489,5.41499e-19,5.41499e-19,1.00268,-45.489,-80.8228)">
            <path d="M105.687,88.987C104.972,88.466 104.045,88.253 103.176,88.253L103.041,88.253C102.462,88.253 101.844,88.35 101.284,88.582C101.226,88.601 101.188,88.62 101.149,88.64C101.11,88.659 101.072,88.678 101.033,88.697C100.859,88.775 100.705,88.871 100.55,88.987C100.145,89.296 99.797,89.702 99.585,90.242C99.488,90.513 99.411,90.822 99.372,91.169C99.353,91.227 99.353,91.266 99.353,91.324L99.353,95.166L102.23,95.166L102.23,91.652C102.23,91.073 102.655,90.725 103.099,90.706C103.312,90.706 103.524,90.783 103.698,90.937C103.872,91.092 103.968,91.343 103.968,91.652L103.968,96.112L103.91,96.151C103.621,96.325 103.35,96.498 103.099,96.653C101.96,97.367 101.072,97.889 100.454,98.449C99.932,98.912 99.604,99.395 99.45,100.032C99.392,100.322 99.353,100.65 99.353,101.017L99.353,109.764C99.353,110.034 99.392,110.285 99.45,110.498C99.662,111.289 100.222,111.791 100.898,111.946C100.975,111.965 101.052,111.985 101.13,112.004C101.96,112.1 102.945,111.714 103.756,110.71L103.968,110.44L103.968,111.791L106.884,111.791L106.884,91.575C106.884,90.532 106.536,89.798 106.015,89.277C105.918,89.161 105.802,89.064 105.687,88.987ZM104.103,99.009L104.103,108.721C104.103,109.359 103.659,109.783 103.176,109.783C102.694,109.783 102.25,109.359 102.25,108.721L102.25,101.113C102.25,99.878 103.427,99.24 103.698,99.067L103.929,98.912L104.103,98.796L104.103,99.009Z" style="fill:white;fill-rule:nonzero;"/>
        </g>
        <g transform="matrix(1.00489,5.41499e-19,5.41499e-19,1.00268,-45.489,-80.8228)">
            <path d="M81.164,88.485C80.855,88.408 80.507,88.427 80.198,88.504C79.561,88.678 78.962,89.2 78.673,89.991L78.441,89.953L78.441,88.432L78.441,88.427L78.441,85.009L78.441,84.585L75.178,84.585L75.178,85.048L75.159,89.586L75.159,111.791L78.422,111.791L78.422,110.575L78.422,110.556L78.654,110.536C78.905,111.772 79.947,112.294 80.951,112.004C81.955,111.714 82.96,110.556 83.017,108.316L83.017,91.903C83.017,90.706 82.747,89.856 82.322,89.296C81.994,88.852 81.589,88.601 81.164,88.485ZM80.179,108.721C80.179,109.378 79.716,109.803 79.233,109.803C78.731,109.803 78.287,109.378 78.287,108.721L78.287,91.787C78.287,91.13 78.75,90.706 79.233,90.706C79.716,90.725 80.179,91.13 80.179,91.787L80.179,108.721Z" style="fill:white;fill-rule:nonzero;"/>
        </g>
        <g transform="matrix(1.00489,5.41499e-19,5.41499e-19,1.00268,-45.489,-80.8228)">
            <path d="M89.409,87.018L91.108,85.009L91.282,84.816L88.907,84.816L87.825,87.018L89.409,87.018Z" style="fill:white;fill-rule:nonzero;"/>
        </g>
        <g transform="matrix(1.00489,5.41499e-19,5.41499e-19,1.00268,-45.489,-80.8228)">
            <path d="M89.505,102.755L89.505,108.702C89.505,109.301 89.081,109.629 88.656,109.629C88.443,109.629 88.212,109.552 88.057,109.397C87.883,109.243 87.787,108.992 87.787,108.702L87.787,100.071L87.787,99.955L92.402,99.955L92.402,91.729C92.402,90.648 92.054,89.895 91.514,89.373C91.417,89.277 91.32,89.18 91.205,89.103C90.876,88.852 90.49,88.678 90.104,88.562C89.641,88.427 89.158,88.369 88.694,88.369L88.559,88.369C88.366,88.369 88.154,88.389 87.961,88.408C87.285,88.485 86.609,88.698 86.068,89.103C85.373,89.605 84.89,90.416 84.871,91.633L84.871,108.548C84.871,108.856 84.89,109.146 84.948,109.397C85.122,110.208 85.528,110.787 86.068,111.212C86.165,111.289 86.261,111.347 86.358,111.425C87.034,111.83 87.825,112.023 88.559,112.023L88.694,112.023C89.544,112.023 90.471,111.791 91.185,111.232C91.9,110.672 92.402,109.822 92.402,108.567L92.402,103.604L92.402,102.755L89.776,102.755L89.505,102.755L89.505,102.755ZM87.652,98.178L87.652,98.063L87.652,97.908L87.652,91.729C87.652,91.401 87.768,91.13 87.961,90.937C88.154,90.764 88.405,90.667 88.656,90.667C89.158,90.686 89.66,91.092 89.66,91.748L89.66,98.198L89.544,98.198L89.409,98.198L87.903,98.178L87.768,98.178L87.652,98.178L87.652,98.178Z" style="fill:white;fill-rule:nonzero;"/>
        </g>
        <g transform="matrix(1.00489,5.41499e-19,5.41499e-19,1.00268,-45.489,-80.8228)">
            <path d="M100.396,88.794C100.512,88.698 100.647,88.62 100.782,88.543C100.01,88.099 99.392,88.099 98.89,88.331C98.407,88.543 98.04,88.968 97.75,89.431C97.673,89.528 97.615,89.644 97.557,89.76L97.422,90.011L97.345,89.74L97.326,89.682L97.326,89.663L97.326,89.644L97.326,89.431L97.326,88.582L94.062,88.582L94.062,111.753L94.043,111.753L94.043,111.83L97.326,111.83L97.326,91.285L97.326,91.246L97.345,91.227C97.519,90.937 97.693,90.744 97.905,90.648C98.117,90.551 98.349,90.571 98.561,90.648C98.755,90.706 98.948,90.841 99.141,90.995C99.179,90.609 99.295,90.281 99.43,89.972C99.662,89.47 99.99,89.084 100.396,88.794Z" style="fill:white;fill-rule:nonzero;"/>
        </g>
        <g transform="matrix(1.00489,5.41499e-19,5.41499e-19,1.00268,-45.489,-80.8228)">
            <rect x="70.099" y="84.585" width="3.07" height="2.723" style="fill:white;fill-rule:nonzero;"/>
        </g>
        <g transform="matrix(1.00489,5.41499e-19,5.41499e-19,1.00268,-45.489,-80.8228)">
            <rect x="114.279" y="88.582" width="2.974" height="23.21" style="fill:white;"/>
        </g>
        <g transform="matrix(1.00489,5.41499e-19,5.41499e-19,1.00268,-45.489,-80.8228)">
            <path d="M134.496,88.543C134.303,88.504 134.129,88.466 133.936,88.485C133.164,88.524 132.411,89.045 132.025,89.953C132.005,89.972 132.005,90.011 131.986,90.049L131.754,90.011L131.754,89.856L131.754,88.582L128.491,88.582L128.491,111.888L131.754,111.888L131.754,108.895L131.754,108.873L131.754,92.135L131.754,92.119L131.754,91.768C131.754,91.169 132.179,90.841 132.585,90.841C132.99,90.86 133.396,91.188 133.396,91.768L133.396,111.869L136.35,111.869L136.35,107.196L136.35,107.19L136.35,93.795L136.35,93.787L136.35,91.961C136.35,90.744 136.08,89.895 135.655,89.335C135.326,88.91 134.921,88.64 134.496,88.543Z" style="fill:white;fill-rule:nonzero;"/>
        </g>
        <g transform="matrix(1.00489,5.41499e-19,5.41499e-19,1.00268,-45.489,-80.8228)">
            <path d="M67.956,108.779L67.956,108.799L68.05,108.799L67.956,108.764L67.956,108.779Z" style="fill:white;fill-rule:nonzero;"/>
        </g>
        <g transform="matrix(1.00489,5.41499e-19,5.41499e-19,1.00268,-45.489,-80.8228)">
            <rect x="114.299" y="84.604" width="3.167" height="2.684" style="fill:white;fill-rule:nonzero;"/>
        </g>
        <g transform="matrix(1.00489,5.41499e-19,5.41499e-19,1.00268,-45.489,-80.8228)">
            <path d="M126.386,90.126C126.193,89.74 125.923,89.412 125.614,89.161C125.575,89.142 125.537,89.103 125.498,89.084C124.784,88.562 123.857,88.35 123.007,88.35L122.872,88.35C122.505,88.35 122.138,88.389 121.771,88.466C121.755,88.469 121.739,88.475 121.723,88.479C121.22,88.596 120.754,88.785 120.362,89.084C119.763,89.528 119.338,90.184 119.203,91.13C119.184,91.324 119.165,91.517 119.165,91.71L119.165,108.567C119.165,108.856 119.184,109.146 119.242,109.397C119.416,110.208 119.84,110.787 120.381,111.193C120.555,111.328 120.748,111.444 120.941,111.54C121.54,111.83 122.235,111.965 122.891,111.965L123.026,111.965C123.126,111.965 123.235,111.963 123.34,111.955C123.377,111.952 123.416,111.951 123.451,111.946C124.166,111.888 124.88,111.656 125.459,111.212C125.459,111.193 125.479,111.193 125.479,111.193C125.494,111.181 125.507,111.168 125.521,111.156C126.193,110.615 126.658,109.794 126.715,108.528L126.715,102.6L126.715,91.69C126.715,91.097 126.605,90.594 126.408,90.179C126.4,90.162 126.395,90.143 126.386,90.126ZM123.895,108.625C123.895,109.281 123.393,109.706 122.891,109.706C122.64,109.706 122.389,109.629 122.196,109.436C122.003,109.243 121.887,108.953 121.887,108.625L121.887,91.69C121.887,91.362 122.003,91.092 122.196,90.899C122.389,90.725 122.64,90.628 122.891,90.628C123.393,90.628 123.895,91.034 123.895,91.69L123.895,108.625Z" style="fill:white;fill-rule:nonzero;"/>
        </g>
        <g transform="matrix(1.00489,5.41499e-19,5.41499e-19,1.00268,-45.489,-80.8228)">
            <path d="M89.409,98.198L89.66,98.198L89.66,98.082L89.66,97.927L89.66,91.748C89.66,91.092 89.158,90.686 88.656,90.667C88.405,90.667 88.154,90.764 87.961,90.937C87.768,91.13 87.652,91.401 87.652,91.729L87.652,98.178L87.903,98.178L89.409,98.198Z" style="fill:rgb(1,1,1);fill-rule:nonzero;"/>
        </g>
        <g transform="matrix(1.00489,5.41499e-19,5.41499e-19,1.00268,-45.489,-80.8228)">
            <path d="M138.3,94.49L138.3,93.061C138.281,90.86 137.238,89.682 136.06,89.412C136.022,89.412 136.002,89.393 135.964,89.393C135.597,88.813 135.095,88.466 134.573,88.331C134.4,88.292 134.207,88.273 134.033,88.273C133.241,88.292 132.488,88.775 132.025,89.586L132.025,88.466L132.025,88.35L131.909,88.35L128.414,88.35L128.298,88.35L128.298,90.899C128.298,90.879 128.298,90.879 128.279,90.86C128.278,90.859 128.277,90.858 128.277,90.857C128.065,90.395 127.776,90.029 127.39,89.76C126.985,89.47 126.502,89.296 125.961,89.238C125.846,89.122 125.73,89.026 125.614,88.929C124.861,88.369 123.876,88.138 122.988,88.138L122.853,88.138C122.37,88.138 121.849,88.215 121.367,88.35C121.367,88.35 121.366,88.35 121.366,88.35C120.96,88.485 120.555,88.659 120.207,88.91C119.763,89.238 119.416,89.663 119.184,90.223L119.184,89.431L119.184,89.277L119.165,89.277L119.165,88.543L119.184,88.543L119.184,88.389L119.184,87.558L119.184,87.539L119.184,85.473L119.184,85.318L119.029,85.318L117.697,85.318L117.697,84.488L117.697,84.372L117.581,84.372L114.183,84.372L114.067,84.372L114.067,85.801L112.194,86.496L112.194,85.029L112.194,85.021L112.194,84.874L112.194,84.72L112.039,84.778L111.77,84.867L111.75,84.874L108.795,85.878L108.718,85.898L108.718,88.35L107.965,88.35L107.849,88.35L107.849,90.011C107.791,89.972 107.733,89.933 107.695,89.895C107.309,89.624 106.845,89.451 106.382,89.335C106.208,89.122 106.015,88.949 105.802,88.794C105.049,88.234 104.065,88.022 103.157,88.022L103.022,88.022C102.365,88.022 101.67,88.138 101.033,88.427C100.145,87.887 99.392,87.848 98.793,88.138C98.253,88.389 97.866,88.871 97.557,89.373L97.557,88.485L97.557,88.369L97.442,88.369L93.927,88.369L93.811,88.369L93.811,90.86C93.599,90.532 93.348,90.262 93.058,90.049C92.711,89.798 92.305,89.605 91.9,89.489C91.726,89.277 91.533,89.103 91.32,88.929C90.992,88.678 90.625,88.504 90.22,88.389L92.633,85.241L92.827,85.009L92.518,85.009L91.417,85.009L91.61,84.778L91.765,84.585L91.514,84.585L89.081,84.585L89.055,84.585L88.81,84.585L88.733,84.585L88.694,84.643L88.66,84.728L88.656,84.739L87.517,87.095L87.439,87.269L88.501,87.269L88.057,88.176C87.304,88.253 86.532,88.466 85.914,88.929C85.296,89.373 84.832,90.049 84.678,90.995C84.62,90.822 84.543,90.648 84.446,90.493C84.079,89.875 83.558,89.489 82.998,89.354C82.863,89.315 82.747,89.296 82.612,89.296C82.245,88.736 81.762,88.389 81.241,88.273C80.893,88.195 80.546,88.195 80.218,88.292L80.218,87.809L80.218,87.788L80.218,85.164L80.218,85.009L80.063,85.009L78.692,85.009L78.692,84.469L78.692,84.353L78.576,84.353L75.062,84.353L74.946,84.353L74.946,85.048L73.401,85.048L73.401,84.469L73.401,84.353L73.286,84.353L69.984,84.353L69.868,84.353L69.868,87.539L71.239,87.539L71.239,88.35L70.003,88.35L69.887,88.35L69.887,108.799L68.05,108.799L67.995,108.799L67.956,108.799L67.956,108.779L67.956,108.764L67.956,92.233L67.956,92.231L67.956,85.203L67.956,85.067L67.821,85.067L66.064,85.067L66.064,84.488L66.064,84.372L62.279,84.372L62.279,112.139L63.669,112.139L63.669,113.298L80.179,113.298L80.179,113.239L80.179,113.143L80.179,112.506C80.565,113.047 81.183,113.375 81.859,113.413C82.149,113.433 82.438,113.394 82.728,113.317C83.79,113.008 84.736,111.965 84.89,110.131C85.122,110.672 85.47,111.116 85.895,111.444C86.088,111.598 86.281,111.714 86.493,111.83C86.686,112.158 86.957,112.429 87.285,112.641C88.115,113.22 89.254,113.413 90.143,113.413L90.162,113.413C90.181,113.413 91.243,113.491 92.305,113.143C92.846,112.969 93.367,112.68 93.773,112.197C93.811,112.158 93.831,112.12 93.869,112.081L94.603,112.081L94.603,113.298L99.45,113.298L99.45,113.143L99.45,111.135C99.759,111.695 100.261,112.062 100.84,112.216C100.975,112.255 101.11,112.274 101.245,112.274C101.554,112.815 102.056,113.201 102.655,113.375C102.906,113.452 103.157,113.471 103.427,113.452C104.142,113.413 104.876,113.066 105.532,112.39L105.532,113.317L108.989,113.317L108.989,113.162L108.989,111.367C109.046,111.483 109.124,111.579 109.201,111.656C109.51,111.985 109.935,112.158 110.379,112.216C110.553,112.236 110.746,112.255 110.939,112.255C111.055,112.545 111.209,112.776 111.402,112.969C111.808,113.336 112.348,113.491 112.966,113.491C113.758,113.491 114.685,113.22 115.554,112.854L115.554,113.317L119.222,113.317L119.222,113.105L119.222,110.131C119.454,110.652 119.802,111.058 120.227,111.367C120.516,111.579 120.844,111.753 121.173,111.888C121.362,112.134 121.57,112.342 121.814,112.514C121.819,112.517 121.824,112.522 121.829,112.525L121.849,112.545C122.679,113.162 123.779,113.433 124.899,113.491C125.286,113.51 126,113.529 126.734,113.336C127.41,113.162 128.105,112.796 128.51,112.1L129.572,112.1L129.572,113.24L138.3,113.24L138.3,113.105L138.3,106.501L138.3,106.475L138.3,94.494L138.3,94.49L138.3,94.49ZM69.906,109.478L69.906,111.888L63.669,111.888L62.511,111.888L62.511,106.79L62.511,106.77L62.511,94.22L62.511,94.207L62.511,84.585L65.851,84.585L65.851,109.03L69.906,109.03L69.906,109.478ZM73.17,90.343L73.17,111.888L70.157,111.888L70.157,109.899L70.157,109.59L70.157,109.57L70.138,108.914L70.138,108.799L70.138,91.459L70.138,91.442L70.138,88.582L73.17,88.582L73.17,90.343ZM73.17,85.048L73.17,87.307L71.239,87.307L70.099,87.307L70.099,84.585L73.17,84.585L73.17,85.048ZM83.017,108.316C82.96,110.556 81.955,111.714 80.951,112.004C79.947,112.294 78.905,111.772 78.654,110.536L78.422,110.556L78.422,111.791L76.225,111.791L76.201,111.791L75.159,111.791L75.159,111.405L75.159,111.401L75.159,89.622L75.159,89.586L75.178,85.048L75.178,84.585L78.441,84.585L78.441,89.953L78.673,89.991C78.962,89.2 79.561,88.678 80.198,88.504C80.507,88.427 80.855,88.408 81.164,88.485C81.589,88.601 81.994,88.852 82.322,89.296C82.747,89.856 83.017,90.706 83.017,91.903L83.017,108.316ZM87.825,87.018L88.907,84.816L91.282,84.816L91.108,85.009L89.409,87.018L88.617,87.018L87.825,87.018ZM92.402,103.604L92.402,108.567C92.402,109.822 91.9,110.672 91.185,111.232C90.471,111.791 89.544,112.023 88.694,112.023L88.559,112.023C87.825,112.023 87.034,111.83 86.358,111.425C86.261,111.347 86.165,111.289 86.068,111.212C85.528,110.787 85.122,110.208 84.948,109.397C84.89,109.146 84.871,108.856 84.871,108.548L84.871,91.71C84.871,91.69 84.871,91.652 84.871,91.633C84.89,90.416 85.373,89.605 86.068,89.103C86.609,88.698 87.285,88.485 87.961,88.408C88.154,88.389 88.366,88.369 88.559,88.369L88.694,88.369C89.158,88.369 89.641,88.427 90.104,88.562C90.49,88.678 90.876,88.852 91.205,89.103C91.32,89.18 91.417,89.277 91.514,89.373C92.054,89.895 92.402,90.648 92.402,91.729L92.402,99.955L87.903,99.955L87.787,99.955L87.787,108.702C87.787,108.992 87.883,109.243 88.057,109.397C88.212,109.552 88.443,109.629 88.656,109.629C89.081,109.629 89.505,109.301 89.505,108.702L89.505,102.755L92.402,102.755L92.402,103.604ZM93.811,103.604L92.614,103.604L92.614,102.639L92.614,102.523L92.498,102.523L89.756,102.523L89.756,101.345L93.811,101.345L93.811,103.604ZM99.141,90.995C98.948,90.841 98.755,90.706 98.561,90.648C98.349,90.571 98.117,90.551 97.905,90.648C97.693,90.744 97.519,90.937 97.345,91.227L97.326,91.246L97.326,111.83L94.584,111.83L94.043,111.83L94.043,111.753L94.062,111.753L94.062,103.604L94.062,101.345L94.062,91.285L94.062,88.582L97.326,88.582L97.326,89.682L97.345,89.74L97.422,90.011L97.557,89.76C97.615,89.644 97.673,89.528 97.75,89.431C98.04,88.968 98.407,88.543 98.89,88.331C99.392,88.099 100.01,88.099 100.782,88.543C100.647,88.62 100.512,88.698 100.396,88.794C99.99,89.084 99.662,89.47 99.43,89.972C99.295,90.281 99.179,90.609 99.141,90.995ZM106.884,111.791L103.968,111.791L103.968,110.768L103.968,110.44L103.756,110.71C102.945,111.714 101.96,112.1 101.13,112.004C101.052,111.985 100.975,111.965 100.898,111.946C100.222,111.791 99.662,111.289 99.45,110.498C99.392,110.285 99.353,110.034 99.353,109.764L99.353,108.412L99.353,101.017C99.353,100.65 99.392,100.322 99.45,100.032C99.604,99.395 99.932,98.912 100.454,98.449C101.072,97.889 101.96,97.367 103.099,96.653C103.35,96.498 103.621,96.325 103.91,96.151L103.968,96.112L103.968,96.054L103.968,91.652C103.968,91.343 103.872,91.092 103.698,90.937C103.524,90.783 103.312,90.706 103.099,90.706C102.655,90.725 102.23,91.073 102.23,91.652L102.23,95.166L100.937,95.166L99.45,95.166L99.353,95.166L99.353,91.575L99.353,91.324C99.353,91.266 99.353,91.227 99.372,91.169C99.411,90.822 99.488,90.513 99.585,90.242C99.797,89.702 100.145,89.296 100.55,88.987C100.705,88.871 100.859,88.775 101.033,88.697C101.072,88.678 101.11,88.659 101.149,88.64C101.188,88.62 101.226,88.601 101.284,88.582C101.844,88.35 102.462,88.253 103.041,88.253L103.176,88.253C104.045,88.253 104.972,88.466 105.687,88.987C105.802,89.064 105.918,89.161 106.015,89.277C106.536,89.798 106.884,90.532 106.884,91.575L106.884,111.791L106.884,111.791ZM101.091,96.634L102.655,96.634C101.67,97.232 100.879,97.734 100.299,98.256C99.932,98.584 99.662,98.951 99.45,99.356L99.45,95.398L100.937,95.398L100.937,96.634L101.091,96.634ZM112.889,111.444C112.368,111.676 111.692,111.888 111.055,111.927C110.977,111.927 110.919,111.927 110.862,111.927C110.707,111.946 110.553,111.946 110.398,111.927C109.973,111.869 109.626,111.714 109.355,111.444C109.162,111.251 109.027,110.98 108.969,110.614C108.95,110.478 108.931,110.324 108.931,110.15L108.931,91.092L108.931,90.976L108.815,90.976L108.602,90.976L108.081,90.976L108.081,90.204L108.081,88.582L108.95,88.582L108.95,88.466C108.95,87.076 108.95,86.129 108.95,86.071L111.981,85.048L111.962,86.593L111.943,88.466L111.943,88.582L112.831,88.582L112.831,90.976L112.078,90.976L111.962,90.976L111.962,107.872C111.962,108.354 112.039,108.76 112.213,109.05C112.368,109.301 112.599,109.455 112.889,109.494L112.889,111.444ZM117.253,111.791L114.279,111.791L114.279,88.582L117.253,88.582L117.253,111.791ZM117.465,85.318L117.465,87.288L114.299,87.288L114.299,85.785L114.299,85.782L114.299,85.705L114.299,84.604L117.465,84.604L117.465,85.318ZM126.715,102.6L126.715,108.528C126.658,109.794 126.193,110.615 125.521,111.156C125.507,111.168 125.494,111.181 125.479,111.193C125.479,111.193 125.459,111.193 125.459,111.212C124.88,111.656 124.166,111.888 123.451,111.946C123.416,111.951 123.377,111.952 123.34,111.955C123.235,111.963 123.126,111.965 123.026,111.965L122.891,111.965C122.235,111.965 121.54,111.83 120.941,111.54C120.748,111.444 120.555,111.328 120.381,111.193C119.84,110.787 119.416,110.208 119.242,109.397C119.184,109.146 119.165,108.856 119.165,108.567L119.165,91.71C119.165,91.517 119.184,91.324 119.203,91.13C119.338,90.184 119.763,89.528 120.362,89.084C120.754,88.785 121.22,88.596 121.723,88.479C121.739,88.475 121.755,88.469 121.771,88.466C122.138,88.389 122.505,88.35 122.872,88.35L123.007,88.35C123.857,88.35 124.784,88.562 125.498,89.084C125.537,89.103 125.575,89.142 125.614,89.161C125.923,89.412 126.193,89.74 126.386,90.126C126.395,90.143 126.4,90.162 126.408,90.179C126.605,90.594 126.715,91.097 126.715,91.69L126.715,102.6ZM136.35,93.787L136.35,111.869L133.396,111.869L133.396,108.277L133.396,108.272L133.396,92.733L133.396,92.714L133.396,91.768C133.396,91.188 132.99,90.86 132.585,90.841C132.179,90.841 131.754,91.169 131.754,91.768L131.754,111.888L129.534,111.888L128.607,111.888L128.491,111.888L128.491,110.092L128.491,110.068L128.491,91.671L128.491,90.937L128.491,90.935L128.491,88.582L131.754,88.582L131.754,90.011L131.986,90.049C132.005,90.011 132.005,89.972 132.025,89.953C132.411,89.045 133.164,88.524 133.936,88.485C134.129,88.466 134.303,88.504 134.496,88.543C134.921,88.64 135.326,88.91 135.655,89.335C136.08,89.895 136.35,90.744 136.35,91.961L136.35,93.787Z" style="fill:rgb(1,1,1);fill-rule:nonzero;"/>
        </g>
        <g transform="matrix(1.00489,5.41499e-19,5.41499e-19,1.00268,-45.489,-80.8228)">
            <path d="M79.233,90.706C78.75,90.706 78.287,91.13 78.287,91.787L78.287,108.721C78.287,109.378 78.731,109.803 79.233,109.803C79.716,109.803 80.179,109.378 80.179,108.721L80.179,91.787C80.179,91.13 79.716,90.725 79.233,90.706Z" style="fill:rgb(1,1,1);fill-rule:nonzero;"/>
        </g>
        <g transform="matrix(1.00489,5.41499e-19,5.41499e-19,1.00268,-45.489,-80.8228)">
            <path d="M122.891,90.628C122.64,90.628 122.389,90.725 122.196,90.899C122.003,91.092 121.887,91.362 121.887,91.69L121.887,108.625C121.887,108.953 122.003,109.243 122.196,109.436C122.389,109.629 122.64,109.706 122.891,109.706C123.393,109.706 123.895,109.281 123.895,108.625L123.895,91.69C123.895,91.034 123.393,90.628 122.891,90.628Z" style="fill:rgb(1,1,1);fill-rule:nonzero;"/>
        </g>
        <g transform="matrix(1.00489,5.41499e-19,5.41499e-19,1.00268,-45.489,-80.8228)">
            <path d="M103.698,99.067C103.427,99.24 102.25,99.878 102.25,101.113L102.25,108.721C102.25,109.359 102.694,109.783 103.176,109.783C103.659,109.783 104.103,109.359 104.103,108.721L104.103,99.298L104.103,99.009L104.103,98.796L103.929,98.912L103.698,99.067Z" style="fill:rgb(1,1,1);fill-rule:nonzero;"/>
        </g>
        <g transform="matrix(1.00489,5.41499e-19,5.41499e-19,1.00268,-45.489,-80.8228)">
            <path d="M91.514,84.585L91.765,84.585L91.61,84.778L91.417,85.009L92.827,85.009L92.633,85.241L90.22,88.389C90.625,88.504 90.992,88.678 91.32,88.929C91.533,89.103 91.726,89.277 91.9,89.489C92.305,89.605 92.711,89.798 93.058,90.049C93.348,90.262 93.599,90.532 93.811,90.86L93.811,88.485L93.811,88.369L97.557,88.369L97.557,89.373C97.866,88.871 98.253,88.389 98.793,88.138C99.392,87.848 100.145,87.887 101.033,88.427C101.67,88.138 102.365,88.022 103.022,88.022L103.157,88.022C104.065,88.022 105.049,88.234 105.802,88.794C106.015,88.949 106.208,89.122 106.382,89.335C106.845,89.451 107.309,89.624 107.695,89.895C107.733,89.933 107.791,89.972 107.849,90.011L107.849,88.466L107.849,88.35L108.718,88.35C108.718,86.998 108.718,85.975 108.718,85.975L108.718,85.898L108.795,85.878L111.75,84.874L111.77,84.867L100.029,80.607L89.055,84.585L91.514,84.585Z" style="fill:rgb(226,31,38);fill-rule:nonzero;"/>
        </g>
        <g transform="matrix(1.00489,5.41499e-19,5.41499e-19,1.00268,-45.489,-80.8228)">
            <path d="M138.3,106.475L154.732,100.457L138.3,94.494L138.3,106.475Z" style="fill:rgb(226,31,38);fill-rule:nonzero;"/>
        </g>
        <g transform="matrix(1.00489,5.41499e-19,5.41499e-19,1.00268,-45.489,-80.8228)">
            <path d="M80.218,88.292C80.546,88.195 80.893,88.195 81.241,88.273C81.762,88.389 82.245,88.736 82.612,89.296C82.747,89.296 82.863,89.315 82.998,89.354C83.558,89.489 84.079,89.875 84.446,90.493C84.543,90.648 84.62,90.822 84.678,90.995C84.832,90.049 85.296,89.373 85.914,88.929C86.532,88.466 87.304,88.253 88.057,88.176L88.501,87.269L87.632,87.269L87.439,87.269L87.517,87.095L88.656,84.739L88.66,84.728L80.218,87.788L80.218,88.292Z" style="fill:rgb(226,31,38);fill-rule:nonzero;"/>
        </g>
        <g transform="matrix(1.00489,5.41499e-19,5.41499e-19,1.00268,-45.489,-80.8228)">
            <path d="M112.194,86.496L114.067,85.801L114.067,85.705L114.067,85.701L112.194,85.021L112.194,86.496Z" style="fill:rgb(226,31,38);fill-rule:nonzero;"/>
        </g>
        <g transform="matrix(1.00489,5.41499e-19,5.41499e-19,1.00268,-45.489,-80.8228)">
            <path d="M119.184,88.543L119.165,88.543L119.165,89.277L119.184,89.277L119.184,90.223C119.416,89.663 119.763,89.238 120.207,88.91C120.555,88.659 120.96,88.485 121.366,88.35C121.366,88.35 121.367,88.35 121.367,88.35L119.184,87.558L119.184,88.543Z" style="fill:rgb(226,31,38);fill-rule:nonzero;"/>
        </g>
        <g transform="matrix(1.00489,5.41499e-19,5.41499e-19,1.00268,-45.489,-80.8228)">
            <path d="M100.937,95.398L99.45,95.398L99.45,99.356C99.662,98.951 99.932,98.584 100.299,98.256C100.879,97.734 101.67,97.232 102.655,96.634L101.091,96.634L100.937,96.634L100.937,96.498L100.937,95.398L100.937,95.398Z" style="fill:rgb(226,31,38);fill-rule:nonzero;"/>
        </g>
        <g transform="matrix(1.00489,5.41499e-19,5.41499e-19,1.00268,-45.489,-80.8228)">
            <path d="M89.756,102.523L92.614,102.523L92.614,103.604L93.811,103.604L93.811,101.345L89.756,101.345L89.756,102.523Z" style="fill:rgb(226,31,38);fill-rule:nonzero;"/>
        </g>
        <g transform="matrix(1.00489,5.41499e-19,5.41499e-19,1.00268,-45.489,-80.8228)">
            <path d="M62.279,94.291L45.268,100.457L62.279,106.685L62.279,94.317L62.279,94.291Z" style="fill:rgb(226,31,38);fill-rule:nonzero;"/>
        </g>
        <g transform="matrix(1.00489,5.41499e-19,5.41499e-19,1.00268,-45.489,-80.8228)">
            <path d="M121.173,111.888C120.844,111.753 120.516,111.579 120.227,111.367C119.802,111.058 119.454,110.652 119.222,110.131L119.222,113.317L119.087,113.317L115.689,113.317L115.554,113.317L115.554,113.162L115.554,112.854C114.685,113.22 113.758,113.491 112.966,113.491C112.348,113.491 111.808,113.336 111.402,112.969C111.209,112.776 111.055,112.545 110.939,112.255C110.746,112.255 110.553,112.236 110.379,112.216C109.935,112.158 109.51,111.985 109.201,111.656C109.124,111.579 109.046,111.483 108.989,111.367L108.989,113.317L108.834,113.317L105.687,113.317L105.532,113.317L105.532,113.162L105.532,112.39C104.876,113.066 104.142,113.413 103.427,113.452C103.157,113.471 102.906,113.452 102.655,113.375C102.056,113.201 101.554,112.815 101.245,112.274C101.11,112.274 100.975,112.255 100.84,112.216C100.261,112.062 99.759,111.695 99.45,111.135L99.45,113.298L99.295,113.298L94.738,113.298L94.603,113.298L94.603,113.143L94.603,112.081L93.947,112.081L93.869,112.081C93.831,112.12 93.811,112.158 93.773,112.197C93.367,112.68 92.846,112.969 92.305,113.143C91.243,113.491 90.181,113.413 90.162,113.413L90.143,113.413C89.254,113.413 88.115,113.22 87.285,112.641C86.957,112.429 86.686,112.158 86.493,111.83C86.281,111.714 86.088,111.598 85.895,111.444C85.47,111.116 85.122,110.672 84.89,110.131C84.736,111.965 83.79,113.008 82.728,113.317C82.438,113.394 82.149,113.433 81.859,113.413C81.183,113.375 80.565,113.047 80.179,112.506L80.179,113.239L100.01,120.5L121.814,112.514C121.57,112.342 121.362,112.134 121.173,111.888Z" style="fill:rgb(226,31,38);fill-rule:nonzero;"/>
        </g>
        <g transform="matrix(1.00489,5.41499e-19,5.41499e-19,1.00268,-45.489,-80.8228)">
            <path d="M68.05,108.799L69.887,108.799L69.887,91.536L69.887,91.533L67.956,92.233L67.956,108.764L68.05,108.799Z" style="fill:rgb(226,31,38);fill-rule:nonzero;"/>
        </g>
    </g>
</svg>
