<?xml version="1.0" standalone="no"?>
<!DOCTYPE svg PUBLIC "-//W3C//DTD SVG 1.1//EN" "http://www.w3.org/Graphics/SVG/1.1/DTD/svg11.dtd">
<svg width="100%" height="100%" viewBox="0 0 46 33" version="1.1" xmlns="http://www.w3.org/2000/svg" xmlns:xlink="http://www.w3.org/1999/xlink" xml:space="preserve" style="fill-rule:evenodd;clip-rule:evenodd;stroke-linejoin:round;stroke-miterlimit:1.41421;">
    <g>
        <g transform="matrix(0.994819,-1.26896e-18,-1.26896e-18,1,-76.5248,-83.6666)">
            <path d="M87.326,92.076L87.326,97.857C89.392,97.921 90.426,97.055 90.426,94.869C90.426,92.724 89.328,92.076 87.326,92.076Z" style="fill:rgb(235,41,42);fill-rule:nonzero;"/>
        </g>
        <g transform="matrix(0.994819,-1.26896e-18,-1.26896e-18,1,-76.5248,-83.6666)">
            <path d="M76.923,83.667L76.923,116.667L123.163,116.667L123.163,83.667L76.923,83.667ZM108.119,92.596L104.051,92.596L104.051,112.472L98.692,112.472L98.683,92.595L95.183,92.595C95.353,93.223 95.398,93.741 95.398,94.284C95.398,97.532 93.46,99.741 91.976,99.805C93.46,99.805 95.463,101.686 95.463,104.415C95.463,104.481 95.463,109.809 95.463,109.809C95.527,110.716 95.657,111.303 96.56,112.472L91.458,112.472C90.877,112.015 90.425,111.172 90.425,110.067C90.425,108.964 90.425,103.639 90.425,103.639C90.425,101.947 89.003,101.169 87.26,101.429L87.26,112.473L81.835,112.473L81.835,88.179L89.972,88.179C92.237,88.215 93.609,89.335 94.431,90.793L94.43,88.179L108.119,88.179L108.119,92.596ZM118.491,112.451L108.608,112.451L108.605,88.175L113.842,88.176L113.84,108.293L118.491,108.293L118.491,112.451Z" style="fill:rgb(235,41,42);fill-rule:nonzero;"/>
        </g>
        <g transform="matrix(0.994819,-1.26896e-18,-1.26896e-18,1,-76.5248,-83.6666)">
            <path d="M113.842,88.176L108.605,88.175L108.608,112.451L118.491,112.451L118.491,108.293L113.84,108.293L113.842,88.176Z" style="fill:white;fill-rule:nonzero;"/>
        </g>
        <g transform="matrix(0.994819,-1.26896e-18,-1.26896e-18,1,-76.5248,-83.6666)">
            <path d="M94.431,90.793C93.609,89.335 92.237,88.215 89.972,88.179L81.835,88.179L81.835,112.473L87.26,112.473L87.26,101.429C89.003,101.169 90.425,101.947 90.425,103.639C90.425,103.639 90.425,108.964 90.425,110.067C90.425,111.172 90.877,112.015 91.458,112.472L96.56,112.472C95.657,111.303 95.527,110.716 95.463,109.809C95.463,109.809 95.463,104.481 95.463,104.415C95.463,101.686 93.46,99.805 91.976,99.805C93.46,99.741 95.398,97.532 95.398,94.284C95.398,93.741 95.353,93.223 95.183,92.595L98.683,92.595L98.692,112.472L104.051,112.472L104.051,92.596L108.119,92.596L108.119,88.179L94.43,88.179L94.431,90.793ZM87.326,97.857L87.326,95.583L87.326,92.076C89.328,92.076 90.426,92.724 90.426,94.869C90.426,97.055 89.392,97.921 87.326,97.857Z" style="fill:white;fill-rule:nonzero;"/>
        </g>
    </g>
</svg>
