<?xml version="1.0" encoding="utf-8"?>
<!-- Generator: Adobe Illustrator 19.2.1, SVG Export Plug-In . SVG Version: 6.00 Build 0)  -->
<svg version="1.1" id="Calque_1" xmlns="http://www.w3.org/2000/svg" xmlns:xlink="http://www.w3.org/1999/xlink" viewBox="0 0 300 300" xml:space="preserve">
		<path style="fill:none;stroke:currentColor;stroke-width:4;stroke-linecap:round;stroke-linejoin:round;stroke-miterlimit:10;" d="M57.5326271,211.8811035c-2.2726517,5.2076569-3.5414848,10.95401-3.5414848,17.0001831
			c0,23.5161591,19.0636215,42.5797729,42.5797806,42.5797729c23.5161133,0,42.5797424-19.0636139,42.5797424-42.5797729
			c0-4.4266357-0.6759338-8.6948242-1.9298248-12.7075653"/>
		<path style="fill:none;stroke:currentColor;stroke-width:4;stroke-linecap:round;stroke-linejoin:round;stroke-miterlimit:10;" d="M137.2208405,216.1737213c-4.4836578-14.3488159-16.3598099-25.4300537-31.1684952-28.7993774
			c-3.0504608-0.6940613-6.220787-1.0728455-9.4814224-1.0728455c-3.260643,0-6.4309692,0.3787842-9.4814682,1.0728455
			c-13.2935104,3.0245819-24.215847,12.2680511-29.5568275,24.5067596"/>
		<path style="fill:none;stroke:currentColor;stroke-width:4;stroke-linecap:round;stroke-linejoin:round;stroke-miterlimit:10;" d="M209.0006409,28.8999023l-58.8461914,20.8127708L91.3082275,28.8999023L32.4620438,49.7126732v171.0354004
			l25.0705833-8.8669739c5.3409805-12.2387085,16.2633171-21.4821777,29.5568275-24.5067596
			c-0.3374557-1.0030212-0.5281601-2.0733643-0.5281601-3.1901093c0-5.5281677,4.4814529-10.0096283,10.0096283-10.0096283
			c5.5281296,0,10.0095825,4.4814606,10.0095825,10.0096283c0,1.116745-0.1907043,2.187088-0.5281601,3.1901093
			c14.8086853,3.3693237,26.6848373,14.4505615,31.1684952,28.7993774l12.933609,4.5743561l58.8461914-20.8127747
			l58.8462219,20.8127747V49.7126732L209.0006409,28.8999023z"/>
		<path style="fill:none;stroke:currentColor;stroke-width:4;stroke-linecap:round;stroke-linejoin:round;stroke-miterlimit:10;" d="M106.0523453,187.3743439c0.3374557-1.0030212,0.5281601-2.0733643,0.5281601-3.1901093
			c0-5.5281677-4.4814529-10.0096283-10.0095825-10.0096283c-5.5281754,0-10.0096283,4.4814606-10.0096283,10.0096283
			c0,1.116745,0.1907043,2.187088,0.5281601,3.1901093c3.050499-0.6940613,6.2208252-1.0728455,9.4814682-1.0728455
			C99.8315582,186.3014984,103.0018845,186.6802826,106.0523453,187.3743439z"/>
	<path style="fill:none;stroke:currentColor;stroke-width:4;stroke-linecap:round;stroke-linejoin:round;stroke-miterlimit:10;" d="M226.1686554,94.250885l-9.013504-9.013504l9.013504-9.013504
		c1.3547058-1.3547058,1.3544769-3.5508347,0-4.905304c-1.3544617-1.3544693-3.5505981-1.3547134-4.905304,0l-9.013504,9.013504
		l-9.013504-9.013504c-1.3544617-1.3544693-3.5505981-1.3547134-4.905304,0c-1.3547058,1.3547058-1.3544769,3.5508347,0,4.905304
		l9.013504,9.013504l-9.013504,9.013504c-1.3547058,1.3547058-1.3544769,3.5508347,0,4.905304
		c1.3544617,1.3544693,3.5505981,1.3547134,4.905304,0l9.013504-9.0134964l9.013504,9.0134964
		c1.3544617,1.3544693,3.5505981,1.3547134,4.905304,0C227.5233612,97.8014832,227.5231323,95.6053543,226.1686554,94.250885z"/>
			<path style="fill:none;stroke:currentColor;stroke-width:4;stroke-linecap:round;stroke-linejoin:round;" d="M65.3555527,151.0536194c0,0,0.5788956-3.3301697,1.8789673-8.2865906"/>
			<path style="fill:none;stroke:currentColor;stroke-width:4;stroke-linecap:round;stroke-linejoin:round;stroke-dasharray:17.2886162,17.2886162;" d="M72.7204285,126.3899231c5.4607925-12.9740448,14.3072128-26.2177887,27.6677475-26.2177887
				c26.5346909,0,36.0732346,31.1103821,36.0732346,31.1103821s10.3479614,31.7376862,40.4073639,31.7376862
				c19.227478,0,28.2490997-21.0227966,32.3065796-36.7338409"/>
			<path style="fill:none;stroke:currentColor;stroke-width:4;stroke-linecap:round;stroke-linejoin:round;" d="M211.0323334,117.8379669c0.9235382-5.0428467,1.217514-8.4072723,1.217514-8.4072723"/>
		<line style="fill:none;stroke:currentColor;stroke-width:4;stroke-linecap:round;stroke-linejoin:round;stroke-miterlimit:10;" x1="96.5709" y1="260.1403503" x2="96.5709" y2="271.4610596"/>
		<line style="fill:none;stroke:currentColor;stroke-width:4;stroke-linecap:round;stroke-linejoin:round;stroke-miterlimit:10;" x1="96.5709" y1="186.4204865" x2="96.5709" y2="197.7411957"/>
		<line style="fill:none;stroke:currentColor;stroke-width:4;stroke-linecap:round;stroke-linejoin:round;stroke-miterlimit:10;" x1="65.3118591" y1="229.4176941" x2="53.9911423" y2="229.4176941"/>
		<line style="fill:none;stroke:currentColor;stroke-width:4;stroke-linecap:round;stroke-linejoin:round;stroke-miterlimit:10;" x1="139.1506653" y1="229.4176941" x2="127.8299408" y2="229.4176941"/>
	<polygon style="fill:none;stroke:currentColor;stroke-width:4;stroke-linecap:round;stroke-linejoin:round;stroke-miterlimit:10;" points="114.8958588,211.0927429 90.4749222,223.3217163 78.2459412,247.7426605 102.6668777,235.5136871 	"/>
	<line style="fill:none;stroke:currentColor;stroke-width:4;stroke-linecap:round;stroke-linejoin:round;stroke-miterlimit:10;" x1="90.4749222" y1="223.3217163" x2="102.6668777" y2="235.5136871"/>
</svg>
