<?xml version="1.0" encoding="utf-8"?>
<!-- Generator: Adobe Illustrator 19.2.1, SVG Export Plug-In . SVG Version: 6.00 Build 0)  -->
<svg version="1.1" xmlns="http://www.w3.org/2000/svg" xmlns:xlink="http://www.w3.org/1999/xlink" x="0px" y="0px"
	 viewBox="0 0 100 100" style="enable-background:new 0 0 100 100;" xml:space="preserve">
	<title>notifications</title>
	<polyline style="fill:none;stroke:currentColor;stroke-linecap:round;stroke-linejoin:round;" points="45.5,59.1 33,59.1 33,37.5 58.2,37.5 58.2,42.5 	"/>
	<rect x="35.8" y="41.8" style="fill:none;stroke:currentColor;stroke-linecap:round;stroke-linejoin:round;" width="3.8" height="4.1"/>
	<rect x="43.7" y="41.8" style="fill:none;stroke:currentColor;stroke-linecap:round;stroke-linejoin:round;" width="3.8" height="4.1"/>
	<polyline style="fill:none;stroke:currentColor;stroke-linecap:round;stroke-linejoin:round;" points="51.6,44.9 51.6,41.8 55.3,41.8 55.3,43.4 	"/>
	<polyline style="fill:none;stroke:currentColor;stroke-linecap:round;stroke-linejoin:round;" points="43.7,59.1 43.7,50.3 46.5,50.3 	"/>
	<line style="fill:none;stroke:currentColor;stroke-linecap:round;stroke-linejoin:round;" x1="34.4" y1="34.9" x2="56.7" y2="34.9"/>
	<path style="fill:none;stroke:#F7941E;stroke-linecap:round;stroke-linejoin:round;" d="M58.2,65.4c-5.5,0-9.9-4.4-9.9-9.9s4.4-9.9,9.9-9.9S68,50,68,55.5c0,0,0,0,0,0"/>
	<polyline style="fill:none;stroke:#F7941E;stroke-linecap:round;stroke-linejoin:round;" points="52.2,57.2 54.1,51.1 56.1,57.1 	"/>
	<polyline style="fill:none;stroke:#F7941E;stroke-linecap:round;stroke-linejoin:round;" points="60.3,57.2 62.2,51.1 64.2,57.1 	"/>
	<polyline style="fill:none;stroke:#F7941E;stroke-linecap:round;stroke-linejoin:round;" points="54.1,51.1 58.2,51.1 62.2,51.1 	"/>
	<line style="fill:none;stroke:#F7941E;stroke-linecap:round;stroke-linejoin:round;" x1="58.2" y1="61.5" x2="58.2" y2="51.1"/>
	<path style="fill:none;stroke:#F7941E;stroke-linecap:round;stroke-linejoin:round;" d="M64.2,57.3c0,1.1-0.9,2-2,2c-1.1,0-2-0.9-2-2"/>
	<path style="fill:none;stroke:#F7941E;stroke-linecap:round;stroke-linejoin:round;" d="M56.1,57.3c0,1.1-0.9,2-2,2c-1.1,0-2-0.9-2-2"/>
	<line style="fill:none;stroke:#F7941E;stroke-linecap:round;stroke-linejoin:round;" x1="56.8" y1="61.5" x2="59.8" y2="61.5"/>
</svg>
