<?xml version="1.0" encoding="utf-8"?>
<!-- Generator: Adobe Illustrator 19.2.1, SVG Export Plug-In . SVG Version: 6.00 Build 0)  -->
<svg version="1.1" xmlns="http://www.w3.org/2000/svg" xmlns:xlink="http://www.w3.org/1999/xlink" x="0px" y="0px"
	 viewBox="0 0 190 190" style="enable-background:new 0 0 190 190;" xml:space="preserve">
	<path d="M121.7,68c-6.8-12-19.7-20-34.4-20c-21.8,0-39.6,17.7-39.6,39.6c0,14.8,8.1,27.6,20.1,34.4
		c6.8,12,19.7,20,34.4,20c21.8,0,39.6-17.7,39.6-39.6C141.8,87.7,133.7,74.8,121.7,68z" style="fill-rule:evenodd;clip-rule:evenodd;fill:none;stroke:currentColor;stroke-width:2;stroke-miterlimit:10;"/>
	<path d="M67.9,122c-3.3-5.8-5.2-12.4-5.2-19.5c0-21.8,17.7-39.6,39.6-39.6c7.1,0,13.7,1.9,19.5,5.1" style="fill-rule:evenodd;clip-rule:evenodd;fill:none;stroke:currentColor;stroke-width:2;stroke-linecap:round;stroke-miterlimit:10;stroke-dasharray:9,10;"/>
</svg>
