<?xml version="1.0" standalone="no"?><!DOCTYPE svg PUBLIC "-//W3C//DTD SVG 1.1//EN" "http://www.w3.org/Graphics/SVG/1.1/DTD/svg11.dtd"><svg width="100%" height="100%" viewBox="0 0 60 60" version="1.1" xmlns="http://www.w3.org/2000/svg" xmlns:xlink="http://www.w3.org/1999/xlink" xml:space="preserve" style="fill-rule:evenodd;clip-rule:evenodd;stroke-linecap:round;stroke-linejoin:round;stroke-miterlimit:1.41421;"><path d="M54.086,8.804l0,11.562" style="fill:none;stroke-width:2px;stroke:currentColor;"/><path d="M57.94,8.804l0,12.525c0,1.59 -1.302,2.888 -2.89,2.888l-5.781,0c-1.59,0 -2.89,-1.298 -2.89,-2.888l0,-12.525" style="fill:none;stroke-width:2px;stroke:currentColor;"/><path d="M50.233,8.804l0,11.562" style="fill:none;stroke-width:2px;stroke:currentColor;"/><path d="M54.086,24.219l0,2.891c0,0.833 0.032,1.667 0.1,2.497l1.502,17.748c0.175,2.066 -1.455,3.841 -3.529,3.841c-2.073,0 -3.705,-1.775 -3.53,-3.841l1.504,-17.748c0.066,-0.83 0.1,-1.664 0.1,-2.497l0,-2.891" style="fill:none;stroke-width:2px;stroke:currentColor;"/><circle cx="23.256" cy="30" r="21.196" style="fill:none;stroke-width:2px;stroke:currentColor;"/><circle cx="23.255" cy="30" r="13.124" style="fill:none;stroke-width:2px;stroke:currentColor;"/></svg>