<svg xmlns="http://www.w3.org/2000/svg" viewBox="0 0 100 100"><path style="fill:none;stroke:currentColor;stroke-linecap:round;stroke-linejoin:round;stroke-miterlimit:10;" d="M58.19127,46.64879s2.516,0.911,2.516-1.975"/><path style="fill:none;stroke:currentColor;stroke-linecap:round;stroke-linejoin:round;stroke-miterlimit:10;" d="M50.264,46.3354a18.01563,18.01563,0,0,0-8.713-.138v-2.273a18.03282,18.03282,0,0,1,8.713.139v2.272Z"/><path style="fill:currentColor;" d="M35.59947,48.28139a0.9135,0.9135,0,1,1,.914.914,0.91371,0.91371,0,0,1-.914-0.914"/><circle style="fill:none;stroke:currentColor;stroke-linecap:round;stroke-linejoin:round;stroke-miterlimit:10;" cx="45.90755" cy="35.30679" r="2.161"/><path style="fill:none;stroke:currentColor;stroke-linecap:round;stroke-linejoin:round;stroke-miterlimit:10;" d="M60.255,74.2545a9.885,9.885,0,1,1,9.884-9.884"/><rect style="fill:none;stroke:currentColor;stroke-linecap:round;stroke-linejoin:round;stroke-miterlimit:10;" x="56.9977" y="59.74283" width="6.5147" height="10.40532" transform="translate(-16.62945 108.96096) rotate(-76.93612)"/><path style="fill:currentColor;" d="M65.04289,65.93773a0.73449,0.73449,0,0,1-.1709-0.01953l-9.0293-2.09473a0.75,0.75,0,1,1,.33984-1.46094l9.0293,2.09473A0.75,0.75,0,0,1,65.04289,65.93773Z"/><circle style="fill:none;stroke:currentColor;stroke-linecap:round;stroke-linejoin:round;stroke-miterlimit:10;opacity:0.3;" cx="45.90755" cy="27.90649" r="2.161"/><path style="fill:none;stroke:currentColor;stroke-linecap:round;stroke-linejoin:round;stroke-miterlimit:10;" d="M59.51823,51.72781c0.0097-.1637.02283-0.32678,0.02283-0.49219,0-5.89-6.228-10.664-13.909-10.664a17.06341,17.06341,0,0,0-7.162,1.528,6.27623,6.27623,0,0,0-3.492-2.679H31.972a8.78387,8.78387,0,0,1,2.881,5.097,10.45885,10.45885,0,0,0-2.205,2.918h-2.787v7.151h2.576a11.10882,11.10882,0,0,0,4.38,4.89606l-2.057,5.463h4.143l1.449-3.847a17.58989,17.58989,0,0,0,5.28.8,17.867,17.867,0,0,0,2.22064-.153"/></svg>
