<svg xmlns="http://www.w3.org/2000/svg" viewBox="0 0 100 100"><path style="fill:none;stroke-linecap:round;stroke-linejoin:round;stroke:currentColor;" d="M58.20262,39.81123s2.516,0.911,2.516-1.975"/><path style="fill:none;stroke-linecap:round;stroke-linejoin:round;stroke:currentColor;" d="M50.27531,39.49785a18.01563,18.01563,0,0,0-8.713-.138v-2.273a18.03282,18.03282,0,0,1,8.713.139v2.272Z"/><path style="fill:currentColor;" d="M35.61082,41.44383a0.9135,0.9135,0,1,1,.914.914,0.91371,0.91371,0,0,1-.914-0.914"/><path style="fill:none;stroke-linecap:round;stroke-linejoin:round;stroke:currentColor;" d="M59.52968,44.89026c0.0097-.1637.02283-0.32678,0.02283-0.49219,0-5.89-6.228-10.664-13.909-10.664a17.06341,17.06341,0,0,0-7.162,1.528,6.27623,6.27623,0,0,0-3.492-2.679h-3.006a8.78387,8.78387,0,0,1,2.881,5.097,10.45885,10.45885,0,0,0-2.205,2.918h-2.787v7.151h2.576a11.10881,11.10881,0,0,0,4.38,4.89606l-2.057,5.463h4.143l1.449-3.847a17.58989,17.58989,0,0,0,5.28.8,17.867,17.867,0,0,0,2.22064-.153"/><line style="fill:none;stroke-linecap:round;stroke-linejoin:round;stroke:#f7941e;" x1="63.66164" y1="54.11409" x2="56.90559" y2="60.87111"/><polyline style="fill:none;stroke-linecap:round;stroke-linejoin:round;stroke:#f7941e;" points="61.413 60.862 56.825 60.95 56.914 56.363"/><path style="fill:none;stroke-linecap:round;stroke-linejoin:round;stroke:#f7941e;" d="M60.24351,67.41695a9.885,9.885,0,1,1,9.884-9.884"/></svg>