<?xml version="1.0" encoding="utf-8"?>
<!-- Generator: Adobe Illustrator 19.2.1, SVG Export Plug-In . SVG Version: 6.00 Build 0)  -->
<svg version="1.1" id="Calque_1" xmlns="http://www.w3.org/2000/svg" xmlns:xlink="http://www.w3.org/1999/xlink" x="0px" y="0px"
	 viewBox="0 0 100 100" style="enable-background:new 0 0 100 100;" xml:space="preserve">
	<path style="fill:none;stroke:currentColor;stroke-linecap:round;stroke-linejoin:round;stroke-miterlimit:10;" d="M50,39.4000015C46.4000015,37.2000008,28.8999996,36.5,28.8999996,52.8000031
		c0,13.9000015,14.5000019,26.1999969,19.6999989,21.9000015C49,74.3000031,49.5,74.0000076,49.8999977,73.6000061
		c0.4000015,0.3000031,0.9000015,0.6999969,1.2999992,1.0999985c5.2000008,4.4000015,19.6999969-8,19.6999969-21.9000015
		C71.0999985,36.2999992,53.7000008,37.2000008,50,39.4000015z"/>
	<path style="fill:none;stroke:currentColor;stroke-linecap:round;stroke-linejoin:round;stroke-miterlimit:10;" d="M50.2000008,30.3000011c0,0,0.7000008,4.6000004-0.2000008,9.1000004"/>
	<path style="fill:none;stroke:currentColor;stroke-linecap:round;stroke-linejoin:round;stroke-miterlimit:10;" d="M46.7000008,26.6000004c0.5999985,0.6000004,2.7999992,2.8999996,3.5,3.7000008
		c1-1.7999992,2.5999985-3.5,4.5999985-4.6000004c4.0999985-2.1000004,11.2999992-1,11.6000023-0.5
		C64.5,32.2999992,53.9593582,33.9947929,50.4593582,34.294796"/>
	<path style="fill:none;stroke:currentColor;stroke-linecap:round;stroke-linejoin:round;stroke-miterlimit:10;" d="M55.9000015,71.4000015c2.5-1.0999985,5.2000008-3.4000015,7.2999992-6.5"/>
	<path style="fill:none;stroke:currentColor;stroke-linecap:round;stroke-linejoin:round;stroke-miterlimit:10;" d="M33.2999992,57.2999992C33.5,58.2000008,33.7999992,59.0999985,34.0999985,60"/>
	<path style="fill:none;stroke:currentColor;stroke-linecap:round;stroke-linejoin:round;stroke-miterlimit:10;" d="M41.5,42.2000008c-4.2999992,1-8.5999985,4.0999985-8.5999985,11.3999977"/>
</svg>
