<?xml version="1.0" encoding="utf-8"?>
<!-- Generator: Adobe Illustrator 19.2.1, SVG Export Plug-In . SVG Version: 6.00 Build 0)  -->
<svg version="1.1" id="Calque_1" xmlns="http://www.w3.org/2000/svg" xmlns:xlink="http://www.w3.org/1999/xlink" x="0px" y="0px"
	 viewBox="0 0 100 100" style="enable-background:new 0 0 100 100;" xml:space="preserve">
	<path d="M65.1029739,27.1931686c7.7635956,0,14.0585938,6.2919998,14.0585938,14.0566978" style="fill:none;stroke:currentColor;stroke-linecap:round;stroke-linejoin:round;stroke-miterlimit:10;"/>
	<path d="M65.1029739,31.6316681c5.3125,0,9.6171951,4.3065987,9.6171951,9.6181984" style="fill:none;stroke:currentColor;stroke-linecap:round;stroke-linejoin:round;stroke-miterlimit:10;"/>
	<path d="M65.1029739,36.0710678c2.8612976,0,5.1797104,2.3184013,5.1797104,5.1787987" style="fill:none;stroke:currentColor;stroke-linecap:round;stroke-linejoin:round;stroke-miterlimit:10;"/>
	<path d="M66.2064743,65.0623703c0,1.6561966-1.3437881,3-3.0000038,3H25.595171
		c-1.6581993,0-2.9999981-1.3438034-2.9999981-3V44.0808678c0-1.6571999,1.3417988-3,2.9999981-3h37.6112976
		c1.6562157,0,3.0000038,1.3428001,3.0000038,3V65.0623703z" style="fill:none;stroke:currentColor;stroke-linecap:round;stroke-linejoin:round;stroke-miterlimit:10;"/>
	<path d="M67.9564743,70.3757706c0,1.2587967-0.9356003,2.2802963-2.0899048,2.2802963H22.9330711
		c-1.1523857,0-2.0878983-1.0214996-2.0878983-2.2802963l0,0c0-1.2597046,0.9355125-2.2812042,2.0878983-2.2812042h42.9334984
		C67.020874,68.0945663,67.9564743,69.116066,67.9564743,70.3757706L67.9564743,70.3757706z" style="fill:none;stroke:currentColor;stroke-linecap:round;stroke-linejoin:round;stroke-miterlimit:10;"/>
	<polyline points="26.4955711,64.1619644 26.4955711,44.9812698 62.3060722,44.9812698 62.3060722,52.3943672" style="fill:none;stroke:currentColor;stroke-linecap:round;stroke-linejoin:round;stroke-miterlimit:10;"/>
</svg>
