<?xml version="1.0" encoding="utf-8"?>
<!-- Generator: Adobe Illustrator 19.2.1, SVG Export Plug-In . SVG Version: 6.00 Build 0)  -->
<svg version="1.1" id="Calque_1" xmlns="http://www.w3.org/2000/svg" xmlns:xlink="http://www.w3.org/1999/xlink" x="0px" y="0px"
	 viewBox="0 0 100 100" style="enable-background:new 0 0 100 100;" xml:space="preserve">
	<circle cx="38.253479" cy="66.6115723" r="3.2492976" style="fill-rule:evenodd;clip-rule:evenodd;fill:none;stroke:currentColor;stroke-linecap:round;stroke-linejoin:round;stroke-miterlimit:10;"/>
	<circle cx="61.7450981" cy="66.6115723" r="3.2497749" style="fill-rule:evenodd;clip-rule:evenodd;fill:none;stroke:currentColor;stroke-linecap:round;stroke-linejoin:round;stroke-miterlimit:10;"/>
	<path d="M69.6259995,67.8825989c0,3.9448013-3.3144989,7.1416016-7.4043007,7.1416016H37.7764015
		c-4.089901,0-7.402401-3.1968002-7.402401-7.1416016V35.4669991c0-3.9447994,3.3125-7.1415997,7.402401-7.1415997h24.4452972
		c4.0898018,0,7.4043007,3.1968002,7.4043007,7.1415997V67.8825989z" style="fill-rule:evenodd;clip-rule:evenodd;fill:none;stroke:currentColor;stroke-linecap:round;stroke-linejoin:round;stroke-miterlimit:10;"/>
	<line x1="30.3740005" y1="37.3746986" x2="69.6259995" y2="37.3746986" style="fill-rule:evenodd;clip-rule:evenodd;fill:none;stroke:currentColor;stroke-linecap:round;stroke-linejoin:round;stroke-miterlimit:10;"/>
	<line x1="30.3740005" y1="59.5373001" x2="69.6259995" y2="59.5373001" style="fill-rule:evenodd;clip-rule:evenodd;fill:none;stroke:currentColor;stroke-linecap:round;stroke-linejoin:round;stroke-miterlimit:10;"/>
	<line x1="39.4014015" y1="40.9459991" x2="35.0811005" y2="45.2639008" style="fill-rule:evenodd;clip-rule:evenodd;fill:none;stroke:currentColor;stroke-linecap:round;stroke-linejoin:round;stroke-miterlimit:10;"/>
	<line x1="65.0439987" y1="40.9459991" x2="60.7256012" y2="45.2639008" style="fill-rule:evenodd;clip-rule:evenodd;fill:none;stroke:currentColor;stroke-linecap:round;stroke-linejoin:round;stroke-miterlimit:10;"/>
	<line x1="40.5694008" y1="45.2336006" x2="35.0536995" y2="50.7501984" style="fill-rule:evenodd;clip-rule:evenodd;fill:none;stroke:currentColor;stroke-linecap:round;stroke-linejoin:round;stroke-miterlimit:10;"/>
	<line x1="44.8857994" y1="40.9161987" x2="43.0869102" y2="42.7160988" style="fill-rule:evenodd;clip-rule:evenodd;fill:none;stroke:currentColor;stroke-linecap:round;stroke-linejoin:round;stroke-miterlimit:10;"/>
	<path d="M54.4716988,59.5373001c0-2.4766006,2.0059013-4.483902,4.4844017-4.483902
				c2.4764977,0,4.4843979,2.0073013,4.4843979,4.483902" style="fill-rule:evenodd;clip-rule:evenodd;fill:none;stroke:currentColor;stroke-linecap:round;stroke-linejoin:round;stroke-miterlimit:10;"/>
	<path d="M41.8583984,28.3253994v-2.3890991c0-3.2084999,3.6465111-4.9087009,8.1406021-4.9087009
		c4.4960976,0,8.1406975,1.700201,8.1406975,4.9087009v2.3890991" style="fill-rule:evenodd;clip-rule:evenodd;fill:none;stroke:currentColor;stroke-linecap:round;stroke-linejoin:round;stroke-miterlimit:10;"/>
	<line x1="39.3369102" y1="75.0242004" x2="34.7119102" y2="78.9723969" style="fill-rule:evenodd;clip-rule:evenodd;fill:none;stroke:currentColor;stroke-linecap:round;stroke-linejoin:round;stroke-miterlimit:10;"/>
	<line x1="60.6612015" y1="75.0242004" x2="65.2862015" y2="78.9723969" style="fill-rule:evenodd;clip-rule:evenodd;fill:none;stroke:currentColor;stroke-linecap:round;stroke-linejoin:round;stroke-miterlimit:10;"/>
	<line x1="45.2080002" y1="32.976799" x2="54.7919998" y2="32.976799" style="fill-rule:evenodd;clip-rule:evenodd;fill:none;stroke:currentColor;stroke-linecap:round;stroke-linejoin:round;stroke-miterlimit:10;"/>
</svg>
